<?xml version="1.0" encoding="utf-8"?>
<!-- Generator: Adobe Illustrator 21.1.0, SVG Export Plug-In . SVG Version: 6.00 Build 0)  -->
<svg version="1.1" id="Layer_1" xmlns="http://www.w3.org/2000/svg" xmlns:xlink="http://www.w3.org/1999/xlink" x="0px" y="0px"
	 viewBox="0 0 198 156" style="enable-background:new 0 0 198 156;" xml:space="preserve">
<style type="text/css">
	.st0{fill:#FFFFFF;}
	.st1{opacity:0.1;}
	.st2{fill:url(#SVGID_1_);}
	.st3{fill:url(#SVGID_2_);}
	.st4{fill:url(#SVGID_3_);}
	.st5{fill:url(#SVGID_4_);}
</style>
<g id="Layer_3">
</g>
<g id="Layer_1_1_">
	<path class="st0" d="M0,91.2c0,3.3,2.4,6.1,5.6,6.7c33.7,6.1,71.2,8.9,90.7,17.1c1.7,0.7,3.6,0.7,5.3,0c20-8.4,57.3-11,90.8-17.1
		c3.3-0.6,5.6-3.4,5.6-6.7V0H0V91.2z"/>
	<g class="st1">
		
			<linearGradient id="SVGID_1_" gradientUnits="userSpaceOnUse" x1="99" y1="1686.3" x2="99" y2="1686.3" gradientTransform="matrix(1 0 0 1 0 -1570)">
			<stop  offset="0" style="stop-color:#ECECEC"/>
			<stop  offset="1" style="stop-color:#F5F5F5"/>
		</linearGradient>
		<path class="st2" d="M99,116.3L99,116.3L99,116.3z"/>
		
			<linearGradient id="SVGID_2_" gradientUnits="userSpaceOnUse" x1="99" y1="1686.3" x2="99" y2="1686.3" gradientTransform="matrix(1 0 0 1 0 -1570)">
			<stop  offset="0" style="stop-color:#ECECEC"/>
			<stop  offset="1" style="stop-color:#F5F5F5"/>
		</linearGradient>
		<path class="st3" d="M99,116.3L99,116.3L99,116.3z"/>
	</g>
	<g class="st1">
		
			<linearGradient id="SVGID_3_" gradientUnits="userSpaceOnUse" x1="-4388.8369" y1="1686.4" x2="-4388.8369" y2="1686.4" gradientTransform="matrix(-1 0 0 1 -4289.937 -1570)">
			<stop  offset="0" style="stop-color:#ECECEC"/>
			<stop  offset="1" style="stop-color:#F5F5F5"/>
		</linearGradient>
		<path class="st4" d="M98.9,116.4L98.9,116.4L98.9,116.4z"/>
		
			<linearGradient id="SVGID_4_" gradientUnits="userSpaceOnUse" x1="-4388.8369" y1="1686.4" x2="-4388.8369" y2="1686.4" gradientTransform="matrix(-1 0 0 1 -4289.937 -1570)">
			<stop  offset="0" style="stop-color:#ECECEC"/>
			<stop  offset="1" style="stop-color:#F5F5F5"/>
		</linearGradient>
		<path class="st5" d="M98.9,116.4L98.9,116.4L98.9,116.4z"/>
	</g>
</g>
<g id="Blanking">
</g>
</svg>
