<?xml version="1.0" encoding="utf-8"?>
<!-- Generator: Adobe Illustrator 21.1.0, SVG Export Plug-In . SVG Version: 6.00 Build 0)  -->
<svg version="1.1" id="Layer_1" xmlns="http://www.w3.org/2000/svg" xmlns:xlink="http://www.w3.org/1999/xlink" x="0px" y="0px"
	 viewBox="0 0 198 156" style="enable-background:new 0 0 198 156;" xml:space="preserve">
<style type="text/css">
	.st0{fill:#FFFFFF;}
	.st1{opacity:0.2;}
	.st2{fill:url(#SVGID_1_);}
	.st3{fill:url(#SVGID_2_);}
	.st4{fill:url(#SVGID_3_);}
	.st5{opacity:0.15;fill:url(#SVGID_4_);enable-background:new    ;}
	.st6{opacity:0.18;fill:url(#SVGID_5_);enable-background:new    ;}
	.st7{fill:url(#SVGID_6_);}
	.st8{fill:url(#SVGID_7_);}
	.st9{fill:url(#SVGID_8_);}
	.st10{opacity:0.15;fill:url(#SVGID_9_);enable-background:new    ;}
	.st11{opacity:0.18;fill:url(#SVGID_10_);enable-background:new    ;}
</style>
<g id="Layer_3">
</g>
<g id="Layer_1_1_">
	<path class="st0" d="M0,0v117c36.6,4.7,79.4,30.5,99,38.1c20.2-7.8,62.7-31.4,99-36.1V0H0z"/>
	<g class="st1">
		
			<linearGradient id="SVGID_1_" gradientUnits="userSpaceOnUse" x1="99" y1="2.7" x2="99" y2="2.7" gradientTransform="matrix(1 0 0 -1 0 158)">
			<stop  offset="0" style="stop-color:#ECECEC"/>
			<stop  offset="1" style="stop-color:#F5F5F5"/>
		</linearGradient>
		<path class="st2" d="M99,155.3L99,155.3L99,155.3z"/>
		
			<linearGradient id="SVGID_2_" gradientUnits="userSpaceOnUse" x1="-2.5276" y1="35.365" x2="101.4276" y2="17.035" gradientTransform="matrix(1 0 0 -1 0 158)">
			<stop  offset="0" style="stop-color:#ECECEC"/>
			<stop  offset="0.2787" style="stop-color:#F0F0F0"/>
			<stop  offset="1" style="stop-color:#F7F7F7"/>
		</linearGradient>
		<path class="st3" d="M0,108.3V122l0,0c36.6,4.7,79.4,25.8,98.9,33.3l0,0C66.4,130.5,29,116.2,0,108.3z"/>
		
			<linearGradient id="SVGID_3_" gradientUnits="userSpaceOnUse" x1="99" y1="2.7" x2="99" y2="2.7" gradientTransform="matrix(1 0 0 -1 0 158)">
			<stop  offset="0" style="stop-color:#ECECEC"/>
			<stop  offset="1" style="stop-color:#F5F5F5"/>
		</linearGradient>
		<path class="st4" d="M99,155.3L99,155.3L99,155.3z"/>
	</g>
	
		<linearGradient id="SVGID_4_" gradientUnits="userSpaceOnUse" x1="0" y1="38.25" x2="49" y2="38.25" gradientTransform="matrix(1 0 0 -1 0 158)">
		<stop  offset="0" style="stop-color:#6883C1"/>
		<stop  offset="1" style="stop-color:#B0B8DE"/>
	</linearGradient>
	<path class="st5" d="M0,108.3v6.4c14.6,3.3,31.5,10,49,16.5C34.8,121,6.6,110.3,0,108.3z"/>
	
		<linearGradient id="SVGID_5_" gradientUnits="userSpaceOnUse" x1="-0.7956" y1="43.8879" x2="34.7502" y2="37.6202" gradientTransform="matrix(1 0 0 -1 0 158)">
		<stop  offset="0" style="stop-color:#191D54"/>
		<stop  offset="0.1604" style="stop-color:#192A6B"/>
		<stop  offset="0.3607" style="stop-color:#193681"/>
		<stop  offset="0.5546" style="stop-color:#193E8E"/>
		<stop  offset="0.7329" style="stop-color:#194092"/>
	</linearGradient>
	<path class="st6" d="M0,109.6v7c10.1,2.3,21.3,4.2,34,8.3C23.5,118.1,11.6,113.8,0,109.6z"/>
	<g class="st1">
		
			<linearGradient id="SVGID_6_" gradientUnits="userSpaceOnUse" x1="-1996.837" y1="2.6" x2="-1996.837" y2="2.6" gradientTransform="matrix(-1 0 0 -1 -1897.937 158)">
			<stop  offset="0" style="stop-color:#ECECEC"/>
			<stop  offset="1" style="stop-color:#F5F5F5"/>
		</linearGradient>
		<path class="st7" d="M98.9,155.4L98.9,155.4L98.9,155.4z"/>
		
			<linearGradient id="SVGID_7_" gradientUnits="userSpaceOnUse" x1="-2098.4546" y1="35.4221" x2="-1994.3141" y2="17.0593" gradientTransform="matrix(-1 0 0 -1 -1897.937 158)">
			<stop  offset="0" style="stop-color:#ECECEC"/>
			<stop  offset="0.2787" style="stop-color:#F0F0F0"/>
			<stop  offset="1" style="stop-color:#F7F7F7"/>
		</linearGradient>
		<path class="st8" d="M198,108.3v11v2.7l0,0c-36.6,4.7-79.5,25.7-99,33.2l0,0C131.4,130.5,169,116.2,198,108.3z"/>
		
			<linearGradient id="SVGID_8_" gradientUnits="userSpaceOnUse" x1="-1996.837" y1="2.6" x2="-1996.837" y2="2.6" gradientTransform="matrix(-1 0 0 -1 -1897.937 158)">
			<stop  offset="0" style="stop-color:#ECECEC"/>
			<stop  offset="1" style="stop-color:#F5F5F5"/>
		</linearGradient>
		<path class="st9" d="M98.9,155.4L98.9,155.4L98.9,155.4z"/>
	</g>
	
		<linearGradient id="SVGID_9_" gradientUnits="userSpaceOnUse" x1="-2095.937" y1="38.3" x2="-2046.937" y2="38.3" gradientTransform="matrix(-1 0 0 -1 -1897.937 158)">
		<stop  offset="0" style="stop-color:#6883C1"/>
		<stop  offset="1" style="stop-color:#B0B8DE"/>
	</linearGradient>
	<path class="st10" d="M198,108.3v6.3c-14.8,3.3-31.6,10-49,16.5C163.1,121,191.3,110.3,198,108.3z"/>
	
		<linearGradient id="SVGID_10_" gradientUnits="userSpaceOnUse" x1="-2096.7341" y1="43.7793" x2="-2061.24" y2="37.5207" gradientTransform="matrix(-1 0 0 -1 -1897.937 158)">
		<stop  offset="0" style="stop-color:#191D54"/>
		<stop  offset="0.1604" style="stop-color:#192A6B"/>
		<stop  offset="0.3607" style="stop-color:#193681"/>
		<stop  offset="0.5546" style="stop-color:#193E8E"/>
		<stop  offset="0.7329" style="stop-color:#194092"/>
	</linearGradient>
	<path class="st11" d="M198,109.7v5c-10.5,2.4-21.9,6.4-33.9,10.3C174.6,118.1,186.4,113.8,198,109.7z"/>
</g>
<g id="Blanking">
</g>
</svg>
