<?xml version="1.0" encoding="utf-8"?>
<!-- Generator: Adobe Illustrator 21.1.0, SVG Export Plug-In . SVG Version: 6.00 Build 0)  -->
<svg version="1.1" id="Layer_1" xmlns="http://www.w3.org/2000/svg" xmlns:xlink="http://www.w3.org/1999/xlink" x="0px" y="0px"
	 viewBox="0 0 198 156" style="enable-background:new 0 0 198 156;" xml:space="preserve">
<style type="text/css">
	.st0{fill:#FFFFFF;}
	.st1{opacity:0.9;}
	.st2{fill:url(#SVGID_1_);}
	.st3{fill:url(#SVGID_2_);}
	.st4{fill:url(#SVGID_3_);}
	.st5{opacity:0.9;fill:url(#SVGID_4_);enable-background:new    ;}
	.st6{opacity:0.75;fill:url(#SVGID_5_);enable-background:new    ;}
	.st7{opacity:0.4;}
	.st8{fill:url(#SVGID_6_);}
	.st9{fill:url(#SVGID_7_);}
	.st10{opacity:0.6;fill:url(#SVGID_8_);enable-background:new    ;}
	.st11{fill:url(#SVGID_9_);}
	.st12{fill:url(#SVGID_10_);}
	.st13{fill:url(#SVGID_11_);}
	.st14{opacity:0.9;fill:url(#SVGID_12_);enable-background:new    ;}
	.st15{opacity:0.75;fill:url(#SVGID_13_);enable-background:new    ;}
	.st16{fill:url(#SVGID_14_);}
	.st17{fill:url(#SVGID_15_);}
	.st18{opacity:0.6;fill:url(#SVGID_16_);enable-background:new    ;}
</style>
<g id="Layer_3">
</g>
<g id="Layer_1_1_">
	<path class="st0" d="M0,0v119c36.6,4.7,79.4,28.5,99,36.1c19.5-7.5,62.4-24.3,99-29.1V0H0z"/>
	<g class="st1">
		
			<linearGradient id="SVGID_1_" gradientUnits="userSpaceOnUse" x1="99" y1="2.7" x2="99" y2="2.7" gradientTransform="matrix(1 0 0 -1 0 158)">
			<stop  offset="0" style="stop-color:#ECECEC"/>
			<stop  offset="1" style="stop-color:#F5F5F5"/>
		</linearGradient>
		<path class="st2" d="M99,155.3L99,155.3L99,155.3z"/>
		
			<linearGradient id="SVGID_2_" gradientUnits="userSpaceOnUse" x1="-2.5276" y1="35.365" x2="101.4276" y2="17.035" gradientTransform="matrix(1 0 0 -1 0 158)">
			<stop  offset="0" style="stop-color:#ECECEC"/>
			<stop  offset="0.2787" style="stop-color:#F0F0F0"/>
			<stop  offset="1" style="stop-color:#F7F7F7"/>
		</linearGradient>
		<path class="st3" d="M0,108.3V128l0,0c36.6,4.7,79.4,19.8,98.9,27.3l0,0C66.4,130.5,29,116.2,0,108.3z"/>
		
			<linearGradient id="SVGID_3_" gradientUnits="userSpaceOnUse" x1="99" y1="2.7" x2="99" y2="2.7" gradientTransform="matrix(1 0 0 -1 0 158)">
			<stop  offset="0" style="stop-color:#ECECEC"/>
			<stop  offset="1" style="stop-color:#F5F5F5"/>
		</linearGradient>
		<path class="st4" d="M99,155.3L99,155.3L99,155.3z"/>
	</g>
	
		<linearGradient id="SVGID_4_" gradientUnits="userSpaceOnUse" x1="0" y1="38.25" x2="49" y2="38.25" gradientTransform="matrix(1 0 0 -1 0 158)">
		<stop  offset="0" style="stop-color:#6883C1"/>
		<stop  offset="1" style="stop-color:#B0B8DE"/>
	</linearGradient>
	<path class="st5" d="M0,108.3v8.4c14.6,3.3,31.5,8,49,14.5C34.8,121,6.6,110.3,0,108.3z"/>
	
		<linearGradient id="SVGID_5_" gradientUnits="userSpaceOnUse" x1="-0.8811" y1="43.4029" x2="34.8358" y2="37.1051" gradientTransform="matrix(1 0 0 -1 0 158)">
		<stop  offset="0" style="stop-color:#191D54"/>
		<stop  offset="0.1604" style="stop-color:#192A6B"/>
		<stop  offset="0.3607" style="stop-color:#193681"/>
		<stop  offset="0.5546" style="stop-color:#193E8E"/>
		<stop  offset="0.7329" style="stop-color:#194092"/>
	</linearGradient>
	<path class="st6" d="M0,109.6v7c10.5,2.4,21.9,5.4,34,9.3C23.5,119.1,11.6,113.8,0,109.6z"/>
	<g class="st7">
		
			<linearGradient id="SVGID_6_" gradientUnits="userSpaceOnUse" x1="99" y1="2.7" x2="99" y2="2.7" gradientTransform="matrix(1 0 0 -1 0 158)">
			<stop  offset="7.429572e-02" style="stop-color:#E68064"/>
			<stop  offset="0.3486" style="stop-color:#E37E62"/>
			<stop  offset="0.5746" style="stop-color:#D9765D"/>
			<stop  offset="0.7828" style="stop-color:#C76955"/>
			<stop  offset="0.8245" style="stop-color:#C36653"/>
			<stop  offset="1" style="stop-color:#C36653"/>
		</linearGradient>
		<path class="st8" d="M99,155.3L99,155.3L99,155.3z"/>
		
			<linearGradient id="SVGID_7_" gradientUnits="userSpaceOnUse" x1="45.4" y1="18.25" x2="98.9" y2="18.25" gradientTransform="matrix(1 0 0 -1 0 158)">
			<stop  offset="7.429572e-02" style="stop-color:#E68064"/>
			<stop  offset="0.3486" style="stop-color:#E37E62"/>
			<stop  offset="0.5746" style="stop-color:#D9765D"/>
			<stop  offset="0.7828" style="stop-color:#C76955"/>
			<stop  offset="0.8245" style="stop-color:#C36653"/>
			<stop  offset="1" style="stop-color:#C36653"/>
		</linearGradient>
		<path class="st9" d="M45.4,124.3c11.1,6.6,21.6,13.1,30.9,20.9c0,0,22,9.8,22.6,10C81.9,142.3,63.4,132.2,45.4,124.3z"/>
	</g>
	
		<linearGradient id="SVGID_8_" gradientUnits="userSpaceOnUse" x1="-1.4146" y1="28.6776" x2="100.4146" y2="10.7224" gradientTransform="matrix(1 0 0 -1 0 158)">
		<stop  offset="0" style="stop-color:#B60E0C"/>
		<stop  offset="6.509630e-02" style="stop-color:#C40C0E"/>
		<stop  offset="0.1787" style="stop-color:#D50811"/>
		<stop  offset="0.3023" style="stop-color:#DF0712"/>
		<stop  offset="0.453" style="stop-color:#E20613"/>
		<stop  offset="0.5698" style="stop-color:#DD0713"/>
		<stop  offset="0.7085" style="stop-color:#CF0A12"/>
		<stop  offset="0.8575" style="stop-color:#B70F10"/>
		<stop  offset="1" style="stop-color:#99150E"/>
	</linearGradient>
	<path class="st10" d="M99,155.3c-32.5-17.9-70.1-28.2-99-34v7.6C36.5,133.7,79.4,147.8,99,155.3z"/>
	<g class="st1">
		
			<linearGradient id="SVGID_9_" gradientUnits="userSpaceOnUse" x1="-1996.837" y1="2.6" x2="-1996.837" y2="2.6" gradientTransform="matrix(-1 0 0 -1 -1897.937 158)">
			<stop  offset="0" style="stop-color:#ECECEC"/>
			<stop  offset="1" style="stop-color:#F5F5F5"/>
		</linearGradient>
		<path class="st11" d="M98.9,155.4L98.9,155.4L98.9,155.4z"/>
		
			<linearGradient id="SVGID_10_" gradientUnits="userSpaceOnUse" x1="-2098.4546" y1="35.4221" x2="-1994.3141" y2="17.0593" gradientTransform="matrix(-1 0 0 -1 -1897.937 158)">
			<stop  offset="0" style="stop-color:#ECECEC"/>
			<stop  offset="0.2787" style="stop-color:#F0F0F0"/>
			<stop  offset="1" style="stop-color:#F7F7F7"/>
		</linearGradient>
		<path class="st12" d="M198,108.3v13v6.7l0,0c-36.6,4.7-79.5,19.7-99,27.2l0,0C131.4,130.5,169,116.2,198,108.3z"/>
		
			<linearGradient id="SVGID_11_" gradientUnits="userSpaceOnUse" x1="-1996.837" y1="2.6" x2="-1996.837" y2="2.6" gradientTransform="matrix(-1 0 0 -1 -1897.937 158)">
			<stop  offset="0" style="stop-color:#ECECEC"/>
			<stop  offset="1" style="stop-color:#F5F5F5"/>
		</linearGradient>
		<path class="st13" d="M98.9,155.4L98.9,155.4L98.9,155.4z"/>
	</g>
	
		<linearGradient id="SVGID_12_" gradientUnits="userSpaceOnUse" x1="-2095.937" y1="38.3" x2="-2046.937" y2="38.3" gradientTransform="matrix(-1 0 0 -1 -1897.937 158)">
		<stop  offset="0" style="stop-color:#6883C1"/>
		<stop  offset="1" style="stop-color:#B0B8DE"/>
	</linearGradient>
	<path class="st14" d="M198,108.3v8.3c-14.8,3.3-31.6,8-49,14.5C163.1,121,191.3,110.3,198,108.3z"/>
	
		<linearGradient id="SVGID_13_" gradientUnits="userSpaceOnUse" x1="-2096.8196" y1="43.2943" x2="-2061.1543" y2="37.0057" gradientTransform="matrix(-1 0 0 -1 -1897.937 158)">
		<stop  offset="0" style="stop-color:#191D54"/>
		<stop  offset="0.1604" style="stop-color:#192A6B"/>
		<stop  offset="0.3607" style="stop-color:#193681"/>
		<stop  offset="0.5546" style="stop-color:#193E8E"/>
		<stop  offset="0.7329" style="stop-color:#194092"/>
	</linearGradient>
	<path class="st15" d="M198,109.7v7c-10.5,2.4-21.9,5.4-33.9,9.3C174.6,119.1,186.4,113.8,198,109.7z"/>
	<g class="st7">
		
			<linearGradient id="SVGID_14_" gradientUnits="userSpaceOnUse" x1="-1996.937" y1="2.7" x2="-1996.937" y2="2.7" gradientTransform="matrix(-1 0 0 -1 -1897.937 158)">
			<stop  offset="7.429572e-02" style="stop-color:#E68064"/>
			<stop  offset="0.3486" style="stop-color:#E37E62"/>
			<stop  offset="0.5746" style="stop-color:#D9765D"/>
			<stop  offset="0.7828" style="stop-color:#C76955"/>
			<stop  offset="0.8245" style="stop-color:#C36653"/>
			<stop  offset="1" style="stop-color:#C36653"/>
		</linearGradient>
		<path class="st16" d="M99,155.3L99,155.3L99,155.3z"/>
		
			<linearGradient id="SVGID_15_" gradientUnits="userSpaceOnUse" x1="-2050.437" y1="18.25" x2="-1996.937" y2="18.25" gradientTransform="matrix(-1 0 0 -1 -1897.937 158)">
			<stop  offset="7.429572e-02" style="stop-color:#E68064"/>
			<stop  offset="0.3486" style="stop-color:#E37E62"/>
			<stop  offset="0.5746" style="stop-color:#D9765D"/>
			<stop  offset="0.7828" style="stop-color:#C76955"/>
			<stop  offset="0.8245" style="stop-color:#C36653"/>
			<stop  offset="1" style="stop-color:#C36653"/>
		</linearGradient>
		<path class="st17" d="M152.5,124.3c-11.1,6.6-21.6,13.1-30.9,20.9c0,0-22,9.8-22.6,10C116,142.3,134.5,132.2,152.5,124.3z"/>
	</g>
	
		<linearGradient id="SVGID_16_" gradientUnits="userSpaceOnUse" x1="-2097.3516" y1="28.6776" x2="-1995.5225" y2="10.7224" gradientTransform="matrix(-1 0 0 -1 -1897.937 158)">
		<stop  offset="0" style="stop-color:#B60E0C"/>
		<stop  offset="6.509630e-02" style="stop-color:#C40C0E"/>
		<stop  offset="0.1787" style="stop-color:#D50811"/>
		<stop  offset="0.3023" style="stop-color:#DF0712"/>
		<stop  offset="0.453" style="stop-color:#E20613"/>
		<stop  offset="0.5698" style="stop-color:#DD0713"/>
		<stop  offset="0.7085" style="stop-color:#CF0A12"/>
		<stop  offset="0.8575" style="stop-color:#B70F10"/>
		<stop  offset="1" style="stop-color:#99150E"/>
	</linearGradient>
	<path class="st18" d="M99,155.3c32.5-17.9,70-28.2,99-34v7.7C161.4,133.8,118.5,147.8,99,155.3z"/>
</g>
<g id="Blanking">
</g>
</svg>
