<?xml version="1.0" encoding="utf-8"?>
<!-- Generator: Adobe Illustrator 21.1.0, SVG Export Plug-In . SVG Version: 6.00 Build 0)  -->
<svg version="1.1" id="Layer_1" xmlns="http://www.w3.org/2000/svg" xmlns:xlink="http://www.w3.org/1999/xlink" x="0px" y="0px"
	 viewBox="0 0 198 156" style="enable-background:new 0 0 198 156;" xml:space="preserve">
<style type="text/css">
	.st0{fill:#FFFFFF;}
	.st1{opacity:0.1;}
	.st2{fill:url(#SVGID_1_);}
	.st3{fill:url(#SVGID_2_);}
	.st4{fill:url(#SVGID_3_);}
	.st5{opacity:7.000000e-02;fill:url(#SVGID_4_);enable-background:new    ;}
	.st6{fill:url(#SVGID_5_);}
	.st7{fill:url(#SVGID_6_);}
	.st8{fill:url(#SVGID_7_);}
	.st9{opacity:7.000000e-02;fill:url(#SVGID_8_);enable-background:new    ;}
</style>
<g id="Layer_3">
</g>
<g id="Layer_1_1_">
	<path class="st0" d="M0,111.2c0,3.3,2.4,6.1,5.6,6.7c33.7,6.1,71.2,27.9,90.7,36.1c1.7,0.7,3.6,0.7,5.3,0c20-8.4,57.3-30,90.8-36.1
		c3.3-0.6,5.6-3.4,5.6-6.7V0H0V111.2z"/>
	<g class="st1">
		
			<linearGradient id="SVGID_1_" gradientUnits="userSpaceOnUse" x1="99" y1="1725.3" x2="99" y2="1725.3" gradientTransform="matrix(1 0 0 1 0 -1570)">
			<stop  offset="0" style="stop-color:#ECECEC"/>
			<stop  offset="1" style="stop-color:#F5F5F5"/>
		</linearGradient>
		<path class="st2" d="M99,155.3L99,155.3L99,155.3z"/>
		
			<linearGradient id="SVGID_2_" gradientUnits="userSpaceOnUse" x1="-2.5276" y1="1692.635" x2="101.4276" y2="1710.965" gradientTransform="matrix(1 0 0 1 0 -1570)">
			<stop  offset="0" style="stop-color:#ECECEC"/>
			<stop  offset="0.2787" style="stop-color:#F0F0F0"/>
			<stop  offset="1" style="stop-color:#F7F7F7"/>
		</linearGradient>
		<path class="st3" d="M0,108.3V122l0,0c36.6,4.7,79.4,25.8,98.9,33.3l0,0C66.4,130.5,29,116.2,0,108.3z"/>
		
			<linearGradient id="SVGID_3_" gradientUnits="userSpaceOnUse" x1="99" y1="1725.3" x2="99" y2="1725.3" gradientTransform="matrix(1 0 0 1 0 -1570)">
			<stop  offset="0" style="stop-color:#ECECEC"/>
			<stop  offset="1" style="stop-color:#F5F5F5"/>
		</linearGradient>
		<path class="st4" d="M99,155.3L99,155.3L99,155.3z"/>
	</g>
	
		<linearGradient id="SVGID_4_" gradientUnits="userSpaceOnUse" x1="-0.7956" y1="1684.1122" x2="34.7502" y2="1690.3799" gradientTransform="matrix(1 0 0 1 0 -1570)">
		<stop  offset="0" style="stop-color:#191D54"/>
		<stop  offset="0.1604" style="stop-color:#192A6B"/>
		<stop  offset="0.3607" style="stop-color:#193681"/>
		<stop  offset="0.5546" style="stop-color:#193E8E"/>
		<stop  offset="0.7329" style="stop-color:#194092"/>
	</linearGradient>
	<path class="st5" d="M0,109.6v7c10.1,2.3,21.3,4.2,34,8.3C23.5,118.1,11.6,113.8,0,109.6z"/>
	<g class="st1">
		
			<linearGradient id="SVGID_5_" gradientUnits="userSpaceOnUse" x1="-4388.8369" y1="1725.4" x2="-4388.8369" y2="1725.4" gradientTransform="matrix(-1 0 0 1 -4289.937 -1570)">
			<stop  offset="0" style="stop-color:#ECECEC"/>
			<stop  offset="1" style="stop-color:#F5F5F5"/>
		</linearGradient>
		<path class="st6" d="M98.9,155.4L98.9,155.4L98.9,155.4z"/>
		
			<linearGradient id="SVGID_6_" gradientUnits="userSpaceOnUse" x1="-4490.4546" y1="1692.5779" x2="-4386.314" y2="1710.9407" gradientTransform="matrix(-1 0 0 1 -4289.937 -1570)">
			<stop  offset="0" style="stop-color:#ECECEC"/>
			<stop  offset="0.2787" style="stop-color:#F0F0F0"/>
			<stop  offset="1" style="stop-color:#F7F7F7"/>
		</linearGradient>
		<path class="st7" d="M198,108.3v11v2.7l0,0c-36.6,4.7-79.5,25.7-99,33.2l0,0C131.4,130.5,169,116.2,198,108.3z"/>
		
			<linearGradient id="SVGID_7_" gradientUnits="userSpaceOnUse" x1="-4388.8369" y1="1725.4" x2="-4388.8369" y2="1725.4" gradientTransform="matrix(-1 0 0 1 -4289.937 -1570)">
			<stop  offset="0" style="stop-color:#ECECEC"/>
			<stop  offset="1" style="stop-color:#F5F5F5"/>
		</linearGradient>
		<path class="st8" d="M98.9,155.4L98.9,155.4L98.9,155.4z"/>
	</g>
	
		<linearGradient id="SVGID_8_" gradientUnits="userSpaceOnUse" x1="-4488.7344" y1="1684.2207" x2="-4453.2397" y2="1690.4792" gradientTransform="matrix(-1 0 0 1 -4289.937 -1570)">
		<stop  offset="0" style="stop-color:#191D54"/>
		<stop  offset="0.1604" style="stop-color:#192A6B"/>
		<stop  offset="0.3607" style="stop-color:#193681"/>
		<stop  offset="0.5546" style="stop-color:#193E8E"/>
		<stop  offset="0.7329" style="stop-color:#194092"/>
	</linearGradient>
	<path class="st9" d="M198,109.7v5c-10.5,2.4-21.9,6.4-33.9,10.3C174.6,118.1,186.4,113.8,198,109.7z"/>
</g>
<g id="Blanking">
</g>
</svg>
