<svg id="Layer_1" data-name="Layer 1" xmlns="http://www.w3.org/2000/svg" viewBox="0 0 20.54 25"><defs><style>.cls-1{fill:#2b5f39;}</style></defs><title>Bus_Icon</title><path class="cls-1" d="M15.74,25h1.71a.7.7,0,0,0,.68-.71v-3a2.51,2.51,0,0,0,2.4-2.5V2.5A2.45,2.45,0,0,0,18.14,0H2.4A2.45,2.45,0,0,0,0,2.5V19a2.38,2.38,0,0,0,2.36,2.39h0v2.86a.7.7,0,0,0,.68.71H4.79a.7.7,0,0,0,.68-.71V21.43h9.58v2.86A.7.7,0,0,0,15.74,25Zm.87-6.4A1.59,1.59,0,1,1,18.14,17a1.56,1.56,0,0,1-1.53,1.59Zm-12.66,0a1.59,1.59,0,0,1,0-3.17,1.59,1.59,0,0,1,0,3.17Zm-.52-6.1a1.05,1.05,0,0,1-1-1.07V3.57a1,1,0,0,1,1-1.07H17.11a1,1,0,0,1,1,1.07v7.86a1.05,1.05,0,0,1-1,1.07Z"/></svg>