<?xml version="1.0" encoding="utf-8"?>
<!-- Generator: Adobe Illustrator 21.1.0, SVG Export Plug-In . SVG Version: 6.00 Build 0)  -->
<svg version="1.1" id="Layer_1" xmlns="http://www.w3.org/2000/svg" xmlns:xlink="http://www.w3.org/1999/xlink" x="0px" y="0px"
	 viewBox="0 0 23 23" style="enable-background:new 0 0 23 23;" xml:space="preserve">
<style type="text/css">
	.st0{fill:#FFFFFF;}
	.st1{fill:#2B386F;}
</style>
<title>Collapse_Icon</title>
<path class="st0" d="M23,0v23H0V0H23z"/>
<path class="st1" d="M14.4,15.3l2.2,2.1l0.8-0.8l-2.2-2l1.1-0.4l-4.1-1.6l1.7,3.9L14.4,15.3z M6.5,9.2l4.1,1.6L8.8,6.9L8.4,8l-2-1.9
	L5.6,6.9l2,1.9L6.5,9.2z M6.4,17.4l2-1.9l0.4,1.1l1.7-3.9l-4.1,1.6l1.1,0.4l-2,1.9L6.4,17.4z M16.6,6.2l-2.1,2L14,7.1L12.3,11
	l4.1-1.6L15.2,9l2.1-2L16.6,6.2z"/>
</svg>
