<svg id="Layer_1" data-name="Layer 1" xmlns="http://www.w3.org/2000/svg" viewBox="0 0 22.99 23"><defs><style>.cls-1{fill:#fff;fill-rule:evenodd;}.cls-2{fill:#2b386f;}</style></defs><title>Expand_Icon</title><path class="cls-1" d="M23,0V23H0V0Z"/><path class="cls-2" d="M15.22,14.58l-2.15-2.05-.78.75,2.15,2.05-1.15.42,4.08,1.64-1.71-3.9Z"/><path class="cls-2" d="M9.69,7.77,5.62,6.13,7.33,10l.44-1.1,2,1.9.78-.75-2-1.9Z"/><path class="cls-2" d="M9.75,12.68l-2,1.9-.44-1.1-1.71,3.9,4.08-1.64-1.15-.42,2-1.9Z"/><path class="cls-2" d="M13.08,11l2.15-2.05.44,1.1,1.71-3.9L13.3,7.77l1.15.42-2.15,2.05Z"/></svg>