<svg id="Layer_1" data-name="Layer 1" xmlns="http://www.w3.org/2000/svg" viewBox="0 0 20 18"><defs><style>.cls-1{fill:#ffffff;}.cls-2{fill:none;}</style></defs><title>Artboard 1 copy 3</title><path class="cls-1" d="M6.38,8v2.52H9.81A3.14,3.14,0,0,1,6.38,13,3.72,3.72,0,0,1,2.67,9.26,3.72,3.72,0,0,1,6.38,5.49a3.6,3.6,0,0,1,2.47.93c.52-.52.48-.6,1.81-1.85A6.35,6.35,0,1,0,6.38,15.61c5.24,0,6.53-4.57,6.1-7.61Zm11.45.13V5.93H16.25v2.2H14V9.7h2.26V12h1.57V9.7H20V8.13Z"/><rect class="cls-2" width="20" height="18"/></svg>