<svg id="Layer_1" data-name="Layer 1" xmlns="http://www.w3.org/2000/svg" viewBox="0 0 20 18"><defs><style>.cls-1{fill:#ffffff;}.cls-2{fill:none;}</style></defs><title>Artboard 1 copy</title><path class="cls-1" d="M15.69,6.49c0,.13,0,.26,0,.39A8.62,8.62,0,0,1,2.43,14.14a6.39,6.39,0,0,0,.72,0,6.07,6.07,0,0,0,3.76-1.3,3,3,0,0,1-2.83-2.1,3.11,3.11,0,0,0,.57.05,3.05,3.05,0,0,0,.8-.11A3,3,0,0,1,3,7.76v0A3,3,0,0,0,4.4,8.1a3,3,0,0,1-.94-4A8.6,8.6,0,0,0,9.71,7.22a3,3,0,0,1,5.16-2.76,6,6,0,0,0,1.92-.74A3,3,0,0,1,15.46,5.4a6,6,0,0,0,1.74-.48A6.14,6.14,0,0,1,15.69,6.49Z"/><rect class="cls-2" width="20" height="18"/></svg>