<svg id="Layer_1" data-name="Layer 1" xmlns="http://www.w3.org/2000/svg" viewBox="0 0 20 18"><defs><style>.cls-1{fill:#ffffff;}.cls-2{fill:none;}</style></defs><title>Artboard 1 copy 4</title><path class="cls-1" d="M11.24,13A2.58,2.58,0,0,1,9,11.72s-.54,2.38-.65,2.84a11.43,11.43,0,0,1-1.67,3.38.12.12,0,0,1-.22-.06,13,13,0,0,1,0-3.93L7.66,8.32a4.36,4.36,0,0,1-.3-1.63C7.37,5.15,8.16,4,9.15,4s1.24.71,1.24,1.55a24.36,24.36,0,0,1-.81,3.67,1.56,1.56,0,0,0,1.46,2c1.75,0,2.93-2.52,2.93-5.5a3.65,3.65,0,0,0-3.84-4c-2.8,0-4.54,2.34-4.54,5a3.21,3.21,0,0,0,.61,2,.54.54,0,0,1,.13.58l-.19.83c-.06.26-.25.35-.46.26C4.38,9.82,3.78,8.24,3.78,6.46A6.44,6.44,0,0,1,10.38,0a5.82,5.82,0,0,1,5.84,5.92C16.22,10,14.21,13,11.24,13Z"/><rect class="cls-2" width="20" height="18"/></svg>