<?xml version="1.0" encoding="utf-8"?>
<!-- Generator: Adobe Illustrator 21.1.0, SVG Export Plug-In . SVG Version: 6.00 Build 0)  -->
<svg version="1.1" id="Layer_1" xmlns="http://www.w3.org/2000/svg" xmlns:xlink="http://www.w3.org/1999/xlink" x="0px" y="0px"
	 viewBox="0 0 33 29" style="enable-background:new 0 0 33 29;" xml:space="preserve">
<style type="text/css">
	.st0{opacity:0.5;}
	.st1{fill:none;stroke:#FFFFFF;stroke-width:2;}
</style>
<path class="st0" d="M27.4,1.7c-4.1-1.9-8.9-0.1-10.9,3.9c-2-4-6.8-5.8-10.9-3.9c-4.2,2-6.2,7.1-2.9,13.1C5,19.1,9.2,22.3,16.5,28
	c7.3-5.8,11.5-9,13.8-13.2C33.7,8.8,31.7,3.7,27.4,1.7z"/>
<path class="st1" d="M27.4,1.7c-4.1-1.9-8.9-0.1-10.9,3.9c-2-4-6.8-5.8-10.9-3.9c-4.2,2-6.2,7.1-2.9,13.1C5,19.1,9.2,22.3,16.5,28
	c7.3-5.8,11.5-9,13.8-13.2C33.7,8.8,31.7,3.7,27.4,1.7z"/>
</svg>
