<?xml version="1.0" encoding="utf-8"?>
<!-- Generator: Adobe Illustrator 21.1.0, SVG Export Plug-In . SVG Version: 6.00 Build 0)  -->
<svg version="1.1" id="Layer_1" xmlns="http://www.w3.org/2000/svg" xmlns:xlink="http://www.w3.org/1999/xlink" x="0px" y="0px"
	 viewBox="0 0 149 149" style="enable-background:new 0 0 149 149;" xml:space="preserve">
<style type="text/css">
	.st0{fill:#52254A;}
	.st1{fill:#FFFFFF;}
</style>
<title>alerticon</title>
<path class="st0" d="M74.5,0C115.6,0,149,33.4,149,74.5S115.6,149,74.5,149S0,115.6,0,74.5S33.4,0,74.5,0z"/>
<g>
	<path class="st1" d="M93,103.7C82.8,116.1,75.2,123,66.3,123c-3.8,0-6.3-2.7-6.3-6.6c0-6.7,10.6-39.5,10.6-44.2
		c0-1.7-0.4-3.2-2.1-3.2c-3.5,0-8,6.2-10.6,8.7L55,74.3C60.3,68.1,72.6,55,81,55c4.6,0,7.7,1.3,7.7,7.4c0,7.1-12.2,40.4-12.2,46.2
		c0,1,0.6,1.8,1.7,1.8c3.2,0,10.3-8,12.2-9.8L93,103.7z M85.3,26c4.6,0,8.7,4.1,8.7,8.7s-4.1,8.7-8.7,8.7c-4.6,0-8.7-4.1-8.7-8.7
		S80.7,26,85.3,26z"/>
</g>
</svg>
