<svg id="Layer_1" data-name="Layer 1" xmlns="http://www.w3.org/2000/svg" viewBox="0 0 30.44 36"><defs><style>.cls-1{fill:#2e5f38;fill-rule:evenodd;}.cls-2{fill:#fff;}</style></defs><title>Land_Icon</title><polygon class="cls-1" points="0 30.44 0 0 30.44 0 30.44 30.44 20.63 30.44 15.18 36 9.51 30.44 0 30.44"/><path class="cls-2" d="M6.37,20.75s7.49-11,8.09-13.24c0,0,2.78,8.23,8.81,13.44,0,0-4.89-2.5-9.1-9.19C14.18,11.76,8.76,19.35,6.37,20.75Z"/><path class="cls-2" d="M17,14.43a29.48,29.48,0,0,0,2.84-4.6,20.3,20.3,0,0,0,5.56,7.9,17.83,17.83,0,0,1-5.56-5.5A34.94,34.94,0,0,1,17.61,15"/><path class="cls-2" d="M10.81,15.19A15.65,15.65,0,0,1,9,13.1s-2.24,3-4,3.94c0,0,3.66-4.72,4-5.7a15.44,15.44,0,0,0,2.06,3.52"/></svg>