<svg id="Layer_1" data-name="Layer 1" xmlns="http://www.w3.org/2000/svg" viewBox="0 0 22.99 23"><defs><style>.cls-1{fill:#fff;fill-rule:evenodd;}.cls-2{fill:#2b386f;}</style></defs><title>ListView_Icon</title><path class="cls-1" d="M23,0V23H0V0Z"/><path class="cls-2" d="M18.31,8l.59-.64-.59-.64H8.51l-.59.64L8.51,8Z"/><path class="cls-2" d="M8.51,10.87l-.59.64.59.64h9.79l.59-.64-.59-.64Z"/><path class="cls-2" d="M8.51,15l-.59.64.59.64h9.79l.59-.64L18.31,15Z"/><path class="cls-2" d="M4.09,7.35,5.5,8.88,6.91,7.35,5.5,5.83Z"/><path class="cls-2" d="M4.09,11.51,5.5,13l1.41-1.53L5.5,10Z"/><path class="cls-2" d="M4.09,15.65,5.5,17.17l1.41-1.53L5.5,14.12Z"/></svg>