<svg id="Layer_1" data-name="Layer 1" xmlns="http://www.w3.org/2000/svg" viewBox="0 0 30.44 36"><defs><style>.cls-1{fill:#2a386f;fill-rule:evenodd;}.cls-2{fill:#fff;}</style></defs><title>Sea_Icon</title><polygon class="cls-1" points="0 30.44 0 0 30.44 0 30.44 30.44 20.63 30.44 15.18 36 9.51 30.44 0 30.44"/><path class="cls-2" d="M14.69,16.67c-2.36.37-4.72-1.95-5.38-3.3C7.89,15.11,5.76,16,4.67,15.86c.68.93,3.13.56,4.27-.61A5.25,5.25,0,0,0,14.69,16.67Z"/><path class="cls-2" d="M20.57,10.57c-2.36.37-4.72-1.95-5.38-3.3C13.77,9,11.65,9.9,10.55,9.76c.68.93,3.13.56,4.27-.61A5.25,5.25,0,0,0,20.57,10.57Z"/><path class="cls-2" d="M21.73,24c-2.36.37-4.72-1.95-5.38-3.3-1.42,1.74-3.54,2.63-4.64,2.49.68.93,3.13.56,4.27-.61A5.25,5.25,0,0,0,21.73,24Z"/><path class="cls-2" d="M26.25,17.3c-2.36.37-4.72-1.95-5.38-3.3-1.42,1.74-3.54,2.63-4.64,2.49.68.93,3.13.56,4.27-.61A5.25,5.25,0,0,0,26.25,17.3Z"/></svg>