<svg id="Layer_1" data-name="Layer 1" xmlns="http://www.w3.org/2000/svg" viewBox="0 0 25.61 23.33"><defs><style>.cls-1{fill:#283870;}</style></defs><title>Ship_Icon</title><path class="cls-1" d="M22.32,20.44a2.38,2.38,0,0,1-2.62,0,4.94,4.94,0,0,0-5.57,0,2.41,2.41,0,0,1-2.64,0,4.94,4.94,0,0,0-5.57,0,2.38,2.38,0,0,1-2.62,0A5,5,0,0,0,0,19.61v2.54a2.29,2.29,0,0,1,1.82.33,5,5,0,0,0,5.57,0,2.38,2.38,0,0,1,2.62,0,5,5,0,0,0,5.58,0,2.38,2.38,0,0,1,2.62,0,5,5,0,0,0,5.57,0,2.32,2.32,0,0,1,1.82-.33V19.61A5,5,0,0,0,22.32,20.44Z"/><path class="cls-1" d="M11.49,18.74a2.41,2.41,0,0,0,2.64,0,4.94,4.94,0,0,1,5.36-.14l2.3-6.93-9-3.73-9,3.73,2.3,6.93A4.93,4.93,0,0,1,11.49,18.74Z"/><path class="cls-1" d="M19.22,2.49V8.66L12.81,6,6.41,8.66V2.49h5.12V0h2.56V2.49Z"/></svg>