<?xml version="1.0" encoding="utf-8"?>
<!-- Generator: Adobe Illustrator 19.2.0, SVG Export Plug-In . SVG Version: 6.00 Build 0)  -->
<svg version="1.1" id="Layer_1" xmlns="http://www.w3.org/2000/svg" xmlns:xlink="http://www.w3.org/1999/xlink" x="0px" y="0px"
	 viewBox="0 0 40 40" style="enable-background:new 0 0 40 40;" xml:space="preserve">
<style type="text/css">
	.st0{fill:#FFFFFF;}
</style>
<g>
	<path class="st0" d="M20.2,23.6c-0.3,0-0.5-0.1-0.7-0.3l-9.2-9.9c-0.4-0.4-0.4-1,0.1-1.4c0.4-0.4,1-0.4,1.4,0.1l8.4,9.1l7.9-9.1
		c0.4-0.4,1-0.5,1.4-0.1c0.4,0.4,0.5,1,0.1,1.4L21,23.3C20.8,23.5,20.5,23.6,20.2,23.6C20.3,23.6,20.2,23.6,20.2,23.6z"/>
</g>
<path class="st0" d="M29.9,28.3H10c-0.6,0-1-0.4-1-1s0.4-1,1-1h19.9c0.6,0,1,0.4,1,1S30.5,28.3,29.9,28.3z"/>
</svg>
