<svg id="Layer_1" data-name="Layer 1" xmlns="http://www.w3.org/2000/svg" viewBox="0 0 25.01 19.69"><defs><style>.cls-1{fill:#2b5f39;}</style></defs><title>Train_Icon</title><path class="cls-1" d="M21.95,2.22,19.19,0l-6.9,7.28L5.39,0,2.63,2.22,9.86,9.84,2.63,17.47l2.76,2.22,6.9-7.28,6.9,7.28,2.76-2.22L14.72,9.84Z"/><path class="cls-1" d="M5.41,12.56,3.82,10.13A1.9,1.9,0,0,0,5.18,8.25c0-1.5-1.17-2.12-2.6-2.12H0v6.43H1.44V10.33h.91l1.42,2.23ZM2.54,9.21H1.44V7.29H2.54c.69,0,1.16.24,1.16,1S3.25,9.21,2.54,9.21Z"/><path class="cls-1" d="M24.78,8.25c0-1.5-1.17-2.12-2.6-2.12H19.6v6.43H21V10.33h.91l1.42,2.23H25l-1.59-2.43A1.9,1.9,0,0,0,24.78,8.25Zm-2.64,1H21V7.29h1.11c.69,0,1.16.24,1.16,1S22.85,9.21,22.14,9.21Z"/></svg>