<svg id="Layer_1" data-name="Layer 1" xmlns="http://www.w3.org/2000/svg" viewBox="0 0 37 37"><defs><style>.cls-1{fill:#20285b;fill-rule:evenodd;}.cls-2{fill:#fff;}</style></defs><title>GlobalHeader_Phone_Icon</title><path class="cls-1" d="M18.5,0A18.5,18.5,0,1,1,0,18.5,18.5,18.5,0,0,1,18.5,0Z"/><path class="cls-2" d="M22.59,20.45l-1.49,1.08,2.22,3.08,1.49-1.08a.33.33,0,0,0,.05-.47l-1.81-2.51A.34.34,0,0,0,22.59,20.45ZM12.07,15.34c.17,1.88,2.1,4.72,2.92,5.84S17.88,25,19.61,25.8c.68.3,1.51.06,2.62-.46l-2.2-3h0c-.33.11-1.17.11-2.42-1.82l-.21-.29-.71-1-.21-.29c-1.44-1.79-1.17-2.59-1-2.87h0l-2.19-3C12.5,13.89,12,14.6,12.07,15.34Zm3.8-4.21L14.37,12.2l2.22,3.08,1.49-1.08a.34.34,0,0,0,.05-.47l-1.81-2.51A.34.34,0,0,0,15.87,11.13Z"/></svg>