<svg id="Layer_1" data-name="Layer 1" xmlns="http://www.w3.org/2000/svg" viewBox="0 0 12 12">
	<defs><style>.cls-1{fill:none;}.cls-2{fill:#20285B;}</style></defs><title>Artboard 1 copy</title><rect class="cls-1" width="12" height="12"/><rect class="cls-1" width="12" height="12"/><path id="Language_Icon" data-name="Language Icon" class="cls-2" d="M9.28,5,8,3.67,6.25,5.39,7.82,7A8,8,0,0,0,9.28,5ZM7.86,2.88l1.6-1.6-.08-.07a7.64,7.64,0,0,0-2.58.6ZM8.5.63A5.29,5.29,0,0,0,6,0a5.37,5.37,0,0,0-.93.08L6.19,1.21A7.78,7.78,0,0,1,8.5.63Zm-1,6.66L5.9,5.73,4.19,7.45,5.4,8.66a9,9,0,0,0,1.24-.73A9.15,9.15,0,0,0,7.46,7.29ZM4.51,2.14a8.91,8.91,0,0,1,1.2-.71L4.51.21A5.31,5.31,0,0,0,2.33,1.47L3.67,2.81A9,9,0,0,1,4.51,2.14Zm5,2.38A5.44,5.44,0,0,0,10,1.77l0,0-1.6,1.6ZM6,10.61a5.23,5.23,0,0,0,.63,0L5.53,9.48a7.88,7.88,0,0,1-2,.53A5.29,5.29,0,0,0,6,10.61ZM2.47,5.73,3.74,7,5.46,5.29,3.92,3.75A8,8,0,0,0,2.47,5.73Zm5.05-2.5L6.32,2a9,9,0,0,0-1.21.71,9.25,9.25,0,0,0-.84.67L5.8,4.94Zm-4.2-.08L2,1.83A5.28,5.28,0,0,0,.84,4.09l1,1A8,8,0,0,1,3.32,3.15Zm7.26-.52a5.57,5.57,0,0,1-.48,2.5l1.12,1.12a5.36,5.36,0,0,0,.08-.93A5.28,5.28,0,0,0,10.58,2.62ZM7.25,8.53A9,9,0,0,1,6,9.27l1.2,1.2A5.28,5.28,0,0,0,9.48,9.31L8.06,7.89A9,9,0,0,1,7.25,8.53Zm1.17-1L9.83,9A5.3,5.3,0,0,0,11.09,6.8L9.88,5.59A8,8,0,0,1,8.42,7.55ZM.69,5.31a5.29,5.29,0,0,0,.49,2.23,5.79,5.79,0,0,1,.46-1.94L.73,4.68A5.44,5.44,0,0,0,.69,5.31Zm1.55.89a5.59,5.59,0,0,0-.46,2.33L2,8.77,3.4,7.35ZM3.84,7.79,2.42,9.22l.26.23a7.75,7.75,0,0,0,2.25-.57ZM8.77,11H3.23a.31.31,0,0,0-.31.31v.37a.31.31,0,0,0,.31.31H8.77a.31.31,0,0,0,.31-.31v-.37A.31.31,0,0,0,8.77,11Z"/></svg>