<svg id="Layer_1" data-name="Layer 1" xmlns="http://www.w3.org/2000/svg" viewBox="0 0 12 12"><defs><style>.cls-1{fill:none;}.cls-2{fill:#abafc0;}</style></defs><title>Artboard 1 copy 5</title><rect class="cls-1" width="12" height="12"/><rect class="cls-1" width="12" height="12"/><path id="Phone_Icon" data-name="Phone Icon" class="cls-2" d="M8.46,9H7.27v3H8.46a.27.27,0,0,0,.27-.27V9.3A.27.27,0,0,0,8.46,9ZM4.15.94c-.81,1.28-.89,4-.88,5.06s.07,3.79.88,5.06c.32.5,1,.73,2,.91V9h0c-.28-.08-.86-.47-.75-2.27V5.24c-.1-1.8.48-2.19.75-2.27h0V0C5.16.21,4.47.44,4.15.94ZM8.46,0H7.27V3H8.46a.27.27,0,0,0,.27-.27V.27A.27.27,0,0,0,8.46,0Z"/></svg>