<svg id="Layer_1" data-name="Layer 1" xmlns="http://www.w3.org/2000/svg" viewBox="0 0 12 12"><defs><style>.cls-1{fill:none;}.cls-2{fill:#20285B;}</style></defs><title>Artboard 1 copy 7</title><rect class="cls-1" width="12" height="12"/><rect class="cls-1" width="12" height="12"/><path id="Chat_Icon" data-name="Chat Icon" class="cls-2" d="M9.38,0H2.62A1.82,1.82,0,0,0,.8,1.83V6.7A1.83,1.83,0,0,0,2.62,8.53H5.34L8,11.93c.11.11.24.09.24-.06L8.14,8.53H9.38A1.82,1.82,0,0,0,11.2,6.7V1.83A1.82,1.82,0,0,0,9.38,0ZM7.31,5.38H4a.3.3,0,1,1,0-.61H7.31a.3.3,0,1,1,0,.61ZM8.82,3.71H4a.3.3,0,1,1,0-.6H8.82a.3.3,0,1,1,0,.6Z"/></svg>