<svg id="Layer_1" data-name="Layer 1" xmlns="http://www.w3.org/2000/svg" viewBox="0 0 12 12"><defs><style>.cls-1{fill:none;}.cls-2{fill:#abafc0;}</style></defs><title>Artboard 1 copy 2</title><rect class="cls-1" width="12" height="12"/><rect class="cls-1" width="12" height="12"/><path id="Heart_Icon" data-name="Heart Icon" class="cls-2" d="M3,.43a2.21,2.21,0,0,0-.9.2A3.41,3.41,0,0,0,.16,2.77,4.92,4.92,0,0,0,1,6.84a17.43,17.43,0,0,0,5,4.73,17.48,17.48,0,0,0,5-4.73,4.93,4.93,0,0,0,.81-4.08A3.41,3.41,0,0,0,9.91.63,2.21,2.21,0,0,0,9,.43,3.79,3.79,0,0,0,6.39,2.06L6,2.64l-.39-.58A3.82,3.82,0,0,0,3,.43Z"/></svg>