<?xml version="1.0" standalone="no"?>
<!DOCTYPE svg PUBLIC "-//W3C//DTD SVG 1.1//EN" "http://www.w3.org/Graphics/SVG/1.1/DTD/svg11.dtd" >
<svg xmlns="http://www.w3.org/2000/svg" xmlns:xlink="http://www.w3.org/1999/xlink" version="1.1">
<metadata>
Created by FontForge 20170731 at Sat Apr  7 15:28:09 2012
 By Aleksey,,,
Copyright (c) 2006, The Font Bureau, Inc. All rights reserved.
</metadata>
<defs>
<font id="BentonModernDisplay-BoldCn" horiz-adv-x="449" >
  <font-face 
    font-family="Benton Modern Display Cn"
    font-weight="700"
    font-stretch="condensed"
    units-per-em="1000"
    panose-1="2 0 8 6 9 0 0 2 0 3"
    ascent="800"
    descent="-200"
    x-height="426"
    cap-height="684"
    bbox="-66 -208 956 890"
    underline-thickness="20"
    underline-position="-153"
    unicode-range="U+000D-FB04"
  />
<missing-glyph horiz-adv-x="500" 
d="M80 180h340v340h-340v-340zM50 550h400v-400h-400v400z" />
    <glyph glyph-name="ff" unicode="ff" horiz-adv-x="531" 
d="M316 426v61q0 14 1.5 28t3.5 28q-8 7 -13.5 17t-5.5 24q0 20 8 32.5t22 18.5q7 3 12.5 4.5t5.5 6.5q0 2 -3 7t-10.5 10t-20.5 9t-32 4q-15 0 -32.5 -6.5t-32.5 -24t-25 -49t-10 -82.5v-88h132zM11 18h4q29 0 39.5 12t10.5 45v331h-54v20h54v42q0 114 56.5 171t155.5 57
q37 0 63 -10t41 -27q43 39 104 39q24 0 42.5 -8t31 -20.5t19 -29t6.5 -33.5q0 -26 -14 -42.5t-36 -16.5q-17 0 -31.5 11.5t-14.5 34.5q0 18 7.5 30.5t20.5 17.5q14 5 21.5 4t7.5 4q0 8 -12.5 18.5t-35.5 10.5q-28 0 -45 -31t-17 -106v-116h88v-20h-88v-331q0 -33 9.5 -45
t40.5 -12h18v-18h-239v18h3q29 0 39 12t10 45v331h-132v-331q0 -33 9.5 -45t38.5 -12h4v-18h-225v18z" />
    <glyph glyph-name="fi" unicode="fi" horiz-adv-x="497" 
d="M12 18h3q26 0 38 12t12 45v331h-54v20h54v40q0 114 57.5 173t157.5 59q65 0 97 -30t32 -70q0 -29 -15.5 -46.5t-38.5 -17.5q-20 0 -35.5 13t-15.5 39q0 20 9.5 32.5t23.5 18.5q7 3 11.5 3.5t4.5 5.5q0 3 -2.5 8t-10 10.5t-21 9.5t-35.5 4q-15 0 -32.5 -7t-32.5 -25.5
t-25 -50.5t-10 -83v-86h79l172 11v-362q0 -31 11.5 -44t38.5 -13h3v-18h-224v18h4q27 0 37.5 13.5t10.5 43.5v276q0 29 -9.5 42t-40.5 13h-82v-331q0 -33 9.5 -45t38.5 -12h8v-18h-228v18z" />
    <glyph glyph-name="fl" unicode="fl" horiz-adv-x="502" 
d="M11 18h4q28 0 39 12t11 45v331h-54v20h54v46q0 57 14.5 99t40 70.5t60.5 42.5t76 14q22 0 38.5 -4t28.5 -11l111 23v-626q0 -38 12 -50t41 -12h1v-18h-227v18h4q28 0 39.5 12.5t11.5 49.5v326h-132v-331q0 -33 9 -45t38 -12h8v-18h-228v18zM316 426v108q-17 2 -31 15
t-14 36q0 20 8 33.5t21 20.5q6 3 10.5 4.5t4.5 5.5q0 8 -12.5 18.5t-39.5 10.5q-14 0 -28 -6t-25.5 -23.5t-18.5 -48.5t-7 -82v-92h132z" />
    <glyph glyph-name="ffi" unicode="ffi" horiz-adv-x="748" 
d="M11 18h4q30 0 40 12t10 45v331h-54v20h54v42q0 114 56.5 171t155.5 57q45 0 71 -13.5t40 -31.5q26 23 62 35t81 12q65 0 97 -30t32 -70q0 -29 -15.5 -46.5t-38.5 -17.5q-20 0 -35.5 12.5t-15.5 38.5q0 20 9.5 33.5t22.5 19.5q6 3 11 3.5t5 5.5q0 3 -2.5 8t-10 10t-20.5 9
t-35 4q-15 0 -32.5 -7t-32.5 -25.5t-25 -50.5t-10 -83v-86h79l172 11v-362q0 -31 10.5 -44t39.5 -13h3v-18h-224v18h4q28 0 38 13.5t10 43.5v276q0 29 -10 42t-40 13h-82v-331q0 -33 9.5 -45t38.5 -12h15v-18h-234v18h3q29 0 39 12t10 45v331h-132v-331q0 -33 9.5 -45
t38.5 -12h4v-18h-225v18zM316 426v40q0 42 8 76q-11 8 -16.5 19.5t-5.5 22.5q0 20 9 32t21 18q7 3 12.5 5t5.5 7q0 6 -14 18t-52 12q-15 0 -32.5 -6.5t-32.5 -24t-25 -49t-10 -82.5v-88h132z" />
    <glyph glyph-name="ffl" unicode="ffl" horiz-adv-x="754" 
d="M11 18h4q27 0 38.5 12t11.5 45v331h-54v20h54v42q0 114 56.5 171t155.5 57q38 0 65 -11t42 -30q51 43 123 43q22 0 38.5 -4t28.5 -11l111 23v-626q0 -38 12 -50t41 -12h1v-18h-227v18h6q25 0 37 12.5t12 49.5v326h-132v-331q0 -33 9 -45t38 -12h8v-18h-226v18h3
q26 0 37.5 12t11.5 45v331h-132v-331q0 -33 9.5 -45t38.5 -12h6v-18h-227v18zM316 426v45q0 20 2 39t5 33q-8 5 -14.5 16t-6.5 25q0 20 9 32t21 18q8 5 13.5 5.5t5.5 5.5q0 6 -14 18.5t-53 12.5q-15 0 -32.5 -6.5t-32.5 -24t-25 -49t-10 -82.5v-88h132zM567 426v108
q-17 2 -31 15t-14 36q0 20 9 33t20 20q6 4 10.5 5.5t4.5 6.5q0 8 -13 18t-39 10q-14 0 -28 -6t-25.5 -23.5t-18.5 -48.5t-7 -82v-92h132z" />
    <glyph glyph-name=".notdef" horiz-adv-x="500" 
d="M80 180h340v340h-340v-340zM50 550h400v-400h-400v400z" />
    <glyph glyph-name=".null" horiz-adv-x="0" 
 />
    <glyph glyph-name=".null" horiz-adv-x="0" 
 />
    <glyph glyph-name="nonmarkingreturn" unicode="&#xd;" horiz-adv-x="183" 
 />
    <glyph glyph-name="space" unicode=" " horiz-adv-x="183" 
 />
    <glyph glyph-name="exclam" unicode="!" horiz-adv-x="230" 
d="M116 -10q-27 0 -46.5 19t-19.5 47q0 27 19.5 46.5t46.5 19.5t46.5 -19.5t19.5 -46.5q0 -28 -19.5 -47t-46.5 -19zM108 202q0 30 -5 68.5t-12.5 79.5t-16.5 81.5t-18 73.5q-7 28 -12.5 52.5t-5.5 40.5q0 43 22 69t56 26t55 -25t21 -70q0 -16 -5 -40.5t-12 -52.5
q-9 -33 -18 -73.5t-16.5 -81.5t-12.5 -79.5t-5 -68.5h-15z" />
    <glyph glyph-name="quotedbl" unicode="&#x22;" horiz-adv-x="372" 
d="M212 589q-11 41 6.5 68t53.5 27q35 0 53 -27t7 -68l-54 -179h-13zM41 589q-11 41 7 68t53 27t53 -27t7 -68l-55 -179h-12z" />
    <glyph glyph-name="numbersign" unicode="#" horiz-adv-x="525" 
d="M114 142h-101l29 117h101l30 123h-117l30 117h115l37 153h32l-37 -153h148l36 153h33l-36 -153h99l-30 -117h-98l-30 -123h114l-31 -117h-111l-37 -149h-33l37 149h-148l-36 -149h-32zM322 259l30 123h-147l-30 -123h147z" />
    <glyph glyph-name="dollar" unicode="$" horiz-adv-x="428" 
d="M195 -3q-31 1 -61 10t-53 25t-37.5 40t-14.5 56q0 41 19 58.5t39 17.5q19 0 34 -14t15 -40q0 -23 -14.5 -41t-46.5 -16q-5 0 -8.5 -3t-1.5 -9q9 -29 46.5 -46t83.5 -20v242q-47 21 -78.5 43.5t-50 48.5t-26.5 56.5t-8 66.5q0 37 12.5 68t34 54.5t51.5 37.5t65 16v73h28
v-72q32 -2 59.5 -10t48 -22.5t32.5 -35.5t12 -48q0 -32 -14.5 -48.5t-36.5 -16.5q-20 0 -34.5 13.5t-14.5 36.5q0 45 43 57q8 2 8.5 6.5t-2.5 8.5q-30 38 -101 41v-229q50 -23 85 -44.5t56.5 -47t31.5 -56.5t10 -72t-14 -74t-38.5 -57t-58 -38t-72.5 -16v-132h-28v132z
M195 630q-37 -4 -63 -28.5t-26 -73.5q0 -18 3.5 -33t13.5 -28.5t27.5 -26t44.5 -25.5v215zM223 15q56 5 81.5 37t25.5 75q0 21 -5 37t-17.5 29.5t-33 26t-51.5 25.5v-230z" />
    <glyph glyph-name="percent" unicode="%" horiz-adv-x="660" 
d="M157 338q-25 0 -50 11t-44.5 31.5t-32 50t-12.5 66.5t12.5 67t32.5 50t44.5 31t49.5 11t49.5 -11t44.5 -31t32.5 -50t12.5 -67q0 -38 -12.5 -67.5t-32.5 -49.5t-44.5 -31t-49.5 -11zM158 352q22 0 30 36t8 109q0 72 -9 108.5t-31 36.5q-23 0 -30 -36t-7 -109t8.5 -109
t30.5 -36zM470 653h36l-320 -659h-38zM503 -8q-25 0 -50 11t-44.5 31.5t-32 50t-12.5 66.5t12.5 67t32.5 50t44.5 31t49.5 11t49.5 -11t44 -31t32 -50t12.5 -67q0 -38 -12.5 -67.5t-32 -49.5t-44 -31t-49.5 -11zM504 6q22 0 30 36t8 109q0 72 -9 108.5t-31 36.5
q-23 0 -30.5 -36t-7.5 -109t8.5 -109t31.5 -36z" />
    <glyph glyph-name="ampersand" unicode="&#x26;" horiz-adv-x="630" 
d="M232 -10q-48 0 -86 13.5t-64.5 38t-41 58.5t-14.5 76t13 75.5t35 59.5t51.5 46.5t62.5 36.5q-17 63 -17 118q0 41 11 74.5t30.5 57.5t47.5 37t61 13q65 0 99 -34t34 -82q0 -29 -11.5 -52t-32 -41.5t-48.5 -34t-60 -28.5q11 -31 23.5 -62t27.5 -62q23 -48 42.5 -83.5
t38.5 -61.5q23 38 38 83.5t15 88.5q0 33 -25 45.5t-63 13.5v18h206v-16q-45 -2 -64.5 -22.5t-29.5 -65.5q-9 -37 -24.5 -79.5t-38.5 -83.5q21 -26 41 -38t44 -12q29 0 43.5 23.5t16.5 65.5h14q-1 -84 -32.5 -133t-96.5 -49q-52 0 -107 52q-28 -25 -62.5 -39.5t-76.5 -14.5z
M296 441q32 27 44 61t12 70q0 51 -9 77.5t-25 26.5q-40 0 -40 -109q0 -32 5 -63.5t13 -62.5zM277 32q39 0 78 30q-60 68 -118 191q-12 27 -23.5 56.5t-19.5 59.5q-20 -26 -32.5 -63.5t-12.5 -82.5q0 -91 31.5 -141t96.5 -50z" />
    <glyph glyph-name="quotesingle" unicode="'" horiz-adv-x="200" 
d="M40 589q-11 41 7 68t53 27t53 -27t7 -68l-55 -180h-11z" />
    <glyph glyph-name="parenleft" unicode="(" horiz-adv-x="284" 
d="M271 -143q-53 33 -97.5 76.5t-77 97t-51 115.5t-18.5 131q0 70 18.5 132t51 115t77 96.5t97.5 76.5v-14q-32 -32 -53 -76.5t-33.5 -97t-17.5 -112t-5 -120.5t5 -120t17.5 -111.5t33.5 -97t53 -77.5v-14v0z" />
    <glyph glyph-name="parenright" unicode=")" horiz-adv-x="284" 
d="M12 -129q32 33 53 77.5t34 97t18 111.5t5 120t-5 120.5t-18 112t-34 97t-53 76.5v14q52 -33 97 -76.5t77.5 -96.5t51 -115t18.5 -132q0 -69 -18.5 -131t-51 -115.5t-77.5 -97t-97 -76.5v14z" />
    <glyph glyph-name="asterisk" unicode="*" horiz-adv-x="403" 
d="M127 337q-18 0 -33 15t-15 36q0 15 9.5 28t25.5 26t35.5 26.5t40.5 29.5q-17 0 -34.5 -1.5t-34 -3t-31 -1t-24.5 3.5q-12 5 -20.5 15.5t-8.5 30.5q0 25 13 38.5t29 13.5q12 0 25.5 -7.5t28.5 -19.5t30.5 -27t32.5 -31q-13 41 -27 77.5t-14 59.5q0 19 10.5 34t35.5 15
q23 0 34.5 -15t11.5 -34q0 -23 -13 -59.5t-27 -77.5q18 16 33.5 31t29.5 27t27 19.5t25 7.5q17 0 30.5 -13.5t13.5 -38.5q0 -20 -9 -30.5t-21 -15.5q-10 -3 -24.5 -3.5t-31 1t-34 3t-34.5 1.5q21 -16 41 -29.5t36 -26.5t25.5 -26t9.5 -28q0 -21 -16 -36t-33 -15
q-24 0 -36 20q-12 19 -19.5 54.5t-18.5 77.5q-11 -41 -18.5 -77t-19.5 -55q-14 -20 -36 -20z" />
    <glyph glyph-name="plus" unicode="+" horiz-adv-x="434" 
d="M195 302h-157v44h157v179h44v-179h158v-44h-158v-179h-44v179z" />
    <glyph glyph-name="comma" unicode="," horiz-adv-x="241" 
d="M58 -161q18 15 35 35.5t30.5 41t21.5 39t8 31.5q0 6 -2 8t-6 1l-10 -2q-6 -2 -15 -2q-29 0 -48 17.5t-19 44.5q0 29 16.5 47.5t45.5 18.5q30 0 52.5 -22t22.5 -63q0 -56 -31.5 -108.5t-85.5 -102.5z" />
    <glyph glyph-name="hyphen" unicode="-" horiz-adv-x="259" 
d="M26 267h207v-77h-207v77z" />
    <glyph glyph-name="period" unicode="." horiz-adv-x="238" 
d="M119 -10q-27 0 -46.5 19t-19.5 47q0 27 19.5 46.5t46.5 19.5t46.5 -19.5t19.5 -46.5q0 -28 -19.5 -47t-46.5 -19z" />
    <glyph glyph-name="slash" unicode="/" horiz-adv-x="332" 
d="M287 689h40l-275 -774h-41z" />
    <glyph glyph-name="zero" unicode="0" horiz-adv-x="495" 
d="M247 -16q-37 0 -76 20.5t-71.5 62.5t-53 106t-20.5 151q0 89 21.5 153t54.5 105.5t72 61t74 19.5q37 0 76 -20.5t71.5 -62.5t53 -105.5t20.5 -150.5t-21 -151t-54 -106t-72 -62.5t-75 -20.5zM248 2q26 0 41.5 21t24 62t11 101t2.5 138q0 75 -3 135t-11.5 101t-24.5 63
t-41 22q-26 0 -41.5 -21.5t-24 -62.5t-11 -101t-2.5 -136q0 -77 3 -136.5t11.5 -101t24 -63t41.5 -21.5z" />
    <glyph glyph-name="one" unicode="1" horiz-adv-x="319" 
d="M20 18h27q30 0 42 14t12 43v444q0 27 -12.5 42t-41.5 15h-28v18q75 6 122 25t67 48h22v-592q0 -30 12.5 -43.5t41.5 -13.5h21v-18h-285v18z" />
    <glyph glyph-name="two" unicode="2" horiz-adv-x="427" 
d="M9 39q9 34 22 64t32 60t44.5 62t60.5 69q46 48 65 95t19 105q0 76 -24 107.5t-66 31.5q-15 0 -31.5 -6t-31.5 -16.5t-26.5 -25.5t-17.5 -33q-5 -15 -2.5 -19.5t6.5 -4.5q3 0 10.5 4t20.5 4q17 0 33.5 -13.5t16.5 -46.5q0 -27 -17 -43t-40 -16q-26 0 -43 20t-17 61
q0 37 14 67t38.5 51.5t57.5 33t72 11.5q46 0 82 -14.5t61 -38.5t37.5 -56t12.5 -67q0 -30 -8.5 -56.5t-29.5 -52.5t-55.5 -54t-86.5 -61q-32 -20 -56 -37.5t-43 -35t-33.5 -35.5t-27.5 -40h227q47 0 66.5 33.5t27.5 96.5h17l-8 -243h-379v39z" />
    <glyph glyph-name="three" unicode="3" horiz-adv-x="428" 
d="M190 -14q-38 0 -70 10t-55.5 29t-36.5 45.5t-13 59.5q0 24 6 40.5t15 27t20 15t22 4.5q20 0 36 -13.5t16 -40.5t-15.5 -41.5t-35.5 -14.5q-14 0 -19.5 3.5t-12.5 3.5q-6 0 -5 -11q2 -21 13.5 -38.5t29 -30t38 -19t39.5 -6.5q30 0 50 12t32 33t17 51t5 66q0 146 -93 146
q-14 0 -20.5 -3t-18.5 -3q-9 0 -16 4t-7 14q0 22 26 22q11 0 17 -3t19 -3q25 0 41 11t25 31t12.5 47.5t3.5 60.5q0 42 -6.5 69.5t-18.5 44t-28.5 23t-36.5 6.5t-40 -8t-35.5 -20t-25 -27.5t-9.5 -30.5q0 -10 7 -10q2 0 8 1.5t11 1.5q21 0 37 -13.5t16 -42.5q0 -27 -16 -42
t-37 -15q-23 0 -40.5 17.5t-17.5 58.5q0 38 15 66.5t39.5 48t56 29t64.5 9.5q90 0 142.5 -45.5t52.5 -125.5q0 -36 -13.5 -62.5t-37 -45.5t-55 -30.5t-67.5 -15.5v-2q41 -4 75 -15.5t58 -32.5t37.5 -51t13.5 -72t-17.5 -75t-46.5 -55.5t-68 -34.5t-82 -12z" />
    <glyph glyph-name="four" unicode="4" horiz-adv-x="453" 
d="M162 18h19q28 0 40 11.5t12 44.5v79h-228v18l320 488h36v-480h75v-26h-75v-79q0 -33 12 -44.5t41 -11.5h15v-18h-267v18zM233 179v295l-194 -295h194z" />
    <glyph glyph-name="five" unicode="5" horiz-adv-x="422" 
d="M177 -14q-72 0 -117 35t-45 104q0 34 17.5 55.5t43.5 21.5q23 0 37.5 -15.5t14.5 -41.5q0 -30 -18.5 -44.5t-38.5 -12.5q-15 2 -21.5 1t-2.5 -13q10 -31 38 -49t65 -18q48 0 76 46.5t28 144.5q0 88 -27 132t-72 44q-26 0 -46.5 -7.5t-35.5 -19.5q-1 -54 -22 -54
q-8 0 -11.5 7.5t-1.5 18.5q3 13 15 31l10 299l9 5q40 -14 80.5 -22t77.5 -8q13 0 32 1.5t39.5 5.5t40 9.5t34.5 14.5l7 -8q-16 -30 -36 -54.5t-46 -42.5t-59 -28t-76 -10q-20 0 -46 4.5t-39 9.5l-7 -157q12 9 41 18.5t72 9.5q42 0 79.5 -12t66 -36t45 -60t16.5 -84
q0 -52 -17.5 -93t-47 -69.5t-69 -43.5t-83.5 -15z" />
    <glyph glyph-name="six" unicode="6" horiz-adv-x="455" 
d="M234 -15q-48 0 -86.5 21t-65.5 61t-42 97t-15 128q0 75 20 142t55 117.5t83.5 80t105.5 29.5q58 0 88.5 -30.5t30.5 -71.5q0 -27 -15.5 -44t-38.5 -17q-20 0 -36.5 14t-16.5 43q0 34 28 51q8 4 14 5.5t6 5.5q0 8 -15.5 17t-44.5 9q-34 0 -57 -24t-38 -64.5t-22.5 -94
t-8.5 -113.5q3 7 10.5 16t19.5 17.5t28.5 14t38.5 5.5q24 0 55 -10.5t58.5 -33.5t46 -61t18.5 -92q0 -48 -17 -88t-45 -69t-65 -45t-77 -16zM234 3q16 0 28 10t19.5 32.5t11 59.5t3.5 91q0 55 -4 89.5t-11.5 54.5t-18.5 27.5t-26 7.5q-35 0 -53.5 -43t-18.5 -137
q0 -97 16.5 -144.5t53.5 -47.5z" />
    <glyph glyph-name="seven" unicode="7" horiz-adv-x="410" 
d="M187 -14q-36 0 -54 28.5t-18 71.5q0 41 16 87t46 101t74 121t101 147h-187q-32 0 -52.5 -8.5t-34 -27t-22.5 -47.5t-16 -71h-19l16 259h359v-71q-36 -57 -63 -101t-46 -86.5t-28.5 -89.5t-9.5 -111q0 -39 4 -68.5t4 -48.5q0 -36 -18 -60.5t-52 -24.5z" />
    <glyph glyph-name="eight" unicode="8" horiz-adv-x="444" 
d="M222 -15q-47 0 -84.5 12.5t-63.5 34.5t-40 53t-14 67q0 31 10.5 56t28.5 44t40.5 33t46.5 24q-52 33 -80 73.5t-28 97.5q0 43 13.5 77t38 57.5t58 36t73.5 12.5t73.5 -11.5t58 -31t38 -46.5t13.5 -58q0 -51 -32.5 -86t-80.5 -54q31 -20 56 -39t42 -42t26 -51t9 -65
q0 -48 -16.5 -84.5t-44 -61t-64.5 -36.5t-77 -12zM227 3q51 0 81 31t30 82q0 45 -32 82t-99 76q-10 6 -21 12l-22 12q-18 -26 -30.5 -63.5t-12.5 -76.5q0 -155 106 -155zM268 390q16 21 26 51.5t10 68.5q0 66 -22.5 100.5t-64.5 34.5q-40 0 -66 -26.5t-26 -74.5
q0 -50 37 -83.5t95 -64.5q2 -2 5.5 -3t5.5 -3z" />
    <glyph glyph-name="nine" unicode="9" horiz-adv-x="453" 
d="M173 -13q-29 0 -51.5 8t-37.5 22t-22.5 32.5t-7.5 39.5q0 27 15.5 44t38.5 17q21 0 37 -15t16 -43q0 -31 -26 -49q-10 -7 -17.5 -9t0.5 -11q8 -8 21 -13t34 -5q34 0 56 23.5t35 64t19 94t7 113.5q-3 -8 -10.5 -17t-19 -16.5t-28 -13t-38.5 -5.5q-24 0 -55 10t-58.5 33
t-46.5 60.5t-19 93.5q0 48 17 88t45 69t65 45t77 16q48 0 86.5 -21.5t65.5 -61t41.5 -96.5t14.5 -128q0 -91 -19 -160t-53 -115.5t-80.5 -70t-101.5 -23.5zM217 272q35 0 53.5 43.5t18.5 137.5q0 192 -70 192q-16 0 -27.5 -10t-19 -32.5t-11.5 -59.5t-4 -91q0 -55 4 -90
t11.5 -55t18.5 -27.5t26 -7.5z" />
    <glyph glyph-name="colon" unicode=":" horiz-adv-x="238" 
d="M119 -10q-27 0 -46.5 19t-19.5 47q0 27 19.5 46.5t46.5 19.5t46.5 -19.5t19.5 -46.5q0 -28 -19.5 -47t-46.5 -19zM119 310q-27 0 -46.5 19.5t-19.5 46.5t19.5 47t46.5 20t46.5 -20t19.5 -47t-19.5 -46.5t-46.5 -19.5z" />
    <glyph glyph-name="semicolon" unicode=";" horiz-adv-x="238" 
d="M58 -161q18 15 35 35.5t30.5 41t21.5 39t8 31.5q0 6 -2 8t-6 1l-10 -2q-6 -2 -15 -2q-29 0 -48 17.5t-19 44.5q0 29 16.5 47.5t45.5 18.5q30 0 52.5 -22t22.5 -63q0 -56 -31.5 -108.5t-85.5 -102.5zM119 310q-27 0 -46.5 19.5t-19.5 46.5q0 28 19.5 47.5t46.5 19.5
t46.5 -19.5t19.5 -47.5q0 -27 -19.5 -46.5t-46.5 -19.5z" />
    <glyph glyph-name="less" unicode="&#x3c;" horiz-adv-x="446" 
d="M49 317v26l349 180v-47l-288 -147l288 -144v-48z" />
    <glyph glyph-name="equal" unicode="=" horiz-adv-x="445" 
d="M56 433h333v-44h-333v44zM56 260h333v-44h-333v44z" />
    <glyph glyph-name="greater" unicode="&#x3e;" horiz-adv-x="446" 
d="M49 185l289 144l-289 147v47l349 -180v-26l-349 -180v48z" />
    <glyph glyph-name="question" unicode="?" horiz-adv-x="393" 
d="M153 225q0 28 2 50t7 42t13.5 40t22.5 43q17 29 26.5 65.5t9.5 87.5q0 56 -20 88t-59 32q-20 0 -37 -6t-29 -15t-19 -20t-7 -20q0 -8 5.5 -7.5t14.5 0.5q24 0 37 -17.5t13 -40.5q0 -28 -16 -41.5t-35 -13.5q-24 0 -39 19t-15 57q0 58 44 91.5t113 33.5q38 0 71 -10
t57 -29.5t38 -47.5t14 -65q0 -47 -22.5 -84.5t-72.5 -76.5q-31 -24 -50.5 -44.5t-30.5 -39t-15 -36.5t-4 -38v-20h-17v23zM167 -10q-27 0 -46.5 19t-19.5 47q0 27 19.5 46.5t46.5 19.5t46.5 -19.5t19.5 -46.5q0 -28 -19.5 -47t-46.5 -19z" />
    <glyph glyph-name="at" unicode="@" horiz-adv-x="777" 
d="M402 -154q-68 0 -133 23t-115.5 70t-81 118.5t-30.5 169.5q0 93 31.5 170.5t84 133.5t120.5 87.5t141 31.5q64 0 120.5 -21t99.5 -60.5t68 -98t25 -133.5q0 -62 -16 -113.5t-43 -89.5t-61.5 -59t-71.5 -21q-50 0 -73.5 23.5t-26.5 64.5h-4q-21 -46 -50.5 -67t-63.5 -21
q-56 0 -93.5 41t-37.5 116q0 49 16 92t42.5 75.5t61 51.5t71.5 19q42 0 66 -23.5t30 -68.5h4l17 87h121l-73 -283q-3 -11 -4.5 -23.5t0.5 -23t8.5 -18t21.5 -7.5q22 0 46.5 18t45.5 50t34.5 77.5t13.5 101.5q0 71 -23 126t-63 93t-93.5 57.5t-114.5 19.5q-80 0 -146 -35
t-113 -92.5t-72.5 -130t-25.5 -147.5q0 -93 29 -161.5t77 -113.5t109.5 -66.5t127.5 -21.5q79 0 142 27t111 69l11 -14q-53 -43 -117 -71.5t-150 -28.5zM345 82q23 0 43 21.5t36 54.5t25.5 72t11.5 74q1 20 -1 40t-7 36t-14.5 26t-23.5 10q-19 0 -38 -23.5t-34.5 -61
t-25.5 -83t-10 -90.5q-1 -76 38 -76z" />
    <glyph glyph-name="A" unicode="A" horiz-adv-x="635" 
d="M-1 18q34 3 53 27t36 72l209 583h34l222 -611q12 -35 29 -52t54 -19v-18h-299v18h28q25 0 35.5 11.5t11.5 26.5q1 14 -2 28.5t-10 34.5l-39 112h-204l-27 -76q-10 -27 -14.5 -51t-4.5 -40q0 -21 13 -33.5t39 -12.5h16v-18h-180v18zM354 253l-96 263l-94 -263h190z" />
    <glyph glyph-name="B" unicode="B" horiz-adv-x="563" 
d="M11 18h16q32 0 45 14.5t13 45.5v529q0 29 -13 44t-45 15h-16v18h261q54 0 99 -9t77.5 -28.5t51 -50.5t18.5 -75q0 -37 -15 -64.5t-39.5 -47.5t-56.5 -33t-66 -20v-1q37 -8 72 -20.5t62.5 -33t44 -49.5t16.5 -68q0 -89 -63 -136.5t-185 -47.5h-277v18zM266 362q33 0 55 11
t34.5 31.5t18 48t5.5 60.5q0 70 -22.5 111.5t-76.5 41.5h-10q-29 0 -40 -13.5t-11 -45.5v-245h47zM288 18q31 0 52 13t33.5 35t18 51.5t5.5 63.5q0 36 -6 65.5t-19.5 51t-36 33t-55.5 11.5h-61v-265q0 -59 54 -59h15z" />
    <glyph glyph-name="C" unicode="C" horiz-adv-x="553" 
d="M300 -16q-59 0 -108.5 27.5t-86.5 75.5t-57.5 112.5t-20.5 138.5q0 77 21.5 142.5t59 113t88.5 74t110 26.5q29 0 59 -11.5t55 -28.5q8 -6 18 -10t17 -4q12 0 22 9t18 41h15l8 -278h-19q-11 62 -30 111t-44.5 83t-56 52t-63.5 18q-38 0 -62.5 -26t-39 -71t-20.5 -106
t-6 -131q0 -73 7 -132.5t23.5 -102t44 -66t67.5 -23.5q66 0 117 57.5t69 174.5h22q-8 -64 -28 -113.5t-50 -83.5t-68 -51.5t-81 -17.5z" />
    <glyph glyph-name="D" unicode="D" horiz-adv-x="602" 
d="M11 18h16q32 0 45 14.5t13 46.5v526q0 32 -13 46.5t-45 14.5h-16v18h275q61 0 113.5 -22t91.5 -65.5t61 -107t22 -145.5q0 -83 -21.5 -147t-60 -107.5t-91 -66.5t-115.5 -23h-275v18zM289 18q34 0 59.5 22.5t42.5 64t25.5 101t8.5 134.5t-7.5 135t-24 102.5t-43 65.5
t-63.5 23h-14q-28 0 -40 -13.5t-12 -45.5v-530q0 -32 11.5 -45.5t40.5 -13.5h16z" />
    <glyph glyph-name="E" unicode="E" horiz-adv-x="567" 
d="M11 18h16q32 0 45 14.5t13 46.5v526q0 30 -13 45.5t-45 15.5h-16v18h489l9 -257h-18q-5 48 -17 91t-32 75.5t-48 52t-66 19.5h-49q-32 0 -45 -14t-13 -46v-240h34q30 0 50 10.5t32.5 30t18 46.5t5.5 60h18v-322h-18q0 32 -5.5 60.5t-18 49.5t-32.5 33t-50 12h-34v-266
q0 -33 13 -46.5t45 -13.5h59q40 0 70 22t50 58.5t32.5 83t18.5 95.5h18l-16 -278h-500v18z" />
    <glyph glyph-name="F" unicode="F" horiz-adv-x="529" 
d="M11 18h16q32 0 45 14.5t13 46.5v526q0 32 -13 46.5t-45 14.5h-16v18h488l7 -262h-18q-8 57 -18.5 102t-29.5 76.5t-49.5 48t-77.5 16.5h-34q-32 0 -45 -15.5t-13 -44.5v-246h33q34 0 55.5 11.5t33 32t15.5 47.5t4 58h18v-327h-18q0 31 -4 59.5t-15.5 50.5t-32.5 35
t-56 13h-33v-260q0 -32 13 -46.5t45 -14.5h31v-18h-299v18z" />
    <glyph glyph-name="G" unicode="G" horiz-adv-x="596" 
d="M308 -9q-60 0 -111.5 26.5t-89 73t-59 110t-21.5 137.5q0 77 22.5 142.5t60.5 113t89.5 74t109.5 26.5q35 0 64.5 -11.5t54.5 -29.5q9 -6 19 -9.5t18 -3.5q10 0 21 10t19 44h15l7 -274h-19q-29 133 -81.5 194.5t-116.5 61.5q-68 0 -100.5 -87.5t-32.5 -246.5
q0 -76 7 -137t23 -104t42 -66.5t64 -23.5q45 0 66.5 30t21.5 99v93q0 61 -58 61h-23v18h267v-18h-6q-28 0 -39.5 -12.5t-11.5 -48.5v-240h-19q-9 30 -23 51.5t-28 21.5q-10 0 -17.5 -6t-15.5 -13q-24 -23 -50 -39.5t-69 -16.5z" />
    <glyph glyph-name="H" unicode="H" horiz-adv-x="643" 
d="M11 18h16q32 0 45 14.5t13 46.5v526q0 32 -13 46.5t-45 14.5h-16v18h284v-18h-16q-32 0 -45 -14.5t-13 -46.5v-246h200v246q0 30 -12.5 45.5t-43.5 15.5h-17v18h284v-18h-16q-32 0 -45.5 -15t-13.5 -46v-526q0 -32 13.5 -46.5t45.5 -14.5h16v-18h-284v18h17
q31 0 43.5 14.5t12.5 46.5v258h-200v-258q0 -32 13 -46.5t45 -14.5h16v-18h-284v18z" />
    <glyph glyph-name="I" unicode="I" horiz-adv-x="323" 
d="M18 18h18q32 0 45 15t13 46v526q0 32 -13 46.5t-45 14.5h-18v18h287v-18h-18q-31 0 -44 -14.5t-13 -46.5v-526q0 -32 13 -46.5t44 -14.5h18v-18h-287v18z" />
    <glyph glyph-name="J" unicode="J" horiz-adv-x="464" 
d="M184 -14q-71 0 -116.5 34t-45.5 102q0 43 21.5 69.5t52.5 26.5q28 0 45 -19t17 -47q0 -33 -20 -49t-40 -16q-15 0 -22.5 4.5t-12.5 4.5q-4 0 -7.5 -2.5t-1.5 -11.5q4 -29 31 -48.5t66 -19.5q43 0 65 37t22 123v431q0 32 -13.5 46.5t-44.5 14.5h-30v18h301v-18h-19
q-32 0 -45 -15t-13 -46v-405q0 -54 -14 -94t-39.5 -66.5t-60.5 -40t-76 -13.5z" />
    <glyph glyph-name="K" unicode="K" horiz-adv-x="636" 
d="M11 18h16q32 0 45 15t13 46v526q0 30 -13 45.5t-45 15.5h-16v18h286v-18h-18q-32 0 -45 -14.5t-13 -46.5v-282l189 222q26 30 34 51t8 35q0 16 -11.5 25.5t-40.5 9.5h-4v18h212v-18q-35 0 -65 -20t-70 -66l-119 -139l199 -361q20 -35 34.5 -48.5t39.5 -13.5h4v-18h-262
v18h16q20 0 28 5.5t8 16.5q0 12 -14 37l-142 264l-44 -50v-212q0 -34 13 -47.5t45 -13.5h18v-18h-286v18z" />
    <glyph glyph-name="L" unicode="L" horiz-adv-x="511" 
d="M11 18h16q32 0 45 16t13 45v526q0 28 -13 44.5t-45 16.5h-16v18h296v-18h-28q-32 0 -45 -16t-13 -45v-526q0 -29 13 -44.5t43 -15.5h27q44 0 74.5 19.5t51 55t32 85.5t17.5 112h18l-14 -291h-472v18z" />
    <glyph glyph-name="M" unicode="M" horiz-adv-x="758" 
d="M116 609h-4v-467q0 -33 3.5 -56.5t13.5 -38.5t27 -22t43 -7h3v-18h-201v18h4q45 0 62.5 27.5t17.5 96.5v463q0 32 -13 46.5t-45 14.5h-19v18h221l152 -484l148 484h218v-18h-16q-59 0 -59 -61v-526q0 -61 59 -61h16v-18h-295v18h28q31 0 43.5 15t12.5 46v530h-3
l-189 -620h-32z" />
    <glyph glyph-name="N" unicode="N" horiz-adv-x="639" 
d="M120 578v-428q0 -37 3 -62.5t12 -41t25.5 -22t42.5 -6.5h4v-18h-199v18h7q45 0 61.5 29t16.5 103v463q-23 27 -44.5 39t-41.5 14v18h211l305 -462v312q0 37 -3.5 62.5t-13 41t-26 22t-42.5 6.5h-4v18h202v-18h-6q-44 0 -62 -29t-18 -103v-544h-40z" />
    <glyph glyph-name="O" unicode="O" horiz-adv-x="607" 
d="M304 -16q-56 0 -106 24.5t-88 70t-60.5 111.5t-22.5 150t22.5 150.5t61 113t88.5 71.5t106 25q55 0 105 -24.5t87.5 -70t60 -111.5t22.5 -150t-22.5 -150.5t-60.5 -113t-88 -71.5t-105 -25zM305 2q39 0 63.5 25.5t38.5 71t19 107.5t5 134t-5.5 134.5t-19.5 108.5
t-38.5 72.5t-63.5 26.5t-64 -25.5t-39 -71t-19 -107.5t-5 -134t5 -134.5t19.5 -108.5t39.5 -72.5t64 -26.5z" />
    <glyph glyph-name="P" unicode="P" horiz-adv-x="550" 
d="M11 18h16q32 0 45 13t13 48v526q0 36 -13.5 48.5t-44.5 12.5h-16v18h276q116 0 178.5 -50t62.5 -143q0 -49 -18.5 -87t-52 -63.5t-80.5 -39t-104 -13.5h-52v-209q0 -36 13 -48.5t45 -12.5h28v-18h-296v18zM272 308q31 0 52.5 13t34 36.5t18 56.5t5.5 73t-5.5 73t-17 56.5
t-30 36.5t-45.5 13h-9q-29 0 -41.5 -12t-12.5 -48v-298h51z" />
    <glyph glyph-name="Q" unicode="Q" horiz-adv-x="607" 
d="M472 -198q-29 0 -47.5 13.5t-30.5 38t-17.5 60t-7.5 79.5q-17 -5 -32.5 -7t-32.5 -2q-56 0 -106 24.5t-88 70t-60.5 111.5t-22.5 150t22.5 150.5t61 113t88.5 71.5t106 25q55 0 105 -24.5t87.5 -70t60 -111.5t22.5 -150q0 -61 -12.5 -113.5t-34.5 -94.5t-52 -73t-65 -50
q20 -92 73 -92q28 0 45 22.5t19 61.5h18q0 -41 -5.5 -78t-17.5 -65t-31 -44t-45 -16zM241 28q-16 18 -22 44.5t-6 45.5q0 48 23 74.5t60 26.5q48 0 72.5 -37t35.5 -95q16 47 21.5 109.5t5.5 143.5q0 72 -5.5 134.5t-19.5 108.5t-38.5 72.5t-63.5 26.5q-40 0 -64.5 -25.5
t-38.5 -71t-19 -107.5t-5 -134q0 -55 2.5 -105t9.5 -91.5t19 -72.5t31 -48zM315 3q16 0 29 5.5t23 14.5q-4 90 -19.5 131.5t-53.5 41.5q-28 0 -44.5 -20.5t-16.5 -62.5q0 -50 20.5 -80t61.5 -30z" />
    <glyph glyph-name="R" unicode="R" horiz-adv-x="580" 
d="M479 -9q-22 0 -42.5 6t-37.5 25t-30 53.5t-21 91.5q-6 44 -14 73.5t-20 47.5t-30 25.5t-45 7.5h-18v-243q0 -35 12.5 -47.5t44.5 -12.5h22v-18h-289v18h16q32 0 45 12.5t13 47.5v528q0 35 -13 47.5t-45 12.5h-16v18h272q54 0 98 -9.5t76 -30t49.5 -54t17.5 -81.5
q0 -44 -20 -76t-51 -54t-69.5 -34.5t-75.5 -15.5v-1q54 -14 90 -53t58 -87q26 -57 43 -88t38 -31q17 0 24.5 16t9.5 55h18q0 -69 -27 -109t-83 -40zM252 341q37 0 62 10.5t39 31t20 51t6 71.5q0 86 -25.5 123.5t-69.5 37.5h-9q-28 0 -41 -12t-13 -47v-266h31z" />
    <glyph glyph-name="S" unicode="S" horiz-adv-x="508" 
d="M285 -11q-30 0 -57 7t-47 15q-30 13 -47 25t-32 12q-10 0 -22 -11.5t-20 -45.5h-15l-7 262h17q12 -65 36.5 -111t57 -76t68.5 -44t71 -14q30 0 52.5 9t37.5 25t22.5 36.5t7.5 44.5q0 28 -7.5 49t-24.5 38t-45 30.5t-69 26.5q-56 17 -97.5 36.5t-68.5 46t-40.5 61.5
t-13.5 82t14.5 84.5t40 63.5t60 39.5t75.5 13.5q35 0 68.5 -11.5t58.5 -28.5q9 -6 19 -10.5t16 -4.5q11 0 22 10.5t19 44.5h14l6 -262h-16q-25 128 -79 185.5t-130 57.5q-51 0 -82 -30t-31 -76q0 -27 6.5 -47.5t23 -37.5t46 -31.5t75.5 -28.5q57 -17 98 -38t67.5 -48.5
t39 -62.5t12.5 -80q0 -52 -17 -90.5t-44.5 -64t-63.5 -38.5t-75 -13z" />
    <glyph glyph-name="T" unicode="T" horiz-adv-x="550" 
d="M114 18h35q32 0 45 16t13 45v587h-20q-48 0 -76 -19t-44.5 -53.5t-24.5 -82.5t-17 -106h-18l9 279h517l10 -279h-19q-8 58 -16.5 106t-24.5 82.5t-44 53.5t-76 19h-20v-587q0 -30 13 -45.5t45 -15.5h35v-18h-322v18z" />
    <glyph glyph-name="U" unicode="U" horiz-adv-x="624" 
d="M323 -12q-120 0 -181.5 65.5t-61.5 179.5v372q0 35 -14.5 48t-43.5 13h-16v18h291v-18h-23q-30 0 -44 -14t-14 -47v-381q0 -94 33.5 -140t105.5 -46q67 0 108.5 45t41.5 143v316q0 67 -17.5 95.5t-64.5 28.5h-3v18h197v-18h-4q-44 0 -62.5 -27t-18.5 -97v-310
q0 -117 -55 -180.5t-154 -63.5z" />
    <glyph glyph-name="V" unicode="V" horiz-adv-x="631" 
d="M82 595q-14 38 -30.5 53.5t-52.5 17.5v18h300v-18h-27q-26 0 -36.5 -12t-11.5 -27q-1 -26 12 -65l139 -402l126 371q19 52 17 89q-1 21 -12.5 33.5t-37.5 12.5h-17v18h181v-18q-19 -3 -32.5 -10.5t-23.5 -20t-17.5 -30t-15.5 -39.5l-201 -584h-37z" />
    <glyph glyph-name="W" unicode="W" horiz-adv-x="870" 
d="M87 578q-7 23 -14 39t-16.5 26.5t-23 16t-32.5 6.5v18h265v-18h-2q-26 0 -36 -10.5t-11 -24.5q-2 -28 11 -69l107 -375l88 269l-42 130q-6 20 -12.5 34.5t-15 24t-20.5 14.5t-29 7v18h276v-18h-21q-25 0 -34.5 -11t-10.5 -26q-1 -14 1.5 -31t9.5 -38l117 -372l95 334
q8 29 12.5 54.5t4.5 43.5q0 20 -12.5 33t-41.5 13h-11v18h179v-18q-38 -4 -58 -30t-34 -74l-167 -580h-36l-138 434l-139 -434h-32z" />
    <glyph glyph-name="X" unicode="X" horiz-adv-x="626" 
d="M5 18q21 2 36.5 9.5t29.5 20t27 30.5t28 41l135 204l-152 281q-30 62 -84 62h-2v18h272v-18h-14q-21 0 -28.5 -6t-7.5 -18q0 -8 4 -16.5t9 -19.5l96 -185l85 133q17 27 22 43.5t5 29.5q0 17 -10 28t-35 11h-9v18h187v-18q-20 -2 -35 -7.5t-28.5 -17.5t-27 -30t-30.5 -45
l-110 -168l173 -318q14 -25 33.5 -43.5t45.5 -18.5h2v-18h-271v18h14q23 0 30.5 7.5t7.5 19.5q0 8 -3 17t-7 16l-118 223l-110 -170q-15 -24 -21 -42.5t-6 -31.5q0 -14 11 -26.5t39 -12.5h9v-18h-192v18z" />
    <glyph glyph-name="Y" unicode="Y" horiz-adv-x="622" 
d="M164 18h23q35 0 48.5 19.5t13.5 51.5v210l-165 305q-18 33 -36 47.5t-47 14.5h-2v18h276v-18h-18q-18 0 -25.5 -7t-7.5 -18q-2 -16 10 -36l137 -260l109 207q14 26 18.5 44t4.5 31q0 17 -11.5 28t-37.5 11h-10v18h179v-18q-22 -4 -37 -12.5t-27.5 -22.5t-24 -34.5
t-26.5 -48.5l-126 -237v-222q0 -29 13.5 -50t48.5 -21h22v-18h-302v18z" />
    <glyph glyph-name="Z" unicode="Z" horiz-adv-x="598" 
d="M21 22l399 644h-142q-50 0 -83 -17.5t-53 -49.5t-31 -78t-18 -104h-17l8 267h481v-21l-400 -645h196q51 0 83.5 20t52.5 56t30.5 85.5t17.5 108.5h18l-16 -288h-526v22z" />
    <glyph glyph-name="bracketleft" unicode="[" horiz-adv-x="296" 
d="M57 684h217v-18h-96v-778h96v-18h-217v814z" />
    <glyph glyph-name="backslash" unicode="\" horiz-adv-x="354" 
d="M27 689h40l276 -774h-40z" />
    <glyph glyph-name="bracketright" unicode="]" horiz-adv-x="296" 
d="M22 -112h96v778h-96v18h217v-814h-217v18z" />
    <glyph glyph-name="asciicircum" unicode="^" horiz-adv-x="420" 
d="M42 415l132 272h72l132 -272l-13 -10l-155 149l-155 -149z" />
    <glyph glyph-name="underscore" unicode="_" horiz-adv-x="420" 
d="M-2 -70h424v-36h-424v36z" />
    <glyph glyph-name="grave" unicode="`" 
d="M165 533q-28 12 -37 24t-11 28q-2 17 9.5 33t31.5 17q15 1 29.5 -6t29.5 -32l62 -102l-6 -9z" />
    <glyph glyph-name="a" unicode="a" horiz-adv-x="448" 
d="M129 -11q-45 0 -74.5 24.5t-29.5 74.5q0 27 11 50.5t38 44.5t73 39t116 34v27q0 73 -16 105t-61 32q-18 0 -34 -4.5t-28.5 -11t-19.5 -13.5t-7 -12q0 -7 5 -7.5t14 -1.5q21 -1 35 -14t14 -38q0 -24 -16 -39t-39 -15q-26 0 -41.5 17t-15.5 43q0 23 9.5 44t29.5 37.5t51 26
t74 9.5q37 0 67.5 -8.5t52.5 -27.5t34 -49.5t12 -73.5v-213q0 -19 6.5 -28t17.5 -9q16 0 30 12l9 -10q-15 -18 -36.5 -30t-58.5 -12q-33 0 -60.5 23.5t-27.5 70.5h-2q-15 -42 -50 -69.5t-82 -27.5zM188 50q12 0 25 9t24.5 24.5t18.5 37t7 46.5v71q-35 -9 -57.5 -23
t-35.5 -31t-17.5 -36.5t-4.5 -39.5q0 -58 40 -58z" />
    <glyph glyph-name="b" unicode="b" horiz-adv-x="468" 
d="M39 -14q8 40 9 88t1 93v443q0 35 -10 46.5t-40 11.5h-4v18l171 14v-266l-4 -108h2q7 23 18.5 43.5t27 35.5t36 24t46.5 9q33 0 60.5 -17.5t48 -47.5t32 -70.5t11.5 -87.5t-13.5 -88t-36.5 -71.5t-55 -48t-69 -17.5q-45 0 -81.5 28t-61.5 74h-2l-54 -106h-32zM251 14
q32 0 46 49t14 150q0 102 -15.5 143.5t-43.5 41.5q-19 0 -34.5 -16.5t-27 -42.5t-17.5 -59t-6 -66q0 -45 6.5 -82t17.5 -63t26.5 -40.5t33.5 -14.5z" />
    <glyph glyph-name="c" unicode="c" horiz-adv-x="402" 
d="M217 -13q-40 0 -76 16t-63 45.5t-42.5 71t-15.5 93.5q0 51 17 93t47 72.5t69.5 47.5t84.5 17q31 0 57.5 -8.5t46 -24t30 -36.5t10.5 -46q0 -32 -16.5 -50t-39.5 -18q-20 0 -36 14t-16 40q0 22 12 36t29 18q14 4 22 3.5t1 10.5q-12 17 -32.5 27.5t-52.5 10.5
q-49 0 -74.5 -48.5t-25.5 -154.5q0 -99 23 -142.5t78 -43.5q21 0 39 8.5t32.5 22t26 30t20.5 33.5l16 -10q-11 -26 -26.5 -49t-36.5 -40.5t-48 -28t-60 -10.5z" />
    <glyph glyph-name="d" unicode="d" horiz-adv-x="474" 
d="M301 86h-1q-19 -46 -48 -70.5t-74 -24.5q-30 0 -58 17t-49.5 47t-34 71.5t-12.5 90.5q0 48 11.5 88.5t32.5 70t50 46.5t64 17q48 0 75 -25.5t41 -60.5h1l-4 80v177q0 33 -9.5 44.5t-40.5 11.5h-21v18l188 15v-619q0 -34 9.5 -45.5t40.5 -11.5h4v-18l-170 -15zM215 31
q21 0 37.5 17.5t27 44.5t16 58t5.5 58q0 40 -6.5 76t-18 63t-27 43t-34.5 16q-18 0 -29.5 -14t-17.5 -39t-8 -59.5t-2 -74.5q0 -91 14 -140t43 -49z" />
    <glyph glyph-name="e" unicode="e" horiz-adv-x="418" 
d="M219 -13q-40 0 -76 15.5t-63.5 45t-43.5 71t-16 94.5q0 51 17 93.5t44.5 72.5t63 47t73.5 17q35 0 67.5 -14.5t57 -42t39.5 -66t15 -86.5q0 -5 -0.5 -14.5t-0.5 -12.5h-248q2 -94 25 -137t78 -43q42 0 75.5 25t58.5 71l15 -9q-27 -57 -71 -92t-110 -35zM226 227
q28 0 37.5 12.5t9.5 41.5q0 30 -3 56t-9.5 45.5t-17.5 31t-27 11.5q-35 0 -50.5 -50.5t-17.5 -147.5h78z" />
    <glyph glyph-name="f" unicode="f" horiz-adv-x="280" 
d="M11 18h4q30 0 40 12t10 45v331h-54v20h54v70q0 40 10 76.5t31 64.5t52.5 44.5t74.5 16.5q24 0 42.5 -8t31.5 -20.5t19.5 -29t6.5 -33.5q0 -26 -14 -42.5t-36 -16.5q-17 0 -31.5 12t-14.5 35q0 36 28 46q13 5 19.5 3.5t6.5 3.5q0 8 -11 19.5t-37 11.5q-27 0 -43 -32.5
t-16 -104.5v-116h88v-20h-88v-331q0 -33 10 -45t40 -12h18v-18h-241v18z" />
    <glyph glyph-name="g" unicode="g" horiz-adv-x="445" 
d="M196 -206q-40 0 -76.5 5.5t-64 17t-43.5 29.5t-16 44q0 16 8 31.5t25 28t44 19.5t66 5q-37 6 -60 15t-36 21t-17.5 26.5t-4.5 31.5q0 32 22.5 53.5t48.5 36.5q-29 20 -46.5 55t-17.5 73q0 35 13.5 64t37 49.5t53.5 32t63 11.5q35 0 68 -12.5t58 -37.5q12 23 30.5 41
t44.5 18q22 0 36.5 -14t14.5 -40q0 -23 -11.5 -34.5t-25.5 -11.5q-17 0 -28.5 11.5t-9.5 38.5q0 7 -8 7q-6 0 -14.5 -9.5t-14.5 -22.5q11 -17 18.5 -42t7.5 -49q0 -35 -13.5 -64.5t-36 -50.5t-52 -32.5t-62.5 -11.5q-23 0 -47 6t-37 14q-5 -7 -8.5 -14t-3.5 -18
q0 -18 26 -29t92 -15q87 -5 138.5 -34.5t51.5 -96.5q0 -69 -56.5 -107.5t-156.5 -38.5zM195 145q17 0 26.5 12t14.5 32t6 45t1 52q0 77 -12 108t-36 31q-30 0 -39.5 -35t-9.5 -104q0 -26 1 -51t6 -45t15 -32.5t27 -12.5zM201 -187q63 0 101 25.5t38 59.5q0 13 -7 25.5
t-22.5 22.5t-41.5 15.5t-65 5.5q-71 0 -99 -22t-28 -58q0 -34 31.5 -54t92.5 -20z" />
    <glyph glyph-name="h" unicode="h" horiz-adv-x="493" 
d="M13 18h3q31 0 40.5 13.5t9.5 42.5v540q0 29 -9.5 42.5t-40.5 13.5h-3v18l170 11v-265l-3 -100h3q6 18 17.5 36t28 33t37.5 24.5t48 9.5q62 0 90.5 -38t28.5 -110v-215q0 -29 8 -42.5t39 -13.5h2v-18h-216v18h2q29 0 37.5 13.5t8.5 42.5v229q0 44 -10.5 63.5t-36.5 19.5
q-21 0 -36.5 -13t-25 -34.5t-14.5 -50.5t-5 -60v-154q0 -29 7.5 -42.5t36.5 -13.5h3v-18h-220v18z" />
    <glyph glyph-name="i" unicode="i" horiz-adv-x="245" 
d="M10 18h4q30 0 40 13.5t10 43.5v276q0 29 -10 43t-40 14h-4v18l173 11v-362q0 -29 9 -43t40 -14h4v-18h-226v18zM116 499q-29 0 -51 22t-22 51t21.5 51t51.5 22t51.5 -22t21.5 -51t-21.5 -51t-51.5 -22z" />
    <glyph glyph-name="j" unicode="j" horiz-adv-x="254" 
d="M26 -206q-17 0 -33.5 5t-29.5 14.5t-21 24.5t-8 36q0 27 14.5 43t36.5 16q23 0 34.5 -15.5t11.5 -33.5q0 -17 -7.5 -28t-20.5 -16q-5 -2 -12 -4t-7 -7q0 -8 9 -12.5t23 -4.5q11 0 21 4t18 15.5t13 32.5t5 55v431q0 29 -12.5 43.5t-42.5 14.5h-6v18l181 10v-474
q0 -36 -11.5 -66.5t-33.5 -53t-52.5 -35.5t-69.5 -13zM124 499q-29 0 -51 22t-22 51t21.5 51t51.5 22t51.5 -22t21.5 -51t-21.5 -51t-51.5 -22z" />
    <glyph glyph-name="k" unicode="k" horiz-adv-x="473" 
d="M13 18h3q31 0 40.5 14t9.5 43v536q0 29 -9.5 42.5t-40.5 13.5h-4v18l171 15v-488l118 130q13 14 17.5 23t4.5 18t-9 16t-29 9v18h158v-18q-20 -2 -33.5 -6t-25 -11t-21 -16.5t-21.5 -22.5l-48 -51l121 -235q14 -26 25.5 -35.5t36.5 -12.5v-18h-210v18q17 1 22 6t5 14
q0 6 -3 13l-6 14l-75 149l-27 -28v-111q0 -29 7.5 -43t36.5 -14h4v-18h-218v18z" />
    <glyph glyph-name="l" unicode="l" horiz-adv-x="252" 
d="M11 18h4q26 0 38.5 12t12.5 50v524q0 38 -10 50.5t-45 12.5h-4v18l177 19v-624q0 -38 11.5 -50t41.5 -12h1v-18h-227v18z" />
    <glyph glyph-name="m" unicode="m" horiz-adv-x="730" 
d="M13 18h4q29 0 39.5 13t10.5 43v278q0 29 -10.5 42.5t-39.5 13.5h-4v18l173 10l-5 -102h3q6 19 17.5 37.5t27 33t36.5 23.5t47 9q53 0 79.5 -26t34.5 -77q6 18 16.5 36t26.5 33t37.5 24.5t48.5 9.5q61 0 88 -39t27 -111v-213q0 -34 10.5 -45t37.5 -11h2v-18h-217v18h2
q26 0 36 11t10 45v224q0 46 -9 67t-35 21q-21 0 -36 -13.5t-24.5 -35.5t-14 -51.5t-4.5 -60.5v-151q0 -34 8 -45t37 -11h1v-18h-212v18h2q29 0 37.5 11t8.5 45v222q0 47 -9 68.5t-35 21.5q-21 0 -36 -13.5t-24.5 -35.5t-14 -51.5t-4.5 -60.5v-151q0 -34 9 -45t35 -11h3v-18
h-221v18z" />
    <glyph glyph-name="n" unicode="n" horiz-adv-x="493" 
d="M13 18h4q30 0 40 14t10 42v278q0 26 -10 41t-40 15h-4v18l173 10l-5 -102h3q6 18 17 36t27.5 33t38 24.5t48.5 9.5q62 0 90 -38t28 -110v-215q0 -29 8.5 -42.5t39.5 -13.5h2v-18h-217v18h3q28 0 36.5 13.5t8.5 42.5v229q0 44 -10.5 63.5t-35.5 19.5q-21 0 -36.5 -13
t-25 -34.5t-14.5 -50.5t-5 -60v-154q0 -29 7.5 -42.5t36.5 -13.5h3v-18h-221v18z" />
    <glyph glyph-name="o" unicode="o" horiz-adv-x="440" 
d="M218 -11q-39 0 -75 16.5t-63 46t-43.5 71t-16.5 92.5t17 93t44.5 72t64 46.5t75.5 16.5t75 -16.5t63.5 -46.5t44 -71.5t16.5 -91.5q0 -51 -17 -93t-45 -72t-64.5 -46.5t-75.5 -16.5zM221 7q20 0 32.5 14.5t20 41.5t10 65.5t2.5 86.5q0 98 -14.5 154t-53.5 56t-52 -55.5
t-13 -152.5q0 -96 14.5 -153t53.5 -57z" />
    <glyph glyph-name="p" unicode="p" horiz-adv-x="479" 
d="M4 -186h7q30 0 39.5 14t9.5 43v479q0 28 -9.5 43t-39.5 15h-4v18l172 10l-4 -109h2q18 51 49.5 81t76.5 30q33 0 60.5 -18t48 -48.5t32 -71t11.5 -84.5q0 -50 -12 -91.5t-33.5 -71.5t-50 -46.5t-61.5 -16.5q-26 0 -45.5 7.5t-33.5 19.5t-24 27t-16 29h-3l2 -36
q1 -16 1.5 -35.5t0.5 -39.5v-91q0 -31 8.5 -44t38.5 -13h20v-18h-243v18zM263 22q13 0 24 9t19 31t12 59t4 93q0 99 -15.5 141.5t-41.5 42.5q-20 0 -36 -17.5t-27.5 -45.5t-17.5 -62t-6 -67q0 -36 6 -69t17.5 -58.5t27 -41t34.5 -15.5z" />
    <glyph glyph-name="q" unicode="q" horiz-adv-x="471" 
d="M236 -186h11q32 0 41 11.5t9 45.5v121l5 93h-2q-20 -48 -48.5 -71.5t-73.5 -23.5q-31 0 -59 16t-49 45.5t-33.5 71.5t-12.5 93q0 46 13.5 86.5t37 70.5t55.5 47.5t69 17.5q48 0 80 -28t55 -76h1l62 111l29 -1q-5 -39 -7 -88.5t-2 -95.5v-389q0 -34 9.5 -45.5t39.5 -11.5
h9v-18h-239v18zM217 28q35 0 60 51.5t25 140.5q0 38 -5 73t-15.5 62t-26 43t-37.5 16q-35 0 -48 -52.5t-13 -142.5q0 -94 14 -142.5t46 -48.5z" />
    <glyph glyph-name="r" unicode="r" horiz-adv-x="376" 
d="M13 18h4q30 0 40 15t10 41v278q0 26 -10 41t-40 15h-4v18l173 10l-9 -142h2q8 30 20 57t28 47t36 31.5t44 11.5q29 0 52 -19t23 -61q0 -28 -15.5 -50t-43.5 -22q-25 0 -39 15.5t-14 39.5q0 17 7.5 29.5t16.5 17.5q12 7 12 12t-11 5q-19 0 -38.5 -14t-35 -40t-25 -64.5
t-9.5 -86.5v-129q0 -29 9.5 -42.5t39.5 -13.5h21v-18h-244v18z" />
    <glyph glyph-name="s" unicode="s" horiz-adv-x="382" 
d="M200 -8q-24 0 -43 5t-34 11.5t-26.5 11.5t-21.5 5q-20 0 -30 -32h-13v169h18q7 -34 22 -62t35.5 -48t45 -31t51.5 -11q43 0 61 20t18 45q0 14 -4.5 25t-15.5 20.5t-31 18.5t-50 18q-32 10 -58.5 21.5t-46.5 28.5t-31 40.5t-11 57.5q0 33 11 58t30.5 42.5t46 26t57.5 8.5
q22 0 37 -4t26.5 -8.5t20.5 -8.5t20 -4q13 0 19 6.5t11 18.5h13v-141h-19q-12 52 -46 87.5t-85 35.5q-30 0 -47.5 -17t-17.5 -43q0 -18 6.5 -29.5t19.5 -20t31 -15.5t42 -14q31 -10 58 -21.5t47 -28.5t32 -40.5t12 -56.5q0 -63 -42.5 -103.5t-117.5 -40.5z" />
    <glyph glyph-name="t" unicode="t" horiz-adv-x="307" 
d="M179 -11q-57 0 -88 31.5t-31 99.5v286h-62v12q28 6 54 18t47 33t36.5 52t22.5 75h22v-170h110v-20h-110v-279q0 -42 9 -64t34 -22q12 0 22.5 5t18 18t12 36t5.5 60h17q0 -93 -30.5 -132t-88.5 -39z" />
    <glyph glyph-name="u" unicode="u" horiz-adv-x="493" 
d="M174 -10q-62 0 -87.5 40t-25.5 112v210q0 28 -9.5 42t-40.5 14h-4v18l172 11v-306q0 -47 11 -68.5t34 -21.5q22 0 38 15t26 39t14.5 54.5t4.5 62.5v140q0 28 -9.5 42t-39.5 14h-5v18l174 11v-358q0 -28 9.5 -42t40.5 -14h3v-18l-172 -15l4 108h-2q-7 -20 -18.5 -39
t-28.5 -34.5t-39.5 -25t-49.5 -9.5z" />
    <glyph glyph-name="v" unicode="v" horiz-adv-x="441" 
d="M62 343q-11 29 -24 46.5t-41 19.5v17h236v-17q-24 -2 -35 -11.5t-11 -21.5q0 -11 3.5 -24.5t8.5 -28.5l75 -204l66 186q7 18 11.5 36t4.5 30q-1 19 -11.5 27.5t-36.5 10.5v17h135v-17q-27 -2 -39.5 -19t-23.5 -46l-130 -357h-53z" />
    <glyph glyph-name="w" unicode="w" horiz-adv-x="640" 
d="M65 344q-10 27 -24.5 45t-41.5 20v17h226v-17q-20 -2 -27.5 -9.5t-8.5 -19.5q-1 -10 1 -20.5t8 -28.5l61 -182q17 45 29 80l28 80l-14 47q-7 22 -17.5 36.5t-33.5 16.5v17h216v-17q-43 -4 -43 -29q0 -10 2 -20t7 -28l56 -178l51 153q13 40 13 70q0 14 -9.5 22t-32.5 10
v17h130v-17q-27 -2 -42 -20.5t-23 -44.5l-119 -356h-39l-91 286l-100 -286h-38z" />
    <glyph glyph-name="x" unicode="x" horiz-adv-x="436" 
d="M4 17q31 3 52.5 22.5t41.5 48.5l70 99l-105 184q-7 12 -17.5 24t-35.5 14v17h213v-17q-15 -2 -20.5 -7.5t-5.5 -11.5t2 -13t8 -17l48 -85l47 69q15 24 15 40q0 8 -6.5 15.5t-27.5 9.5v17h135v-17q-29 -2 -51.5 -23t-40.5 -48l-58 -85l114 -197q7 -11 17 -24t32 -15v-17
h-210v17q15 2 21 7.5t6 13.5q0 5 -2 11t-8 16l-56 102l-60 -86q-15 -22 -15 -38q0 -11 8.5 -18t32.5 -8v-17h-144v17z" />
    <glyph glyph-name="y" unicode="y" horiz-adv-x="446" 
d="M107 -208q-39 0 -59.5 22t-20.5 55q0 22 13.5 38.5t37.5 16.5q20 0 32 -14.5t12 -34.5q0 -11 -5.5 -21t-12.5 -15q-5 -4 -11 -7.5t-6 -8.5q0 -10 23 -10q13 0 25.5 6.5t24.5 22t25 41t27 64.5l3 8l-154 389q-11 26 -23.5 44.5t-40.5 20.5v17h234v-17q-24 -2 -34 -11
t-11 -23q0 -8 2 -20t8 -27l79 -206l66 183q6 18 10 34t4 30q0 19 -9.5 28.5t-35.5 11.5v17h139v-17q-29 -3 -43.5 -21t-24.5 -44l-145 -398q-12 -33 -25 -61t-28 -49t-33.5 -32.5t-42.5 -11.5z" />
    <glyph glyph-name="z" unicode="z" horiz-adv-x="403" 
d="M16 12l231 396h-59q-33 0 -56.5 -11t-40 -32.5t-27 -52.5t-17.5 -71h-13l12 185h336v-10l-233 -398h73q37 0 62 14t41 38.5t24.5 56.5t13.5 68h14l-13 -195h-348v12z" />
    <glyph glyph-name="braceleft" unicode="{" horiz-adv-x="373" 
d="M326 -130q-54 0 -94 7t-66.5 23.5t-40 43.5t-13.5 68q0 29 9 64t9 77q0 57 -25.5 84t-88.5 33v15q63 5 88.5 32t25.5 84q0 42 -9 77t-9 64q0 41 13.5 68t40 43.5t66.5 23.5t94 7h24v-16q-65 0 -90.5 -29t-25.5 -76q0 -32 8 -69t8 -79q0 -33 -12.5 -56.5t-35 -40
t-53.5 -26t-68 -13.5v-4q37 -5 68.5 -14.5t53.5 -26t34.5 -40t12.5 -56.5q0 -42 -8 -78.5t-8 -68.5q0 -51 26 -78t90 -27v-16h-24v0z" />
    <glyph glyph-name="bar" unicode="|" horiz-adv-x="186" 
d="M75 686h36v-893h-36v893z" />
    <glyph glyph-name="braceright" unicode="}" horiz-adv-x="373" 
d="M16 -114q63 0 89.5 27t26.5 78q0 32 -8.5 68.5t-8.5 78.5q0 33 12.5 56.5t35 40t53.5 26t69 14.5v4q-37 4 -68.5 13.5t-54 26t-35 40t-12.5 56.5q0 42 8.5 79t8.5 69q0 47 -26 76t-90 29v16h24q54 0 94 -7t66.5 -23.5t40 -43.5t13.5 -68q0 -29 -9 -64t-9 -77
q0 -57 25.5 -84t88.5 -32v-15q-63 -6 -88.5 -33t-25.5 -84q0 -42 9 -77t9 -64q0 -41 -13.5 -68t-40 -43.5t-66.5 -23.5t-94 -7h-24v16z" />
    <glyph glyph-name="asciitilde" unicode="~" horiz-adv-x="351" 
d="M35 162q6 32 13 57.5t16.5 43t22.5 27t32 9.5q14 0 33 -4t38.5 -8.5t36.5 -8t28 -3.5q17 0 26.5 9t17.5 30l16 -5q-11 -64 -29 -101t-55 -37q-14 0 -33 4t-38 8.5t-36 8.5t-28 4q-17 0 -26.5 -9t-17.5 -30z" />
    <glyph glyph-name="nonbreakingspace" unicode="&#xa0;" horiz-adv-x="500" 
 />
    <glyph glyph-name="exclamdown" unicode="&#xa1;" horiz-adv-x="230" 
d="M115 694q27 0 46.5 -19t19.5 -47q0 -27 -19.5 -46.5t-46.5 -19.5t-46.5 19.5t-19.5 46.5q0 28 19.5 47t46.5 19zM123 482q0 -30 5 -68.5t12.5 -79.5t16.5 -81.5t18 -73.5q7 -28 12.5 -52.5t5.5 -40.5q0 -43 -22 -69t-56 -26t-55 25t-21 70q0 16 5 40.5t12 52.5
q9 33 18 73.5t16.5 81.5t12.5 79.5t5 68.5h15z" />
    <glyph glyph-name="cent" unicode="&#xa2;" horiz-adv-x="409" 
d="M128 7q-48 26 -78 78.5t-30 126.5q0 51 17 93.5t47 73t69.5 47.5t84.5 17q11 0 21 -1t20 -3l45 130h24l-47 -136q38 -13 62 -40.5t24 -64.5q0 -29 -17 -48.5t-40 -19.5q-20 0 -35 13.5t-15 41.5q0 22 12.5 36.5t28.5 17.5q11 2 17.5 1.5t6.5 4.5t-14 19t-37 20l-118 -341
q25 -43 76 -43q22 0 41.5 8.5t35 22t28 30t20.5 33.5l14 -9q-9 -23 -24.5 -46t-37 -41.5t-50 -30.5t-62.5 -12q-36 0 -68 13l-46 -133h-24zM272 419q-5 1 -10 1h-9q-49 0 -76.5 -49t-27.5 -155q0 -37 3.5 -65.5t9.5 -48.5z" />
    <glyph glyph-name="sterling" unicode="&#xa3;" horiz-adv-x="456" 
d="M88 -9q-31 0 -54.5 20.5t-23.5 58.5q0 39 24 62t60 23q23 0 43 -5.5t39 -12.5v13q0 50 -18.5 89.5t-41.5 77.5h-85v24h71q-17 31 -30 63t-13 70q0 84 53.5 135.5t155.5 51.5q36 0 63.5 -11t47 -29t29.5 -40.5t10 -45.5q0 -42 -17 -59t-38 -17q-28 0 -40.5 17t-12.5 37
q0 26 15.5 44t41.5 15q10 -1 10 4q0 6 -6 17t-18 22t-31 19t-46 8q-43 0 -65 -34.5t-22 -85.5q0 -50 12.5 -92t25.5 -89h117v-24h-111q14 -48 14 -104q0 -53 -17 -98q20 -8 41 -13t47 -5q44 0 71 22.5t31 86.5h13q3 -111 -27.5 -162t-87.5 -51q-35 0 -63 21t-54 47
q-25 -34 -53.5 -52t-59.5 -18zM87 10q28 0 50 19.5t33 62.5q-19 17 -38 29t-42 12q-29 0 -44 -17t-15 -43q0 -11 3 -22t9.5 -20t17 -15t26.5 -6z" />
    <glyph glyph-name="currency" unicode="&#xa4;" horiz-adv-x="469" 
d="M283 -15q-43 0 -82 16t-69.5 49.5t-51.5 85t-28 122.5h-42v23h40q-1 11 -1 21v22q0 11 0.5 22t1.5 22h-41v24h43q8 70 31 121t56 84.5t73.5 49.5t82.5 16q30 0 57.5 -8.5t48 -25t33 -41t12.5 -56.5q0 -36 -17 -55t-40 -19q-22 0 -38.5 15.5t-16.5 44.5q0 28 15 43.5
t38 18.5q6 1 10 0t6.5 0t2 4t-3.5 11q-9 22 -34.5 35t-56.5 13q-63 0 -89.5 -64.5t-31.5 -186.5h147v-24h-148q-1 -10 -1 -22v-65h149v-23h-148q2 -122 26.5 -183.5t83.5 -61.5q48 0 82.5 32t50.5 98h20q-10 -46 -29 -76.5t-42.5 -48.5t-49.5 -25.5t-49 -7.5z" />
    <glyph glyph-name="yen" unicode="&#xa5;" horiz-adv-x="555" 
d="M140 18h21q30 0 43 12.5t13 48.5v181h-169v25h160l-57 111h-103v25h90l-73 148q-17 33 -32 46.5t-43 13.5h-3v18h271v-18h-22q-20 0 -27.5 -7.5t-7.5 -18.5q0 -16 10 -36l128 -253l90 211q11 26 14 40t1 29q-2 14 -12 24.5t-38 10.5h-2v18h174v-17q-23 -4 -38 -9.5
t-27 -17t-23 -31t-24 -49.5l-44 -101h92v-25h-103l-48 -112h151v-25h-154v-181q0 -36 14 -48.5t44 -12.5h22v-18h-288v18z" />
    <glyph glyph-name="brokenbar" unicode="&#xa6;" horiz-adv-x="186" 
d="M75 689h36v-373h-36v373zM75 170h36v-374h-36v374z" />
    <glyph glyph-name="section" unicode="&#xa7;" horiz-adv-x="431" 
d="M203 -15q-64 0 -92.5 24t-28.5 54q0 27 13.5 40t29.5 13t28 -11.5t12 -31.5q0 -11 -7 -21.5t-19 -15.5q-10 -4 -10 -9q0 -8 20.5 -16t52.5 -8q33 0 50.5 19.5t17.5 42.5q0 27 -16.5 46.5t-66.5 38.5q-79 29 -114.5 63t-32.5 93q1 22 9.5 40t22.5 31.5t31 23t35 14.5
q-27 20 -43 48t-14 74q1 24 10.5 46.5t28.5 40t46.5 27.5t63.5 10q60 0 89 -24t29 -53q0 -24 -11.5 -38t-29.5 -14q-20 0 -30.5 11.5t-10.5 30.5q0 10 5.5 21t17.5 16q7 3 9.5 3.5t1.5 4.5q-2 8 -21.5 16t-49.5 8q-35 0 -52 -19t-17 -42q0 -14 3.5 -25t13 -21.5t25.5 -20
t41 -18.5q79 -29 115 -62t34 -92q-2 -46 -30.5 -73t-69.5 -38q28 -20 44 -50t14 -76q-1 -25 -10.5 -47t-27.5 -38.5t-45 -26t-64 -9.5zM272 245q19 2 32 15t13 33q0 27 -22 43.5t-67 33.5q-19 7 -36 14.5t-33 17.5q-20 -2 -32.5 -15t-12.5 -33q0 -27 22 -43.5t67 -33.5
q18 -7 35.5 -14.5t33.5 -17.5z" />
    <glyph glyph-name="dieresis" unicode="&#xa8;" 
d="M146 486q-23 0 -39 16.5t-16 39.5t16 39.5t39 16.5t39 -16.5t16 -39.5t-16 -39.5t-39 -16.5zM303 486q-23 0 -39 16.5t-16 39.5t16 39.5t39 16.5t39 -16.5t16 -39.5t-16 -39.5t-39 -16.5z" />
    <glyph glyph-name="copyright" unicode="&#xa9;" horiz-adv-x="695" 
d="M348 -16q-67 0 -124.5 27.5t-100 75.5t-66.5 113.5t-24 141.5q0 75 24.5 140.5t67 114t100 76t123.5 27.5t123.5 -27.5t99.5 -76t66.5 -114t24.5 -140.5t-24.5 -140.5t-66.5 -114t-99.5 -76t-123.5 -27.5zM348 2q63 0 117 25.5t93 71t61 108t22 135.5t-22 135.5t-61 108
t-93 71t-117 25.5t-117 -25.5t-93.5 -71t-61.5 -108t-22 -135.5t22 -135.5t61.5 -108t93.5 -71t117 -25.5zM356 134q-41 0 -75 16.5t-58 45t-37.5 66.5t-13.5 82q0 46 13.5 84.5t38.5 66.5t59 44t76 16q21 0 37 -5.5t32 -15.5q5 -4 11.5 -7t11.5 -3q8 0 14 5.5t11 25.5h10
l5 -175h-14q-19 81 -49 119t-67 38q-20 0 -34.5 -15t-23.5 -41t-13 -60.5t-4 -73.5q0 -38 4.5 -72t15 -59.5t28 -40t42.5 -14.5q37 0 66 31.5t42 108.5h16q-11 -82 -46.5 -124.5t-97.5 -42.5z" />
    <glyph glyph-name="ordfeminine" unicode="&#xaa;" horiz-adv-x="349" 
d="M111 330q-30 0 -50 17.5t-20 54.5q0 21 7.5 38.5t25.5 32.5t49 27.5t79 23.5v17q0 50 -9 75t-42 25q-23 0 -40 -9.5t-17 -16.5q0 -4 3 -3.5t10 0.5q8 -1 19.5 -9t11.5 -28q0 -18 -12 -28.5t-27 -10.5q-18 0 -29 12.5t-11 30.5q0 30 26 53t86 23q51 0 82.5 -27t31.5 -88
v-152q0 -25 15 -25q11 0 20 9l7 -8q-11 -14 -26.5 -23t-38.5 -9t-41 14.5t-19 52.5h-1q-11 -30 -34.5 -49.5t-55.5 -19.5zM152 375q8 0 16.5 6t16 17.5t12.5 27t5 34.5v48q-24 -6 -39 -16.5t-23.5 -22.5t-11.5 -26t-3 -27q0 -22 7.5 -31.5t19.5 -9.5zM45 267h259v-20h-259
v20z" />
    <glyph glyph-name="guillemotleft" unicode="&#xab;" 
d="M197 225l216 224h16l-104 -224l104 -225h-16zM18 225l217 224h17l-107 -224l107 -225h-17z" />
    <glyph glyph-name="registered" unicode="&#xae;" horiz-adv-x="396" 
d="M198 320q-35 0 -66 14.5t-54 39.5t-36 59.5t-13 73.5t13 73.5t36 59.5t54 39.5t66 14.5t66 -14.5t54 -39.5t36 -59.5t13 -73.5t-13 -73.5t-36 -59.5t-54 -39.5t-66 -14.5zM198 336q32 0 59 13.5t47 36.5t31 54.5t11 66.5t-11 66t-31 54t-47 36t-59 13t-59 -13t-47 -36
t-31 -54t-11 -66t11 -66.5t31 -54.5t47 -36.5t59 -13.5zM272 399q-17 0 -29.5 10.5t-18.5 42.5q-4 24 -10 38.5t-24 14.5h-10v-76q0 -11 13 -11h8v-13h-91v13h7q14 0 14 11v163q0 13 -14 13h-7v14h87q36 0 56 -13.5t20 -42.5q0 -23 -17 -35.5t-41 -16.5q16 -4 26.5 -17
t18.5 -28q11 -22 14.5 -27.5t9.5 -5.5q5 0 8.5 5t3.5 17h9q1 -21 -6.5 -38.5t-26.5 -17.5zM188 517q19 0 26.5 11t7.5 34q0 21 -7 31.5t-18 10.5h-4q-5 0 -9 -2.5t-4 -9.5v-75h8z" />
    <glyph glyph-name="macron" unicode="&#xaf;" 
d="M129 574h190v-75h-190v75z" />
    <glyph glyph-name="degree" unicode="&#xb0;" horiz-adv-x="287" 
d="M142 433q-23 0 -43 8.5t-34.5 24t-23 36t-8.5 44.5t8.5 45t23.5 36t35.5 24t43.5 9q24 0 44 -8.5t34.5 -23.5t23 -35.5t8.5 -44.5t-8.5 -45t-23.5 -36.5t-35.5 -24.5t-44.5 -9zM145 457q37 0 59 25.5t22 63.5t-23 64t-60 26t-58.5 -25t-21.5 -63q0 -39 22.5 -65t59.5 -26
z" />
    <glyph glyph-name="twosuperior" unicode="&#xb2;" horiz-adv-x="352" 
d="M60 328q8 21 16 36.5t17.5 30t23 30.5t31.5 37q26 31 37 54.5t11 53.5q0 31 -11 52t-39 21q-20 0 -35 -13t-18 -31q-2 -8 0 -8.5t7 0.5q20 3 32 -10t12 -30t-10 -28.5t-26 -11.5q-20 0 -33 16.5t-13 44.5q0 46 31.5 74.5t76.5 28.5q57 0 86.5 -28t29.5 -77
q0 -39 -27.5 -67.5t-75.5 -60.5q-16 -11 -26.5 -19t-18 -16t-13.5 -16t-12 -19h107q26 0 34.5 17t14.5 49h15l-3 -138h-221v28z" />
    <glyph glyph-name="threesuperior" unicode="&#xb3;" horiz-adv-x="330" 
d="M147 281q-21 0 -40 6t-34 18t-23.5 29t-8.5 38q0 27 15 40.5t30 13.5q16 0 26 -11t10 -30q0 -16 -10.5 -26t-27.5 -10q-6 0 -10 1.5t-4 -3.5q1 -17 19.5 -28.5t41.5 -11.5q32 0 45 23t13 61q0 77 -52 77q-8 0 -12.5 -2.5t-10.5 -2.5t-11 4.5t-5 11.5q0 9 5 13.5t13 4.5
q5 0 9.5 -1.5t11.5 -1.5q26 0 36 20.5t10 55.5q0 36 -11 55t-40 19q-17 0 -32.5 -8t-20.5 -25q-1 -4 0 -4h6q17 1 28 -10t11 -30q0 -17 -10.5 -26.5t-24.5 -9.5t-27 12.5t-13 36.5q0 21 9 38t23.5 29t33.5 18.5t39 6.5q48 0 82 -23.5t34 -75.5q0 -34 -27 -58.5t-65 -31.5v-1
q41 -4 69 -28t28 -66q0 -27 -11.5 -47t-29.5 -33.5t-41 -20t-46 -6.5z" />
    <glyph glyph-name="acute" unicode="&#xb4;" 
d="M175 495l62 102q15 25 30 32t30 6q19 -1 31 -17t10 -33q-2 -16 -11.5 -28t-37.5 -24l-107 -47z" />
    <glyph glyph-name="paragraph" unicode="&#xb6;" horiz-adv-x="421" 
d="M183 291q-34 7 -64 19t-52.5 33.5t-35.5 53t-13 77.5q0 83 49 128t131 45h203v-30h-66v-622h-33v622h-85v-622h-34v296z" />
    <glyph glyph-name="periodcentered" unicode="&#xb7;" horiz-adv-x="212" 
d="M106 165q-27 0 -46.5 19t-19.5 46q0 28 19.5 47.5t46.5 19.5t46.5 -19.5t19.5 -47.5q0 -27 -19.5 -46t-46.5 -19z" />
    <glyph glyph-name="cedilla" unicode="&#xb8;" 
d="M232 -203q-51 0 -85 33l9 14q17 -12 31 -17t31 -5q20 0 32.5 12t12.5 33q0 20 -9 31t-24 11q-11 0 -19 -2v93h19v-60q10 3 26 3q38 0 62.5 -18t24.5 -52q0 -19 -9.5 -33t-25 -23.5t-35.5 -14.5t-41 -5z" />
    <glyph glyph-name="onesuperior" unicode="&#xb9;" horiz-adv-x="297" 
d="M62 320h15q16 0 22.5 5.5t6.5 22.5v220q0 18 -6.5 24t-22.5 6h-15v24q80 8 102 41h26v-315q0 -17 6 -22.5t22 -5.5h13v-25h-169v25z" />
    <glyph glyph-name="ordmasculine" unicode="&#xba;" horiz-adv-x="340" 
d="M45 268h246v-20h-246v20zM169 328q-26 0 -50.5 11t-43.5 32t-30.5 51.5t-11.5 69.5t12 69.5t31.5 51.5t44 32.5t50.5 11.5t50.5 -11.5t43.5 -32.5t30.5 -51t11.5 -68q0 -39 -12 -70t-31.5 -52t-44 -32.5t-50.5 -11.5zM171 343q24 0 34 36.5t10 112.5q0 78 -11.5 114
t-34.5 36q-24 0 -34 -35t-10 -113t11.5 -114.5t34.5 -36.5z" />
    <glyph glyph-name="guillemotright" unicode="&#xbb;" 
d="M36 0h-16l104 225l-104 224h16l216 -224zM214 0h-17l107 225l-107 224h17l217 -224z" />
    <glyph glyph-name="onequarter" unicode="&#xbc;" horiz-adv-x="619" 
d="M52 320h16q16 0 22.5 5.5t6.5 22.5v220q0 18 -6.5 24t-22.5 6h-16v24q79 8 103 41h25v-315q0 -17 6.5 -22.5t22.5 -5.5h12v-25h-169v25zM417 653h47l-293 -659h-47zM402 25h13q15 0 21 6t6 23v31h-129v27l159 252h52v-249h40v-30h-40v-31q0 -17 6 -23t21 -6h10v-25h-159
v25zM442 116v148l-94 -148h94z" />
    <glyph glyph-name="onehalf" unicode="&#xbd;" horiz-adv-x="632" 
d="M52 320h16q16 0 22.5 5.5t6.5 22.5v220q0 18 -6.5 24t-22.5 6h-16v24q79 8 103 41h25v-315q0 -17 6.5 -22.5t22.5 -5.5h12v-25h-169v25zM417 653h47l-293 -659h-47zM345 28q8 21 16 36.5t17.5 30t23 30.5t31.5 37q26 31 37 54.5t11 53.5q0 31 -11 52.5t-39 21.5
q-20 0 -35 -13.5t-18 -31.5q-2 -7 0.5 -8t6.5 0q20 4 32 -9.5t12 -30.5t-10 -28t-25 -11q-21 0 -33.5 16t-12.5 44q0 46 31 74.5t76 28.5q57 0 87 -28t30 -77q0 -39 -28 -67t-76 -60q-28 -19 -43 -34t-27 -37h107q26 0 35 17t14 49h16l-4 -138h-221v28z" />
    <glyph glyph-name="threequarters" unicode="&#xbe;" horiz-adv-x="628" 
d="M424 25h13q15 0 21.5 6t6.5 23v31h-130v27l160 252h51v-249h41v-30h-41v-31q0 -17 6.5 -23t21.5 -6h9v-25h-159v25zM147 281q-21 0 -40 6t-34 18t-23.5 29t-8.5 38q0 27 15 40.5t30 13.5q16 0 26 -11t10 -30q0 -16 -10.5 -26t-27.5 -10q-6 0 -10 1.5t-4 -3.5
q1 -17 19.5 -28.5t41.5 -11.5q32 0 45 23t13 61q0 77 -52 77q-8 0 -12.5 -2.5t-10.5 -2.5t-11 4.5t-5 11.5q0 9 5 13.5t13 4.5q5 0 9.5 -1.5t11.5 -1.5q26 0 36 20.5t10 55.5q0 36 -11 55t-40 19q-17 0 -32.5 -8t-20.5 -25q-1 -4 0 -4h6q17 1 28 -10t11 -30
q0 -17 -10.5 -26.5t-24.5 -9.5t-27 12.5t-13 36.5q0 21 9 38t23.5 29t33.5 18.5t39 6.5q48 0 82 -23.5t34 -75.5q0 -34 -27 -58.5t-65 -31.5v-1q41 -4 69 -28t28 -66q0 -27 -11.5 -47t-29.5 -33.5t-41 -20t-46 -6.5zM459 653h47l-293 -659h-47zM465 116v148l-94 -148h94z
" />
    <glyph glyph-name="questiondown" unicode="&#xbf;" horiz-adv-x="393" 
d="M246 459q0 -28 -2 -50t-7 -42t-14 -40t-22 -43q-17 -29 -26.5 -65.5t-9.5 -87.5q0 -56 20 -88t59 -32q20 0 37 6t29 15t19 20t7 20q0 8 -5.5 7.5t-14.5 -0.5q-24 0 -37 17.5t-13 40.5q0 28 16 41.5t35 13.5q24 0 39 -19t15 -57q0 -58 -44 -91.5t-113 -33.5q-38 0 -71 10
t-57 29.5t-38 47.5t-14 65q0 47 22.5 84.5t72.5 76.5q31 24 50.5 44.5t30.5 39t15 36.5t4 38v20h17v-23zM232 694q27 0 46.5 -19t19.5 -47q0 -27 -19.5 -46.5t-46.5 -19.5t-46.5 19.5t-19.5 46.5q0 28 19.5 47t46.5 19z" />
    <glyph glyph-name="Agrave" unicode="&#xc0;" horiz-adv-x="635" 
d="M-1 18q34 3 53 27t36 72l209 583h34l222 -611q12 -35 29 -52t54 -19v-18h-299v18h28q25 0 35.5 11.5t11.5 26.5q1 14 -2 28.5t-10 34.5l-39 112h-204l-27 -76q-10 -27 -14.5 -51t-4.5 -40q0 -21 13 -33.5t39 -12.5h16v-18h-180v18zM354 253l-96 263l-94 -263h190z
M244 786q-28 12 -37 24t-11 28q-2 17 9.5 33t31.5 17q15 1 29.5 -6t29.5 -32l62 -102l-6 -9z" />
    <glyph glyph-name="Aacute" unicode="&#xc1;" horiz-adv-x="635" 
d="M-1 18q34 3 53 27t36 72l209 583h34l222 -611q12 -35 29 -52t54 -19v-18h-299v18h28q25 0 35.5 11.5t11.5 26.5q1 14 -2 28.5t-10 34.5l-39 112h-204l-27 -76q-10 -27 -14.5 -51t-4.5 -40q0 -21 13 -33.5t39 -12.5h16v-18h-180v18zM354 253l-96 263l-94 -263h190z
M263 749l62 102q15 25 30 32t30 6q19 -1 31 -17t10 -33q-2 -16 -11.5 -28t-37.5 -24l-107 -47z" />
    <glyph glyph-name="Acircumflex" unicode="&#xc2;" horiz-adv-x="635" 
d="M-1 18q34 3 53 27t36 72l209 583h34l222 -611q12 -35 29 -52t54 -19v-18h-299v18h28q25 0 35.5 11.5t11.5 26.5q1 14 -2 28.5t-10 34.5l-39 112h-204l-27 -76q-10 -27 -14.5 -51t-4.5 -40q0 -21 13 -33.5t39 -12.5h16v-18h-180v18zM354 253l-96 263l-94 -263h190z
M198 744l81 143h64l80 -145l-9 -7l-104 62l-104 -60z" />
    <glyph glyph-name="Atilde" unicode="&#xc3;" horiz-adv-x="635" 
d="M-1 18q34 3 53 27t36 72l209 583h34l222 -611q12 -35 29 -52t54 -19v-18h-299v18h28q25 0 35.5 11.5t11.5 26.5q1 14 -2 28.5t-10 34.5l-39 112h-204l-27 -76q-10 -27 -14.5 -51t-4.5 -40q0 -21 13 -33.5t39 -12.5h16v-18h-180v18zM354 253l-96 263l-94 -263h190z
M202 743q9 54 22.5 82t42.5 28q10 0 26.5 -4.5t34 -9.5t33 -9.5t23.5 -4.5q22 0 32 32l10 -2q-8 -54 -22 -82t-42 -28q-11 0 -27.5 4.5t-33.5 9.5t-32 9.5t-23 4.5q-23 0 -33 -32z" />
    <glyph glyph-name="Adieresis" unicode="&#xc4;" horiz-adv-x="635" 
d="M-1 18q34 3 53 27t36 72l209 583h34l222 -611q12 -35 29 -52t54 -19v-18h-299v18h28q25 0 35.5 11.5t11.5 26.5q1 14 -2 28.5t-10 34.5l-39 112h-204l-27 -76q-10 -27 -14.5 -51t-4.5 -40q0 -21 13 -33.5t39 -12.5h16v-18h-180v18zM354 253l-96 263l-94 -263h190z
M234 739q-23 0 -39 16.5t-16 39.5t16 39.5t39 16.5t39 -16.5t16 -39.5t-16 -39.5t-39 -16.5zM391 739q-23 0 -39 16.5t-16 39.5t16 39.5t39 16.5t39 -16.5t16 -39.5t-16 -39.5t-39 -16.5z" />
    <glyph glyph-name="Aring" unicode="&#xc5;" horiz-adv-x="635" 
d="M-1 18q34 3 53 27t36 72l204 568q-27 8 -44 30.5t-17 52.5q0 18 6.5 33.5t17.5 27t26.5 18t32.5 6.5q18 0 33 -7t26 -18.5t17.5 -27t6.5 -32.5q0 -30 -17.5 -52.5t-43.5 -30.5l217 -596q13 -35 29.5 -52t53.5 -19v-18h-299v18h28q25 0 35.5 12t11.5 27q1 14 -2 28.5
t-10 34.5l-39 111h-204l-27 -76q-10 -27 -15 -51t-4 -40q0 -21 13 -33.5t39 -12.5h16v-18h-180v18zM354 253l-96 263l-94 -263h190zM314 706q21 0 36 17.5t15 44.5q0 29 -15.5 45t-35.5 16t-35.5 -16t-15.5 -45q0 -27 15 -44.5t36 -17.5z" />
    <glyph glyph-name="AE" unicode="&#xc6;" horiz-adv-x="892" 
d="M-11 18q22 2 37 9.5t27 20.5t22.5 31.5t24.5 44.5l213 399q15 29 29 56t14 51q0 15 -14.5 25.5t-48.5 10.5h-25v18h558l9 -257h-19q-5 48 -17 91t-31.5 75.5t-48 52t-66.5 19.5h-49q-31 0 -44 -14t-13 -46v-242h34q30 0 50 10.5t32 30t17.5 46.5t5.5 60h18v-322h-18
q0 32 -5.5 60.5t-17.5 49.5t-32 33t-50 12h-34v-264q0 -33 13 -46.5t44 -13.5h60q40 0 70 22t50 58.5t32 83t18 95.5h18l-15 -278h-500v18h15q32 0 45.5 14.5t13.5 46.5v149h-227l-33 -64q-8 -16 -16.5 -40.5t-8.5 -44.5q0 -35 15 -48t37 -13h15v-18h-204v18zM411 250v392
h-8l-207 -392h215z" />
    <glyph glyph-name="Ccedilla" unicode="&#xc7;" horiz-adv-x="553" 
d="M295 -185q-24 0 -46.5 10.5t-37.5 24.5l10 14q17 -14 32.5 -19.5t32.5 -5.5q20 0 30 12.5t10 29.5q0 20 -9.5 29.5t-24.5 9.5q-10 0 -18 -2v67q-54 6 -99 36t-78 77t-51.5 108.5t-18.5 131.5q0 77 21.5 142.5t59 113t88.5 74t110 26.5q34 0 65 -13t49 -27q19 -14 35 -14
q12 0 22 9t18 41h15l8 -278h-19q-11 62 -30 111t-44.5 83t-56 52t-63.5 18q-38 0 -62.5 -26t-39 -71t-20.5 -106t-6 -131q0 -76 7.5 -136t24.5 -102t44 -64t66 -22q66 0 117 57.5t69 174.5h22q-1 -16 -6 -42t-16 -55.5t-28 -59.5t-42 -54.5t-59 -39.5t-79 -15h-7v-35
q5 2 11.5 2.5t12.5 0.5q39 0 60.5 -18t21.5 -46q0 -36 -29 -54.5t-72 -18.5z" />
    <glyph glyph-name="Egrave" unicode="&#xc8;" horiz-adv-x="567" 
d="M11 18h16q32 0 45 14.5t13 46.5v526q0 30 -13 45.5t-45 15.5h-16v18h489l9 -257h-18q-5 48 -17 91t-32 75.5t-48 52t-66 19.5h-49q-32 0 -45 -14t-13 -46v-240h34q30 0 50 10.5t32.5 30t18 46.5t5.5 60h18v-322h-18q0 32 -5.5 60.5t-18 49.5t-32.5 33t-50 12h-34v-266
q0 -33 13 -46.5t45 -13.5h59q40 0 70 22t50 58.5t32.5 83t18.5 95.5h18l-16 -278h-500v18zM240 786q-28 12 -37 24t-11 28q-2 17 9.5 33t31.5 17q15 1 29.5 -6t29.5 -32l62 -102l-6 -9z" />
    <glyph glyph-name="Eacute" unicode="&#xc9;" horiz-adv-x="567" 
d="M11 18h16q32 0 45 14.5t13 46.5v526q0 30 -13 45.5t-45 15.5h-16v18h489l9 -257h-18q-5 48 -17 91t-32 75.5t-48 52t-66 19.5h-49q-32 0 -45 -14t-13 -46v-240h34q30 0 50 10.5t32.5 30t18 46.5t5.5 60h18v-322h-18q0 32 -5.5 60.5t-18 49.5t-32.5 33t-50 12h-34v-266
q0 -33 13 -46.5t45 -13.5h59q40 0 70 22t50 58.5t32.5 83t18.5 95.5h18l-16 -278h-500v18zM240 748l62 102q15 25 30 32t30 6q19 -1 31 -17t10 -33q-2 -16 -11.5 -28t-37.5 -24l-107 -47z" />
    <glyph glyph-name="Ecircumflex" unicode="&#xca;" horiz-adv-x="567" 
d="M11 18h16q32 0 45 14.5t13 46.5v526q0 30 -13 45.5t-45 15.5h-16v18h489l9 -257h-18q-5 48 -17 91t-32 75.5t-48 52t-66 19.5h-49q-32 0 -45 -14t-13 -46v-240h34q30 0 50 10.5t32.5 30t18 46.5t5.5 60h18v-322h-18q0 32 -5.5 60.5t-18 49.5t-32.5 33t-50 12h-34v-266
q0 -33 13 -46.5t45 -13.5h59q40 0 70 22t50 58.5t32.5 83t18.5 95.5h18l-16 -278h-500v18zM175 743l81 143h64l80 -145l-9 -7l-104 62l-104 -60z" />
    <glyph glyph-name="Edieresis" unicode="&#xcb;" horiz-adv-x="567" 
d="M11 18h16q32 0 45 14.5t13 46.5v526q0 30 -13 45.5t-45 15.5h-16v18h489l9 -257h-18q-5 48 -17 91t-32 75.5t-48 52t-66 19.5h-49q-32 0 -45 -14t-13 -46v-240h34q30 0 50 10.5t32.5 30t18 46.5t5.5 60h18v-322h-18q0 32 -5.5 60.5t-18 49.5t-32.5 33t-50 12h-34v-266
q0 -33 13 -46.5t45 -13.5h59q40 0 70 22t50 58.5t32.5 83t18.5 95.5h18l-16 -278h-500v18zM213 739q-23 0 -39 16.5t-16 39.5t16 39.5t39 16.5t39 -16.5t16 -39.5t-16 -39.5t-39 -16.5zM370 739q-23 0 -39 16.5t-16 39.5t16 39.5t39 16.5t39 -16.5t16 -39.5t-16 -39.5
t-39 -16.5z" />
    <glyph glyph-name="Igrave" unicode="&#xcc;" horiz-adv-x="323" 
d="M18 18h18q32 0 45 15t13 46v526q0 32 -13 46.5t-45 14.5h-18v18h287v-18h-18q-31 0 -44 -14.5t-13 -46.5v-526q0 -32 13 -46.5t44 -14.5h18v-18h-287v18zM118 786q-28 12 -37 24t-11 28q-2 17 9.5 33t31.5 17q15 1 29.5 -6t29.5 -32l62 -102l-6 -9z" />
    <glyph glyph-name="Iacute" unicode="&#xcd;" horiz-adv-x="323" 
d="M18 18h18q32 0 45 15t13 46v526q0 32 -13 46.5t-45 14.5h-18v18h287v-18h-18q-31 0 -44 -14.5t-13 -46.5v-526q0 -32 13 -46.5t44 -14.5h18v-18h-287v18zM110 749l62 102q15 25 30 32t30 6q19 -1 31 -17t10 -33q-2 -16 -11.5 -28t-37.5 -24l-107 -47z" />
    <glyph glyph-name="Icircumflex" unicode="&#xce;" horiz-adv-x="323" 
d="M18 18h18q32 0 45 15t13 46v526q0 32 -13 46.5t-45 14.5h-18v18h287v-18h-18q-31 0 -44 -14.5t-13 -46.5v-526q0 -32 13 -46.5t44 -14.5h18v-18h-287v18zM50 743l81 143h64l80 -145l-9 -7l-104 62l-104 -60z" />
    <glyph glyph-name="Idieresis" unicode="&#xcf;" horiz-adv-x="323" 
d="M18 18h18q32 0 45 15t13 46v526q0 32 -13 46.5t-45 14.5h-18v18h287v-18h-18q-31 0 -44 -14.5t-13 -46.5v-526q0 -32 13 -46.5t44 -14.5h18v-18h-287v18zM84 739q-23 0 -39 16.5t-16 39.5t16 39.5t39 16.5t39 -16.5t16 -39.5t-16 -39.5t-39 -16.5zM241 739
q-23 0 -39 16.5t-16 39.5t16 39.5t39 16.5t39 -16.5t16 -39.5t-16 -39.5t-39 -16.5z" />
    <glyph glyph-name="Eth" unicode="&#xd0;" horiz-adv-x="602" 
d="M11 18h16q32 0 45 14.5t13 46.5v257h-77v23h77v246q0 32 -13 46.5t-45 14.5h-16v18h275q61 0 113.5 -22t91.5 -65.5t61 -107t22 -145.5q0 -83 -21.5 -147t-60 -107.5t-91 -66.5t-115.5 -23h-275v18zM289 18q34 0 59.5 22.5t42.5 64t25.5 101t8.5 134.5t-7.5 135
t-24 102.5t-43 65.5t-63.5 23h-14q-28 0 -40 -13.5t-12 -45.5v-248h94v-23h-94v-259q0 -32 11.5 -45.5t40.5 -13.5h16z" />
    <glyph glyph-name="Ntilde" unicode="&#xd1;" horiz-adv-x="639" 
d="M120 578v-428q0 -37 3 -62.5t12 -41t25.5 -22t42.5 -6.5h4v-18h-199v18h7q45 0 61.5 29t16.5 103v463q-23 27 -44.5 39t-41.5 14v18h211l305 -462v312q0 37 -3.5 62.5t-13 41t-26 22t-42.5 6.5h-4v18h202v-18h-6q-44 0 -62 -29t-18 -103v-544h-40zM225 742q9 54 22.5 82
t42.5 28q10 0 26.5 -4.5t34 -9.5t33 -9.5t23.5 -4.5q22 0 32 32l10 -2q-8 -54 -22 -82t-42 -28q-11 0 -27.5 4.5t-33.5 9.5t-32 9.5t-23 4.5q-23 0 -33 -32z" />
    <glyph glyph-name="Ograve" unicode="&#xd2;" horiz-adv-x="607" 
d="M304 -16q-56 0 -106 24.5t-88 70t-60.5 111.5t-22.5 150t22.5 150.5t61 113t88.5 71.5t106 25q55 0 105 -24.5t87.5 -70t60 -111.5t22.5 -150t-22.5 -150.5t-60.5 -113t-88 -71.5t-105 -25zM305 2q39 0 63.5 25.5t38.5 71t19 107.5t5 134t-5.5 134.5t-19.5 108.5
t-38.5 72.5t-63.5 26.5t-64 -25.5t-39 -71t-19 -107.5t-5 -134t5 -134.5t19.5 -108.5t39.5 -72.5t64 -26.5zM251 786q-28 12 -37 24t-11 28q-2 17 9.5 33t31.5 17q15 1 29.5 -6t29.5 -32l62 -102l-6 -9z" />
    <glyph glyph-name="Oacute" unicode="&#xd3;" horiz-adv-x="607" 
d="M304 -16q-56 0 -106 24.5t-88 70t-60.5 111.5t-22.5 150t22.5 150.5t61 113t88.5 71.5t106 25q55 0 105 -24.5t87.5 -70t60 -111.5t22.5 -150t-22.5 -150.5t-60.5 -113t-88 -71.5t-105 -25zM305 2q39 0 63.5 25.5t38.5 71t19 107.5t5 134t-5.5 134.5t-19.5 108.5
t-38.5 72.5t-63.5 26.5t-64 -25.5t-39 -71t-19 -107.5t-5 -134t5 -134.5t19.5 -108.5t39.5 -72.5t64 -26.5zM250 748l62 102q15 25 30 32t30 6q19 -1 31 -17t10 -33q-2 -16 -11.5 -28t-37.5 -24l-107 -47z" />
    <glyph glyph-name="Ocircumflex" unicode="&#xd4;" horiz-adv-x="607" 
d="M304 -16q-56 0 -106 24.5t-88 70t-60.5 111.5t-22.5 150t22.5 150.5t61 113t88.5 71.5t106 25q55 0 105 -24.5t87.5 -70t60 -111.5t22.5 -150t-22.5 -150.5t-60.5 -113t-88 -71.5t-105 -25zM305 2q39 0 63.5 25.5t38.5 71t19 107.5t5 134t-5.5 134.5t-19.5 108.5
t-38.5 72.5t-63.5 26.5t-64 -25.5t-39 -71t-19 -107.5t-5 -134t5 -134.5t19.5 -108.5t39.5 -72.5t64 -26.5zM193 743l81 143h64l80 -145l-9 -7l-104 62l-104 -60z" />
    <glyph glyph-name="Otilde" unicode="&#xd5;" horiz-adv-x="607" 
d="M304 -16q-56 0 -106 24.5t-88 70t-60.5 111.5t-22.5 150t22.5 150.5t61 113t88.5 71.5t106 25q55 0 105 -24.5t87.5 -70t60 -111.5t22.5 -150t-22.5 -150.5t-60.5 -113t-88 -71.5t-105 -25zM305 2q39 0 63.5 25.5t38.5 71t19 107.5t5 134t-5.5 134.5t-19.5 108.5
t-38.5 72.5t-63.5 26.5t-64 -25.5t-39 -71t-19 -107.5t-5 -134t5 -134.5t19.5 -108.5t39.5 -72.5t64 -26.5zM198 743q9 54 22.5 82t42.5 28q10 0 26.5 -4.5t34 -9.5t33 -9.5t23.5 -4.5q22 0 32 32l10 -2q-8 -54 -22 -82t-42 -28q-11 0 -27.5 4.5t-33.5 9.5t-32 9.5t-23 4.5
q-23 0 -33 -32z" />
    <glyph glyph-name="Odieresis" unicode="&#xd6;" horiz-adv-x="607" 
d="M304 -16q-56 0 -106 24.5t-88 70t-60.5 111.5t-22.5 150t22.5 150.5t61 113t88.5 71.5t106 25q55 0 105 -24.5t87.5 -70t60 -111.5t22.5 -150t-22.5 -150.5t-60.5 -113t-88 -71.5t-105 -25zM305 2q39 0 63.5 25.5t38.5 71t19 107.5t5 134t-5.5 134.5t-19.5 108.5
t-38.5 72.5t-63.5 26.5t-64 -25.5t-39 -71t-19 -107.5t-5 -134t5 -134.5t19.5 -108.5t39.5 -72.5t64 -26.5zM226 739q-23 0 -39 16.5t-16 39.5t16 39.5t39 16.5t39 -16.5t16 -39.5t-16 -39.5t-39 -16.5zM383 739q-23 0 -39 16.5t-16 39.5t16 39.5t39 16.5t39 -16.5t16 -39.5
t-16 -39.5t-39 -16.5z" />
    <glyph glyph-name="multiply" unicode="&#xd7;" horiz-adv-x="446" 
d="M51 161l137 162l-138 164l40 39l134 -160q10 11 21 24q10 11 22 25.5t25 29.5q30 34 67 79l36 -36l-137 -163q10 -12 21 -25q10 -11 22 -26t26 -30q30 -36 69 -82l-39 -40l-135 160l-134 -158z" />
    <glyph glyph-name="Oslash" unicode="&#xd8;" horiz-adv-x="607" 
d="M115 73q-41 45 -64.5 112.5t-23.5 154.5q0 84 22.5 150.5t61 113t88.5 71.5t106 25q48 0 91.5 -18t78.5 -52l73 113h28q-16 -26 -31 -50q-13 -21 -27.5 -43t-25.5 -38q41 -46 64.5 -113t23.5 -155q0 -84 -22.5 -150.5t-60.5 -113t-88 -71.5t-105 -25q-48 0 -92 18t-81 53
q-10 -14 -22.5 -33.5t-23.5 -37.5q-13 -21 -27 -43h-28zM305 2q39 0 63.5 25.5t38.5 71t19 107.5t5 134q0 45 -2 88.5t-7 79.5l-231 -367q11 -60 38.5 -99.5t75.5 -39.5zM416 543q-11 60 -38 99.5t-74 39.5q-39 0 -64 -25.5t-39 -71t-19 -107.5t-5 -134q0 -45 1.5 -88.5
t6.5 -78.5z" />
    <glyph glyph-name="Ugrave" unicode="&#xd9;" horiz-adv-x="624" 
d="M323 -12q-120 0 -181.5 65.5t-61.5 179.5v372q0 35 -14.5 48t-43.5 13h-16v18h291v-18h-23q-30 0 -44 -14t-14 -47v-381q0 -94 33.5 -140t105.5 -46q67 0 108.5 45t41.5 143v316q0 67 -17.5 95.5t-64.5 28.5h-3v18h197v-18h-4q-44 0 -62.5 -27t-18.5 -97v-310
q0 -117 -55 -180.5t-154 -63.5zM285 786q-28 12 -37 24t-11 28q-2 17 9.5 33t31.5 17q15 1 29.5 -6t29.5 -32l62 -102l-6 -9z" />
    <glyph glyph-name="Uacute" unicode="&#xda;" horiz-adv-x="624" 
d="M323 -12q-120 0 -181.5 65.5t-61.5 179.5v372q0 35 -14.5 48t-43.5 13h-16v18h291v-18h-23q-30 0 -44 -14t-14 -47v-381q0 -94 33.5 -140t105.5 -46q67 0 108.5 45t41.5 143v316q0 67 -17.5 95.5t-64.5 28.5h-3v18h197v-18h-4q-44 0 -62.5 -27t-18.5 -97v-310
q0 -117 -55 -180.5t-154 -63.5zM299 748l62 102q15 25 30 32t30 6q19 -1 31 -17t10 -33q-2 -16 -11.5 -28t-37.5 -24l-107 -47z" />
    <glyph glyph-name="Ucircumflex" unicode="&#xdb;" horiz-adv-x="624" 
d="M323 -12q-120 0 -181.5 65.5t-61.5 179.5v372q0 35 -14.5 48t-43.5 13h-16v18h291v-18h-23q-30 0 -44 -14t-14 -47v-381q0 -94 33.5 -140t105.5 -46q67 0 108.5 45t41.5 143v316q0 67 -17.5 95.5t-64.5 28.5h-3v18h197v-18h-4q-44 0 -62.5 -27t-18.5 -97v-310
q0 -117 -55 -180.5t-154 -63.5zM236 743l81 143h64l80 -145l-9 -7l-104 62l-104 -60z" />
    <glyph glyph-name="Udieresis" unicode="&#xdc;" horiz-adv-x="624" 
d="M323 -12q-120 0 -181.5 65.5t-61.5 179.5v372q0 35 -14.5 48t-43.5 13h-16v18h291v-18h-23q-30 0 -44 -14t-14 -47v-381q0 -94 33.5 -140t105.5 -46q67 0 108.5 45t41.5 143v316q0 67 -17.5 95.5t-64.5 28.5h-3v18h197v-18h-4q-44 0 -62.5 -27t-18.5 -97v-310
q0 -117 -55 -180.5t-154 -63.5zM277 739q-23 0 -39 16.5t-16 39.5t16 39.5t39 16.5t39 -16.5t16 -39.5t-16 -39.5t-39 -16.5zM434 739q-23 0 -39 16.5t-16 39.5t16 39.5t39 16.5t39 -16.5t16 -39.5t-16 -39.5t-39 -16.5z" />
    <glyph glyph-name="Yacute" unicode="&#xdd;" horiz-adv-x="622" 
d="M164 18h23q35 0 48.5 19.5t13.5 51.5v210l-165 305q-18 33 -36 47.5t-47 14.5h-2v18h276v-18h-18q-18 0 -25.5 -7t-7.5 -18q-2 -16 10 -36l137 -260l109 207q14 26 18.5 44t4.5 31q0 17 -11.5 28t-37.5 11h-10v18h179v-18q-22 -4 -37 -12.5t-27.5 -22.5t-24 -34.5
t-26.5 -48.5l-126 -237v-222q0 -29 13.5 -50t48.5 -21h22v-18h-302v18zM304 748l62 102q15 25 30 32t30 6q19 -1 31 -17t10 -33q-2 -16 -11.5 -28t-37.5 -24l-107 -47z" />
    <glyph glyph-name="Thorn" unicode="&#xde;" horiz-adv-x="554" 
d="M11 18h16q32 0 45 12.5t13 48.5v526q0 36 -13 48.5t-45 12.5h-16v18h295v-18h-27q-32 0 -45 -12.5t-13 -48.5v-47h66q116 0 178.5 -50t62.5 -143q0 -49 -18.5 -87t-52 -63.5t-80.5 -39t-104 -13.5h-52v-83q0 -36 13 -48.5t45 -12.5h28v-18h-296v18zM275 181q30 0 50.5 13
t33 37t18 57t5.5 73t-5.5 73t-17 56.5t-30 36.5t-45.5 13h-9q-29 0 -41.5 -12t-12.5 -48v-299h54z" />
    <glyph glyph-name="germandbls" unicode="&#xdf;" horiz-adv-x="513" 
d="M342 -11q-32 0 -53.5 8t-35.5 20.5t-20 28.5t-6 32q0 27 13.5 44t35.5 17q17 0 30.5 -12.5t13.5 -36.5q0 -15 -6.5 -25t-17.5 -15q-8 -4 -12.5 -4.5t-4.5 -7.5q0 -10 16 -20.5t49 -10.5q42 0 62.5 25.5t20.5 57.5t-17.5 54.5t-67.5 46.5q-36 17 -59 32t-36 31t-18 33
t-5 37q0 17 4.5 30.5t11.5 26t16.5 26.5t19.5 31q7 11 11 22t6.5 25.5t3.5 33t1 44.5q0 56 -14.5 86t-39.5 30q-18 0 -29.5 -11t-18.5 -30.5t-9.5 -46t-2.5 -58.5v-533h-172v18h4q30 0 39.5 12.5t9.5 48.5v327h-54v20h54v70q0 48 15 85.5t40 63.5t58 39.5t68 13.5
q31 0 58.5 -8.5t47.5 -24t31.5 -37.5t11.5 -48q0 -23 -8 -42t-21 -35.5t-29 -31.5t-31 -31q-11 -11 -19 -21.5t-8 -24.5q0 -9 3.5 -16.5t14 -15.5t28.5 -17.5t48 -23.5q30 -15 53 -30.5t38.5 -35t23.5 -44t8 -57.5q0 -43 -14 -74t-36 -51.5t-49.5 -30t-54.5 -9.5z" />
    <glyph glyph-name="agrave" unicode="&#xe0;" horiz-adv-x="448" 
d="M129 -11q-45 0 -74.5 24.5t-29.5 74.5q0 27 11 50.5t38 44.5t73 39t116 34v27q0 73 -16 105t-61 32q-18 0 -34 -4.5t-28.5 -11t-19.5 -13.5t-7 -12q0 -7 5 -7.5t14 -1.5q21 -1 35 -14t14 -38q0 -24 -16 -39t-39 -15q-26 0 -41.5 17t-15.5 43q0 23 9.5 44t29.5 37.5t51 26
t74 9.5q37 0 67.5 -8.5t52.5 -27.5t34 -49.5t12 -73.5v-213q0 -19 6.5 -28t17.5 -9q16 0 30 12l9 -10q-15 -18 -36.5 -30t-58.5 -12q-33 0 -60.5 23.5t-27.5 70.5h-2q-15 -42 -50 -69.5t-82 -27.5zM188 50q12 0 25 9t24.5 24.5t18.5 37t7 46.5v71q-35 -9 -57.5 -23
t-35.5 -31t-17.5 -36.5t-4.5 -39.5q0 -58 40 -58zM151 533q-28 12 -37 24t-11 28q-2 17 9.5 33t31.5 17q15 1 29.5 -6t29.5 -32l62 -102l-6 -9z" />
    <glyph glyph-name="aacute" unicode="&#xe1;" horiz-adv-x="448" 
d="M129 -11q-45 0 -74.5 24.5t-29.5 74.5q0 27 11 50.5t38 44.5t73 39t116 34v27q0 73 -16 105t-61 32q-18 0 -34 -4.5t-28.5 -11t-19.5 -13.5t-7 -12q0 -7 5 -7.5t14 -1.5q21 -1 35 -14t14 -38q0 -24 -16 -39t-39 -15q-26 0 -41.5 17t-15.5 43q0 23 9.5 44t29.5 37.5t51 26
t74 9.5q37 0 67.5 -8.5t52.5 -27.5t34 -49.5t12 -73.5v-213q0 -19 6.5 -28t17.5 -9q16 0 30 12l9 -10q-15 -18 -36.5 -30t-58.5 -12q-33 0 -60.5 23.5t-27.5 70.5h-2q-15 -42 -50 -69.5t-82 -27.5zM188 50q12 0 25 9t24.5 24.5t18.5 37t7 46.5v71q-35 -9 -57.5 -23
t-35.5 -31t-17.5 -36.5t-4.5 -39.5q0 -58 40 -58zM171 495l62 102q15 25 30 32t30 6q19 -1 31 -17t10 -33q-2 -16 -11.5 -28t-37.5 -24l-107 -47z" />
    <glyph glyph-name="acircumflex" unicode="&#xe2;" horiz-adv-x="448" 
d="M129 -11q-45 0 -74.5 24.5t-29.5 74.5q0 27 11 50.5t38 44.5t73 39t116 34v27q0 73 -16 105t-61 32q-18 0 -34 -4.5t-28.5 -11t-19.5 -13.5t-7 -12q0 -7 5 -7.5t14 -1.5q21 -1 35 -14t14 -38q0 -24 -16 -39t-39 -15q-26 0 -41.5 17t-15.5 43q0 23 9.5 44t29.5 37.5t51 26
t74 9.5q37 0 67.5 -8.5t52.5 -27.5t34 -49.5t12 -73.5v-213q0 -19 6.5 -28t17.5 -9q16 0 30 12l9 -10q-15 -18 -36.5 -30t-58.5 -12q-33 0 -60.5 23.5t-27.5 70.5h-2q-15 -42 -50 -69.5t-82 -27.5zM188 50q12 0 25 9t24.5 24.5t18.5 37t7 46.5v71q-35 -9 -57.5 -23
t-35.5 -31t-17.5 -36.5t-4.5 -39.5q0 -58 40 -58zM106 490l81 143h64l80 -145l-9 -7l-104 62l-104 -60z" />
    <glyph glyph-name="atilde" unicode="&#xe3;" horiz-adv-x="448" 
d="M129 -11q-45 0 -74.5 24.5t-29.5 74.5q0 27 11 50.5t38 44.5t73 39t116 34v27q0 73 -16 105t-61 32q-18 0 -34 -4.5t-28.5 -11t-19.5 -13.5t-7 -12q0 -7 5 -7.5t14 -1.5q21 -1 35 -14t14 -38q0 -24 -16 -39t-39 -15q-26 0 -41.5 17t-15.5 43q0 23 9.5 44t29.5 37.5t51 26
t74 9.5q37 0 67.5 -8.5t52.5 -27.5t34 -49.5t12 -73.5v-213q0 -19 6.5 -28t17.5 -9q16 0 30 12l9 -10q-15 -18 -36.5 -30t-58.5 -12q-33 0 -60.5 23.5t-27.5 70.5h-2q-15 -42 -50 -69.5t-82 -27.5zM188 50q12 0 25 9t24.5 24.5t18.5 37t7 46.5v71q-35 -9 -57.5 -23
t-35.5 -31t-17.5 -36.5t-4.5 -39.5q0 -58 40 -58zM106 490q9 54 22.5 82t42.5 28q10 0 26.5 -4.5t34 -9.5t33 -9.5t23.5 -4.5q22 0 32 32l10 -2q-8 -54 -22 -82t-42 -28q-11 0 -27.5 4.5t-33.5 9.5t-32 9.5t-23 4.5q-23 0 -33 -32z" />
    <glyph glyph-name="adieresis" unicode="&#xe4;" horiz-adv-x="448" 
d="M129 -11q-45 0 -74.5 24.5t-29.5 74.5q0 27 11 50.5t38 44.5t73 39t116 34v27q0 73 -16 105t-61 32q-18 0 -34 -4.5t-28.5 -11t-19.5 -13.5t-7 -12q0 -7 5 -7.5t14 -1.5q21 -1 35 -14t14 -38q0 -24 -16 -39t-39 -15q-26 0 -41.5 17t-15.5 43q0 23 9.5 44t29.5 37.5t51 26
t74 9.5q37 0 67.5 -8.5t52.5 -27.5t34 -49.5t12 -73.5v-213q0 -19 6.5 -28t17.5 -9q16 0 30 12l9 -10q-15 -18 -36.5 -30t-58.5 -12q-33 0 -60.5 23.5t-27.5 70.5h-2q-15 -42 -50 -69.5t-82 -27.5zM188 50q12 0 25 9t24.5 24.5t18.5 37t7 46.5v71q-35 -9 -57.5 -23
t-35.5 -31t-17.5 -36.5t-4.5 -39.5q0 -58 40 -58zM143 486q-23 0 -39 16.5t-16 39.5t16 39.5t39 16.5t39 -16.5t16 -39.5t-16 -39.5t-39 -16.5zM300 486q-23 0 -39 16.5t-16 39.5t16 39.5t39 16.5t39 -16.5t16 -39.5t-16 -39.5t-39 -16.5z" />
    <glyph glyph-name="aring" unicode="&#xe5;" horiz-adv-x="448" 
d="M129 -11q-45 0 -74.5 24.5t-29.5 74.5q0 27 11 50.5t38 44.5t73 39t116 34v27q0 73 -16 105t-61 32q-18 0 -34 -4.5t-28.5 -11t-19.5 -13.5t-7 -12q0 -7 5 -7.5t14 -1.5q21 -1 35 -14t14 -38q0 -24 -16 -39t-39 -15q-26 0 -41.5 17t-15.5 43q0 23 9.5 44t29.5 37.5t51 26
t74 9.5q37 0 67.5 -8.5t52.5 -27.5t34 -49.5t12 -73.5v-213q0 -19 6.5 -28t17.5 -9q16 0 30 12l9 -10q-15 -18 -36.5 -30t-58.5 -12q-33 0 -60.5 23.5t-27.5 70.5h-2q-15 -42 -50 -69.5t-82 -27.5zM188 50q12 0 25 9t24.5 24.5t18.5 37t7 46.5v71q-35 -9 -57.5 -23
t-35.5 -31t-17.5 -36.5t-4.5 -39.5q0 -58 40 -58zM222 479q-17 0 -32 6.5t-26 18t-17.5 27t-6.5 33.5t6.5 33.5t17.5 27t26 18t32 6.5q36 0 59.5 -25t23.5 -60t-24 -60t-59 -25zM222 502q21 0 36 17.5t15 44.5q0 29 -15.5 45t-35.5 16q-19 0 -34.5 -16t-15.5 -45
q0 -27 15 -44.5t35 -17.5z" />
    <glyph glyph-name="ae" unicode="&#xe6;" horiz-adv-x="656" 
d="M459 -13q-60 0 -108.5 33.5t-73.5 94.5q-23 -62 -62.5 -94t-85.5 -32q-45 0 -74.5 24.5t-29.5 74.5q0 27 11 50.5t38 44.5t73 39t116 34v27q0 73 -16 105t-61 32q-18 0 -34 -4.5t-28.5 -11t-19.5 -13.5t-7 -12q0 -7 5 -7.5t14 -1.5q21 -1 35 -14t14 -38q0 -24 -16 -39
t-39 -15q-26 0 -41.5 17t-15.5 43q0 23 9.5 44t29.5 37.5t51 26t74 9.5q83 0 125 -42q53 44 117 44q34 0 66.5 -14.5t57 -42t39.5 -66t15 -86.5q0 -5 -0.5 -14.5t-0.5 -12.5h-248q1 -95 25.5 -137.5t76.5 -42.5q45 0 77.5 25.5t57.5 70.5l15 -9q-13 -26 -29.5 -49.5
t-38.5 -40.5t-50 -27t-63 -10zM188 50q12 0 25 9t24.5 24.5t18.5 37t7 46.5v71q-35 -9 -57.5 -23t-35.5 -31t-17.5 -36.5t-4.5 -39.5q0 -58 40 -58zM466 227q28 0 37.5 12.5t9.5 41.5q0 30 -3 56t-9.5 45.5t-17.5 31t-27 11.5q-35 0 -50.5 -50.5t-17.5 -147.5h78z" />
    <glyph glyph-name="ccedilla" unicode="&#xe7;" horiz-adv-x="402" 
d="M217 -51q5 2 11.5 2.5t12.5 0.5q38 0 59.5 -18t21.5 -46q0 -36 -28.5 -54.5t-71.5 -18.5q-27 0 -46.5 9t-37.5 26l9 14q18 -14 33 -19t32 -5q20 0 30 12t10 29q0 20 -9 29.5t-24 9.5q-10 0 -18 -2v70q-38 3 -70.5 20t-57.5 46.5t-39 69.5t-14 89q0 51 17 93t47 72.5
t69.5 47.5t84.5 17q31 0 57.5 -8.5t46 -24t30 -36.5t10.5 -46q0 -32 -16.5 -50t-39.5 -18q-20 0 -36 14t-16 40q0 22 12 36t29 18q14 4 22 3.5t1 10.5q-12 17 -32.5 27.5t-52.5 10.5q-49 0 -74.5 -48.5t-25.5 -154.5q0 -99 23 -142.5t78 -43.5q21 0 39 8.5t32.5 22t26 30
t20.5 33.5l16 -10q-11 -26 -26.5 -49t-36.5 -40.5t-48 -28t-60 -10.5v-38z" />
    <glyph glyph-name="egrave" unicode="&#xe8;" horiz-adv-x="418" 
d="M219 -13q-40 0 -76 15.5t-63.5 45t-43.5 71t-16 94.5q0 51 17 93.5t44.5 72.5t63 47t73.5 17q35 0 67.5 -14.5t57 -42t39.5 -66t15 -86.5q0 -5 -0.5 -14.5t-0.5 -12.5h-248q2 -94 25 -137t78 -43q42 0 75.5 25t58.5 71l15 -9q-27 -57 -71 -92t-110 -35zM226 227
q28 0 37.5 12.5t9.5 41.5q0 30 -3 56t-9.5 45.5t-17.5 31t-27 11.5q-35 0 -50.5 -50.5t-17.5 -147.5h78zM156 533q-28 12 -37 24t-11 28q-2 17 9.5 33t31.5 17q15 1 29.5 -6t29.5 -32l62 -102l-6 -9z" />
    <glyph glyph-name="eacute" unicode="&#xe9;" horiz-adv-x="418" 
d="M219 -13q-40 0 -76 15.5t-63.5 45t-43.5 71t-16 94.5q0 51 17 93.5t44.5 72.5t63 47t73.5 17q35 0 67.5 -14.5t57 -42t39.5 -66t15 -86.5q0 -5 -0.5 -14.5t-0.5 -12.5h-248q2 -94 25 -137t78 -43q42 0 75.5 25t58.5 71l15 -9q-27 -57 -71 -92t-110 -35zM226 227
q28 0 37.5 12.5t9.5 41.5q0 30 -3 56t-9.5 45.5t-17.5 31t-27 11.5q-35 0 -50.5 -50.5t-17.5 -147.5h78zM169 495l62 102q15 25 30 32t30 6q19 -1 31 -17t10 -33q-2 -16 -11.5 -28t-37.5 -24l-107 -47z" />
    <glyph glyph-name="ecircumflex" unicode="&#xea;" horiz-adv-x="418" 
d="M219 -13q-40 0 -76 15.5t-63.5 45t-43.5 71t-16 94.5q0 51 17 93.5t44.5 72.5t63 47t73.5 17q35 0 67.5 -14.5t57 -42t39.5 -66t15 -86.5q0 -5 -0.5 -14.5t-0.5 -12.5h-248q2 -94 25 -137t78 -43q42 0 75.5 25t58.5 71l15 -9q-27 -57 -71 -92t-110 -35zM226 227
q28 0 37.5 12.5t9.5 41.5q0 30 -3 56t-9.5 45.5t-17.5 31t-27 11.5q-35 0 -50.5 -50.5t-17.5 -147.5h78zM102 490l81 143h64l80 -145l-9 -7l-104 62l-104 -60z" />
    <glyph glyph-name="edieresis" unicode="&#xeb;" horiz-adv-x="418" 
d="M219 -13q-40 0 -76 15.5t-63.5 45t-43.5 71t-16 94.5q0 51 17 93.5t44.5 72.5t63 47t73.5 17q35 0 67.5 -14.5t57 -42t39.5 -66t15 -86.5q0 -5 -0.5 -14.5t-0.5 -12.5h-248q2 -94 25 -137t78 -43q42 0 75.5 25t58.5 71l15 -9q-27 -57 -71 -92t-110 -35zM226 227
q28 0 37.5 12.5t9.5 41.5q0 30 -3 56t-9.5 45.5t-17.5 31t-27 11.5q-35 0 -50.5 -50.5t-17.5 -147.5h78zM139 486q-23 0 -39 16.5t-16 39.5t16 39.5t39 16.5t39 -16.5t16 -39.5t-16 -39.5t-39 -16.5zM296 486q-23 0 -39 16.5t-16 39.5t16 39.5t39 16.5t39 -16.5t16 -39.5
t-16 -39.5t-39 -16.5z" />
    <glyph glyph-name="igrave" unicode="&#xec;" horiz-adv-x="245" 
d="M10 18h4q30 0 40 13.5t10 43.5v276q0 29 -10 43t-40 14h-4v18l173 11v-362q0 -29 9 -43t40 -14h4v-18h-226v18zM65 533q-28 12 -37 24t-11 28q-2 17 9.5 33t31.5 17q15 1 29.5 -6t29.5 -32l62 -102l-6 -9z" />
    <glyph glyph-name="iacute" unicode="&#xed;" horiz-adv-x="245" 
d="M10 18h4q30 0 40 13.5t10 43.5v276q0 29 -10 43t-40 14h-4v18l173 11v-362q0 -29 9 -43t40 -14h4v-18h-226v18zM42 495l62 102q15 25 30 32t30 6q19 -1 31 -17t10 -33q-2 -16 -11.5 -28t-37.5 -24l-107 -47z" />
    <glyph glyph-name="icircumflex" unicode="&#xee;" horiz-adv-x="245" 
d="M10 18h4q30 0 40 13.5t10 43.5v276q0 29 -10 43t-40 14h-4v18l173 11v-362q0 -29 9 -43t40 -14h4v-18h-226v18zM1 490l81 143h64l80 -145l-9 -7l-104 62l-104 -60z" />
    <glyph glyph-name="idieresis" unicode="&#xef;" horiz-adv-x="245" 
d="M10 18h4q30 0 40 13.5t10 43.5v276q0 29 -10 43t-40 14h-4v18l173 11v-362q0 -29 9 -43t40 -14h4v-18h-226v18zM39 486q-23 0 -39 16.5t-16 39.5t16 39.5t39 16.5t39 -16.5t16 -39.5t-16 -39.5t-39 -16.5zM196 486q-23 0 -39 16.5t-16 39.5t16 39.5t39 16.5t39 -16.5
t16 -39.5t-16 -39.5t-39 -16.5z" />
    <glyph glyph-name="eth" unicode="&#xf0;" horiz-adv-x="440" 
d="M219 -15q-39 0 -75 16t-63.5 46t-44 72t-16.5 94q0 51 16.5 93.5t44.5 72.5t64 47t75 17q20 0 41 -7.5t30 -16.5q-3 35 -16.5 76.5t-31.5 75.5l-75 -52l-12 22l75 53q-17 27 -34.5 50t-34.5 38l13 18q25 -14 54.5 -32.5t52.5 -42.5l82 57l13 -23l-77 -53q24 -27 45.5 -63
t38 -80t26.5 -97.5t10 -116.5q0 -59 -17 -108t-44.5 -83.5t-64 -53.5t-75.5 -19zM221 3q20 0 32.5 15t20 42t10 66t2.5 87q0 99 -14.5 155.5t-53.5 56.5t-52 -56t-13 -154q0 -97 14.5 -154.5t53.5 -57.5z" />
    <glyph glyph-name="ntilde" unicode="&#xf1;" horiz-adv-x="493" 
d="M13 18h4q30 0 40 14t10 42v278q0 26 -10 41t-40 15h-4v18l173 10l-5 -102h3q6 18 17 36t27.5 33t38 24.5t48.5 9.5q62 0 90 -38t28 -110v-215q0 -29 8.5 -42.5t39.5 -13.5h2v-18h-217v18h3q28 0 36.5 13.5t8.5 42.5v229q0 44 -10.5 63.5t-35.5 19.5q-21 0 -36.5 -13
t-25 -34.5t-14.5 -50.5t-5 -60v-154q0 -29 7.5 -42.5t36.5 -13.5h3v-18h-221v18zM136 490q9 54 22.5 82t42.5 28q10 0 26.5 -4.5t34 -9.5t33 -9.5t23.5 -4.5q22 0 32 32l10 -2q-8 -54 -22 -82t-42 -28q-11 0 -27.5 4.5t-33.5 9.5t-32 9.5t-23 4.5q-23 0 -33 -32z" />
    <glyph glyph-name="ograve" unicode="&#xf2;" horiz-adv-x="440" 
d="M218 -11q-39 0 -75 16.5t-63 46t-43.5 71t-16.5 92.5t17 93t44.5 72t64 46.5t75.5 16.5t75 -16.5t63.5 -46.5t44 -71.5t16.5 -91.5q0 -51 -17 -93t-45 -72t-64.5 -46.5t-75.5 -16.5zM221 7q20 0 32.5 14.5t20 41.5t10 65.5t2.5 86.5q0 98 -14.5 154t-53.5 56t-52 -55.5
t-13 -152.5q0 -96 14.5 -153t53.5 -57zM157 533q-28 12 -37 24t-11 28q-2 17 9.5 33t31.5 17q15 1 29.5 -6t29.5 -32l62 -102l-6 -9z" />
    <glyph glyph-name="oacute" unicode="&#xf3;" horiz-adv-x="440" 
d="M218 -11q-39 0 -75 16.5t-63 46t-43.5 71t-16.5 92.5t17 93t44.5 72t64 46.5t75.5 16.5t75 -16.5t63.5 -46.5t44 -71.5t16.5 -91.5q0 -51 -17 -93t-45 -72t-64.5 -46.5t-75.5 -16.5zM221 7q20 0 32.5 14.5t20 41.5t10 65.5t2.5 86.5q0 98 -14.5 154t-53.5 56t-52 -55.5
t-13 -152.5q0 -96 14.5 -153t53.5 -57zM167 495l62 102q15 25 30 32t30 6q19 -1 31 -17t10 -33q-2 -16 -11.5 -28t-37.5 -24l-107 -47z" />
    <glyph glyph-name="ocircumflex" unicode="&#xf4;" horiz-adv-x="440" 
d="M218 -11q-39 0 -75 16.5t-63 46t-43.5 71t-16.5 92.5t17 93t44.5 72t64 46.5t75.5 16.5t75 -16.5t63.5 -46.5t44 -71.5t16.5 -91.5q0 -51 -17 -93t-45 -72t-64.5 -46.5t-75.5 -16.5zM221 7q20 0 32.5 14.5t20 41.5t10 65.5t2.5 86.5q0 98 -14.5 154t-53.5 56t-52 -55.5
t-13 -152.5q0 -96 14.5 -153t53.5 -57zM109 490l81 143h64l80 -145l-9 -7l-104 62l-104 -60z" />
    <glyph glyph-name="otilde" unicode="&#xf5;" horiz-adv-x="440" 
d="M218 -11q-39 0 -75 16.5t-63 46t-43.5 71t-16.5 92.5t17 93t44.5 72t64 46.5t75.5 16.5t75 -16.5t63.5 -46.5t44 -71.5t16.5 -91.5q0 -51 -17 -93t-45 -72t-64.5 -46.5t-75.5 -16.5zM221 7q20 0 32.5 14.5t20 41.5t10 65.5t2.5 86.5q0 98 -14.5 154t-53.5 56t-52 -55.5
t-13 -152.5q0 -96 14.5 -153t53.5 -57zM109 490q9 54 22.5 82t42.5 28q10 0 26.5 -4.5t34 -9.5t33 -9.5t23.5 -4.5q22 0 32 32l10 -2q-8 -54 -22 -82t-42 -28q-11 0 -27.5 4.5t-33.5 9.5t-32 9.5t-23 4.5q-23 0 -33 -32z" />
    <glyph glyph-name="odieresis" unicode="&#xf6;" horiz-adv-x="440" 
d="M218 -11q-39 0 -75 16.5t-63 46t-43.5 71t-16.5 92.5t17 93t44.5 72t64 46.5t75.5 16.5t75 -16.5t63.5 -46.5t44 -71.5t16.5 -91.5q0 -51 -17 -93t-45 -72t-64.5 -46.5t-75.5 -16.5zM221 7q20 0 32.5 14.5t20 41.5t10 65.5t2.5 86.5q0 98 -14.5 154t-53.5 56t-52 -55.5
t-13 -152.5q0 -96 14.5 -153t53.5 -57zM143 486q-23 0 -39 16.5t-16 39.5t16 39.5t39 16.5t39 -16.5t16 -39.5t-16 -39.5t-39 -16.5zM300 486q-23 0 -39 16.5t-16 39.5t16 39.5t39 16.5t39 -16.5t16 -39.5t-16 -39.5t-39 -16.5z" />
    <glyph glyph-name="divide" unicode="&#xf7;" horiz-adv-x="446" 
d="M224 126q-23 0 -39 16t-16 39t16 39.5t39 16.5t39.5 -16.5t16.5 -39.5t-16.5 -39t-39.5 -16zM37 347h372v-45h-372v45zM225 411q-23 0 -39.5 16t-16.5 39t16.5 39.5t39.5 16.5t39 -16.5t16 -39.5t-16 -39t-39 -16z" />
    <glyph glyph-name="oslash" unicode="&#xf8;" horiz-adv-x="440" 
d="M89 43q-31 29 -50 73t-19 99q0 51 17 93t44.5 72t64 46.5t75.5 16.5q60 0 109 -37q8 11 17.5 25t18.5 28q11 16 21 32h24l-65 -98q34 -30 54 -74.5t20 -101.5q0 -51 -17 -93t-45 -72t-64.5 -46.5t-75.5 -16.5q-32 0 -61 10.5t-52 29.5l-59 -88h-25zM221 7q20 0 32.5 14.5
t20 41.5t10 65.5t2.5 86.5q0 23 -0.5 43.5t-2.5 39.5l-124 -190q7 -48 21 -74.5t41 -26.5zM279 330q-7 46 -21 70.5t-40 24.5q-39 0 -52 -55t-13 -153v-18q0 -10 0.5 -21t1 -21t1.5 -16z" />
    <glyph glyph-name="ugrave" unicode="&#xf9;" horiz-adv-x="493" 
d="M174 -10q-62 0 -87.5 40t-25.5 112v210q0 28 -9.5 42t-40.5 14h-4v18l172 11v-306q0 -47 11 -68.5t34 -21.5q22 0 38 15t26 39t14.5 54.5t4.5 62.5v140q0 28 -9.5 42t-39.5 14h-5v18l174 11v-358q0 -28 9.5 -42t40.5 -14h3v-18l-172 -15l4 108h-2q-7 -20 -18.5 -39
t-28.5 -34.5t-39.5 -25t-49.5 -9.5zM165 533q-28 12 -37 24t-11 28q-2 17 9.5 33t31.5 17q15 1 29.5 -6t29.5 -32l62 -102l-6 -9z" />
    <glyph glyph-name="uacute" unicode="&#xfa;" horiz-adv-x="493" 
d="M174 -10q-62 0 -87.5 40t-25.5 112v210q0 28 -9.5 42t-40.5 14h-4v18l172 11v-306q0 -47 11 -68.5t34 -21.5q22 0 38 15t26 39t14.5 54.5t4.5 62.5v140q0 28 -9.5 42t-39.5 14h-5v18l174 11v-358q0 -28 9.5 -42t40.5 -14h3v-18l-172 -15l4 108h-2q-7 -20 -18.5 -39
t-28.5 -34.5t-39.5 -25t-49.5 -9.5zM184 495l62 102q15 25 30 32t30 6q19 -1 31 -17t10 -33q-2 -16 -11.5 -28t-37.5 -24l-107 -47z" />
    <glyph glyph-name="ucircumflex" unicode="&#xfb;" horiz-adv-x="493" 
d="M174 -10q-62 0 -87.5 40t-25.5 112v210q0 28 -9.5 42t-40.5 14h-4v18l172 11v-306q0 -47 11 -68.5t34 -21.5q22 0 38 15t26 39t14.5 54.5t4.5 62.5v140q0 28 -9.5 42t-39.5 14h-5v18l174 11v-358q0 -28 9.5 -42t40.5 -14h3v-18l-172 -15l4 108h-2q-7 -20 -18.5 -39
t-28.5 -34.5t-39.5 -25t-49.5 -9.5zM117 490l81 143h64l80 -145l-9 -7l-104 62l-104 -60z" />
    <glyph glyph-name="udieresis" unicode="&#xfc;" horiz-adv-x="493" 
d="M174 -10q-62 0 -87.5 40t-25.5 112v210q0 28 -9.5 42t-40.5 14h-4v18l172 11v-306q0 -47 11 -68.5t34 -21.5q22 0 38 15t26 39t14.5 54.5t4.5 62.5v140q0 28 -9.5 42t-39.5 14h-5v18l174 11v-358q0 -28 9.5 -42t40.5 -14h3v-18l-172 -15l4 108h-2q-7 -20 -18.5 -39
t-28.5 -34.5t-39.5 -25t-49.5 -9.5zM156 486q-23 0 -39 16.5t-16 39.5t16 39.5t39 16.5t39 -16.5t16 -39.5t-16 -39.5t-39 -16.5zM313 486q-23 0 -39 16.5t-16 39.5t16 39.5t39 16.5t39 -16.5t16 -39.5t-16 -39.5t-39 -16.5z" />
    <glyph glyph-name="yacute" unicode="&#xfd;" horiz-adv-x="446" 
d="M107 -208q-39 0 -59.5 22t-20.5 55q0 22 13.5 38.5t37.5 16.5q20 0 32 -14.5t12 -34.5q0 -11 -5.5 -21t-12.5 -15q-5 -4 -11 -7.5t-6 -8.5q0 -10 23 -10q13 0 25.5 6.5t24.5 22t25 41t27 64.5l3 8l-154 389q-11 26 -23.5 44.5t-40.5 20.5v17h234v-17q-24 -2 -34 -11
t-11 -23q0 -8 2 -20t8 -27l79 -206l66 183q6 18 10 34t4 30q0 19 -9.5 28.5t-35.5 11.5v17h139v-17q-29 -3 -43.5 -21t-24.5 -44l-145 -398q-12 -33 -25 -61t-28 -49t-33.5 -32.5t-42.5 -11.5zM215 495l62 102q15 25 30 32t30 6q19 -1 31 -17t10 -33q-2 -16 -11.5 -28
t-37.5 -24l-107 -47z" />
    <glyph glyph-name="thorn" unicode="&#xfe;" horiz-adv-x="479" 
d="M4 -186h7q30 0 39.5 14t9.5 43v736q0 31 -9 45.5t-40 14.5h-4v18l171 15v-265l-5 -106h2q18 51 50.5 80t77.5 29q33 0 60.5 -18t48 -48.5t32 -71t11.5 -84.5q0 -50 -12 -91.5t-33.5 -71.5t-50 -46.5t-61.5 -16.5q-26 0 -45.5 7.5t-33.5 19.5t-24 27t-16 29h-3
q1 -27 2 -49q1 -20 1.5 -37.5t0.5 -24.5v-91q0 -31 8.5 -44t38.5 -13h20v-18h-243v18zM263 22q13 0 24 9t19 31t12 59t4 93q0 99 -15.5 141.5t-41.5 42.5q-20 0 -36 -17.5t-27.5 -45.5t-17.5 -62t-6 -67q0 -36 6 -69t17.5 -58.5t27 -41t34.5 -15.5z" />
    <glyph glyph-name="ydieresis" unicode="&#xff;" horiz-adv-x="446" 
d="M107 -208q-39 0 -59.5 22t-20.5 55q0 22 13.5 38.5t37.5 16.5q20 0 32 -14.5t12 -34.5q0 -11 -5.5 -21t-12.5 -15q-5 -4 -11 -7.5t-6 -8.5q0 -10 23 -10q13 0 25.5 6.5t24.5 22t25 41t27 64.5l3 8l-154 389q-11 26 -23.5 44.5t-40.5 20.5v17h234v-17q-24 -2 -34 -11
t-11 -23q0 -8 2 -20t8 -27l79 -206l66 183q6 18 10 34t4 30q0 19 -9.5 28.5t-35.5 11.5v17h139v-17q-29 -3 -43.5 -21t-24.5 -44l-145 -398q-12 -33 -25 -61t-28 -49t-33.5 -32.5t-42.5 -11.5zM176 486q-23 0 -39 16.5t-16 39.5t16 39.5t39 16.5t39 -16.5t16 -39.5
t-16 -39.5t-39 -16.5zM333 486q-23 0 -39 16.5t-16 39.5t16 39.5t39 16.5t39 -16.5t16 -39.5t-16 -39.5t-39 -16.5z" />
    <glyph glyph-name="dotlessi" unicode="&#x131;" horiz-adv-x="245" 
d="M10 18h4q30 0 40 13.5t10 43.5v276q0 29 -10 43t-40 14h-4v18l173 11v-362q0 -29 9 -43t40 -14h4v-18h-226v18z" />
    <glyph glyph-name="Lslash" unicode="&#x141;" horiz-adv-x="511" 
d="M11 18h16q32 0 45 16t13 45v200l-61 -36v27l61 36v299q0 28 -13 44.5t-45 16.5h-16v18h296v-18h-28q-32 0 -45 -16t-13 -45v-238l120 68v-27l-120 -68v-261q0 -29 13 -44.5t43 -15.5h27q44 0 74.5 19.5t51 55t32 85.5t17.5 112h18l-14 -291h-472v18z" />
    <glyph glyph-name="lslash" unicode="&#x142;" horiz-adv-x="258" 
d="M18 18h3q30 0 40.5 12t10.5 50v212l-55 -32v25l55 32v287q0 38 -10 50.5t-44 12.5h-5v18l178 19v-330l54 31v-25l-54 -31v-269q0 -38 10.5 -50t40.5 -12h3v-18h-227v18z" />
    <glyph glyph-name="OE" unicode="&#x152;" horiz-adv-x="868" 
d="M332 18q29 0 42 13.5t13 45.5v530q0 32 -13 45.5t-42 13.5h-16q-38 0 -64 -23t-43 -65.5t-24.5 -102.5t-7.5 -135t8.5 -134.5t26 -101t43 -64t59.5 -22.5h18zM316 0q-63 0 -116 23t-91.5 66.5t-60 107.5t-21.5 147q0 82 22 145.5t61 107t92 65.5t114 22h486l9 -257h-18
q-5 48 -17 91t-32 75.5t-48 52t-66 19.5h-49q-32 0 -45 -14t-13 -46v-240h34q30 0 50 10.5t32.5 30t18 46.5t5.5 60h17v-322h-17q0 32 -5.5 60.5t-18 49.5t-32.5 33t-50 12h-34v-266q0 -33 13 -46.5t45 -13.5h59q40 0 70 22t50 58.5t32 83t18 95.5h18l-15 -278h-497z" />
    <glyph glyph-name="oe" unicode="&#x153;" horiz-adv-x="684" 
d="M218 -11q-39 0 -75 16.5t-63 46t-43.5 71t-16.5 92.5t17 93t44.5 72t64 46.5t75.5 16.5q38 0 72 -15t61 -42q28 27 61.5 42t69.5 15q34 0 66.5 -14.5t57 -42t39.5 -66t15 -86.5q0 -5 -0.5 -14.5t-0.5 -12.5h-248q1 -94 25 -137t78 -43q43 0 76.5 25.5t57.5 70.5l15 -9
q-27 -57 -71 -92t-110 -35q-38 0 -73.5 14.5t-62.5 41.5q-56 -54 -131 -54zM221 7q20 0 32.5 14.5t20 41.5t10 65.5t2.5 86.5q0 98 -14.5 154t-53.5 56t-52 -55.5t-13 -152.5q0 -96 14.5 -153t53.5 -57zM492 227q28 0 37.5 12.5t9.5 41.5q0 30 -3 56t-9.5 45.5t-17.5 31
t-27 11.5q-35 0 -50.5 -50.5t-17.5 -147.5h78z" />
    <glyph glyph-name="Scaron" unicode="&#x160;" horiz-adv-x="508" 
d="M285 -11q-30 0 -57 7t-47 15q-30 13 -47 25t-32 12q-10 0 -22 -11.5t-20 -45.5h-15l-7 262h17q12 -65 36.5 -111t57 -76t68.5 -44t71 -14q30 0 52.5 9t37.5 25t22.5 36.5t7.5 44.5q0 28 -7.5 49t-24.5 38t-45 30.5t-69 26.5q-56 17 -97.5 36.5t-68.5 46t-40.5 61.5
t-13.5 82t14.5 84.5t40 63.5t60 39.5t75.5 13.5q35 0 68.5 -11.5t58.5 -28.5q9 -6 19 -10.5t16 -4.5q11 0 22 10.5t19 44.5h14l6 -262h-16q-25 128 -79 185.5t-130 57.5q-51 0 -82 -30t-31 -76q0 -27 6.5 -47.5t23 -37.5t46 -31.5t75.5 -28.5q57 -17 98 -38t67.5 -48.5
t39 -62.5t12.5 -80q0 -52 -17 -90.5t-44.5 -64t-63.5 -38.5t-75 -13zM144 881l8 7l104 -60l104 62l9 -7l-80 -145h-64z" />
    <glyph glyph-name="scaron" unicode="&#x161;" horiz-adv-x="382" 
d="M200 -8q-24 0 -43 5t-34 11.5t-26.5 11.5t-21.5 5q-20 0 -30 -32h-13v169h18q7 -34 22 -62t35.5 -48t45 -31t51.5 -11q43 0 61 20t18 45q0 14 -4.5 25t-15.5 20.5t-31 18.5t-50 18q-32 10 -58.5 21.5t-46.5 28.5t-31 40.5t-11 57.5q0 33 11 58t30.5 42.5t46 26t57.5 8.5
q22 0 37 -4t26.5 -8.5t20.5 -8.5t20 -4q13 0 19 6.5t11 18.5h13v-141h-19q-12 52 -46 87.5t-85 35.5q-30 0 -47.5 -17t-17.5 -43q0 -18 6.5 -29.5t19.5 -20t31 -15.5t42 -14q31 -10 58 -21.5t47 -28.5t32 -40.5t12 -56.5q0 -63 -42.5 -103.5t-117.5 -40.5zM80 628l8 7
l104 -60l104 62l9 -7l-80 -145h-64z" />
    <glyph glyph-name="Ydieresis" unicode="&#x178;" horiz-adv-x="622" 
d="M164 18h23q35 0 48.5 19.5t13.5 51.5v210l-165 305q-18 33 -36 47.5t-47 14.5h-2v18h276v-18h-18q-18 0 -25.5 -7t-7.5 -18q-2 -16 10 -36l137 -260l109 207q14 26 18.5 44t4.5 31q0 17 -11.5 28t-37.5 11h-10v18h179v-18q-22 -4 -37 -12.5t-27.5 -22.5t-24 -34.5
t-26.5 -48.5l-126 -237v-222q0 -29 13.5 -50t48.5 -21h22v-18h-302v18zM267 739q-23 0 -39 16.5t-16 39.5t16 39.5t39 16.5t39 -16.5t16 -39.5t-16 -39.5t-39 -16.5zM424 739q-23 0 -39 16.5t-16 39.5t16 39.5t39 16.5t39 -16.5t16 -39.5t-16 -39.5t-39 -16.5z" />
    <glyph glyph-name="Zcaron" unicode="&#x17d;" horiz-adv-x="598" 
d="M21 22l399 644h-142q-50 0 -83 -17.5t-53 -49.5t-31 -78t-18 -104h-17l8 267h481v-21l-400 -645h196q51 0 83.5 20t52.5 56t30.5 85.5t17.5 108.5h18l-16 -288h-526v22zM199 881l8 7l104 -60l104 62l9 -7l-80 -145h-64z" />
    <glyph glyph-name="zcaron" unicode="&#x17e;" horiz-adv-x="403" 
d="M16 12l231 396h-59q-33 0 -56.5 -11t-40 -32.5t-27 -52.5t-17.5 -71h-13l12 185h336v-10l-233 -398h73q37 0 62 14t41 38.5t24.5 56.5t13.5 68h14l-13 -195h-348v12zM97 628l8 7l104 -60l104 62l9 -7l-80 -145h-64z" />
    <glyph glyph-name="florin" unicode="&#x192;" horiz-adv-x="415" 
d="M3 -205q-29 0 -49 18t-19 50q0 24 13.5 37t30.5 13q18 0 29.5 -11.5t11.5 -32.5q0 -16 -7 -25t-8 -18q0 -12 14 -12q10 0 17.5 10t13.5 33t10.5 59t9.5 89q7 69 12.5 145t11.5 151q2 17 4 38t5 41h-65l2 21h67q13 69 36 118t51 80.5t59 46.5t61 15q23 0 39 -7.5t26 -19.5
t14.5 -26.5t4.5 -29.5q0 -23 -13.5 -40t-36.5 -17q-16 0 -30 12t-13 35q0 19 8 31t22 18q5 2 9 3t4 5q0 7 -7.5 12.5t-22.5 5.5t-26.5 -9.5t-22 -36t-19 -73.5t-17.5 -123h98l-2 -21h-98q-3 -26 -5.5 -56.5t-5.5 -62.5q-14 -143 -38.5 -234t-54.5 -142.5t-62.5 -70.5
t-61.5 -19z" />
    <glyph glyph-name="circumflex" unicode="&#x2c6;" 
d="M112 490l81 143h64l80 -145l-9 -7l-104 62l-104 -60z" />
    <glyph glyph-name="caron" unicode="&#x2c7;" 
d="M112 628l8 7l104 -60l104 62l9 -7l-80 -145h-64z" />
    <glyph glyph-name="breve" unicode="&#x2d8;" 
d="M224 489q-39 0 -63.5 40t-30.5 105l14 3q8 -27 29.5 -44t50.5 -17q28 0 49.5 17t29.5 44l14 -3q-6 -65 -29.5 -105t-63.5 -40z" />
    <glyph glyph-name="dotaccent" unicode="&#x2d9;" 
d="M224 487q-23 0 -39 16.5t-16 40.5q0 23 16 39.5t39 16.5t39 -16.5t16 -39.5q0 -24 -16 -40.5t-39 -16.5z" />
    <glyph glyph-name="ring" unicode="&#x2da;" 
d="M224 479q-17 0 -32 6.5t-26 18t-17.5 27t-6.5 33.5t6.5 33.5t17.5 27t26 18t32 6.5q36 0 59.5 -25t23.5 -60t-24 -60t-59 -25zM224 502q21 0 36 17.5t15 44.5q0 29 -15.5 45t-35.5 16q-19 0 -34.5 -16t-15.5 -45q0 -27 15 -44.5t35 -17.5z" />
    <glyph glyph-name="ogonek" unicode="&#x2db;" 
d="M219 -204q-15 0 -31 3.5t-30 11.5t-23 22t-9 34q0 33 27.5 66t93.5 67h14q-25 -29 -37.5 -54t-12.5 -58t16 -45t32 -12q10 0 20.5 2.5t23.5 9.5l6 -12q-20 -18 -45 -26.5t-45 -8.5z" />
    <glyph glyph-name="tilde" unicode="&#x2dc;" 
d="M112 490q9 54 22.5 82t42.5 28q10 0 26.5 -4.5t34 -9.5t33 -9.5t23.5 -4.5q22 0 32 32l10 -2q-8 -54 -22 -82t-42 -28q-11 0 -27.5 4.5t-33.5 9.5t-32 9.5t-23 4.5q-23 0 -33 -32z" />
    <glyph glyph-name="hungarumlaut" unicode="&#x2dd;" 
d="M101 489l52 103q13 25 26 33.5t27 8.5q18 0 30.5 -13t12.5 -30q-1 -16 -9.5 -29t-33.5 -27l-96 -53zM239 491l52 101q13 25 26.5 33.5t28.5 8.5q17 0 29.5 -13.5t11.5 -30.5q0 -16 -9 -28.5t-34 -26.5l-97 -52z" />
    <glyph glyph-name="endash" unicode="&#x2013;" horiz-adv-x="386" 
d="M21 251h344v-42h-344v42z" />
    <glyph glyph-name="emdash" unicode="&#x2014;" horiz-adv-x="772" 
d="M21 251h730v-42h-730v42z" />
    <glyph glyph-name="quoteleft" unicode="&#x2018;" horiz-adv-x="228" 
d="M122 397q-29 0 -52 21.5t-23 64.5q0 54 29 105.5t87 104.5l16 -16q-18 -15 -35 -35t-30.5 -40.5t-22 -39.5t-8.5 -31q0 -7 2 -8.5t6 -1t10.5 2.5t14.5 2q29 0 48.5 -18t19.5 -47t-17.5 -46.5t-44.5 -17.5z" />
    <glyph glyph-name="quoteright" unicode="&#x2019;" horiz-adv-x="228" 
d="M50 415q18 15 35 35t30.5 40.5t22 39t8.5 31.5q0 6 -2 8t-6 1t-10.5 -2.5t-14.5 -1.5q-29 0 -48.5 18t-19.5 47t18 46.5t44 17.5q29 0 52 -21.5t23 -64.5q0 -55 -29 -106.5t-87 -103.5z" />
    <glyph glyph-name="quotesinglbase" unicode="&#x201a;" horiz-adv-x="228" 
d="M51 -151q18 15 35 35.5t30.5 41t21.5 39t8 31.5q0 6 -2 8t-6 1l-10 -3q-6 -1 -15 -1q-29 0 -48 18t-19 47t17.5 46.5t43.5 17.5q29 0 52.5 -21.5t23.5 -64.5q0 -55 -29 -106.5t-88 -104.5z" />
    <glyph glyph-name="quotedblleft" unicode="&#x201c;" horiz-adv-x="415" 
d="M309 397q-29 0 -52 21.5t-23 64.5q0 54 29 105.5t88 104.5l15 -16q-18 -15 -35 -35t-30.5 -40.5t-22 -39.5t-8.5 -31q0 -7 2 -8.5t6 -1t10.5 2.5t14.5 2q29 0 48.5 -18t19.5 -47t-17.5 -46.5t-44.5 -17.5zM122 397q-29 0 -52 21.5t-23 64.5q0 54 29 105.5t87 104.5
l16 -16q-18 -15 -35 -35t-30.5 -40.5t-22 -39.5t-8.5 -31q0 -7 2 -8.5t6 -1t10.5 2.5t14.5 2q29 0 48.5 -18t19.5 -47t-17.5 -46.5t-44.5 -17.5z" />
    <glyph glyph-name="quotedblright" unicode="&#x201d;" horiz-adv-x="415" 
d="M50 415q18 15 35 35t30.5 40.5t22 39t8.5 31.5q0 6 -2 8t-6 1t-10.5 -2.5t-14.5 -1.5q-29 0 -48.5 18t-19.5 47t18 46.5t44 17.5q29 0 52 -21.5t23 -64.5q0 -55 -29 -106.5t-87 -103.5zM237 415q18 15 35 35t30.5 40.5t22 39t8.5 31.5q0 6 -2 8t-6 1t-10.5 -2.5
t-14.5 -1.5q-29 0 -48.5 18t-19.5 47t18 46.5t44 17.5q29 0 52.5 -21.5t23.5 -64.5q0 -55 -29.5 -106.5t-87.5 -103.5z" />
    <glyph glyph-name="quotedblbase" unicode="&#x201e;" horiz-adv-x="415" 
d="M51 -151q18 15 35 35.5t30.5 41t21.5 39t8 31.5q0 6 -2 8t-6 1l-10 -3q-6 -1 -15 -1q-29 0 -48 18t-19 47t17.5 46.5t43.5 17.5q29 0 52.5 -21.5t23.5 -64.5q0 -55 -29 -106.5t-88 -104.5zM238 -151q18 15 35 35.5t30.5 41t21.5 39t8 31.5q0 6 -2 8t-6 1l-10 -3
q-6 -1 -15 -1q-29 0 -48 18t-19 47t17.5 46.5t43.5 17.5q29 0 52.5 -21.5t23.5 -64.5q0 -55 -29 -106.5t-88 -104.5z" />
    <glyph glyph-name="dagger" unicode="&#x2020;" horiz-adv-x="386" 
d="M185 -11q0 68 -6.5 120.5t-15.5 93t-19.5 72t-19.5 57.5l19 26q11 14 20 31.5t15.5 39.5t7.5 49q-15 -2 -29 -12t-25 -21q-25 -25 -52 -25q-21 0 -37 17.5t-16 46.5t15 47t38 18q14 0 27.5 -7.5t25.5 -19.5q11 -11 24.5 -19.5t28.5 -10.5q-2 22 -11 38t-17 30
q-11 17 -19 34.5t-8 36.5q0 18 6 29.5t15.5 19t20.5 10.5t20 3t19.5 -3t20 -10.5t15.5 -19t6 -29.5t-8 -36t-17 -35q-8 -14 -17.5 -29.5t-11.5 -38.5q15 2 28.5 10.5t24.5 19.5q12 12 25.5 19.5t27.5 7.5q23 0 38 -18t15 -47t-15 -46.5t-38 -17.5q-14 0 -27.5 7t-24.5 18
t-25 21t-29 12q1 -27 7.5 -49t15.5 -39.5t19 -31.5l20 -26q-9 -26 -19.5 -57.5t-19.5 -72t-15.5 -93t-6.5 -120.5h-16z" />
    <glyph glyph-name="daggerdbl" unicode="&#x2021;" horiz-adv-x="403" 
d="M202 -9q-10 0 -21 3.5t-20.5 11t-16 20t-6.5 30.5q0 19 8.5 35t19.5 33q9 14 17.5 30.5t10.5 38.5q-16 -2 -29.5 -11t-24.5 -20q-12 -11 -25 -18.5t-27 -7.5q-23 0 -38 18t-15 47t15 46t38 17q14 0 27.5 -7t25.5 -18q11 -11 24 -19t29 -10q-1 26 -7.5 46.5t-15.5 37
t-20 28.5t-20 21q9 8 20 20t20 28.5t15.5 38t7.5 47.5q-16 -2 -29.5 -11.5t-24.5 -20.5t-24.5 -18t-27.5 -7q-23 0 -38 17.5t-15 46.5t15 46.5t38 17.5q14 0 27.5 -7.5t25.5 -18.5q11 -11 24 -19.5t29 -10.5q-2 22 -10.5 38t-17.5 30q-11 17 -19.5 33.5t-8.5 34.5t6.5 30.5
t16 20t21 11t20.5 3.5t19.5 -3.5t20 -11t16 -20t6.5 -30.5q0 -17 -9 -34t-19 -34q-8 -14 -17 -29.5t-11 -38.5q16 2 29.5 10.5t24.5 19.5q12 11 25 18.5t28 7.5q23 0 38 -17.5t15 -46.5t-15 -46.5t-38 -17.5q-15 0 -28.5 7t-24.5 18q-11 10 -25 20t-29 12q1 -26 7.5 -47.5
t16 -38t20 -28.5t20.5 -20q-10 -9 -20.5 -21t-20 -28.5t-16 -37.5t-7.5 -47q16 2 29.5 10.5t24.5 19.5q12 11 25 18t28 7q23 0 38 -17t15 -46t-15 -47t-38 -18q-15 0 -28.5 7.5t-24.5 18.5t-24.5 20.5t-29.5 11.5q2 -23 10.5 -39.5t17.5 -30.5q11 -17 19.5 -33.5t8.5 -34.5
t-6.5 -30.5t-16 -20t-20 -11t-19.5 -3.5z" />
    <glyph glyph-name="bullet" unicode="&#x2022;" horiz-adv-x="366" 
d="M183 211q-29 0 -54 10.5t-43.5 29t-29 43.5t-10.5 54t10.5 54t29 43t43.5 28.5t54 10.5t54 -10.5t43.5 -28.5t29 -43t10.5 -54t-10.5 -54t-29 -43.5t-43.5 -29t-54 -10.5z" />
    <glyph glyph-name="ellipsis" unicode="&#x2026;" horiz-adv-x="712" 
d="M119 -10q-27 0 -46.5 19t-19.5 47q0 27 19.5 46.5t46.5 19.5t46.5 -19.5t19.5 -46.5q0 -28 -19.5 -47t-46.5 -19zM356 -10q-27 0 -46.5 19t-19.5 47q0 27 19.5 46.5t46.5 19.5t46.5 -19.5t19.5 -46.5q0 -28 -19.5 -47t-46.5 -19zM593 -10q-28 0 -47 19t-19 47
q0 27 19 46.5t47 19.5q26 0 46 -19.5t20 -46.5q0 -28 -20 -47t-46 -19z" />
    <glyph glyph-name="perthousand" unicode="&#x2030;" horiz-adv-x="974" 
d="M157 338q-25 0 -50 11t-44.5 31.5t-32 50t-12.5 66.5t12.5 67t32.5 50t44.5 31t49.5 11t49.5 -11t44.5 -31t32.5 -50t12.5 -67q0 -38 -12.5 -67.5t-32.5 -49.5t-44.5 -31t-49.5 -11zM158 352q22 0 30 36t8 109q0 72 -9 108.5t-31 36.5q-23 0 -30 -36t-7 -109t8.5 -109
t30.5 -36zM470 653h36l-320 -659h-38zM503 -8q-25 0 -50 11t-44.5 31.5t-32 50t-12.5 66.5t12.5 67t32.5 50t44.5 31t49.5 11t49.5 -11t44 -31t32 -50t12.5 -67q0 -38 -12.5 -67.5t-32 -49.5t-44 -31t-49.5 -11zM504 6q22 0 30 36t8 109q0 72 -9 108.5t-31 36.5
q-23 0 -30.5 -36t-7.5 -109t8.5 -109t31.5 -36zM817 -8q-25 0 -50 11t-44.5 31.5t-32 50t-12.5 66.5t12.5 67t32.5 50t44.5 31t49.5 11t49.5 -11t44.5 -31t32.5 -50t12.5 -67q0 -38 -12.5 -67.5t-32.5 -49.5t-44.5 -31t-49.5 -11zM818 6q22 0 30 36t8 109q0 72 -9 108.5
t-31 36.5q-23 0 -30.5 -36t-7.5 -109t9 -109t31 -36z" />
    <glyph glyph-name="guilsinglleft" unicode="&#x2039;" horiz-adv-x="271" 
d="M18 225l217 224h17l-107 -224l107 -225h-17z" />
    <glyph glyph-name="guilsinglright" unicode="&#x203a;" horiz-adv-x="271" 
d="M35 0h-17l107 225l-107 224h17l217 -224z" />
    <glyph glyph-name="fraction" unicode="&#x2044;" horiz-adv-x="274" 
d="M263 653h37l-298 -659h-38z" />
    <glyph glyph-name="Euro" unicode="&#x20ac;" horiz-adv-x="469" 
d="M283 -15q-43 0 -82 16t-69.5 49.5t-51.5 85t-28 122.5h-42v23h40q-1 11 -1 21v22q0 11 0.5 22t1.5 22h-41v24h43q8 70 31 121t56 84.5t73.5 49.5t82.5 16q30 0 57.5 -8.5t48 -25t33 -41t12.5 -56.5q0 -36 -17 -55t-40 -19q-22 0 -38.5 15.5t-16.5 44.5q0 28 15 43.5
t38 18.5q6 1 10 0t6.5 0t2 4t-3.5 11q-9 22 -34.5 35t-56.5 13q-63 0 -89.5 -64.5t-31.5 -186.5h147v-24h-148q-1 -11 -1 -22v-65h149v-23h-148q2 -122 26.5 -183.5t83.5 -61.5q48 0 82.5 32t50.5 98h20q-10 -46 -29 -76.5t-42.5 -48.5t-49.5 -25.5t-49 -7.5z" />
    <glyph glyph-name="trademark" unicode="&#x2122;" horiz-adv-x="722" 
d="M89 387h17q12 0 17.5 4t5.5 17v256q-19 0 -31.5 -8t-21 -23t-13.5 -36.5t-10 -49.5h-14l6 137h249l5 -137h-13q-9 57 -24.5 86.5t-53.5 30.5v-256q0 -13 6 -17t17 -4h17v-16h-159v16zM379 625v-191q0 -30 6.5 -38.5t29.5 -8.5h5v-16h-97v16h3q20 0 26.5 8.5t6.5 38.5v211
q0 12 -5 16.5t-16 4.5h-13v18h112l63 -197l60 197h114v-18h-10q-11 0 -16 -4.5t-5 -16.5v-237q0 -12 5 -16.5t16 -4.5h10v-16h-142v16h8q11 0 16.5 4t5.5 17v217l-80 -258h-22z" />
    <glyph glyph-name="minus" unicode="&#x2212;" horiz-adv-x="446" 
d="M37 347h372v-45h-372v45z" />
    <glyph glyph-name="radical" unicode="&#x221a;" horiz-adv-x="534" 
d="M82 211q-9 19 -16 33t-16 22.5t-21 13t-30 5.5v18h177l73 -186q10 126 34.5 232.5t54.5 184t61.5 121t57.5 43.5t41.5 -15t15.5 -38q0 -20 -6 -35t-25 -37q-37 -44 -72.5 -94.5t-66.5 -116.5t-54.5 -152t-35.5 -200l-65 -28z" />
    <glyph glyph-name="Pcircle" unicode="&#x24c5;" horiz-adv-x="695" 
d="M348 -16q-67 0 -124.5 27.5t-100 75.5t-66.5 113.5t-24 141.5q0 75 24.5 140.5t67 114t100 76t123.5 27.5t123.5 -27.5t99.5 -76t66.5 -114t24.5 -140.5t-24.5 -140.5t-66.5 -114t-99.5 -76t-123.5 -27.5zM348 2q63 0 117 25.5t93 71t61 108t22 135.5t-22 135.5t-61 108
t-93 71t-117 25.5t-117 -25.5t-93.5 -71t-61.5 -108t-22 -135.5t22 -135.5t61.5 -108t93.5 -71t117 -25.5zM199 160h13q15 0 21.5 6t6.5 21v317q0 28 -28 28h-13v16h157q76 0 118 -27.5t42 -84.5q0 -32 -12 -54.5t-33 -37t-49.5 -21.5t-61.5 -7h-24v-129q0 -15 7 -21t21 -6
h25v-16h-190v16zM361 332q25 0 37 24.5t12 77.5q0 45 -10.5 71.5t-35.5 26.5h-4q-13 0 -18.5 -5.5t-5.5 -21.5v-173h25z" />
    <glyph glyph-name="apple" unicode="&#xf8ff;" horiz-adv-x="693" 
d="M229 -9q-29 0 -49 20t-20 47q0 17 11 32t28 15t29.5 -13.5t12.5 -30.5q0 -9 -3 -18.5t-6 -16.5q-2 -5 -5.5 -13t5.5 -6q17 4 28.5 24.5t11.5 52.5q0 31 -11.5 61t-31 53t-44.5 37t-52 14q-26 0 -45 -11t-21 -31q-1 -8 0.5 -9t3.5 0.5t4 4.5t4 4q5 5 13.5 8t16.5 3
q15 0 26 -14.5t11 -34.5q0 -21 -12.5 -34t-27.5 -13q-23 0 -40 23.5t-17 57.5q0 25 9.5 47.5t26.5 40t39 27.5t48 10q34 0 64 -15t52 -40.5t34.5 -61t12.5 -75.5q0 -30 -8.5 -56.5t-23 -46t-34 -31t-40.5 -11.5zM172 356q-26 0 -48 10t-39 27.5t-26.5 40t-9.5 47.5
q0 34 17 57.5t40 23.5q15 0 27.5 -13t12.5 -34q0 -20 -11 -34.5t-26 -14.5q-8 0 -16.5 3t-13.5 8q-2 1 -4 4t-4 4.5t-3.5 0t-0.5 -8.5q2 -20 21 -31t45 -11q27 0 52 14t44.5 37t31 52.5t11.5 61.5t-11.5 52.5t-28.5 24.5q-5 1 -6 -1t0 -5t3 -7l3 -6q3 -7 6 -16.5t3 -18.5
q0 -17 -12.5 -30.5t-29.5 -13.5t-28 15t-11 32q0 27 20 47t49 20q21 0 40.5 -11.5t34 -31t23 -46t8.5 -56.5q0 -41 -12.5 -76t-34.5 -60.5t-52 -40.5t-64 -15zM465 -9q-22 0 -41 11.5t-33.5 31t-23 46t-8.5 56.5q0 40 12.5 75.5t34.5 61t51.5 40.5t63.5 15q25 0 47.5 -10
t39.5 -27.5t26.5 -40t9.5 -47.5q0 -34 -17 -57.5t-40 -23.5q-15 0 -27.5 13t-12.5 34q0 20 11.5 34.5t26.5 14.5q8 0 16.5 -3t13.5 -8q1 -1 3.5 -4t4.5 -4.5t3.5 -0.5t0.5 9q-2 20 -21 31t-45 11q-27 0 -52.5 -14t-45 -37t-31 -53t-11.5 -61q0 -32 12 -52.5t28 -24.5
q9 -2 5.5 6t-5.5 13q-3 7 -5.5 16.5t-2.5 18.5q0 17 12 30.5t29 13.5t28 -15t11 -32q0 -27 -19.5 -47t-48.5 -20zM521 356q-34 0 -63.5 15t-51.5 40.5t-34.5 60.5t-12.5 76q0 30 8.5 56.5t23 46t33.5 31t41 11.5q29 0 48.5 -20t19.5 -47q0 -17 -11 -32t-28 -15t-29 13.5
t-12 30.5q0 9 2.5 18.5t5.5 16.5q2 5 6 13t-6 6q-16 -4 -28 -24.5t-12 -52.5t11.5 -61.5t31 -52.5t45 -37t52.5 -14q26 0 45 11t21 31q1 7 -0.5 8.5t-3.5 0t-4.5 -4.5t-3.5 -4q-5 -5 -13.5 -8t-16.5 -3q-15 0 -26.5 14.5t-11.5 34.5q0 21 12.5 34t27.5 13q23 0 40 -23.5
t17 -57.5q0 -25 -9.5 -47.5t-26.5 -40t-39.5 -27.5t-47.5 -10z" />
    <glyph glyph-name="registered.alt" horiz-adv-x="695" 
d="M348 -16q-67 0 -124.5 27.5t-100 75.5t-66.5 113.5t-24 141.5q0 75 24.5 140.5t67 114t100 76t123.5 27.5t123.5 -27.5t99.5 -76t66.5 -114t24.5 -140.5t-24.5 -140.5t-66.5 -114t-99.5 -76t-123.5 -27.5zM348 2q63 0 117 25.5t93 71t61 108t22 135.5t-22 135.5t-61 108
t-93 71t-117 25.5t-117 -25.5t-93.5 -71t-61.5 -108t-22 -135.5t22 -135.5t61.5 -108t93.5 -71t117 -25.5zM483 139q-30 0 -53.5 21.5t-33.5 84.5q-8 52 -23.5 75t-34.5 23h-19v-147q0 -14 6 -22.5t23 -8.5h19v-16h-184v16h11q16 0 23 8.5t7 22.5v306q0 14 -7 22t-23 8h-11
v16h171q66 0 105 -25t39 -79q0 -21 -10 -38t-27.5 -29t-40.5 -19t-50 -8v-1q28 -6 53 -29t42 -55q7 -14 14 -28.5t14 -25.5t14.5 -18t16.5 -7t16.5 10t9.5 35h14q0 -43 -23.5 -67.5t-57.5 -24.5zM332 357q39 0 52 25t13 64q0 40 -11 62.5t-34 22.5h-6q-15 0 -21 -6.5
t-6 -22.5v-145h13z" />
    <glyph glyph-name="f_j" horiz-adv-x="496" 
d="M268 -206q-17 0 -33.5 5t-29 14.5t-20.5 24.5t-8 36q0 27 14.5 43t35.5 16q23 0 34.5 -15.5t11.5 -33.5q0 -17 -7.5 -28t-19.5 -16q-5 -2 -12.5 -4t-7.5 -7q0 -8 9 -12.5t23 -4.5q11 0 21.5 4t18.5 15.5t13 32.5t5 55v431q0 26 -8.5 41t-31.5 15h-92v-331q0 -33 9.5 -45
t38.5 -12h15v-18h-236v18h4q30 0 40 12t10 45v331h-54v20h54v40q0 114 57.5 173t157.5 59q65 0 97 -30t32 -70q0 -29 -15.5 -46.5t-38.5 -17.5q-20 0 -35.5 12.5t-15.5 38.5q0 20 9.5 33t21.5 19q7 3 12 4t5 6q0 2 -2 7t-9.5 10.5t-21 9.5t-35.5 4q-15 0 -32.5 -7
t-32.5 -25.5t-25 -50.5t-10 -83v-86h73l178 10v-474q0 -36 -11.5 -66.5t-33 -53t-52.5 -35.5t-70 -13z" />
    <glyph glyph-name="R.alt" horiz-adv-x="588" 
d="M11 18h17q32 0 44.5 14.5t12.5 46.5v526q0 36 -13 48.5t-45 12.5h-16v18h272q54 0 98 -9.5t76 -30.5t49.5 -54.5t17.5 -81.5q0 -39 -15 -69.5t-41 -53t-60.5 -36t-74.5 -18.5v-1q30 -7 55 -18.5t46 -33t38.5 -56t32.5 -86.5q9 -33 15.5 -55.5t13 -36.5t15 -20t22.5 -6h11
v-18h-192l-23 123q-12 63 -23 102t-24.5 60.5t-30.5 29t-41 7.5h-27v-243q0 -29 12 -45t44 -16h23v-18h-289v18zM248 340q38 0 63 9.5t40 29.5t21.5 51t6.5 74q0 84 -22 123t-72 39h-9q-31 0 -43 -13t-12 -49v-264h27z" />
    </font>
</defs>
</svg>
