<svg id="Layer_1" data-name="Layer 1" xmlns="http://www.w3.org/2000/svg" viewBox="0 0 33 33"><defs><style>.cls-1{fill:#bfbfbf;}.cls-2{fill:#2b386f;}.cls-3{fill:none;}</style></defs><title>Artboard 1</title><g id="Diamond_Shape" data-name="Diamond Shape"><path class="cls-1" d="M16.5,1.91,31.09,16.5,16.5,31.09,1.91,16.5,16.5,1.91M16.5.5l-16,16,16,16,16-16L16.5.5Z"/></g><path id="Instagram_Icon" data-name="Instagram Icon" class="cls-2" d="M21.16,16q0,1.49,0,2.06a3.05,3.05,0,0,1-.81,2.1,3.06,3.06,0,0,1-2.1.81q-.57,0-2.06,0t-2.06,0a3.06,3.06,0,0,1-2.1-.81,3.06,3.06,0,0,1-.81-2.1q0-.57,0-2.06t0-2.06a3.06,3.06,0,0,1,.81-2.1,3.06,3.06,0,0,1,2.1-.81q.57,0,2.06,0t2.06,0a3.05,3.05,0,0,1,2.1.81,3.05,3.05,0,0,1,.81,2.1Q21.16,14.54,21.16,16Zm-4.5-4.1H15l-.63,0a5.11,5.11,0,0,0-.67.07,2.59,2.59,0,0,0-.47.12,1.7,1.7,0,0,0-1,1,2.61,2.61,0,0,0-.12.47,5.11,5.11,0,0,0-.07.67q0,.39,0,.63t0,.69c0,.3,0,.47,0,.5s0,.2,0,.5,0,.53,0,.69,0,.36,0,.63a5.12,5.12,0,0,0,.07.67,2.61,2.61,0,0,0,.12.47,1.71,1.71,0,0,0,1,1,2.6,2.6,0,0,0,.47.12,5,5,0,0,0,.67.07l.63,0h2.37l.63,0a5,5,0,0,0,.67-.07,2.59,2.59,0,0,0,.47-.12,1.7,1.7,0,0,0,.57-.38,1.68,1.68,0,0,0,.38-.57,2.71,2.71,0,0,0,.12-.47,5.23,5.23,0,0,0,.07-.67c0-.26,0-.47,0-.63s0-.39,0-.69,0-.47,0-.5,0-.2,0-.5,0-.53,0-.69,0-.37,0-.63a5.21,5.21,0,0,0-.07-.67,2.71,2.71,0,0,0-.12-.47,1.69,1.69,0,0,0-.38-.57,1.71,1.71,0,0,0-.57-.38,2.58,2.58,0,0,0-.47-.12,5.1,5.1,0,0,0-.67-.07l-.63,0ZM18,14.21a2.57,2.57,0,0,1-3.63,3.63A2.57,2.57,0,0,1,18,14.21Zm-.64,3a1.67,1.67,0,1,0-1.18.49A1.61,1.61,0,0,0,17.33,17.21Zm1.91-4.27a.6.6,0,1,1-.42-.18A.58.58,0,0,1,19.25,12.93Z"/><rect class="cls-3" width="33" height="33"/></svg>