<svg id="Layer_1" data-name="Layer 1" xmlns="http://www.w3.org/2000/svg" viewBox="0 0 33 33"><defs><style>.cls-1{fill:#bfbfbf;}.cls-2{fill:#2b386f;}.cls-3{fill:none;}</style></defs><title>Artboard 1 copy</title><g id="Diamond_Shape" data-name="Diamond Shape"><path class="cls-1" d="M16.5,1.91,31.09,16.5,16.5,31.09,1.91,16.5,16.5,1.91M16.5.5l-16,16,16,16,16-16L16.5.5Z"/></g><path class="cls-2" d="M21.68,14.7c0,.1,0,.2,0,.3a6.59,6.59,0,0,1-10.14,5.55,4.88,4.88,0,0,0,.55,0,4.64,4.64,0,0,0,2.88-1A2.32,2.32,0,0,1,12.81,18a2.38,2.38,0,0,0,.44,0,2.33,2.33,0,0,0,.61-.08A2.32,2.32,0,0,1,12,15.67v0a2.31,2.31,0,0,0,1,.29,2.32,2.32,0,0,1-.72-3.09,6.57,6.57,0,0,0,4.77,2.42,2.32,2.32,0,0,1,3.95-2.11,4.62,4.62,0,0,0,1.47-.56,2.32,2.32,0,0,1-1,1.28,4.62,4.62,0,0,0,1.33-.36A4.7,4.7,0,0,1,21.68,14.7Z"/><rect class="cls-3" width="33" height="33"/></svg>