<svg id="Layer_1" data-name="Layer 1" xmlns="http://www.w3.org/2000/svg" viewBox="0 0 33 33"><defs><style>.cls-1{fill:#bfbfbf;}.cls-2{fill:#2b386f;}.cls-3{fill:none;}</style></defs><title>Artboard 1 copy 4</title><g id="Diamond_Shape" data-name="Diamond Shape"><path class="cls-1" d="M16.5,1.91,31.09,16.5,16.5,31.09,1.91,16.5,16.5,1.91M16.5.5l-16,16,16,16,16-16L16.5.5Z"/></g><path class="cls-2" d="M18.47,19.22a1.83,1.83,0,0,1-1.6-.91s-.38,1.69-.46,2a8.1,8.1,0,0,1-1.18,2.4.08.08,0,0,1-.16,0,9.18,9.18,0,0,1,0-2.78l.84-4a3.09,3.09,0,0,1-.21-1.16c0-1.09.56-1.9,1.26-1.9s.88.5.88,1.1a17.26,17.26,0,0,1-.58,2.6,1.1,1.1,0,0,0,1,1.41c1.24,0,2.07-1.78,2.07-3.89a2.59,2.59,0,0,0-2.72-2.81,3.3,3.3,0,0,0-3.22,3.51,2.27,2.27,0,0,0,.43,1.44.38.38,0,0,1,.09.41l-.13.59c0,.19-.18.25-.33.18a2.9,2.9,0,0,1-1.34-2.8A4.56,4.56,0,0,1,17.86,10,4.12,4.12,0,0,1,22,14.2C22,17.07,20.57,19.22,18.47,19.22Z"/><rect class="cls-3" width="33" height="33"/></svg>