<svg id="Layer_1" data-name="Layer 1" xmlns="http://www.w3.org/2000/svg" viewBox="0 0 33 33"><defs><style>.cls-1{fill:#bfbfbf;}.cls-2{fill:#2b386f;}.cls-3{fill:none;}</style></defs><title>Artboard 1 copy 5</title><g id="Diamond_Shape" data-name="Diamond Shape"><path class="cls-1" d="M16.5,1.91,31.09,16.5,16.5,31.09,1.91,16.5,16.5,1.91M16.5.5l-16,16,16,16,16-16L16.5.5Z"/></g><path class="cls-2" d="M15.61,10.38l-.91,2.71V15h-.78V13.17L13,10.38h.8l.51,1.86h.05l.48-1.86Zm3.95,1.22v2.59a.81.81,0,0,1-.21.18.37.37,0,0,1-.19.08.2.2,0,0,1-.15-.05.29.29,0,0,1,0-.18V11.6h-.7v2.86a.74.74,0,0,0,.12.45.44.44,0,0,0,.37.15.92.92,0,0,0,.41-.11,1.27,1.27,0,0,0,.4-.32V15h.7V11.6Zm-1.86.8v1.77a.88.88,0,0,1-.27.69,1.09,1.09,0,0,1-.75.25,1,1,0,0,1-.73-.26.89.89,0,0,1-.28-.69V12.38a.78.78,0,0,1,.28-.64,1.15,1.15,0,0,1,.76-.23,1,1,0,0,1,.71.25A.81.81,0,0,1,17.69,12.39Zm-.71,0a.21.21,0,0,0-.09-.18.34.34,0,0,0-.22-.07.31.31,0,0,0-.21.07.22.22,0,0,0-.08.18v1.86a.32.32,0,0,0,.07.22.28.28,0,0,0,.21.08.36.36,0,0,0,.23-.08.31.31,0,0,0,.08-.22Zm5.93,6v1.8a2.24,2.24,0,0,1-2.24,2.24H12.89a2.24,2.24,0,0,1-2.25-2.24v-1.8a2.25,2.25,0,0,1,2.25-2.25h7.78A2.25,2.25,0,0,1,22.91,18.34Zm-8.39-1.45H12.38v.61h.72v3.6h.7v-3.6h.73Zm2,1.1H16v2.35a1,1,0,0,1-.19.17.34.34,0,0,1-.18.06.17.17,0,0,1-.13,0,.27.27,0,0,1,0-.16V18h-.62v2.59a.63.63,0,0,0,.12.41.36.36,0,0,0,.32.14.81.81,0,0,0,.36-.09,1.54,1.54,0,0,0,.36-.29v.35h.62Zm2.25.74a.93.93,0,0,0-.15-.58.53.53,0,0,0-.45-.19.64.64,0,0,0-.28.07,1.14,1.14,0,0,0-.27.21V16.89H17V21.1h.63v-.24a.94.94,0,0,0,.27.21.71.71,0,0,0,.32.07.52.52,0,0,0,.42-.18.77.77,0,0,0,.15-.51Zm2.15.1a.94.94,0,0,0-.23-.68.88.88,0,0,0-.65-.23.91.91,0,0,0-.68.25.87.87,0,0,0-.26.66v1.39a1,1,0,0,0,.24.71.84.84,0,0,0,.66.26.91.91,0,0,0,.69-.25,1,1,0,0,0,.24-.72v-.15h-.64v.14a.68.68,0,0,1-.06.35.27.27,0,0,1-.22.08.23.23,0,0,1-.21-.09.75.75,0,0,1-.06-.35v-.58H21Zm-.71-.28a.28.28,0,0,0-.41,0,.43.43,0,0,0-.07.28v.31h.55v-.31A.43.43,0,0,0,20.27,18.54Zm-2.15,0a.23.23,0,0,0-.19-.08.27.27,0,0,0-.13,0l-.13.09v1.94a.78.78,0,0,0,.15.11.37.37,0,0,0,.15,0,.23.23,0,0,0,.17-.06.38.38,0,0,0,.05-.21v-1.6A.37.37,0,0,0,18.11,18.52Z"/><rect class="cls-3" width="33" height="33"/></svg>