<svg id="Layer_1" data-name="Layer 1" xmlns="http://www.w3.org/2000/svg" viewBox="0 0 33 33"><defs><style>.cls-1{fill:#bfbfbf;}.cls-2{fill:#2b386f;}.cls-3{fill:none;}</style></defs><title>Artboard 1 copy 3</title><g id="Diamond_Shape" data-name="Diamond Shape"><path class="cls-1" d="M16.5,1.91,31.09,16.5,16.5,31.09,1.91,16.5,16.5,1.91M16.5.5l-16,16,16,16,16-16L16.5.5Z"/></g><path class="cls-2" d="M14.47,16.38v1.76h2.4a2.2,2.2,0,0,1-2.4,1.76,2.64,2.64,0,0,1,0-5.28,2.52,2.52,0,0,1,1.73.65c.37-.37.34-.42,1.27-1.3a4.45,4.45,0,1,0-3,7.74c3.67,0,4.57-3.2,4.27-5.33Zm8,.09V14.93h-1.1v1.54H19.8v1.1h1.58v1.58h1.1V17.57H24v-1.1Z"/><rect class="cls-3" width="33" height="33"/></svg>