<svg xmlns="http://www.w3.org/2000/svg" viewBox="0 0 107.47 99.02"><defs><style>.cls-1{fill:#a6aabb;}</style></defs><title>activity type</title><g id="Layer_2" data-name="Layer 2"><g id="Layer_1-2" data-name="Layer 1"><path class="cls-1" d="M48.28,40.56A11.06,11.06,0,1,1,59.34,29.5,11,11,0,0,1,48.28,40.56Zm.4,27.54a30.81,30.81,0,0,0,5.31,2,25,25,0,0,0,4.33-1.66l-2-2.14,0,0h0A5.5,5.5,0,0,0,51,64.64l-6.71,1.62C45.79,66.83,47.27,67.48,48.68,68.1Zm-25.57,0C27,66.4,31.36,64.46,35.9,64.46a21.34,21.34,0,0,1,6.48,1.14L47.26,55.4l7.51,4.66a4.47,4.47,0,0,0,2.37.68,4.52,4.52,0,0,0,2.6-.83h0l0,0,5-3.57L59.38,68c1.73-.77,3.55-1.58,5.45-2.22l6.58-14.12L74,49.84a4.49,4.49,0,0,0,1.15-6.12l4.41-9.46a6.56,6.56,0,0,1,4.17-3.72c3.5-1.36,7.27-5.29,9.77-10.65,3.7-7.93,5.41-12.12-1.07-18S81.64,4.73,77.94,12.66c-2.56,5.5-3.11,11-1.78,14.6A6.57,6.57,0,0,1,76,32.37c-.5,1.05-4.35,9.33-4.35,9.33a4.46,4.46,0,0,0-2.89.8L57,50.85,45.26,43.61c-3.91-2.56-11.11-2.51-13.83,3.18L22.87,64.66A9,9,0,0,0,22,68.59ZM89.63,83c-3.15,0-6.4-1.46-9.84-3-2.77-1.24-5.91-2.66-8-2.66s-5.23,1.41-8,2.66c-3.44,1.54-6.69,3-9.84,3S47.52,81.56,44,80c-2.83-1.25-6-2.67-8.14-2.67S30.58,78.78,27.75,80c-3.49,1.54-6.78,3-9.92,3S11.44,81.56,8,80c-2.77-1.24-5.91-2.65-8-2.65v-8c3.8,0,7.6,1.71,11.28,3.36,2.4,1.08,5.12,2.3,6.56,2.3s4.23-1.23,6.69-2.31c3.73-1.65,7.58-3.35,11.37-3.35s7.64,1.7,11.37,3.35C49.72,73.79,52.5,75,53.95,75s4.16-1.22,6.56-2.3c3.68-1.65,7.48-3.36,11.28-3.36s7.61,1.71,11.28,3.36c2.4,1.08,5.12,2.3,6.56,2.3s4.16-1.22,6.56-2.3c3.68-1.65,7.47-3.36,11.28-3.36v8c-2.09,0-5.23,1.41-8,2.66C96,81.56,92.78,83,89.63,83Zm0,16c-3.15,0-6.4-1.46-9.84-3-2.77-1.24-5.91-2.66-8-2.66s-5.23,1.41-8,2.66c-3.44,1.54-6.69,3-9.84,3S47.52,97.56,44,96c-2.83-1.25-6-2.67-8.14-2.67S30.58,94.78,27.75,96c-3.49,1.54-6.78,3-9.92,3S11.44,97.56,8,96c-2.77-1.24-5.91-2.65-8-2.65v-8c3.8,0,7.6,1.71,11.28,3.36,2.4,1.08,5.12,2.3,6.56,2.3s4.23-1.23,6.69-2.31c3.73-1.65,7.58-3.35,11.37-3.35s7.64,1.7,11.37,3.35C49.72,89.79,52.5,91,53.95,91s4.16-1.22,6.56-2.3c3.68-1.65,7.48-3.36,11.28-3.36s7.61,1.71,11.28,3.36c2.4,1.08,5.12,2.3,6.56,2.3s4.16-1.22,6.56-2.3c3.68-1.65,7.47-3.36,11.28-3.36v8c-2.09,0-5.23,1.41-8,2.66C96,97.56,92.78,99,89.63,99Z"/></g></g></svg>
