<?xml version="1.0" encoding="utf-8"?>
<!-- Generator: Adobe Illustrator 20.0.0, SVG Export Plug-In . SVG Version: 6.00 Build 0)  -->
<svg version="1.1" id="Layer_1" xmlns="http://www.w3.org/2000/svg" xmlns:xlink="http://www.w3.org/1999/xlink" x="0px" y="0px"
	 viewBox="0 0 400 125" style="enable-background:new 0 0 400 125;" xml:space="preserve">
<style type="text/css">
	.st0{fill:none;}
	.st1{fill:#2B386F;}
</style>
<g>
	<path class="st0" d="M223.3,82.7c9.7,0,19.3,0,28.9,0c-4.8-11.9-9.6-23.7-14.4-35.6C233,59,228.2,70.8,223.3,82.7z"/>
	<path class="st0" d="M47.1,82.7c9.7,0,19.2,0,28.9,0c-4.8-11.8-9.5-23.6-14.4-35.5C56.8,59,52,70.8,47.1,82.7z"/>
	<path class="st0" d="M361.9,34.7c-1.2-5.3-4.4-8.8-9.6-10.3c-2.7-0.8-5.6-1.3-8.5-1.4c-6.6-0.2-13.3-0.1-19.9-0.1
		c-0.3,0-0.5,0.1-0.8,0.1c0,12.1,0,24,0,36.1c6.3,0,12.5,0.1,18.7,0c2.8-0.1,5.6-0.3,8.3-0.9c6.2-1.3,10.5-4.9,11.9-11.4
		C362.9,42.8,362.9,38.8,361.9,34.7z"/>
	<path class="st1" d="M362.3,75c0.1-0.1,0.1-0.2,0.2-0.2c0.6-0.3,1.3-0.6,2-0.9c9.1-4.3,15.6-11,18.6-20.7c2.1-6.8,2.2-13.7,1-20.6
		c-1.9-10.8-7.5-18.9-17.3-23.9c-7.4-3.7-15.3-5.1-23.4-5.1c-13.6-0.1-27.3,0-40.9,0c-0.4,0-0.9,0-1.3,0.1c0,39.3,0,78.4,0,117.6
		c7.3,0,14.5,0,21.9,0c0-14.2,0-28.3,0-42.4c5.7,0,11.2,0,16.7,0c0.9,0,1.3,0.3,1.8,1c8,13.5,16.1,26.9,24.1,40.4
		c0.5,0.8,1,1.2,2,1.2c7.2,0,14.5,0,21.7,0c0.4,0,0.8,0,1.4,0C381.2,105.7,371.8,90.3,362.3,75z M350.1,58.2
		c-2.7,0.6-5.5,0.9-8.3,0.9c-6.2,0.1-12.4,0-18.7,0c0-12.1,0-24.1,0-36.1c0.3,0,0.5-0.1,0.8-0.1c6.6,0,13.3-0.1,19.9,0.1
		c2.8,0.1,5.7,0.6,8.5,1.4c5.2,1.5,8.4,5,9.6,10.3c1,4,1,8.1,0.1,12.1C360.6,53.3,356.4,56.9,350.1,58.2z"/>
	<path class="st1" d="M64.5,4.5c-0.6-1.3-1.4-1-2.3-1c-0.9-0.1-1.5,0.1-1.9,1.1C43.9,42,27.5,79.4,11.1,116.8c-0.6,1.4-1.2,2.8-1.9,4.3
		c0.3,0,0.5,0.1,0.7,0.1c6.8,0,13.7,0,20.5,0c0.7,0,0.9-0.3,1.2-0.9c2.4-5.9,4.9-11.8,7.3-17.7c0.3-0.7,0.6-1,1.5-1
		c14.1,0,28.2,0,42.2,0c0.9,0,1.2,0.3,1.6,1.1c2.4,5.8,4.8,11.6,7.2,17.5c0.3,0.8,0.8,1,1.6,1c6.4,0,12.9,0,19.3,0c1,0,2,0,3.2,0
		c-0.2-0.5-0.3-0.8-0.4-1.1C98.2,81.6,81.3,43.1,64.5,4.5z M47.1,82.7C52,70.8,56.8,59,61.6,47.2c4.8,12,9.6,23.7,14.4,35.5
		C66.4,82.7,56.8,82.7,47.1,82.7z"/>
	<path class="st1" d="M291.1,119.8c-8.7-19.9-17.4-39.7-26.1-59.6c-8.1-18.5-16.2-37-24.3-55.6c-0.2-0.4-0.3-1-0.6-1c-0.9-0.1-1.9-0.2-2.9,0
		c-0.3,0.1-0.6,0.7-0.8,1.2c-16.6,37.9-33.2,75.8-49.8,113.6c-0.4,0.9-0.8,1.8-1.2,2.8c0.6,0,0.9,0,1.3,0c6.6,0,13.1,0,19.7,0
		c0.9,0,1.3-0.3,1.6-1.1c2.4-5.8,4.8-11.6,7.2-17.4c0.3-0.7,0.6-1.1,1.5-1.1c14.1,0,28.2,0,42.2,0c0.9,0,1.2,0.3,1.5,1.1
		c2.4,5.8,4.8,11.5,7.1,17.2c0.4,0.9,0.8,1.2,1.8,1.2c7,0,14,0,21,0c0.4,0,0.8,0,1.4,0C291.5,120.6,291.3,120.2,291.1,119.8z
		 M223.3,82.7c4.9-11.9,9.7-23.7,14.5-35.6c4.8,11.9,9.6,23.7,14.4,35.6C242.6,82.7,233,82.7,223.3,82.7z"/>
	<path class="st1" d="M188.6,75.8c1.4-3.3,2.8-6.6,4.3-9.9c1.2-2.8,2.4-5.6,3.7-8.6c-16.7,0-33.1,0-49.7,0c0-11.5,0-22.9,0-34.4
		c18.8,0,37.5,0,56.2,0c0-6.5,0-12.9,0-19.4c-26,0-52,0-78,0c0,39.3,0,78.4,0,117.6c7.3,0,14.5,0,21.8,0c0-14.7,0-29.4,0-44.2
		c0.6,0,1.1,0,1.5,0c12.8,0,25.6,0,38.4,0C187.8,77,188.2,76.6,188.6,75.8z"/>
</g>
</svg>
