<svg xmlns="http://www.w3.org/2000/svg" viewBox="0 0 72.49 103.02"><defs><style>.cls-1{fill:#a6aabb;}</style></defs><title>age</title><g id="Layer_2" data-name="Layer 2"><g id="Layer_1-2" data-name="Layer 1"><circle class="cls-1" cx="36.25" cy="14.96" r="14.96"/><path class="cls-1" d="M5,62.8a5,5,0,0,0,3.38-1.32l13.48-12.4V60.92H50.62V49.08L64.1,61.48a5,5,0,0,0,6.77-7.36L50.1,35a5,5,0,0,0-.82-.61,4.38,4.38,0,0,0-3.06-1.25h-20a4.38,4.38,0,0,0-3.06,1.25,5,5,0,0,0-.82.61L1.61,54.12A5,5,0,0,0,5,62.8Z"/><path class="cls-1" d="M12.82,74.69A7,7,0,0,0,11,82.77l7,16.07a7,7,0,1,0,12.82-5.62l-5-11.36,5.47-4.78L20.53,67.95Z"/><path class="cls-1" d="M46.59,81.85l-5,11.36a7,7,0,1,0,12.82,5.62l7-16.07a7,7,0,0,0-1.8-8.08L52,68,41.12,77.07Z"/></g></g></svg>
