<svg id="Layer_1" data-name="Layer 1" xmlns="http://www.w3.org/2000/svg" viewBox="0 0 149 149"><defs><style>.cls-1{fill:#a6aabb;}.cls-2{fill:#fff;}</style></defs><title>alerticon</title><path class="cls-1" d="M179.65,101.3a74.5,74.5,0,1,1-74.5,74.5A74.5,74.5,0,0,1,179.65,101.3Z" transform="translate(-105.15 -101.3)"/><path class="cls-2" d="M179.57,227.08a11.92,11.92,0,0,1-11.69-11.69c0-6.22,5.48-11.84,11.69-11.84a12.28,12.28,0,0,1,11.84,11.84A11.94,11.94,0,0,1,179.57,227.08Zm-1.33-31.52c-2.67-16-6.22-31.67-9-47.65a48,48,0,0,1-.74-9.17c0-6.81,3.26-14.21,11.1-14.21,8.73,0,11.1,7.55,11.1,15.09a47,47,0,0,1-.74,9.17c-3,15.54-5.77,31.22-8.73,46.77Z" transform="translate(-105.15 -101.3)"/></svg>