<svg id="Layer_1" data-name="Layer 1" xmlns="http://www.w3.org/2000/svg" viewBox="0 0 39 39"><defs><style>.cls-1{fill:#abafc0;}.cls-2{fill:#fff;}</style></defs><title>A_icon</title><polygon class="cls-1" points="18.87 14.17 17.02 19.8 20.96 19.8 18.91 14.17 18.87 14.17"/><path class="cls-1" d="M26,5.5A19.5,19.5,0,1,0,45.53,25,19.5,19.5,0,0,0,26,5.5Zm6.6,25.61c-0.73,0-1.48,0-2.2,0-0.94,0-1.86,0-2.8,0v-0.5H28c0.48,0,1.05-.1,1.05-0.63a4.77,4.77,0,0,0-.29-1.11l-1-2.78h-4.5l-0.42,1.34a9.26,9.26,0,0,0-.52,2.28c0,0.9.63,0.86,1.3,0.9h0.44v0.5c-0.75,0-1.51,0-2.26,0s-1.55,0-2.32,0v-0.5a1.74,1.74,0,0,0,1.86-1.36c0.31-.69.54-1.44,0.79-2.15l2.45-6.84a5.8,5.8,0,0,0,.4-1.72,2,2,0,0,0,0-.5,2.37,2.37,0,0,0,1.11-.84H26.4l3.66,10.1a19.38,19.38,0,0,0,1.09,2.8,1.81,1.81,0,0,0,1.48.52v0.5Z" transform="translate(-6.53 -5.5)"/><path class="cls-2" d="M30.06,27.3L26.4,17.2H26.08A2.37,2.37,0,0,1,25,18a2,2,0,0,1,0,.5,5.8,5.8,0,0,1-.4,1.72l-2.45,6.84c-0.25.71-.48,1.46-0.79,2.15a1.74,1.74,0,0,1-1.86,1.36v0.5c0.77,0,1.55,0,2.32,0s1.51,0,2.26,0v-0.5H23.64c-0.67,0-1.3,0-1.3-.9a9.26,9.26,0,0,1,.52-2.28l0.42-1.34h4.5l1,2.78A4.77,4.77,0,0,1,29,30c0,0.54-.58.63-1.05,0.63H27.63v0.5c0.94,0,1.86,0,2.8,0,0.73,0,1.48,0,2.2,0v-0.5a1.81,1.81,0,0,1-1.48-.52A19.38,19.38,0,0,1,30.06,27.3Zm-6.52-2,1.86-5.63h0l2.05,5.63H23.55Z" transform="translate(-6.53 -5.5)"/></svg>