<?xml version="1.0" encoding="utf-8"?>
<!-- Generator: Adobe Illustrator 20.0.0, SVG Export Plug-In . SVG Version: 6.00 Build 0)  -->
<svg version="1.1" id="Layer_1" xmlns="http://www.w3.org/2000/svg" xmlns:xlink="http://www.w3.org/1999/xlink" x="0px" y="0px"
	 viewBox="0 0 100 125" style="enable-background:new 0 0 100 125;" xml:space="preserve">
<style type="text/css">
	.st0{fill:#fff;}
</style>
<g>
	<path class='st0' d="M14.8,46.4v-38c0-2,1.5-3.7,3.4-3.7s3.4,1.6,3.4,3.7v7.8c18.5-6,38.3-6,56.8,0V8.5c0-2,1.5-3.7,3.4-3.7s3.4,1.6,3.4,3.7
		v37.4l-4.6-5.5h-4.3c0-4.5,0-9.4,0-12.8c-17-6.6-35.6-6.6-52.5,0c0,3.4,0,8.3,0,12.8h-3.5L14.8,46.4z M96.6,39.8
		c-1.9,0-3.4,1.6-3.4,3.7v9.6H6.8v-9.6c0-2-1.5-3.7-3.4-3.7S0,41.4,0,43.5v48.1c0,2,1.5,3.7,3.4,3.7s3.4-1.6,3.4-3.7v-8.6h86.4v8.6
		c0,2,1.5,3.7,3.4,3.7s3.4-1.6,3.4-3.7V43.5C100,41.4,98.5,39.8,96.6,39.8z M29.1,44.4h41.8c0,0,0-13,0-13.2c-13.5-4-28.3-4-41.8,0
		C29.1,31.4,29.1,44.4,29.1,44.4z"/>
</g>
</svg>