<?xml version="1.0" encoding="utf-8"?>
<!-- Generator: Adobe Illustrator 19.2.0, SVG Export Plug-In . SVG Version: 6.00 Build 0)  -->
<svg version="1.1" id="Layer_1" xmlns="http://www.w3.org/2000/svg" xmlns:xlink="http://www.w3.org/1999/xlink" x="0px" y="0px"
	 viewBox="0 0 19.4 21.9" style="enable-background:new 0 0 19.4 21.9;" xml:space="preserve">
<style type="text/css">
	.st0{fill:#073D5E;}
</style>
<title>Costa_icon_transportation_parking</title>
<path class="st0" d="M19.4,3.6c0-2-1.6-3.6-3.6-3.6h-12c-2,0-3.6,1.6-3.6,3.6v12c0,1.1,0.5,2.1,1.3,2.7v2.9c0,0.4,0.3,0.6,0.6,0.6H4
	c0.4,0,0.6-0.3,0.6-0.6v-2.1h10.6v2.1c0,0.4,0.3,0.6,0.6,0.6h1.8c0.4,0,0.6-0.3,0.6-0.6v-3.2c0,0,0-0.1,0-0.1c0.6-0.7,1-1.5,1-2.4
	L19.4,3.6L19.4,3.6z M2.3,4.6c0-0.4,0.3-0.6,0.6-0.6h13.9c0.4,0,0.6,0.3,0.6,0.6V10c0,0.4-0.3,0.6-0.6,0.6H2.9
	c-0.4,0-0.6-0.3-0.6-0.6V4.6z M4.3,17.4c-1,0-1.8-0.8-1.8-1.8s0.8-1.8,1.8-1.8s1.8,0.8,1.8,1.8l0,0C6.2,16.6,5.4,17.4,4.3,17.4z
	 M13.2,15.6c0-1,0.8-1.8,1.8-1.8c1,0,1.8,0.8,1.8,1.8c0,1-0.8,1.8-1.8,1.8C14,17.4,13.2,16.6,13.2,15.6
	C13.2,15.6,13.2,15.6,13.2,15.6L13.2,15.6z"/>
</svg>
