<?xml version="1.0" encoding="utf-8"?>
<!-- Generator: Adobe Illustrator 21.0.0, SVG Export Plug-In . SVG Version: 6.00 Build 0)  -->
<svg version="1.1" id="Layer_1" xmlns="http://www.w3.org/2000/svg" xmlns:xlink="http://www.w3.org/1999/xlink" x="0px" y="0px"
	 viewBox="0 0 400 400" style="enable-background:new 0 0 400 400;" xml:space="preserve">
<style type="text/css">
	.st0{fill:#A6AABB;}
</style>
<g>
	<path class="st0" d="M200,0.5C89.8,0.5,0.5,89.8,0.5,200S89.8,399.5,200,399.5S399.5,310.2,399.5,200S310.2,0.5,200,0.5z
		 M304.1,70.1c7-7,18.5-7,25.7,0c7,7,7,18.5,0,25.7c-7,7-18.5,7-25.7,0C297.2,88.6,297.2,77.1,304.1,70.1z M200,13.8
		c10,0,18.2,8.2,18.2,18.2S210,50.1,200,50.1S181.8,42,181.8,32S190,13.8,200,13.8z M70.4,70.1c7-7,18.5-7,25.7,0c7,7,7,18.5,0,25.7
		c-7,7.3-18.5,7-25.7,0C63.2,88.9,63.2,77.1,70.4,70.1z M32.3,218.2c-10,0-18.2-8.2-18.2-18.2s8.2-18.2,18.2-18.2S50.5,190,50.5,200
		S42.3,218.2,32.3,218.2z M96.2,329.6c-7,7-18.5,7-25.7,0c-7-7-7-18.5,0-25.7c7-7.3,18.5-7,25.7,0
		C103.4,310.8,103.1,322.6,96.2,329.6z M200,385.9c-10,0-18.2-8.2-18.2-18.2s8.2-18.2,18.2-18.2s18.2,8.2,18.2,18.2
		S210.3,385.9,200,385.9z M329.9,329.6c-7,7-18.5,7-25.7,0c-7-7-7-18.5,0-25.7c7-7,18.5-7,25.7,0
		C337.1,311.1,337.1,322.6,329.9,329.6z M200,332.3c-73.3,0-132.6-59.3-132.6-132.6S126.7,67.1,200,67.1s132.6,59.3,132.6,132.6
		S273.3,332.3,200,332.3z M368,218.2c-10,0-18.2-8.2-18.2-18.2s8.2-18.2,18.2-18.2s18.2,8.2,18.2,18.2S378,218.2,368,218.2z"/>
	<path class="st0" d="M293.5,231.5c0.3-1.8,0.6-3.3,0.9-5.1V226c0.3-1.5,0.6-3,0.6-4.8c0-0.3,0-0.6,0-0.9c0.3-1.5,0.3-3,0.3-4.5
		c0-0.3,0-0.6,0-1.2c0-1.8,0.3-3.6,0.3-5.4s0-3.3,0-4.8v-0.3l0,0c-0.3-4.2-0.6-8.2-1.5-12.4c-36.3,19.7-76.6,2.1-114.7-9.1
		c-24.2-8.8-50.6-7.3-73,4.8c-1.2,5.4-2.1,10.9-2.4,16.3l0,0c0,1.8-0.3,3.6-0.3,5.1s0,3,0,4.8c0,1.2,0.3,2.4,0.3,3.6
		c0,0.3,0,0.6,0,0.9c4.5,48.7,45.7,86.9,95.7,86.9C245.7,305.7,283.6,273.9,293.5,231.5L293.5,231.5L293.5,231.5z"/>
</g>
</svg>
