<svg xmlns="http://www.w3.org/2000/svg" viewBox="0 0 60.35 60.35"><defs><style>.cls-1{fill:#a6aabb;}</style></defs><title>cost</title><g id="Layer_2" data-name="Layer 2"><g id="Layer_1-2" data-name="Layer 1"><path class="cls-1" d="M30.18,60.35A30.21,30.21,0,0,1,0,30.18a30.67,30.67,0,0,1,.23-3.75A30.18,30.18,0,1,1,30.18,60.35Zm2.69-31.88H27.48a4.51,4.51,0,0,1,0-9h9.78a1.7,1.7,0,0,0,0-3.4H31.88v-3.5a1.7,1.7,0,0,0-3.4,0v3.5h-1a7.91,7.91,0,0,0-.22,15.82h5.6a4.51,4.51,0,0,1,0,9H22.69a1.7,1.7,0,0,0,0,3.4h5.78v3.5a1.7,1.7,0,1,0,3.4,0V44.3h1a7.91,7.91,0,0,0,0-15.82Z"/></g></g></svg>
