<?xml version="1.0" encoding="utf-8"?>
<!-- Generator: Adobe Illustrator 21.0.0, SVG Export Plug-In . SVG Version: 6.00 Build 0)  -->
<svg version="1.1" id="Layer_1" xmlns="http://www.w3.org/2000/svg" xmlns:xlink="http://www.w3.org/1999/xlink" x="0px" y="0px"
	 viewBox="0 0 400 320" style="enable-background:new 0 0 400 320;" xml:space="preserve">
<style type="text/css">
	.st0{fill:#A6AABB;}
</style>
<g>
	<g>
		<g>
			<path class="st0" d="M398.6,139.1c-4.4-20.6-14.2-38.3-27.5-53.8c-37.6-44.2-84.6-72.6-142.3-82.2c-28.2-4.6-56.2-2.4-83.7,5.7
				c-34.3,10.1-64.9,27.1-91.6,50.9c-23,20.6-42.6,43.7-51.2,74.3c-5.5,19.9,2.2,42.2,19.5,54.4c10.1,7,20.8,12.5,32.8,15.5
				c4.6,1.1,6.3,3.5,6.1,8.3c-0.4,10.3-0.4,20.3,0.2,30.6c0.2,5,1.5,10.1,3.3,14.9c7.4,19.9,23.2,32.4,41.3,41.5
				c29.7,15.1,61.7,19.9,89.9,19.9c24.7,0,44.4-2,63.6-6.8c20.8-5.2,40.2-12.9,56.6-26.7c15.7-12.9,24.9-29.1,24-50.1
				c-0.2-7.9,0.4-15.7-0.2-23.4c-0.4-5.2,2.2-7,6.3-8.3c11.8-3.3,22.7-8.5,32.8-15.7C394.4,177.1,402.3,156.8,398.6,139.1z
				 M288.2,256.9c-11.8,8.7-25.1,14.4-39.8,17.1c-11.2,3.2-22.6,6.6-40.9,6.6c-34.8-1.1-61.4-4.4-85.7-17.3
				c-5.5-2.8-10.5-7.2-15.3-11.1c-1.7-1.3-3.5-3.5-4.2-5.7c-1.1-3.7-2.2-7.7-2-11.6c0.2-5.7,5.9-4.2,9-4.8
				c16.6-2.8,33.4-5.2,50.3-7.2c11.8-1.5,23.6-2.8,35.4-3.1c10.5-0.2,21.2,0.4,31.5,1.7c23.2,2.8,46.1,6.6,69.1,9.4
				c3.5,0.4,4.6,1.7,4.6,5C300.4,245.8,295.2,251.9,288.2,256.9z M355.5,154.6c-7.4,4.4-15.1,8.7-23.2,11.6
				c-10.1,3.5-20.5,5.7-29.3,8.1c-12.2-2-22.7-3.7-33-5.5c-28.9-4.8-57.7-10.1-87.2-7.4c-12.7,1.1-25.4,3.1-37.8,5
				c-14.6,2.2-29.3,5.9-44.2,7.2c-7.9,0.7-16.2-1.7-24-4.2c-9.2-2.6-18.1-6.1-26.7-10.5c-10.5-5.2-12-10.7-7.4-21.4
				C51,118.3,65,103.3,80.3,89.3c23.6-21.4,50.9-36.7,82-44.4c23.2-5.7,46.6-6.3,70.2-0.9c49.8,11.6,89,38.9,117.6,81.1
				c3.9,5.7,5.7,12.7,8.5,19.2C361,148.7,359.2,152.4,355.5,154.6z"/>
		</g>
	</g>
	<path class="st0" d="M122.3,101.1c12.7,1.7,24.3,2.8,35.4,5.2c11.6,2.6,21.9,7,23.8,21.4c1.3,10.3,9.6,15.1,20.6,14.4
		c9.6-0.4,16.6-7,17.9-17.3c0.7-5.9,3.5-9.6,8.1-12.7c8.3-5.2,17.7-7.2,27.3-8.3c7.4-0.9,14.9-1.5,22.3-2.4c-3.3-3.9-6.6-7-10.3-9.4
		c-9.4-6.1-19.7-9.6-30.8-8.7c-12,0.9-22.5,5.9-30.8,14.4c-4.4,4.4-6.8,3.5-10.9-0.2C182.4,86,168,80.1,150.5,84.5
		C139.8,87.5,130.6,93,122.3,101.1z"/>
</g>
</svg>
