<svg id="Layer_1" data-name="Layer 1" xmlns="http://www.w3.org/2000/svg" viewBox="0 0 20 20"><defs><style>.cls-1{fill:#d2d4de;}.cls-2{fill:#fff;}</style></defs><title>Not-Included-Icon</title><path class="cls-1" d="M13.72.72A10.15,10.15,0,0,0,10,0,10,10,0,0,0,.06,8.76,10.36,10.36,0,0,0,0,10,10,10,0,1,0,13.72.72Zm-2.84,14h-.33v1.16a.57.57,0,0,1-1.13,0V14.69H7.51a.57.57,0,0,1-.57-.57.56.56,0,0,1,.57-.56h3.37a1.5,1.5,0,0,0,0-3H9a2.63,2.63,0,0,1,.07-5.25h.33V4.16a.57.57,0,0,1,1.13,0V5.32h1.78a.58.58,0,0,1,.57.57.57.57,0,0,1-.57.56H9.09a1.5,1.5,0,0,0,0,3h1.79a2.63,2.63,0,0,1,0,5.25Z"/><path class="cls-2" d="M13.5,12.06a2.63,2.63,0,0,1-2.62,2.63h-.33v1.16a.57.57,0,0,1-1.13,0V14.69H7.51a.57.57,0,0,1-.57-.57.56.56,0,0,1,.57-.56h3.37a1.5,1.5,0,0,0,0-3H9a2.63,2.63,0,0,1,.07-5.25h.33V4.16a.57.57,0,0,1,1.13,0V5.32h1.78a.58.58,0,0,1,.57.57.57.57,0,0,1-.57.56H9.09a1.5,1.5,0,0,0,0,3h1.79A2.63,2.63,0,0,1,13.5,12.06Z"/></svg>