<?xml version="1.0" encoding="utf-8"?>
<!-- Generator: Adobe Illustrator 20.0.0, SVG Export Plug-In . SVG Version: 6.00 Build 0)  -->
<svg version="1.1" id="Layer_1" xmlns="http://www.w3.org/2000/svg" xmlns:xlink="http://www.w3.org/1999/xlink" x="0px" y="0px"
	 viewBox="0 0 100 125" style="enable-background:new 0 0 100 125;" xml:space="preserve">
<style type="text/css">
	.st0{fill:#fff;}
</style>
<path class='st0' d="M52.7,45.9c-1.7-1.4-8.6-5.7-11.9-8.3c-2.2-1.7-6.8-6-10.4-9.3c1.5-1.5,2.8-2.7,3.4-3.3c2.1-1.9,2.1-1.5,3.5-2
	c1.4-0.5,3.3,0.1,5.6-1.7c2.4-1.8,6.5-7.1,10.8-12.2C58,4.1,57.1,5,56.4,5.6s-12,12.1-12.7,12.6c-0.7,0.5-1.5-0.5-1-1
	c0.4-0.5,0.8-1,3.1-3.6s9.2-10.3,9-10.4c-0.2-0.1-12.5,12.4-13.2,13c-0.6,0.5-0.8,0.1-0.9,0l0,0c-0.1-0.1-0.5-0.4,0-0.9
	c0.6-0.6,13.1-13,13-13.2c-0.1-0.2-7.7,6.7-10.3,9c-2.6,2.3-3.1,2.7-3.6,3.1c-0.5,0.4-1.5-0.3-1-1c0.5-0.7,12-12.1,12.6-12.7
	C52-0.1,52.9-1,47.8,3.2C42.7,7.5,37.4,11.6,35.6,14c-1.8,2.4-1.2,4.2-1.7,5.6c-0.5,1.4-0.1,1.4-2,3.5c-0.6,0.6-1.8,1.9-3.4,3.4
	c-0.9-0.8-1.6-1.5-2.1-2c-2.5-2.3-6.1-4.7-5.4-7.6c0.7-2.9,0.7-7.7-4.8-11.8c-5.5-4.1-10-3.9-11.6-3.8c-1.3,0.1-2.1,0.8-2.3,1
	c-0.2,0.2-0.9,1-1,2.3c-0.1,1.6-0.3,6.1,3.8,11.6c4.1,5.5,8.9,5.5,11.8,4.8c2.9-0.7,5.3,3,7.6,5.4c0.5,0.5,1.1,1.2,2,2.1
	c-3.2,3.2-6.9,6.7-8.9,8.4c-3.5,2.9-8.9,7-11.3,8.7C4,47.3,0.3,49.6,0,51.8c-0.2,2,0.8,3.8,1.1,4l0,0c0.3,0.3,2,1.3,4,1.1
	c2.2-0.2,4.5-3.9,6.2-6.4s5.7-7.8,8.7-11.3c1.7-2,5.2-5.6,8.3-8.8c3.3,3.6,7.6,8.2,9.3,10.4c2.6,3.2,6.8,10.2,8.3,11.9
	c1.4,1.7,4.4,4.7,7.5,1.6l0.3-0.4l0.1-0.1l0.4-0.4C57.4,50.4,54.4,47.4,52.7,45.9z"/>
</svg>
