<?xml version="1.0" encoding="utf-8"?>
<!-- Generator: Adobe Illustrator 21.1.0, SVG Export Plug-In . SVG Version: 6.00 Build 0)  -->
<svg version="1.1" id="Layer_1" xmlns="http://www.w3.org/2000/svg" xmlns:xlink="http://www.w3.org/1999/xlink" x="0px" y="0px"
	 viewBox="0 0 14 14" style="enable-background:new 0 0 14 14;" xml:space="preserve">
<style type="text/css">
	.st0{fill:#20285B;}
</style>
<g id="ISnaSe.tif">
	<g>
		<path class="st0" d="M0,7.4c0.7,0,1.9,0,2.6,0c0,1.2,0,3,0,4.1c3.3,0,5.5,0,8.8,0c0-1.2,0-2.9,0-4.1c0.7,0,1.9,0,2.6,0
			c0,1.9,0,4.7,0,6.6c-4.7,0-9.3,0-14,0C0,12.1,0,9.3,0,7.4z"/>
		<path class="st0" d="M8.5,0c0,0.9,0,5.5,0,6.5c0.8,0,1.6,0,2.6,0c-1.4,1.4-2.7,2.7-4,4.1C5.8,9.2,4.5,7.9,3.1,6.5
			c0.9,0,1.7,0,2.5,0c0-1,0-5.6,0-6.5C6.6,0,7.5,0,8.5,0z"/>
	</g>
</g>
</svg>
