<svg xmlns="http://www.w3.org/2000/svg" viewBox="0 0 64.59 64.59"><defs><style>.cls-1{fill:#a6aabb;}</style></defs><title>duration&amp;apos;</title><g id="Layer_2" data-name="Layer 2"><g id="Layer_1-2" data-name="Layer 1"><path class="cls-1" d="M32.29,0A32.29,32.29,0,1,0,64.59,32.29,32.29,32.29,0,0,0,32.29,0ZM52,45.56a23.83,23.83,0,0,1-10.45,8.61A23.7,23.7,0,0,1,19,52a23.83,23.83,0,0,1-8.61-10.45A23.7,23.7,0,0,1,12.6,19a23.82,23.82,0,0,1,10.45-8.61A23.7,23.7,0,0,1,45.56,12.6a23.82,23.82,0,0,1,8.61,10.45A23.7,23.7,0,0,1,52,45.56Z"/><path class="cls-1" d="M32.5,13.87a3.28,3.28,0,0,0-3.27,3.27V29h-9.9a3.28,3.28,0,0,0-3.27,3.27h0a3.28,3.28,0,0,0,3.27,3.27H35.77V17.14A3.28,3.28,0,0,0,32.5,13.87Z"/><rect class="cls-1" x="29.23" y="29.03" width="6.54" height="6.54"/></g></g></svg>
