<?xml version="1.0" encoding="utf-8"?>
<!-- Generator: Adobe Illustrator 21.0.0, SVG Export Plug-In . SVG Version: 6.00 Build 0)  -->
<svg version="1.1" id="Layer_1" xmlns="http://www.w3.org/2000/svg" xmlns:xlink="http://www.w3.org/1999/xlink" x="0px" y="0px"
	 viewBox="0 0 100 125" style="enable-background:new 0 0 100 125;" xml:space="preserve">
<style type="text/css">
	.st0{fill:#646363;}
</style>
<g>
	<path class="st0" d="M90.5,5H61.8c-2.3,0-4.2,1.9-4.2,4.2s1.9,4.2,4.2,4.2h19.1L40,54.2c-1.6,1.6-1.6,4.3,0,5.9
		c0.8,0.8,1.9,1.2,2.9,1.2s2.1-0.4,2.9-1.2l40.4-40.4v18.2c0,2.3,1.9,4.2,4.2,4.2s4.2-1.9,4.2-4.2V9.2C94.6,6.9,92.8,5,90.5,5z"/>
	<path class="st0" d="M76.1,47c-2.3,0-4.2,1.9-4.2,4.2V84c0,1.5-1.3,2.8-2.8,2.8H16c-1.5,0-2.8-1.3-2.8-2.8V30.9
		c0-1.5,1.3-2.8,2.8-2.8h33c2.3,0,4.2-1.9,4.2-4.2s-1.9-4.2-4.2-4.2H16c-6.1,0-11.1,5-11.1,11.1V84c0,6.1,5,11.1,11.1,11.1h53.1
		c6.1,0,11.1-5,11.1-11.1V51.1C80.2,48.8,78.4,47,76.1,47z"/>
</g>
</svg>
