<?xml version="1.0" encoding="utf-8"?><!-- Generator: Adobe Illustrator 20.0.0, SVG Export Plug-In . SVG Version: 6.00 Build 0)  --><svg version="1.1" id="Layer_1" xmlns="http://www.w3.org/2000/svg" xmlns:xlink="http://www.w3.org/1999/xlink" x="0px" y="0px" viewBox="0 0 21.2 19.8" style="enable-background:new 0 0 21.2 19.8;" xml:space="preserve"><style type="text/css">.st0{fill:#F3BF59;stroke:#FFFFFF;stroke-miterlimit:10;}</style><title>favorites active</title><g id="Layer_2"><g id="Layer_1-2"><path id="Heart_Icon" class="st0" d="M5.5,0.6C5,0.6,4.5,0.7,4,0.9c-1.6,0.7-2.8,2-3.2,3.6c-0.6,2.4,0,4.9,1.4,6.8 c2.2,3.2,5.1,5.9,8.4,7.9c3.3-2.1,6.1-4.8,8.4-7.9c1.4-2,1.9-4.5,1.4-6.8c-0.5-1.6-1.7-2.9-3.2-3.6c-0.5-0.2-1-0.3-1.5-0.3 c-1.8,0.3-3.4,1.2-4.4,2.7l-0.6,0.9l-0.6-0.9C8.9,1.8,7.3,0.8,5.5,0.6z"/></g></g></svg>
