<svg xmlns="http://www.w3.org/2000/svg" viewBox="0 0 22.23 20.93"><defs><style>.cls-1{fill:#646363;fill-opacity: 0.5;stroke:#ffffff;stroke-miterlimit:10;}</style></defs><title>favorites inactive</title><g id="Layer_2" data-name="Layer 2"><g id="Layer_1-2" data-name="Layer 1"><path id="Heart_Icon" data-name="Heart Icon" class="cls-1" d="M5.79.5a3.94,3.94,0,0,0-1.6.36A6.07,6.07,0,0,0,.74,4.67a8.76,8.76,0,0,0,1.5,7.25,31,31,0,0,0,8.9,8.42A31.12,31.12,0,0,0,20,11.91a8.78,8.78,0,0,0,1.44-7.26A6.07,6.07,0,0,0,18.1.86,3.94,3.94,0,0,0,16.48.5a6.75,6.75,0,0,0-4.65,2.9l-.69,1-.69-1A6.8,6.8,0,0,0,5.79.5Z"/></g></g></svg>