<?xml version="1.0" encoding="utf-8"?>
<!-- Generator: Adobe Illustrator 19.2.0, SVG Export Plug-In . SVG Version: 6.00 Build 0)  -->
<svg version="1.1" id="Layer_1" xmlns="http://www.w3.org/2000/svg" xmlns:xlink="http://www.w3.org/1999/xlink" x="0px" y="0px"
	 viewBox="0 0 22.1 22.5" style="enable-background:new 0 0 22.1 22.5;" xml:space="preserve">
<style type="text/css">
	.st0{fill:#073D5E;}
</style>
<title>FLIGHT</title>
<g id="Layer_2">
	<g id="Layer_1-2">
		<path class="st0" d="M9.7,18.6l-0.2-5.7c0-0.3-0.2-0.5-0.5-0.5c0,0-0.1,0-0.1,0l-7.4,2.1l0,0c-0.2,0-0.3,0-0.5-0.1
			c-0.1-0.1-0.2-0.3-0.2-0.4c0-0.2,0.1-0.3,0.2-0.4L9,8.1C9.1,8,9.2,7.9,9.2,7.7l0.5-5.2l0,0c0-0.4,0.2-0.8,0.5-1.1
			c0.3-0.3,0.7-0.4,1.1-0.3c0.7,0.1,1.2,0.7,1.2,1.4l0,0l0.5,5.2c0,0.1,0.1,0.3,0.2,0.4l8.1,5.4c0.1,0.1,0.2,0.2,0.2,0.4l0,0.1
			c0,0.2-0.1,0.3-0.2,0.4c-0.1,0.1-0.3,0.1-0.5,0.1l0,0l-7.5-2c-0.1,0-0.3,0-0.4,0.1c-0.1,0.1-0.2,0.2-0.2,0.4l-0.3,5.7
			c0,0.2,0.1,0.3,0.2,0.4l2.8,2c0.2,0.2,0.3,0.5,0.1,0.8c0,0-0.1,0.1-0.1,0.1C15.2,22,15.1,22,14.9,22l-3.7-1.2c-0.1,0-0.2,0-0.3,0
			l-3.8,1.4c-0.2,0.1-0.3,0-0.5-0.1c-0.1-0.1-0.2-0.3-0.2-0.4v-0.2c0-0.1,0-0.3,0.1-0.4L6.6,21l2.8-2C9.6,19,9.7,18.8,9.7,18.6z"/>
	</g>
</g>
</svg>
