<?xml version="1.0" encoding="utf-8"?>
<!-- Generator: Adobe Illustrator 21.0.0, SVG Export Plug-In . SVG Version: 6.00 Build 0)  -->
<svg version="1.1" id="Layer_1" xmlns="http://www.w3.org/2000/svg" xmlns:xlink="http://www.w3.org/1999/xlink" x="0px" y="0px"
	 viewBox="0 0 400 280" style="enable-background:new 0 0 400 280;" xml:space="preserve">
<style type="text/css">
	.st0{fill:#A6AABB;}
</style>
<g>
	<path class="st0" d="M38.1,215c-10.9-1.4-19.9-3.1-24.9-4.5c0,0-13.2-2.3-12.7-9.2V201c0-1,0.2-3.5,0.2-4.5
		c0.2-1.2,0.4-2.7,0.6-3.9c0-0.4,0.2-0.8,0.2-1s0-0.2,0-0.4c1.2-7.6,3.5-15.4,7-22.6c0.2-0.4,0.4-1,0.6-1.4c0-0.2,0.2-0.2,0.2-0.4
		c1.6-3.5,3.7-6.8,6-9.9c3.3-4.5,7.4-8,11.1-10.1c13.8-7.4,35.1-14.8,52.8-25.7c0.2-0.2,0.4-0.2,0.6-0.4c-5.1-5.8-9-13.2-11.1-21.8
		c-6-5.8-12.5-17.3-12.5-27.9c0-7.2,0.8-10.9,4.5-10.7l0.2-20.8c0,0-0.6-39,44.2-39l0,0c31.2,0,40.3,18.9,43,30.4
		c-7.4,6.4-13.2,14.6-15.8,24.3c-3.3,11.1-1.9,23.2-3.5,34.5c-7.4,10.5-4.3,24.5-0.4,35.6c1.6,3.5,19.7,32.5,16.9,34.1
		c-20.1,11.1-44.4,16.2-61,32.9c-6.8,7.8-11.7,16.6-15.4,26.3C58.7,217.9,48.4,216.7,38.1,215z M303,268.7c-5.5,1.6-15.6,3.5-28,5.1
		c-21.8,3.7-44.4,4.9-66.4,5.5c-2.1,0-4.3,0.2-6.8,0.2c-1.2,0-2.5,0-3.5,0H198c-2.3,0-4.5,0-6.8-0.2c-22-0.6-44.4-1.9-66.4-5.5
		c-12.3-1.6-22.4-3.5-27.9-5.1c0,0-14.8-2.5-14.2-10.5V258c0-1.2,0.2-3.9,0.4-4.9c0.2-1.4,0.4-2.9,0.8-4.3c0-0.4,0.2-0.8,0.2-1.2
		c0-0.2,0-0.4,0-0.4c1.4-8.6,3.9-17.1,7.8-25.1c0.2-0.6,0.4-1,0.8-1.6c0-0.2,0.2-0.2,0.2-0.4c1.8-3.9,4.1-7.6,6.6-11.1
		c3.7-5.1,8.2-9,12.5-11.3c15.4-8.2,39.3-16.4,59.2-28.6c0.2-0.2,0.4-0.2,0.6-0.4c-5.8-6.4-10.1-14.8-12.5-24.3
		c-6.8-6.6-14.2-19.1-14.2-31.2c0-8,1-12.1,5.1-12.1l0.4-23.2c0,0-0.6-43.6,49.3-43.6s49.3,43.6,49.3,43.6l0.2,23.2
		c4.1,0,5.1,3.9,5.1,12.1c0,12.1-7.4,24.7-14.2,31.2c-2.3,9.5-6.6,17.9-12.5,24.3c0.2,0.2,0.4,0.2,0.6,0.4
		c19.9,12.1,43.6,20.3,59.2,28.6c4.3,2.3,8.8,6.2,12.5,11.3c2.3,3.3,4.3,6.8,6.2,10.3c0,0,0,0.2,0.2,0.2c4.3,8.6,7.2,18.1,8.8,27.3
		c0.4,2.1,0.8,4.3,1,6.4c0.2,1.2,0.4,3.7,0.4,4.9v0.2C317.6,266.2,303,268.7,303,268.7z M386.9,210.5c-4.9,1.4-14,3.1-24.9,4.5
		c-10.3,1.6-20.6,2.9-30.8,3.5c-3.5-9.7-8.6-18.7-15.4-26.3c-16.6-16.6-40.7-21.8-61-32.9c-2.7-1.6,15.2-30.4,16.9-34.1
		c3.9-11.1,7-25.1-0.4-35.6c-1.6-11.3-0.2-23.4-3.5-34.5c-2.7-9.7-8.4-17.9-15.8-24.3c2.7-11.5,11.9-30.4,43-30.4
		c44.6,0,44.2,39,44.2,39l0.2,20.8c3.7,0,4.5,3.5,4.5,10.7c0,10.9-6.6,22.2-12.5,27.9c-2.1,8.4-6,16-11.1,21.8
		c0.2,0.2,0.4,0.2,0.6,0.4c17.9,10.9,39,18.3,52.8,25.7c3.9,2.1,7.8,5.5,11.1,10.1c2.3,3.1,4.3,6.4,6,9.9c0,0.2,0.2,0.2,0.2,0.4
		c0.2,0.4,0.4,1,0.6,1.4c3.3,7.2,5.5,14.8,7,22.6c0,0.2,0,0.2,0,0.4c0,0.4,0.2,0.8,0.2,1c0.2,1.2,0.4,2.7,0.6,3.9
		c0.2,1,0.4,3.3,0.2,4.5v0.2C400,208.2,386.9,210.5,386.9,210.5z"/>
</g>
</svg>
