<svg id="Layer_1" data-name="Layer 1" xmlns="http://www.w3.org/2000/svg" viewBox="0 0 22 22"><defs><style>.cls-1{fill:#20285b;}.cls-2{fill:#fff;}</style></defs><title>HAL-Alert-icon</title><path class="cls-1" d="M20,7.3a11,11,0,1,1-11,11A11,11,0,0,1,20,7.3Z" transform="translate(-8.98 -7.3)"/><path class="cls-2" d="M20,25.87a1.76,1.76,0,0,1-1.73-1.73A1.79,1.79,0,0,1,20,22.4a1.81,1.81,0,0,1,1.75,1.75A1.76,1.76,0,0,1,20,25.87Zm-.2-4.65c-.39-2.36-.92-4.68-1.33-7a7.08,7.08,0,0,1-.11-1.35c0-1,.48-2.1,1.64-2.1s1.64,1.11,1.64,2.23a6.94,6.94,0,0,1-.11,1.35c-.44,2.29-.85,4.61-1.29,6.91Z" transform="translate(-8.98 -7.3)"/></svg>