<svg id="Layer_1" data-name="Layer 1" xmlns="http://www.w3.org/2000/svg" viewBox="0 0 33 33"><defs><style>.cls-1{fill:#2a386e;}</style></defs><title>hal-dollar-sign</title><path class="cls-1" d="M36,52.5A16.52,16.52,0,0,1,19.5,36a16.77,16.77,0,0,1,.13-2.05A16.5,16.5,0,1,1,36,52.5Zm1.47-17.43H34.53a2.47,2.47,0,0,1,0-4.93h5.34a.93.93,0,1,0,0-1.86H36.93V26.36a.93.93,0,1,0-1.86,0v1.92h-.54a4.33,4.33,0,0,0-.12,8.65h3.06a2.47,2.47,0,0,1,0,4.93H31.91a.93.93,0,1,0,0,1.86h3.16v1.92a.93.93,0,1,0,1.86,0V43.72h.54a4.33,4.33,0,0,0,0-8.65Z" transform="translate(-19.5 -19.5)"/></svg>