<?xml version="1.0" encoding="utf-8"?>
<!-- Generator: Adobe Illustrator 19.1.0, SVG Export Plug-In . SVG Version: 6.00 Build 0)  -->
<svg version="1.1" id="_x37__x5F_Final" xmlns="http://www.w3.org/2000/svg" xmlns:xlink="http://www.w3.org/1999/xlink" x="0px" y="0px" viewBox="0 0 900 350" style="enable-background:new 0 0 900 350;" xml:space="preserve">
    <style type="text/css">
      .st0{fill:#FFFFFF;}
      .st1{opacity:0;}
    </style>
 <g>
  <g id="svg_1">
   <path id="svg_2" d="m646.099976,322h3.800049v-11.799988l10.5,-15.900024h-4.600037l-7.799988,12.100006l-7.5,-12.100006h-4.799988l10.5,15.900024v11.799988l-0.100037,0zm-33.699951,0h18.599976v-3.5h-14.799988v-8.899994h13.099976v-3.5h-13.099976v-8.200012h14.099976v-3.5h-17.799988v27.600006l-0.099976,0zm-33.300049,0h3.700012v-22.700012h0.100037l15.399963,22.700012h4.799988v-27.600006h-3.699951v22.700012h-0.100037l-15.299988,-22.800018h-4.900024v27.700012l0,0zm-22.599976,-24.399994h4.900024c0.699951,0 1.399963,0.100006 2.099976,0.199982c0.700012,0.100006 1.400024,0.300018 1.900024,0.600006c0.599976,0.300018 1,0.800018 1.399963,1.300018c0.299988,0.599976 0.5,1.299988 0.5,2.299988c0,0.899994 -0.200012,1.700012 -0.5,2.299988c-0.299988,0.600006 -0.799988,1 -1.399963,1.300018c-0.5,0.299988 -1.200012,0.5 -1.900024,0.600006c-0.700012,0.099976 -1.400024,0.199982 -2.099976,0.199982h-4.900024v-8.799988l0,0zm-3.700012,24.399994h3.700012v-12.200012h4.200012l7,12.200012h4.700012l-7.800049,-12.600006c1,-0.100006 2,-0.399994 2.800049,-0.799988c0.899963,-0.399994 1.599976,-1 2.199951,-1.700012c0.600037,-0.699982 1,-1.399994 1.300049,-2.199982c0.299988,-0.800018 0.5,-1.700012 0.5,-2.600006c0,-0.899994 -0.100037,-1.800018 -0.400024,-2.700012c-0.299988,-0.899994 -0.700012,-1.799988 -1.400024,-2.5c-0.699951,-0.699982 -1.599976,-1.299988 -2.699951,-1.799988c-1.100037,-0.5 -2.600037,-0.700012 -4.400024,-0.700012h-9.700012v27.600006l0,0zm-29.799988,-27.700012v17.5c0,1.600006 0.299988,3.100006 0.799988,4.400024c0.5,1.299988 1.299988,2.5 2.299988,3.399994c1,1 2.100037,1.699982 3.400024,2.199982c1.299988,0.5 2.700012,0.800018 4.200012,0.800018c1.5,0 2.899963,-0.300018 4.200012,-0.800018c1.299988,-0.5 2.5,-1.299988 3.399963,-2.199982c1,-1 1.700012,-2.100006 2.299988,-3.399994c0.5,-1.300018 0.800049,-2.800018 0.800049,-4.400024v-17.5h-3.800049v17c0,0.900024 -0.099976,1.700012 -0.399963,2.700012c-0.200012,0.899994 -0.600037,1.799988 -1.200012,2.600006c-0.599976,0.799988 -1.299988,1.399994 -2.200012,1.899994c-0.899963,0.5 -2,0.799988 -3.299988,0.799988c-1.299988,0 -2.400024,-0.299988 -3.299988,-0.799988c-0.900024,-0.5 -1.600037,-1.100006 -2.200012,-1.899994c-0.5,-0.800018 -0.900024,-1.600006 -1.200012,-2.600006c-0.200012,-0.899994 -0.399963,-1.799988 -0.399963,-2.700012v-17h-3.400024l0,0zm-25.299988,24c-1.300018,-0.599976 -2.400024,-1.399994 -3.300018,-2.399994c-0.899994,-1 -1.600006,-2.100006 -2.100006,-3.5c-0.5,-1.299988 -0.699982,-2.799988 -0.699982,-4.299988c0,-1.5 0.199982,-2.899994 0.699982,-4.300018c0.5,-1.299988 1.200012,-2.5 2.100006,-3.5c0.899994,-1 2,-1.799988 3.300018,-2.399994c1.299988,-0.600006 2.699982,-0.899994 4.299988,-0.899994c1.600006,0 3,0.299988 4.299988,0.899994c1.300018,0.600006 2.400024,1.399994 3.300018,2.399994c0.899994,1 1.600006,2.200012 2.100006,3.5c0.5,1.300018 0.700012,2.800018 0.700012,4.300018c0,1.5 -0.200012,2.899994 -0.700012,4.299988c-0.5,1.300018 -1.200012,2.5 -2.100006,3.5c-0.899994,1 -2,1.800018 -3.300018,2.399994c-1.299988,0.600006 -2.699982,0.900024 -4.299988,0.900024c-1.600006,0 -3,-0.300018 -4.299988,-0.900024m10.099976,3.300018c1.800018,-0.700012 3.300018,-1.700012 4.5,-3.100006c1.299988,-1.299988 2.299988,-2.799988 3,-4.600006c0.700012,-1.799988 1.100037,-3.699982 1.100037,-5.699982c0,-2.100006 -0.400024,-4 -1.100037,-5.700012c-0.700012,-1.799988 -1.700012,-3.299988 -3,-4.600006c-1.299988,-1.299988 -2.799988,-2.299988 -4.5,-3.100006c-1.799988,-0.699982 -3.699982,-1.099976 -5.799988,-1.099976c-2.100006,0 -4,0.399994 -5.799988,1.099976c-1.800018,0.700012 -3.300018,1.800018 -4.5,3.100006c-1.300018,1.300018 -2.300018,2.800018 -3,4.600006c-0.700012,1.799988 -1.100006,3.700012 -1.100006,5.700012c0,2.099976 0.399994,4 1.100006,5.699982c0.699982,1.800018 1.699982,3.300018 3,4.600006c1.299988,1.299988 2.799988,2.299988 4.5,3.100006c1.799988,0.799988 3.699982,1.100006 5.799988,1.100006c2.100006,0 4,-0.400024 5.799988,-1.100006m-31.299988,-8.700012c0,0.800018 0,1.5 -0.200012,2.300018c-0.099976,0.699982 -0.299988,1.399994 -0.599976,2c-0.300018,0.599976 -0.800018,1.099976 -1.300018,1.399994c-0.5,0.399994 -1.299988,0.5 -2.199982,0.5c-1.100006,0 -1.900024,-0.300018 -2.5,-0.899994c-0.600006,-0.600006 -1.100006,-1.400024 -1.300018,-2.5l-3.699982,0.799988c0.399994,2 1.199982,3.5 2.599976,4.5c1.300018,1 3,1.5 4.900024,1.5c0.799988,0 1.599976,-0.100006 2.599976,-0.399994c0.900024,-0.300018 1.800018,-0.700012 2.600006,-1.300018c0.800018,-0.599976 1.5,-1.5 2.100006,-2.599976c0.5,-1.100006 0.799988,-2.5 0.799988,-4.300018v-19.799988h-3.799988v18.799988l0,0zm-48.799988,9.100006h18.5v-3.5h-14.800018v-8.899994h13.100006v-3.5h-13.100006v-8.200012h14.100006v-3.5h-17.799988v27.600006l0,0l0,0l0,0zm-30.700012,0h3.700012v-12.700012h14.299988v12.700012h3.799988v-27.600006h-3.799988v11.5h-14.299988v-11.5h-3.700012v27.600006l0,0zm-18.899994,0h3.699982v-24.100006h8.900024v-3.5h-21.5v3.5h8.899994v24.100006l0,0l0,0zm-42.200012,-24.399994h4.899994c0.700012,0 1.5,0.100006 2.200012,0.199982c0.700012,0.100006 1.299988,0.300018 1.899994,0.600006c0.600006,0.300018 1,0.800018 1.300018,1.300018c0.299988,0.599976 0.5,1.299988 0.5,2.299988c0,0.899994 -0.200012,1.700012 -0.5,2.299988c-0.300018,0.600006 -0.800018,1 -1.300018,1.300018c-0.600006,0.299988 -1.199982,0.5 -1.899994,0.600006c-0.700012,0.099976 -1.399994,0.199982 -2.200012,0.199982h-4.899994v-8.799988l0,0l0,0l0,0l0,0l0,0zm-3.799988,24.399994h3.799988v-12.200012h4.200012l7,12.200012h4.699982l-7.899994,-12.600006c1,-0.100006 2,-0.399994 2.800018,-0.799988c0.899994,-0.399994 1.599976,-1 2.199982,-1.700012c0.600006,-0.699982 1,-1.399994 1.300018,-2.199982c0.299988,-0.800018 0.5,-1.700012 0.5,-2.600006c0,-0.899994 -0.100006,-1.800018 -0.400024,-2.700012c-0.299988,-0.899994 -0.699982,-1.799988 -1.399994,-2.5c-0.699982,-0.699982 -1.600006,-1.299988 -2.699982,-1.799988c-1.100006,-0.5 -2.600006,-0.700012 -4.400024,-0.700012h-9.699982v27.600006l0,0l0,0zm-25.800018,-3.700012c-1.299988,-0.599976 -2.399994,-1.399994 -3.299988,-2.399994c-0.899994,-1 -1.600006,-2.100006 -2.100006,-3.5c-0.5,-1.299988 -0.699982,-2.799988 -0.699982,-4.299988c0,-1.5 0.199982,-2.899994 0.699982,-4.300018c0.5,-1.299988 1.200012,-2.5 2.100006,-3.5c0.899994,-1 2,-1.799988 3.299988,-2.399994c1.300018,-0.600006 2.700012,-0.899994 4.300018,-0.899994c1.600006,0 3,0.299988 4.299988,0.899994c1.300018,0.600006 2.399994,1.399994 3.300018,2.399994c0.899994,1 1.599976,2.200012 2.099976,3.5c0.5,1.300018 0.700012,2.800018 0.700012,4.300018c0,1.5 -0.200012,2.899994 -0.700012,4.299988c-0.5,1.300018 -1.199982,2.5 -2.099976,3.5c-0.900024,1 -2,1.800018 -3.300018,2.399994c-1.299988,0.600006 -2.699982,0.900024 -4.299988,0.900024c-1.600006,0 -3,-0.300018 -4.300018,-0.900024m10.100006,3.300018c1.800018,-0.700012 3.300018,-1.700012 4.5,-3.100006c1.300018,-1.299988 2.300018,-2.799988 3,-4.600006c0.700012,-1.799988 1.100006,-3.699982 1.100006,-5.699982c0,-2.100006 -0.399994,-4 -1.100006,-5.700012c-0.699982,-1.799988 -1.699982,-3.299988 -3,-4.600006c-1.299988,-1.299988 -2.799988,-2.299988 -4.5,-3.100006c-1.799988,-0.699982 -3.699982,-1.099976 -5.799988,-1.099976c-2.100006,0 -4,0.399994 -5.800018,1.099976c-1.799988,0.700012 -3.299988,1.800018 -4.5,3.100006c-1.299988,1.300018 -2.199982,2.800018 -3,4.600006c-0.699982,1.799988 -1.099976,3.700012 -1.099976,5.700012c0,2.099976 0.399994,4 1.099976,5.699982c0.700012,1.800018 1.700012,3.300018 3,4.600006c1.300018,1.299988 2.800018,2.299988 4.5,3.100006c1.800018,0.799988 3.700012,1.100006 5.800018,1.100006c2.100006,0 4,-0.400024 5.799988,-1.100006m-37,0.399994h3.5l10.899994,-27.600006h-4.099976l-8.400024,22.5h-0.099976l-8.100006,-22.5h-4.300018l10.600006,27.600006zm-29.799988,-10.100006l5.199997,-12.699982h0.099991l5.100006,12.699982h-10.399994l0,0l0,0zm-8.400009,10.100006h4.400009l2.699997,-6.799988h13.199997l2.799988,6.799988h4.400024l-11.800018,-27.600006h-3.399994l-12.300003,27.600006l0,0l0,0zm-22.599991,-3.200012c0.899994,1.300018 2.199997,2.300018 3.799988,2.900024c1.600006,0.599976 3.300003,0.899994 5.100006,0.899994c1.300003,0 2.600006,-0.200012 3.699997,-0.600006c1.199997,-0.399994 2.199997,-0.899994 3,-1.700012c0.900009,-0.699982 1.5,-1.599976 2.100006,-2.699982c0.5,-1.100006 0.800003,-2.300018 0.800003,-3.600006c0,-1.700012 -0.300003,-3 -1,-3.899994c-0.700012,-1 -1.5,-1.700012 -2.5,-2.300018c-1,-0.599976 -2.100006,-1 -3.300003,-1.299988c-1.199997,-0.299988 -2.300003,-0.700012 -3.300003,-1.100006c-1,-0.399994 -1.800003,-0.899994 -2.5,-1.5c-0.699997,-0.600006 -1,-1.5 -1,-2.699982c0,-0.400024 0.100006,-0.900024 0.300003,-1.400024c0.199997,-0.5 0.5,-1 0.899994,-1.399994c0.400009,-0.399994 1,-0.799988 1.699997,-1.100006c0.700012,-0.299988 1.5,-0.399994 2.600006,-0.399994c1.100006,0 2.100006,0.200012 2.899994,0.700012c0.900009,0.399994 1.5,1 2,1.799988l3,-2.799988c-1,-1.300018 -2.299988,-2.100006 -3.599991,-2.5c-1.400009,-0.399994 -2.800003,-0.600006 -4.300003,-0.600006c-1.699997,0 -3.100006,0.200012 -4.300003,0.799988c-1.199997,0.5 -2.199997,1.100006 -2.899994,1.900024c-0.800003,0.799988 -1.300003,1.599976 -1.699997,2.5c-0.400009,0.899994 -0.5,1.799988 -0.5,2.599976c0,1.800018 0.299988,3.200012 1,4.300018c0.699997,1.100006 1.5,1.899994 2.5,2.5c1,0.600006 2.099991,1.100006 3.299988,1.5c1.200012,0.299988 2.300003,0.699982 3.300003,1.100006c1,0.399994 1.800003,0.799988 2.5,1.399994c0.699997,0.600006 1,1.399994 1,2.399994c0,0.799988 -0.199997,1.399994 -0.5,2c-0.300003,0.600006 -0.800003,1.100006 -1.300003,1.399994c-0.5,0.399994 -1.099991,0.700012 -1.799988,0.899994c-0.600006,0.200012 -1.300003,0.300018 -1.900009,0.300018c-1.099991,0 -2.199997,-0.200012 -3.300003,-0.700012c-1.099991,-0.5 -1.899994,-1.199982 -2.599991,-2.199982l-3.199997,2.599976l0,0z" class="st0"/>
   <g id="svg_3">
    <g id="svg_4">
     <path id="svg_5" d="m503.399994,60.599998c8.100006,-32.299999 -14,-35.399998 -22.699982,-34.199999c-0.300018,0 -0.600006,0.1 -0.900024,0.1c-10.799988,-9.4 -23.099976,-14.8 -37.299988,-14.8c-43.5,0 -72.700012,36.899999 -72.700012,82.200002s29.200012,82.099998 72.700012,82.099998c36.700012,0 66.600006,-36.899994 66.600006,-82.199997c0,-11.800003 -2,-23.100006 -5.700012,-33.200005l0,0l0,0z" class="st1"/>
    </g>
    <path id="svg_6" d="m497.799988,54.099998l0,0c-1.799988,-3.899998 -3.599976,-6.099998 -3.899994,-6.399998c-0.5,-0.299999 -0.899994,-0.100002 -1.199982,0.299999c-12.400024,18.400002 -19,38.400002 -22.100006,55.400002c-0.700012,3.900002 -1.399994,8 -1.800018,11.699997c-0.299988,3.599998 -1,2.800003 -0.899994,0.200005c0.200012,-4 0.300018,-6.400002 0.700012,-10.100006c0,-0.099998 0.5,-4.5 0.699982,-5.799995c4.700012,-34.900002 18.600006,-53.5 18.600006,-53.5c0,0 0,-0.100002 0.100006,-0.100002c0.299988,-0.5 0.100006,-1.299999 -0.600006,-1.399998c-1.899994,-0.5 -4.600006,-0.700001 -6.5,-0.700001c-2.699982,0 -5.299988,0.299999 -8,0.799999c-21.600006,4.299999 -40.799988,25.400002 -48.299988,32.5c-5.100006,4.800003 -10,9.800003 -14.700012,15.099998c-4.299988,4.800003 -8.399994,9.800003 -12.199982,14.900002c-0.800018,1.099998 -1.600006,2.199997 -2.400024,3.199997c-0.299988,0.400002 -3.299988,4.400002 -6.799988,9.100006c-2.200012,-8 -3.399994,-16.600006 -3.399994,-25.5c0,-41.600002 26.100006,-75.400003 58.299988,-75.400003c11.200012,0 21.600006,4.1 30.5,11.200001c-0.5,0.1 -0.899994,0.299999 -1.299988,0.4l-0.200012,0.1c-0.100006,0 -0.199982,0.1 -0.299988,0.1l-0.700012,0.199999c-12.399994,3.800001 -26.100006,11.699999 -39.299988,23.500002c-1.100006,-0.300003 -2.300018,-0.5 -3.5,-0.600002c-0.200012,0 -0.300018,0 -0.5,0c-7,-0.200001 -15,3.700001 -19.800018,7.600002c-1.699982,1.399998 -2.5,2.699997 -2.899994,3.799995l0,5.5v0.300003c0.899994,-0.800003 3.700012,-3.699997 7,-5.800003c4.200012,-2.699997 9,-4.399998 13.399994,-4.699997c-2.199982,2.200001 -4.399994,4.5 -6.5,6.900002c-6.399994,2.199997 -11.5,6.400002 -13.899994,9.400002v-6c0,0 -0.100006,0 -0.100006,0c-2.299988,0.699997 -8.199982,4.399994 -9,7.199997c-0.199982,0.800003 -0.299988,2.5 -0.299988,3.400002c0,0.199997 0,0.400002 0,0.5c0,0.299995 0,2.299995 0,2.299995s4.299988,-6.099998 9.399994,-7.5l0,5.5c-3.399994,1.200005 -7.899994,5.5 -8.699982,7c-0.200012,0.400002 0.099976,6.200005 0.199982,9.100006c-2.600006,4.399994 -5,9.099998 -7.299988,13.899994c3.199982,-4.599998 6.600006,-9.099998 9.399994,-12.699997c3.299988,-4.400002 6.5,-8.800003 9.799988,-13.199997c1.5,-1.900002 2.900024,-3.900002 4.5,-5.800003c0.5,-0.699997 1.100006,-1.400002 1.600006,-2c3.700012,-4.5 7.700012,-8.699997 11.800018,-12.800003c1.699982,-1.699997 3.5,-3.299995 5.299988,-4.899998c0.899994,-0.799999 1.700012,-1.5 2.600006,-2.299999c0.699982,-0.599998 1.399994,-1.200001 2,-1.700001c3,-2.5 6,-4.899998 9.100006,-7.299999c3.199982,-2.5 6.599976,-4.799999 10.099976,-6.900002c6.200012,-3.799999 13,-6.599998 20.100006,-8.299999c0.399994,-0.099998 0.800018,-0.200001 1.300018,-0.299999c1.099976,-0.200001 2.199982,-0.400002 3.399994,-0.599998c5.299988,-0.700001 10.899994,-0.300003 15.5,2.5c1.399994,0.799999 2.600006,1.899998 3.600006,3.099998c0.699982,0.799999 1.299988,1.799999 1.899994,2.799999c1.199982,2.299999 1.899994,5 2,8.200001c0,1.099998 0.100006,2 0.100006,2.900002c0.399994,-2.100002 0.5,-4.300003 0.399994,-6.300003c-0.200012,-2.699997 -1.100006,-5.799999 -2.300018,-8.199997c-3.899994,-7.800001 -13.099976,-10.700001 -21.299988,-9.500002c-0.299988,0 -0.600006,0.1 -0.799988,0.1c-10.200012,-9.1 -22.600006,-14.5 -36,-14.5c-41,0 -68.5,35.900002 -68.5,79.900002s27.5,79.900002 68.5,79.900002c34.599976,0 62.799988,-35.900009 62.799988,-79.900002c-0.399994,-14.5 -3.399994,-28.099998 -8.700012,-39.800003l0,0l0,0l0,0l0,0zm-87.299988,102.099998c4.200012,1 8.299988,1.699997 11.799988,2c9.100006,0.699997 22,-1.300003 31.900024,0.400009c4.199982,0.699997 7.599976,3.199997 10,5.699997c-6.5,3.199997 -13.5,5 -20.900024,5c-12.199982,0 -23.5,-4.900009 -32.799988,-13.100006l0,0zm65.600006,-8.599991c-0.700012,-8.5 -0.700012,-17.100006 0.100006,-25.600006c1.5,-17.300003 6.299988,-34.400002 16.899994,-48.5c0.199982,-0.300003 0.5,-0.699997 1,-1.199997h0l0.299988,-0.400002c0,0 -0.299988,0.299995 2.700012,-3.400002c0.399994,-0.599998 0.399994,-0.5 0.799988,-1.099998c0,0 0,0 0,0c2.399994,8.199997 3.700012,17.099998 3.700012,26.400002c0,27.199997 -11.200012,51.099991 -27.899994,64.399994c-5.600006,-5.599991 -11.800018,-7.5 -23.200012,-7.599991c-10.899994,-0.100006 -22.5,3.299988 -38.200012,1.599991c-2.199982,-0.199997 -4.799988,-0.899994 -7.599976,-1.800003c-1.300018,-1.5 -2.600006,-3.099991 -3.800018,-4.799988c3.200012,1.099991 6.399994,1.899994 9.300018,2.099991c17.399994,1.5 30.899994,-2.300003 42.199982,-2.399994c11.5,-0.100006 18.300018,1.699997 24,6.099991c0,-1.199997 -0.100006,-2.5 -0.299988,-3.799988" class="st0"/>
   </g>
   <g id="svg_7">
    <path id="svg_8" d="m423.299988,261.5h-3.5c-2.599976,0 -5.399994,-1.299988 -7.199982,-4.700012c-1.5,-3.099991 -8.300018,-22.599991 -10.700012,-30.899994c-2,-6.699997 -9.5,-29.099991 -11.5,-35.699997c-0.299988,-1.199997 -0.5,-1.800003 -1.199982,-1.800003c-0.5,0 -0.800018,0.400009 -1.400024,0.900009c-1.199982,1.5 -6.5,6.099991 -9.399963,6.700012c-0.699982,0.199997 -1,0.600006 -1,0.899979c0,0.400009 0.399963,1 0.699982,1.400009c0.199982,1 -0.899963,3 -1.100006,3.5c-1,2.800003 -8.5,22.800003 -9.299988,24.899994c-3.100006,8.600006 -10.700012,28.100006 -11.5,29.800003c-1.5,3.399994 -2.900024,4.799988 -6.100006,4.799988h-3.700012c-0.399994,0 -0.799988,0.200012 -0.799988,0.700012v2.5c0,0.600006 0.199982,0.799988 0.699982,0.799988c1.5,0 3.800018,-0.299988 11.5,-0.299988c6.200012,0 10.5,0.299988 12,0.299988c0.5,0 0.800018,-0.199982 0.800018,-0.899994v-2.399994c0,-0.5 -0.300018,-0.700012 -1,-0.700012h-4.899994c-2.300018,0 -3.600006,-0.799988 -3.600006,-2.299988c0,-0.5 0.199982,-1.600006 0.299988,-2.299988c0.5,-2.199997 6.300018,-18.199997 7.399994,-20.900009h25.900024c1.5,4.200012 5.799988,17.700012 6.599976,21.499985c0.700012,2.900024 -0.199982,4 -3.199982,4h-2.600006c-0.600006,0 -0.899994,0.100006 -0.899994,0.700012v2.399994c0,0.600006 0.299988,0.899994 0.799988,0.899994c2.300018,0 5.899994,-0.299988 14,-0.299988v0h14.600006c0.100006,-0.100006 0.100006,-0.200012 0.100006,-0.399994v-2.600006c0,-0.200012 -0.199982,-0.5 -0.800018,-0.5zm-53,-29.300003c0.700012,-2.599991 10.300018,-28.199997 10.800018,-29.599991c0.299988,-0.800003 1.199982,-1.800003 1.600006,-1.800003c0.299988,0 1,0.800003 1.299988,1.5c0.5,1.599991 8.600006,26.800003 9.5,29.899994h-23.200012l0,0l0,0z" class="st0"/>
    <g id="svg_9">
     <path id="svg_10" d="m32.700001,226.5c0,-6.5 -0.200001,-19.399994 -0.200001,-21.100006c0,-5.399994 -0.799999,-6.799988 -4.6,-6.799988h-5c-0.5,0 -0.6,-0.200012 -0.6,-0.800003v-2.5c0,-0.5 0.300001,-0.699997 0.800001,-0.699997c2.1,0 5.5,0.299988 14.699999,0.299988c8.200001,0 12,-0.299988 14,-0.299988c0.700001,0 1.100002,0.099991 1.100002,0.5v2.699997c0,0.599991 -0.200001,0.800003 -0.800003,0.800003h-5.399998c-3.600002,0 -4.100002,1.799988 -4.100002,6c0,1.5 -0.199997,14 -0.199997,19.899994v1.800003c0,0.5 0.299999,0.800003 1.299999,0.800003h32.200001c1.599998,0 2.099998,-0.200012 2.099998,-1.600006v-1.100006c0,-6 -0.300003,-19.299988 -0.300003,-20.5c0,-3.399994 -0.399994,-5.399994 -3.5,-5.399994h-5.5c-0.5,0 -0.699997,-0.199997 -0.699997,-0.699997v-2.699997c0,-0.400009 0.099998,-0.600006 0.599998,-0.600006c2.200005,0 6.700005,0.300003 13.900002,0.300003s11.5,-0.300003 13.5,-0.300003c0.699997,0 0.800003,0.199997 0.800003,0.800003v2.5c0,0.599991 -0.200005,0.699997 -0.800003,0.699997h-4.699997c-3,0 -3.400002,1.800003 -3.400002,5.600006c0,1.5 -0.200005,17.899994 -0.200005,21.799988v3.600006c0,3.399994 0.200005,20.699997 0.300003,26.700012c0,3.799988 1.099998,5.299988 4.199997,5.299988h4.600006c0.699997,0 0.899994,0.200012 0.899994,0.700012v2.5c0,0.599976 -0.199997,0.799988 -0.899994,0.799988c-2,0 -5.600006,-0.299988 -13.300003,-0.299988c-9.199997,0 -12.5,0.299988 -15.699997,0.299988c-0.400002,0 -0.600006,-0.299988 -0.600006,-0.700012v-2.599976c0,-0.5 0.200005,-0.700012 0.800003,-0.700012h6.599998c2.5,0 2.800003,-2 2.800003,-4.799988c0.099998,-4.900009 0.299995,-19.200012 0.299995,-23.000015v-1.5c0,-1.199997 -0.5,-1.300003 -2.299995,-1.300003h-31.700001c-1.200001,0 -1.5,0.300003 -1.5,1.100006v2.199997c0,2.800003 0.099998,16.400009 0.200001,23.699997c0.099998,2.5 1.199997,3.600006 3.399998,3.600006h5.200001c0.599998,0 0.799999,0.200012 0.799999,0.700012v2.599976c0,0.5 -0.200001,0.700012 -0.799999,0.700012c-2,0 -5.700001,-0.299988 -13.299999,-0.299988c-9.1,0 -12.200001,0.299988 -14.6,0.299988c-0.5,0 -0.700001,-0.200012 -0.700001,-0.700012v-2.699982c0,-0.399994 0.300001,-0.600006 0.700001,-0.600006h6.199999c2.6,0 2.900002,-2.5 2.900002,-5c0.099998,-5 0.299999,-22.699997 0.299999,-25.399994v-4.600006l0.200001,0l0,0l0,0l0,0l0,0z" class="st0"/>
     <path id="svg_11" d="m131.299988,242.299988c0,-11.700012 -8.5,-19.100006 -13.899986,-19.100006c-2.800018,0 -5.600014,0.600006 -8.100014,3.399994c-4.100006,4.199997 -5.600006,8.5 -5.600006,16.5c0,5.900009 0.600006,9.900009 4,14.700012c2.399986,3.5 5.5,5.5 10.399986,5.5c8.100044,0 13.200005,-9.800003 13.200005,-21.000031m-30.399994,16.900055c-4.800018,-5.800018 -5.800018,-9.700043 -5.800018,-17.200043c0,-5.399979 2.800018,-12.099976 9,-17c5.5,-4.199982 10.600006,-5 14.100006,-5c5.800026,0 11.600006,2.900024 14.700012,6.100021c4.699982,4.800018 7.199982,10.300018 7.199982,17.100006c0,11.5 -10.300003,23.200027 -23.300003,23.200027c-4.899986,0.099976 -11.5,-1.900024 -15.899986,-7.200012" class="st0"/>
     <path id="svg_12" d="m273.200012,259.5c0,1.700012 0.899994,2.200012 2.299988,2.200012h3.399994c1,0 1.200012,0.299988 1.200012,1v1.699982c0,0.700012 -0.200012,1.200012 -0.800018,1.200012c-0.799988,0 -4,-0.300018 -10,-0.300018c-5.399994,0 -8.699982,0.300018 -9.5,0.300018c-0.599976,0 -0.799988,-0.300018 -0.799988,-1.200012v-1.699982c0,-0.700012 0.299988,-1 1.399994,-1h3.100006c1.200012,0 2,-0.5 2.100006,-2.400024c0.100006,-2.699982 0.199982,-6.099991 0.199982,-8.799988v-13.899994c0,-4.200012 0,-7.300003 -3.099976,-9.5c-2.5,-1.900009 -5.100037,-1.900009 -7.700027,-1.900009c-1.699997,0 -5.399979,0.699997 -8.5,4.100006c-2.100006,2.300003 -2.399979,5.200012 -2.399979,7.200012v21.799973c0,2.800018 0.299988,3.5 2.5,3.5h2.599991c0.799988,0 1.100006,0.300018 1.100006,1.100037v1.800018c0,0.599976 -0.199997,1 -0.699997,1c-0.700012,0 -3.600021,-0.300018 -9.200012,-0.300018c-5.399994,0 -8.699997,0.300018 -9.399994,0.300018c-0.5,0 -0.699997,-0.300018 -0.699997,-1v-1.900024c0,-0.599976 0.199997,-1 1,-1h3.099991c1.400009,0 2.100006,-0.299988 2.100006,-2.099976v-24.700027c0,-3.199997 -1.699997,-5 -4.300003,-6.199997l-0.800003,-0.400009c-0.699997,-0.299988 -0.799988,-0.599991 -0.799988,-0.899994v-0.5c0,-0.5 0.399994,-0.899979 0.899994,-1l9.100006,-5.100006c0.799988,-0.399994 1.5,-0.699997 1.899994,-0.699997c0.5,0 0.699997,0.400009 0.800003,1.300003l0.699997,6.399979h0.199997c3.100006,-3.799988 9.199997,-7.699997 14.400009,-7.699997c3.199982,0 6.399994,0.600006 8.899994,2.300003c3.200012,2.100006 5.799988,7.399994 5.799988,10v27l-0.099976,0l0,0l0,0l0,0z" class="st0"/>
     <path id="svg_13" d="m313.299988,234.5c0,-1.5 0,-3.5 -0.899994,-5.199997c-1.5,-2.800003 -4.799988,-5.699997 -11.100006,-5.699997c-3.299988,0 -6.799988,0.899994 -9.599976,3.799988c-4.100006,4.400009 -4.800018,10 -4.800018,14c0,11.900009 8.200012,20.5 14.300018,20.5c5.899994,0 10.399994,-3.100006 11.5,-5.799988c0.5,-1.600006 0.599976,-2.400009 0.599976,-3.600006v-18l0,0l0,0zm0,-29.300003c0,-4 -0.699982,-5.300003 -6.599976,-6.199997c-0.600006,-0.100006 -0.700012,-0.300003 -0.700012,-0.699997v-1.800003c0,-0.399994 0.200012,-0.600006 0.799988,-0.699997c4.100006,-0.800003 9.600006,-1.800003 11.600006,-2.199997c0.899994,-0.100006 1.700012,-0.300003 2.399994,-0.300003c0.5,0 0.600006,0.699997 0.5,1.899994c-0.299988,5.300003 -0.399994,16.5 -0.399994,29.800003v23.300003c0,3.899994 0.200012,8.499985 1.100006,9.599991c1,1.100006 3.200012,1.700012 4.600006,1.800018c1.5,0.099976 1.899994,0.199982 2.100006,0.699982l0.199982,0.800018c0.100006,0.599976 -0.100006,1 -0.699982,1.199982l-11.900024,4c-0.599976,0.200012 -1.199982,-0.100006 -1.399994,-0.799988l-1.399994,-4.600006c-3.399994,3.399994 -10.100006,5.700012 -15.5,5.700012c-3.5,0 -7.5,0.199982 -12.399994,-4.800018c-5.399994,-5.299988 -6.600006,-10 -6.600006,-17c0,-6.5 2.399994,-13 7.399994,-17.899994c4.100006,-4.399994 9.800018,-6.600006 15.700012,-6.600006c4.299988,0 8.100006,0.600006 11.299988,1.600006v-16.800003l-0.100006,0l0,0l0,0l0,0l0,0z" class="st0"/>
     <path id="svg_14" d="m519,234.100006c2,0 2.799988,-0.5 2.799988,-1.5c0,-2.400009 -1.299988,-9.400009 -8.099976,-9.400009c-4.600006,0 -9.100006,3 -11.100006,10.800003h16.399994l0,0.100006l0,0zm-16.700012,3.099991c-0.199982,1 -0.299988,2.600006 -0.299988,5.100006c0,10.300003 6.5,18.099991 15,18.099991c6.400024,0 10.900024,-3.699982 12.700012,-7.199997c0.200012,-0.399994 0.599976,-0.599991 1,-0.5l1.399963,0.699997c0.300049,0.100021 0.5,0.400009 0,1.600021c-1.899963,4.199997 -7.399963,11.499985 -16.699951,11.499985c-6.000031,0 -12.600037,-1.799988 -16.500031,-7.5c-3.699982,-5.399979 -4.600006,-9.299988 -4.600006,-16.600006c0,-4.099991 1,-11.199997 6.600006,-16.699997c4.5,-4.599991 9.800018,-5.599991 15.100006,-5.599991c12.099976,0 15.5,11.399994 15.5,15.5c0,1.5 -1.299988,1.699997 -2.900024,1.699997h-26.299988l0,-0.100006z" class="st0"/>
     <path id="svg_15" d="m541.200012,237.199997c0,-5.399994 -0.799988,-6.399994 -3.799988,-8l-2,-1.099991c-0.600037,-0.200012 -0.800049,-0.300003 -0.800049,-0.700012v-0.599991c0,-0.400009 0.200012,-0.600006 0.800049,-0.900009l10.399963,-5.399994c0.600037,-0.300003 1.100037,-0.399994 1.5,-0.399994c0.600037,0 0.700012,0.599991 0.700012,1.299988l0.5,7.5h0.400024c3.199951,-4.799988 8.099976,-9.199997 12.599976,-9.199997c3.599976,0 5.400024,2.199997 5.400024,4.600006c0,3.099991 -2.5,5.199997 -4.400024,5.199997c-1.200012,0 -2.200012,-0.399994 -3,-0.800003c-0.799988,-0.5 -2.099976,-0.800003 -3.5,-0.800003c-1.700012,0 -4.400024,1.100006 -6.200012,4.400009c-0.599976,1.199997 -1,3.099991 -1,3.399994v21.900009c0,3.299988 0.700012,4.299988 2.900024,4.299988h5c0.599976,0 0.700012,0.300018 0.700012,1v1.899994c0,0.600006 -0.100037,0.900024 -0.5,0.900024c-0.600037,0 -5.5,-0.300018 -11.200012,-0.300018c-6.5,0 -11,0.300018 -11.600037,0.300018c-0.399963,0 -0.599976,-0.200012 -0.599976,-1.100006v-1.800018c0,-0.699982 0.200012,-1 1.200012,-1h4.099976c1.600037,0 2.299988,-0.599976 2.299988,-2c0.100037,-3.5 0.100037,-7.199982 0.100037,-12.599991v-10l0,0l0,0l0,0l0,0l0,0z" class="st0"/>
     <path id="svg_16" d="m577.5,234.600006c0,-3.600006 -0.599976,-5.5 -5.900024,-6.300018c-0.699951,-0.099976 -1,-0.299988 -1,-0.699982v-0.899979c0,-0.300034 0.200012,-0.5 0.700012,-0.700012c3.400024,-1.299988 7.400024,-3 11.400024,-5.200012c0.799988,-0.399918 1.399963,-0.599976 2,-0.599976c0.5,0 0.599976,0.5 0.5,1.299988c-0.200012,1.799988 -0.200012,8.399979 -0.200012,17.200012v11.299988c0,4.100021 0,7.899979 0.099976,8.999985c0.200012,2 0.5,2.700012 1.700012,2.700012h4.799988c0.800049,0 1.100037,0.299988 1.100037,1v1.799988c0,0.700012 -0.200012,1.100006 -0.900024,1.100006c-0.799988,0 -5.700012,-0.300018 -10.099976,-0.300018c-6.100037,0 -10.200012,0.300018 -11.400024,0.300018c-0.5,0 -0.799988,-0.199951 -0.799988,-0.800018v-2.099976c0,-0.600006 0.299988,-0.900024 1,-0.900024h5.200012c1.200012,0 1.599976,-0.399933 1.700012,-2.099976c0.099976,-3.200012 0.099976,-6.400009 0.099976,-9.600006v-15.5l0,0zm-4.599976,-30.399979c0,-2.600021 2.199951,-5.600021 6.299988,-5.600021c3.700012,0 5.399963,3 5.399963,5.299988c0,2.700012 -1.799988,5.899994 -6,5.899994c-2.299988,0 -5.699951,-2.299988 -5.699951,-5.599976" class="st0"/>
     <path id="svg_17" d="m598.299988,239.700012c0,5.700012 2.5,12.100006 5.400024,16c3.5,4.5 7.899963,5.399994 11.5,5.399994c5.299988,0 8,-1.199982 11.599976,-4.5c0.200012,-0.199982 0.5,-0.299988 0.799988,0l1.100037,1.100006c0.399963,0.399994 0.5,0.700012 0,1.399994c-3.100037,3.5 -9.800049,7.5 -17,7.5c-5.600037,0 -11.5,-1.299988 -16.300049,-7.399994c-3.899963,-5.200012 -4.699951,-9.600006 -4.699951,-14.299988c0,-12.300018 8.599976,-24.700012 22.5,-24.700012c11,0 14.299988,6.299988 14.299988,8.5c-0.100037,2.399994 -1.700012,3.700012 -3.900024,3.700012c-2.399963,0 -4.200012,-1.400024 -5.799988,-4.200012c-2.299988,-4.299988 -4.5,-4.600006 -7,-4.600006c-6.099976,-0.200012 -12.5,5.299988 -12.5,16.100006" class="st0"/>
     <path id="svg_18" d="m701.5,222.100006c0,-6.700012 -0.200012,-17.899979 -0.299988,-19.800018c-0.200012,-2.699982 -0.700012,-3.799988 -3.900024,-3.799988h-4.899963c-0.600037,0 -0.700012,-0.5 -0.700012,-1.100006v-2.299988c0,-0.5 0.099976,-0.700012 0.700012,-0.700012c1.199951,0 4.899963,0.300018 13.699951,0.300018c10.200012,0 14.600037,-0.300018 15.600037,-0.300018c0.899963,0 1,0.300018 1,0.800018v2.399994c0,0.5 -0.200012,0.799988 -1.100037,0.799988h-6.299988c-3.299988,0 -3.700012,1 -3.700012,4.100006c0,1.399994 -0.299988,17.299988 -0.299988,24.600006v9.100021c0,1.799988 0,20.499985 0.299988,24.799973c2.300049,0.200012 17.700012,0.399994 21,0c6.200012,-1 12.5,-13.600006 14,-17.699997c0.200012,-0.399933 0.400024,-0.599976 0.800049,-0.399933l1.699951,0.600006c0.300049,0.200012 0.300049,0.299988 0.200012,1c-0.299988,0.700012 -4.5,18.100021 -5.200012,21.000015c-1.399963,-0.100037 -9.599976,-0.200012 -19,-0.200012c-9.399963,-0.099976 -14.299988,-0.099976 -19.899963,-0.099976c-4.100037,0 -7.200012,0.099976 -9.400024,0.099976c-2.099976,0.100006 -3.399963,0.200012 -4.099976,0.200012c-0.700012,0 -0.799988,-0.200012 -0.799988,-0.700012v-2.599976c0,-0.5 0.099976,-0.700012 0.699951,-0.700012h5c3.900024,0 4.5,-1.5 4.5,-2.799988c0,-2 0.300049,-24.100098 0.300049,-30.600098v-6l0.099976,0z" class="st0"/>
     <path id="svg_19" d="m843.400024,234.100006c2,0 2.799988,-0.5 2.799988,-1.5c0,-2.400009 -1.299988,-9.400009 -8.100037,-9.400009c-4.599976,0 -9.099976,3 -11.099976,10.800003h16.400024l0,0.100006l0,0zm-16.800049,3.099991c-0.199951,1 -0.299988,2.600006 -0.299988,5.100006c0,10.300003 6.5,18.099991 15,18.099991c6.400024,0 10.900024,-3.699982 12.700012,-7.199997c0.200012,-0.399994 0.599976,-0.599991 1,-0.5l1.400024,0.699997c0.299988,0.100021 0.5,0.400009 0,1.600021c-1.900024,4.199997 -7.400024,11.499985 -16.700012,11.499985c-6,0 -12.600037,-1.799988 -16.5,-7.5c-3.700012,-5.399979 -4.600037,-9.299988 -4.600037,-16.600006c0,-4.099991 1.100037,-11.199997 6.600037,-16.699997c4.5,-4.599991 9.799988,-5.599991 15.099976,-5.599991c12.100037,0 15.5,11.399994 15.5,15.5c0,1.5 -1.299988,1.699997 -2.899963,1.699997h-26.300049l0,-0.100006z" class="st0"/>
     <path id="svg_20" d="m819.599976,261.700012h-3.399963c-1.400024,0 -2.299988,-0.5 -2.299988,-2.200012v-27.199997c0,-2.600006 -2.600037,-7.900009 -5.800049,-10c-2.5,-1.699997 -5.799988,-2.300003 -9,-2.300003c-5.299988,0 -11.399963,3.899994 -14.399963,7.699997h-0.200012l-0.700012,-6.399994c-0.099976,-0.799988 -0.299988,-1.299988 -0.799988,-1.299988c-0.400024,0 -1.099976,0.299988 -1.900024,0.699997l-9.099976,5.100006c-0.5,0.199997 -0.900024,0.5 -0.900024,1v0.5c0,0.300003 0.100037,0.599991 0.800049,0.899994l0.799988,0.400009c2.599976,1.299988 4.299988,3 4.299988,6.199997v24.600006c0,1.800018 -0.700012,2.100006 -2.099976,2.100006h-3.100037c-0.799988,0 -1,0.299988 -1,1v1.899994c0,0.300018 0,0.5 0.100037,0.600006h10.5v0c5.199951,0 7.899963,0.299988 8.599976,0.299988c0.5,0 0.700012,-0.299988 0.700012,-1v-1.799988c0,-0.700012 -0.200012,-1.100006 -1.100037,-1.100006h-2.599976c-2.200012,0 -2.5,-0.600037 -2.5,-3.5v-21.800003c0,-2 0.299988,-4.900009 2.400024,-7.200012c3.199951,-3.399994 6.799988,-4.099991 8.5,-4.099991c2.599976,0 5.199951,0 7.699951,1.899994c3.100037,2.199997 3.100037,5.300003 3.100037,9.5v13.900009c0,2.699997 -0.100037,6.100021 -0.200012,8.800003c-0.099976,1.899963 -1,2.399963 -2.099976,2.399963h-2.900024c-1.099976,0 -1.400024,0.200012 -1.400024,1v1.700012c0,0.799988 0.200012,1.200012 0.800049,1.200012c0.699951,0 4.099976,-0.300018 9.5,-0.300018c6,0 9.299988,0.300018 10,0.300018c0.599976,0 0.799988,-0.400024 0.799988,-1.200012v-1.700012c0.099976,-0.199982 -0.200012,-0.599976 -1.100037,-0.599976l0,0l0,0l0,0z" class="st0"/>
     <g id="svg_21">
      <path id="svg_22" d="m654.5,239.100006v-6.699982c-0.200012,-1.800018 -0.299988,-4.5 -1.5,-5.900009c-1.200012,-1.399979 -3.299988,-2.299988 -6.299988,-2.299988c-2.100037,0 -5.400024,0.799988 -6.799988,2.199997c-1.5,1.399994 -0.400024,2.899994 -0.5,4.800003c-0.200012,2.600006 -0.5,4.199997 -3.100037,5.199997c-2,0.699982 -4.099976,-0.699997 -4.299988,-2.900009c-0.200012,-2.599991 0.700012,-4.5 2.299988,-6.299988c1.100037,-1.200012 2.600037,-2.399994 4,-3.200012c4.400024,-2.599991 8.299988,-3.699982 13,-3.699982c5,0 7,1.5 8.400024,2.800003c2.200012,2.199997 2.299988,4.600067 2.299988,7.5v16.100067v6.199982c0,5.999969 1.299988,7.899933 3.200012,7.899933c1.700012,0 3.200012,-0.800018 3.700012,-1.600006c0.399963,-0.5 0.599976,-0.700012 1.099976,-0.399994l1,0.799988c0.299988,0.300049 0.5,0.800049 -0.099976,1.899994c-0.800049,1.600006 -2.800049,5.200012 -8.200012,5.200012c-3.799988,0 -6.5,-2.700012 -7.5,-7.100006h-0.200012" class="st0"/>
      <path id="svg_23" d="m654.400024,242.899994c-3.799988,2.600006 -14.299988,3.799988 -14.299988,12.600006c0,3.899994 2.399963,6 5.599976,6.299988c3.100037,0.200012 8.799988,-3 8.799988,-5.899994l-0.099976,-13zm0.899963,17.5l-0.200012,0c-2.200012,2.5 -5.799988,4.399994 -10.599976,5.600006c-4.700012,1.099976 -10,0.399994 -11.900024,-4.5c-0.599976,-1.400024 -0.799988,-3.100006 -0.799988,-4.600006c0,-4.899994 2.200012,-9.300018 10.700012,-12.300018c4.799988,-1.699982 10.399963,-3.800003 12.099976,-5.099991" class="st0"/>
     </g>
     <g id="svg_24">
      <path id="svg_25" d="m212.799988,239.100006v-6.699982c-0.200012,-1.800018 -0.299988,-4.5 -1.5,-5.900009c-1.200012,-1.399979 -3.299988,-2.299988 -6.299988,-2.299988c-2.100006,0 -5.400024,0.799988 -6.800018,2.199997c-1.5,1.399994 -0.399994,2.899994 -0.5,4.800003c-0.199982,2.600006 -0.5,4.199997 -3.100006,5.199997c-2,0.699982 -4.099991,-0.699997 -4.300003,-2.900009c-0.199997,-2.599991 0.700012,-4.5 2.300003,-6.299988c1.100006,-1.200012 2.600006,-2.399994 4,-3.200012c4.400009,-2.599991 8.300018,-3.699982 13,-3.699982c4.900009,0 7,1.5 8.400009,2.800003c2.199982,2.199997 2.299988,4.600067 2.299988,7.5v16.100067v6.199982c0,5.999969 1.300003,7.899933 3.200012,7.899933c1.699982,0 3.199982,-0.800018 3.699982,-1.600006c0.399948,-0.5 0.600006,-0.700012 1.100006,-0.399994l1,0.799988c0.300003,0.300049 0.5,0.800049 -0.100006,1.899994c-0.800003,1.600006 -2.800003,5.200012 -8.199982,5.200012c-3.800018,0 -6.5,-2.700012 -7.5,-7.100006h-0.200012" class="st0"/>
      <path id="svg_26" d="m212.700012,242.899994c-3.799988,2.600006 -14.299988,3.799988 -14.299988,12.600006c0,3.899994 2.399979,6 5.599976,6.299988c3.100006,0.200012 8.800018,-3 8.800018,-5.899994l-0.100006,-13zm0.899994,17.5l-0.199982,0c-2.200012,2.5 -5.800018,4.399994 -10.600021,5.600006c-4.699997,1.099976 -10,0.399994 -11.899979,-4.5c-0.600021,-1.400024 -0.800018,-3.100006 -0.800018,-4.600006c0,-4.899994 2.199997,-9.300018 10.699997,-12.300018c4.800003,-1.699982 10.399994,-3.800003 12.100021,-5.099991" class="st0"/>
     </g>
     <path id="svg_27" d="m494.299988,261.700012h-2.799988c-1.299988,0 -2.200012,-0.5 -2.200012,-2.100006v-23.5c0,-8.100006 -2.599976,-10.400009 -5,-13c-2.5,-2.5 -5.799988,-3.200012 -9.5,-3.200012c-6.299988,0 -12.299988,4 -15.5,8.100006h-0.5c-2.199982,-4.899994 -6.399994,-8.100006 -11.899994,-8.100006c-6.100006,0 -12.299988,3.700012 -15.5,8h-0.399994l-0.399994,-6.099991c0,-0.699997 -0.300018,-1.5 -1,-1.5c-0.399994,0 -1.200012,0.199997 -2,0.599991l-9.300018,4.700012c-0.199982,0.099991 -0.599976,0.5 -0.599976,0.799988v0.800003c0,0.300003 0.199982,0.5 0.699982,0.800003l2.200012,1.199997c2.5,1.400009 3,3.300003 3,5.400009v18.699997c0,1.800003 0,3.699997 -0.100006,5.499985c-0.100006,2 -0.600006,2.600006 -1.600006,2.600006h-3.600006c-1.099976,0 -1.299988,0.100006 -1.299988,1v1.899994c0,0.300018 0,0.5 0.100006,0.600006h10.5c5.799988,0 8.600006,0.300018 9.600006,0.300018c0.699982,0 0.799988,-0.400024 0.799988,-1.200012v-1.700012c0,-0.699982 -0.100006,-1 -1.100006,-1h-3.799988c-1.5,0 -2.100006,-1 -2.100006,-2.699982v-20.800003c0,-3 0.200012,-4.900009 1.5,-7.100006c2.899994,-4.699997 7.399994,-6.099991 10.100006,-6.099991c2.299988,0 5.399994,0.599991 6.699982,1.899994c1.700012,1.600006 3.100006,3.600006 3.100006,11.399994v22.100006c0,1.399994 -0.600006,1.799988 -2.299988,1.799988h-3.100006c-0.899994,0 -1,0.200012 -1,1.100006v1.700012c0,0.699982 0.200012,1.100006 0.700012,1.100006c0.599976,0 4.199982,-0.300018 9.899994,-0.300018c5.899994,0 8.600006,0.300018 9.399994,0.300018c0.5,0 0.700012,-0.300018 0.700012,-1.200012v-1.700012c0,-0.699982 -0.200012,-1 -1.200012,-1h-3.600006c-1.600006,0 -2.100006,-1 -2.100006,-2.399994v-18.199997c0,-4.699997 -0.099976,-7.599991 1.5,-10.599991c1.700012,-3.100006 6,-5.5 9.200012,-5.5s5.899994,0.699997 7.799988,2.199997c2.400024,1.899994 3.100006,5 3.100006,8.399994v15.600006c0,2.300003 0,6.099991 -0.199982,8.499985c-0.100006,1.5 -0.900024,2 -2.100006,2h-2.600006c-1.200012,0 -1.399994,0.200012 -1.399994,1v1.800018c0,0.699982 0.199982,1.100006 0.799988,1.100006c0.700012,0 4.5,-0.300018 9.800018,-0.300018c5.099976,0 8,0.300018 8.699982,0.300018c0.5,0 0.700012,-0.300018 0.700012,-1.100006v-1.800018c0.299988,-0.799988 0.100006,-1.099976 -0.800018,-1.099976l0,0l0,0z" class="st0"/>
     <g id="svg_28">
      <path id="svg_29" d="m771.400024,261.700012h-4.799988c-1.200012,0 -1.5,-0.700012 -1.700012,-2.700012c-0.099976,-1.199982 -0.099976,-4.899994 -0.099976,-9v-11.5c0,-8.699982 0,-15.399994 0.199951,-17.199982c0.100037,-0.700012 0,-1.300018 -0.5,-1.300018c-0.599976,0 -1.199951,0.200012 -2,0.600006c-4,2.200012 -8,3.899994 -11.399963,5.200012c-0.5,0.199982 -0.700012,0.399994 -0.700012,0.699982v0.900024c0,0.399979 0.200012,0.599976 1,0.699982c5.299988,0.800018 5.900024,2.699997 5.900024,6.300018v15.5c0,3.199982 0,6.399994 -0.100037,9.599976c-0.099976,1.700012 -0.5,2.100006 -1.700012,2.100006h-5.199951c-0.700012,0 -1.100037,0.200012 -1.100037,0.899994v2.100006c0,0.600006 0.299988,0.800018 0.799988,0.800018c1.200012,0 5.200012,-0.300018 11.200012,-0.300018v0h11c0.100037,-0.199982 0.200012,-0.399994 0.200012,-0.699982v-1.800018c0,-0.5 -0.200012,-0.899994 -1,-0.899994z" class="st0"/>
      <path id="svg_30" d="m758.5,209.800003c4.200012,0 6,-3.199997 6,-5.900009c0,-2.299988 -1.700012,-5.299988 -5.400024,-5.299988c-4.099976,0 -6.299988,3 -6.299988,5.599991c0.100037,3.299988 3.5,5.600006 5.700012,5.600006l0,0z" class="st0"/>
     </g>
     <path id="svg_31" d="m161.800003,261.700012h-4.800003c-2.199997,0 -2.600006,-1.5 -2.699997,-3.300018c-0.100006,-3.299988 -0.100006,-19.199997 -0.100006,-24.599991v-9.400009c0,-2.5 0.199997,-25.899994 0.400009,-29.399994c0.099991,-1.199997 0,-1.899994 -0.5,-1.899994c-0.700012,0 -1.5,0.199997 -2.400009,0.299988c-2,0.400009 -7.5,1.400009 -11.599991,2.200012c-0.600021,0.099991 -0.800003,0.299988 -0.800003,0.699997v1.800003c0,0.399994 0.099991,0.599991 0.699997,0.699997c5.899994,1 6.600006,2.200012 6.600006,6.200012c0,0 0,15.100006 0,19.799988v6.599991c0,6.100021 0,24.200012 -0.100006,27.5c-0.100006,1.899994 -1.199997,2.600006 -2.300003,2.600006h-5.099991c-1.200012,0 -1.400009,0.200012 -1.400009,1v1.799988c0,0.600037 0.199997,1.100037 0.699997,1.100037c0.900009,0 5.200012,-0.300018 11.900009,-0.300018c1,0 2,0 2.899994,0h9.5c0.100006,-0.199982 0.199997,-0.399963 0.199997,-0.800018v-1.799988c0,-0.399994 -0.199997,-0.799988 -1.099991,-0.799988l0,0l0,0l0,0z" class="st0"/>
     <path id="svg_32" d="m188.300003,261.700012h-4.800003c-2.199997,0 -2.600006,-1.5 -2.699997,-3.300018c-0.100006,-3.299988 -0.100006,-19.199997 -0.100006,-24.599991v-9.400009c0,-2.5 0.199997,-25.899994 0.400009,-29.399994c0.099991,-1.199997 0,-1.899994 -0.5,-1.899994c-0.700012,0 -1.5,0.199997 -2.400009,0.299988c-2,0.400009 -7.5,1.400009 -11.599991,2.200012c-0.600021,0.099991 -0.800003,0.299988 -0.800003,0.699997v1.800003c0,0.399994 0.099991,0.599991 0.699997,0.699997c5.899994,1 6.600006,2.200012 6.600006,6.200012c0,0 0,15.100006 0,19.799988v6.599991c0,6.100021 0,24.200012 -0.100006,27.5c-0.100006,1.899994 -1.199997,2.600006 -2.300003,2.600006h-5.099991c-1.200012,0 -1.400009,0.200012 -1.400009,1v1.799988c0,0.600037 0.199997,1.100037 0.699997,1.100037c0.900009,0 5.200012,-0.300018 11.900009,-0.300018c1,0 2,0 2.899994,0h9.5c0.100006,-0.199982 0.199997,-0.399963 0.199997,-0.800018v-1.799988c0,-0.399994 -0.199997,-0.799988 -1.099991,-0.799988l0,0l0,0l0,0z" class="st0"/>
    </g>
   </g>
   <g id="svg_33">
    <path id="svg_34" d="m874.900024,223.699997l-0.100037,-1.899994c-0.099976,-1.5 -0.700012,-1.800003 -1.299988,-2c0.700012,-0.400009 1.5,-1 1.5,-2.600006c0,-2.300003 -1.700012,-2.899994 -3.400024,-2.899994h-4.799988v10.699997h1.400024v-4.600006h3.399963c1.700012,0 1.800049,1 1.800049,1.900009c0,0.399994 0.099976,2 0.299988,2.699997h1.700012v-0.300003c-0.5,-0.099991 -0.5,-0.399994 -0.5,-1l0,0l0,0zm-3.5,-4.5h-3.200012v-3.699997h3.5c0.700012,0 1.799988,0.100006 1.799988,1.800003c0,1.599991 -1,1.899994 -2.099976,1.899994z" class="st0"/>
    <path id="svg_35" d="m870.699951,210.200012c-5,0 -9.099976,4.200012 -9.099976,9.399994c0,5.199997 4.099976,9.399979 9.099976,9.399979c5,0 9.099976,-4.199982 9.099976,-9.399979c0.000122,-5.200012 -4.099976,-9.399994 -9.099976,-9.399994zm0,17.599976c-4.300049,0 -7.800049,-3.700012 -7.800049,-8.200012c0,-4.5 3.5,-8.199982 7.800049,-8.199982c4.300049,0 7.800049,3.699982 7.800049,8.199982c0,4.500031 -3.5,8.200012 -7.800049,8.200012z" class="st0"/>
   </g>
  </g>
 </g></svg>