<svg id="Layer_1" data-name="Layer 1" xmlns="http://www.w3.org/2000/svg" viewBox="0 0 33 24.57"><defs><style>.cls-1{fill:#2a386e;}</style></defs><title>hal-cloud</title><path class="cls-1" d="M42.89,30.08a6.71,6.71,0,0,0-7.64,1.41.55.55,0,0,0,.78.78,5.7,5.7,0,0,1,6.38-1.2,5.35,5.35,0,0,1,3,3.14,5.68,5.68,0,0,1-.16,4.34,12.53,12.53,0,0,1-.68,1.1.57.57,0,0,0,.1.78.74.74,0,0,0,.31.1.93.93,0,0,0,.52-.21A5.43,5.43,0,0,0,46.29,39a6.6,6.6,0,0,0,.16-5.18A7,7,0,0,0,42.89,30.08Z" transform="translate(-19.5 -23.71)"/><path class="cls-1" d="M43.73,28.14a.31.31,0,0,0,.21.05.69.69,0,0,0,.52-.31l1.41-3.09a.55.55,0,1,0-1-.47l-1.41,3.09A.54.54,0,0,0,43.73,28.14Z" transform="translate(-19.5 -23.71)"/><path class="cls-1" d="M52.47,31.49a.54.54,0,0,0-.68-.31l-3.14,1.2a.54.54,0,0,0-.31.68.63.63,0,0,0,.52.37c.1,0,.16,0,.16-.05l3.14-1.2A.54.54,0,0,0,52.47,31.49Z" transform="translate(-19.5 -23.71)"/><path class="cls-1" d="M36.25,27.57a.63.63,0,0,0,.52.37.19.19,0,0,0,.16-.05.54.54,0,0,0,.31-.68L36,24.06a.53.53,0,1,0-1,.37Z" transform="translate(-19.5 -23.71)"/><path class="cls-1" d="M39.91,38.87h-.26a7.76,7.76,0,0,0-15.17,0h-.26a4.71,4.71,0,1,0,0,9.42h15.7a4.71,4.71,0,0,0,0-9.42Z" transform="translate(-19.5 -23.71)"/></svg>