<?xml version="1.0" encoding="utf-8"?>
<!-- Generator: Adobe Illustrator 21.0.0, SVG Export Plug-In . SVG Version: 6.00 Build 0)  -->
<svg version="1.1" id="Layer_1" xmlns="http://www.w3.org/2000/svg" xmlns:xlink="http://www.w3.org/1999/xlink" x="0px" y="0px"
	 viewBox="0 0 400 349" style="enable-background:new 0 0 400 349;" xml:space="preserve">
<style type="text/css">
	.st0{fill:#A6AABB;}
</style>
<g>
	<path class="st0" d="M300.1,67.4H208L186.1,0.8l-53.2,2.6v64H67.7L56,134.6h297.6L300.1,67.4z M16.9,160.7l24.8,114.6
		c2.9,1.5,5.8,3.2,8.5,5c12,7.6,27.2,7.6,39.2,0c25.7-16.7,58.8-16.7,84.5,0c12,7.6,27.2,7.6,39.2,0c25.7-16.7,58.8-16.7,84.5,0
		c4.1,2.6,8.5,4.1,12.9,5l89.2-124.5H16.9z"/>
	<path class="st0" d="M336.7,305.6c-12,7.6-27.2,7.6-39.2,0c-25.7-16.7-58.8-16.7-84.5,0c-12,7.6-27.2,7.6-39.2,0
		c-25.7-16.7-58.8-16.7-84.5,0c-12,7.6-27.2,7.6-39.2,0c-15.2-10.5-31.6-13.4-49.7-12v37.7c9.1-2.9,19.6,0,27.2,4.4
		c25.7,16.7,58.8,16.7,84.5,0c12-7.6,27.2-7.6,39.2,0c25.7,16.7,58.8,16.7,84.5,0c12-7.6,27.2-7.6,39.2,0
		c25.7,16.7,58.8,16.7,84.5,0c7.6-6.1,18.1-7.6,27.2-4.4v-37.7C368.2,291.9,351.9,296.6,336.7,305.6z"/>
</g>
</svg>
