<?xml version="1.0" encoding="utf-8"?>
<!-- Generator: Adobe Illustrator 20.0.0, SVG Export Plug-In . SVG Version: 6.00 Build 0)  -->
<svg version="1.1" id="Layer_1" xmlns="http://www.w3.org/2000/svg" xmlns:xlink="http://www.w3.org/1999/xlink" x="0px" y="0px"
	 viewBox="0 0 12 12" style="enable-background:new 0 0 12 12;" xml:space="preserve">
<style type="text/css">
	.st0{fill:#20285B;}
	.st1{fill:none;}
</style>
<title>Artboard 1</title>
<path id="Login_Icon" class="st0" d="M6,7.1c1.7,0,3.1-1.4,3.1-3.1S7.7,0.9,6,0.9C4.3,0.9,2.9,2.3,2.9,4c0,0,0,0,0,0
	C2.9,5.7,4.3,7.1,6,7.1z M7.6,7.3C6.6,8,5.4,8,4.4,7.3C2.7,7.8,1.6,9.3,1.5,11c0,0,0,0.1,0,0.1h9c0,0,0-0.1,0-0.1
	C10.4,9.3,9.3,7.8,7.6,7.3z"/>
<rect class="st1" width="12" height="12"/>
</svg>
