<svg xmlns="http://www.w3.org/2000/svg" viewBox="0 0 47 90.01"><defs><style>.cls-1{fill:#a6aabb;}</style></defs><title>meals</title><g id="Layer_2" data-name="Layer 2"><g id="Layer_1-2" data-name="Layer 1"><path class="cls-1" d="M20.7,17.71V1.51A1.45,1.45,0,0,0,19.3,0a1.49,1.49,0,0,0-1.6,1.5v13.8a1.45,1.45,0,0,1-1.4,1.5,1.49,1.49,0,0,1-1.6-1.5V1.51A1.45,1.45,0,0,0,13.3,0,1.44,1.44,0,0,0,12,1.51v13.8a1.45,1.45,0,0,1-1.4,1.5A1.49,1.49,0,0,1,9,15.31V1.51A1.45,1.45,0,0,0,7.6,0,1.49,1.49,0,0,0,6,1.51v13.8a1.56,1.56,0,0,1-1.6,1.5A1.45,1.45,0,0,1,3,15.31V1.51A1.54,1.54,0,0,0,1.5,0,1.54,1.54,0,0,0,0,1.51v16.2H0v13.8A6.87,6.87,0,0,0,4.8,38v46.6a5.4,5.4,0,0,0,10.8,0V38a6.69,6.69,0,0,0,4.8-6.5l.3-13.8Z"/><path class="cls-1" d="M47,59.21V5.41A5.38,5.38,0,0,0,41.6,0H36.2a5.38,5.38,0,0,0-5.4,5.4v39.7a5.38,5.38,0,0,0,5.4,5.4v34.1a5.4,5.4,0,0,0,10.8,0V59.21Z"/></g></g></svg>
