<?xml version="1.0" encoding="utf-8"?>
<!-- Generator: Adobe Illustrator 21.0.0, SVG Export Plug-In . SVG Version: 6.00 Build 0)  -->
<svg version="1.1" id="Layer_4" xmlns="http://www.w3.org/2000/svg" xmlns:xlink="http://www.w3.org/1999/xlink" x="0px" y="0px"
	 viewBox="0 0 65 65" style="enable-background:new 0 0 65 65;" xml:space="preserve">
<style type="text/css">
	.st0{opacity:0.5;enable-background:new    ;}
	.st1{fill:#FFFFFF;}
</style>
<path class="st0" d="M32.5,0.5c-17.6,0-32,14.4-32,32s14.4,32,32,32s32-14.4,32-32S50.1,0.5,32.5,0.5L32.5,0.5z"/>
<g>
	<g>
		<path class="st1" d="M37.6,43.4c-0.6,0-1.1-0.4-1.2-0.9c-0.2-0.7,0.2-1.4,0.9-1.6c0.5-0.1,0.9-0.2,1.4-0.3
			c0.4-0.1,0.8-0.2,1.2-0.3c5.4-1.6,8.8-4.5,8.8-7.7c0-4.8-7.2-8.7-16-8.7c-8.7,0-16,4-16,8.7c0,2.7,2.5,5.3,6.7,7
			c0.1,0,0.3,0.1,0.5,0.2c0.2,0.1,0.5,0.2,0.8,0.3c0.7,0.2,1.1,0.9,0.9,1.6c-0.2,0.7-0.9,1.1-1.6,0.9c-0.4-0.1-0.8-0.3-1.1-0.4
			c-0.1-0.1-0.3-0.1-0.4-0.2c-5.3-2.1-8.4-5.6-8.4-9.4c0-6.3,8.2-11.3,18.6-11.3s18.6,5,18.6,11.3c0,4.4-4.1,8.3-10.7,10.2
			c-0.5,0.1-0.9,0.2-1.4,0.3c-0.4,0.1-0.8,0.2-1.2,0.3C37.8,43.4,37.7,43.4,37.6,43.4z"/>
	</g>
	<g>
		<path class="st1" d="M41.1,46.9c-0.3,0-0.5-0.1-0.7-0.2l-5.2-3.5c-0.6-0.4-0.7-1.2-0.4-1.8l3.4-5.2c0.4-0.6,1.2-0.8,1.8-0.4
			c0.6,0.4,0.8,1.2,0.4,1.8l-2.7,4.1l4.1,2.8c0.6,0.4,0.8,1.2,0.4,1.8C41.9,46.7,41.5,46.9,41.1,46.9z"/>
	</g>
</g>
<g id="Ellipse_1">
	<g>
		<path class="st1" d="M32.5,1C49.9,1,64,15.1,64,32.5S49.9,64,32.5,64S1,49.9,1,32.5S15.1,1,32.5,1 M32.5,0C14.6,0,0,14.6,0,32.5
			S14.6,65,32.5,65S65,50.4,65,32.5S50.4,0,32.5,0L32.5,0z"/>
	</g>
</g>
</svg>
