<svg width="100" height="99" viewBox="0 0 100 99" fill="none" xmlns="http://www.w3.org/2000/svg">
<path d="M89.167 88.0786H78.3652V82.166H86.415C88.2852 82.166 89.8066 80.6445 89.8066 78.7739V73.6958C89.8066 73.1436 89.3594 72.6958 88.8066 72.6958H88.3525V62.292C88.3525 56.9722 84.0293 52.6445 78.7148 52.6445H76.0156C70.7012 52.6445 66.3779 56.9722 66.3779 62.292V72.6958H65.9238C65.3711 72.6958 64.9238 73.1436 64.9238 73.6958V75.833H62.3447V73.6958C62.3447 73.1436 61.8975 72.6958 61.3447 72.6958H60.8906V62.292C60.8906 56.9722 56.5674 52.6445 51.2529 52.6445H48.5537C43.2393 52.6445 38.916 56.9722 38.916 62.292V72.6958H38.4619C37.9092 72.6958 37.4619 73.1436 37.4619 73.6958V75.833H34.8828V73.6958C34.8828 73.1436 34.4355 72.6958 33.8828 72.6958H33.4287V62.292C33.4287 56.9722 29.1055 52.6445 23.791 52.6445H21.0918C15.7773 52.6445 11.4541 56.9722 11.4541 62.292V72.6958H11C10.4473 72.6958 10 73.1436 10 73.6958V78.7739C10 80.6445 11.5215 82.166 13.3926 82.166H21.4414V88.0786H11.0635C10.5107 88.0786 10.0635 88.5264 10.0635 89.0786C10.0635 89.6309 10.5107 90.0786 11.0635 90.0786H89.167C89.7197 90.0786 90.167 89.6309 90.167 89.0786C90.167 88.5264 89.7197 88.0786 89.167 88.0786ZM87.8066 78.7739C87.8066 79.5415 87.1826 80.166 86.415 80.166H68.3164C67.5488 80.166 66.9238 79.5415 66.9238 78.7739V74.6958H87.8066V78.7739V78.7739ZM68.3779 62.292C68.3779 58.0752 71.8037 54.6445 76.0156 54.6445H78.7148C82.9268 54.6445 86.3525 58.0752 86.3525 62.292V72.6958H68.3779V62.292ZM64.9238 77.833V78.7739C64.9238 80.6445 66.4453 82.166 68.3164 82.166H76.3652V88.0786H50.9033V82.166H58.9531C60.8232 82.166 62.3447 80.6445 62.3447 78.7739V77.833H64.9238ZM39.4619 74.6958H60.3447V78.7739C60.3447 79.5415 59.7207 80.166 58.9531 80.166H40.8545C40.0869 80.166 39.4619 79.5415 39.4619 78.7739V74.6958ZM40.916 62.292C40.916 58.0752 44.3418 54.6445 48.5537 54.6445H51.2529C55.4648 54.6445 58.8906 58.0752 58.8906 62.292V72.6958H40.916V62.292ZM13.4541 62.292C13.4541 58.0752 16.8799 54.6445 21.0918 54.6445H23.791C28.0029 54.6445 31.4287 58.0752 31.4287 62.292V72.6958H13.4541V62.292ZM12 78.7739V74.6958H32.8828V78.7739C32.8828 79.5415 32.2588 80.166 31.4912 80.166H13.3926C12.625 80.166 12 79.5415 12 78.7739ZM23.4414 82.166H31.4912C33.3613 82.166 34.8828 80.6445 34.8828 78.7739V77.833H37.4619V78.7739C37.4619 80.6445 38.9834 82.166 40.8545 82.166H48.9033V88.0786H23.4414V82.166Z" fill="#988642"/>
<path d="M89.167 45.4341H78.3652V39.5215H86.415C88.2852 39.5215 89.8066 38 89.8066 36.1294V31.0513C89.8066 30.499 89.3594 30.0513 88.8066 30.0513H88.3525V19.6475C88.3525 14.3276 84.0293 10 78.7148 10H76.0156C70.7012 10 66.3779 14.3276 66.3779 19.6475V30.0513H65.9238C65.3711 30.0513 64.9238 30.499 64.9238 31.0513V33.188H62.3447V31.0513C62.3447 30.499 61.8975 30.0513 61.3447 30.0513H60.8906V19.6475C60.8906 14.3276 56.5674 10 51.2529 10H48.5537C43.2393 10 38.916 14.3276 38.916 19.6475V30.0513H38.4619C37.9092 30.0513 37.4619 30.499 37.4619 31.0513V33.188H34.8828V31.0513C34.8828 30.499 34.4355 30.0513 33.8828 30.0513H33.4287V19.6475C33.4287 14.3276 29.1055 10 23.791 10H21.0918C15.7773 10 11.4541 14.3276 11.4541 19.6475V30.0513H11C10.4473 30.0513 10 30.499 10 31.0513V36.1294C10 38 11.5215 39.5215 13.3926 39.5215H21.4414V45.4341H11.0635C10.5107 45.4341 10.0635 45.8818 10.0635 46.4341C10.0635 46.9863 10.5107 47.4341 11.0635 47.4341H89.167C89.7197 47.4341 90.167 46.9863 90.167 46.4341C90.167 45.8818 89.7197 45.4341 89.167 45.4341ZM87.8066 36.1294C87.8066 36.897 87.1826 37.5215 86.415 37.5215H68.3164C67.5488 37.5215 66.9238 36.897 66.9238 36.1294V32.0513H87.8066V36.1294V36.1294ZM68.3779 19.6475C68.3779 15.4307 71.8037 12 76.0156 12H78.7148C82.9268 12 86.3525 15.4307 86.3525 19.6475V30.0513H68.3779V19.6475ZM64.9238 35.188V36.1294C64.9238 38 66.4453 39.5215 68.3164 39.5215H76.3652V45.4341H50.9033V39.5215H58.9531C60.8232 39.5215 62.3447 38 62.3447 36.1294V35.188H64.9238ZM39.4619 32.0513H60.3447V36.1294C60.3447 36.897 59.7207 37.5215 58.9531 37.5215H40.8545C40.0869 37.5215 39.4619 36.897 39.4619 36.1294V32.0513ZM40.916 19.6475C40.916 15.4307 44.3418 12 48.5537 12H51.2529C55.4648 12 58.8906 15.4307 58.8906 19.6475V30.0513H40.916V19.6475ZM13.4541 19.6475C13.4541 15.4307 16.8799 12 21.0918 12H23.791C28.0029 12 31.4287 15.4307 31.4287 19.6475V30.0513H13.4541V19.6475ZM12 36.1294V32.0513H32.8828V36.1294C32.8828 36.897 32.2588 37.5215 31.4912 37.5215H13.3926C12.625 37.5215 12 36.897 12 36.1294ZM23.4414 39.5215H31.4912C33.3613 39.5215 34.8828 38 34.8828 36.1294V35.188H37.4619V36.1294C37.4619 38 38.9834 39.5215 40.8545 39.5215H48.9033V45.4341H23.4414V39.5215Z" fill="#988642"/>
</svg>
