<?xml version="1.0" encoding="utf-8"?>
<!-- Generator: Adobe Illustrator 20.0.0, SVG Export Plug-In . SVG Version: 6.00 Build 0)  -->
<svg version="1.1" id="Layer_1" xmlns="http://www.w3.org/2000/svg" xmlns:xlink="http://www.w3.org/1999/xlink" x="0px" y="0px"
	 viewBox="0 0 37 37" style="enable-background:new 0 0 37 37;" xml:space="preserve">
<style type="text/css">
	.st0{fill:#20285B;}
</style>
<title>GlobalHeader_Phone_Icon</title>
<path class="st0" d="M20.6,22.5l-1.8,0l0,3.8l1.8,0c0.2,0,0.3-0.2,0.3-0.3c0,0,0,0,0,0l0-3.1C21,22.7,20.8,22.5,20.6,22.5z
	 M15.2,12.1c-1,1.6-1.1,5-1.1,6.4c0,1.4,0.1,4.8,1,6.5c0.4,0.6,1.2,0.9,2.4,1.2l0-3.7l0,0c-0.3-0.1-1-0.6-0.9-2.9l0-0.4l0-1.2l0-0.4
	c-0.1-2.3,0.6-2.8,0.9-2.9l0,0l0-3.7C16.4,11.2,15.6,11.5,15.2,12.1z M20.7,11l-1.8,0l0,3.8l1.8,0c0.2,0,0.3-0.2,0.3-0.3l0-3.1
	C21.1,11.2,20.9,11,20.7,11z"/>
</svg>
