<svg xmlns="http://www.w3.org/2000/svg" xmlns:xlink="http://www.w3.org/1999/xlink" version="1.1" x="0px" y="0px" viewBox="0 0 100 125" enable-background="new 0 0 100 100" xml:space="preserve"><defs><style>.cls-1{fill:#20285b;}.cls-2{fill:none;}</style></defs><path fill="#20285b" fill-rule="evenodd" clip-rule="evenodd" d="M60.25,5h5.184c1.549,0,2.816,1.267,2.816,2.816v19.365  c0,1.55-1.269,2.819-2.819,2.819H60.25V5L60.25,5z M54.25,5h-2.815C34.565,5,31.75,30.314,31.75,50.002  C31.75,69.689,34.565,95,51.435,95h2.815V70h-0.006h-2.363c-3.097,0-5.631-2.534-5.631-5.631V50.5V36.631  c0-3.097,2.534-5.631,5.631-5.631h2.363h0.006V5L54.25,5z M60.25,95h5.188c1.547,0,2.812-1.265,2.812-2.812V72.815  c0-1.548-1.267-2.815-2.815-2.815H60.25V95z"/></svg>