<?xml version="1.0" encoding="utf-8"?>
<!-- Generator: Adobe Illustrator 19.1.0, SVG Export Plug-In . SVG Version: 6.00 Build 0)  -->
<svg version="1.1" id="Layer_4" xmlns="http://www.w3.org/2000/svg" xmlns:xlink="http://www.w3.org/1999/xlink" x="0px" y="0px"
	 viewBox="-27 28 65 65" style="enable-background:new -27 28 65 65;" xml:space="preserve">
<style type="text/css">
	.st0{fill:#0076CE;}
	.st1{fill:#FFFFFF;}
</style>
<g>
	<g>
		<path class="st0" d="M5.5,28.6c-17.6,0-31.9,14.3-31.9,31.9s14.3,31.9,31.9,31.9s31.9-14.3,31.9-31.9S23.1,28.6,5.5,28.6L5.5,28.6
			z"/>
	</g>
</g>
<g id="Ellipse_1">
	<g>
		<path class="st1" d="M5.5,29C22.9,29,37,43.1,37,60.5S22.9,92,5.5,92S-26,77.9-26,60.5S-11.9,29,5.5,29 M5.5,28
			C-12.4,28-27,42.6-27,60.5S-12.4,93,5.5,93S38,78.4,38,60.5S23.4,28,5.5,28L5.5,28z"/>
	</g>
</g>
<polygon class="st1" points="-3.8,49.1 -3.8,71.9 16.8,60.5 "/>
</svg>
