<?xml version="1.0" encoding="utf-8"?>
<!-- Generator: Adobe Illustrator 21.0.0, SVG Export Plug-In . SVG Version: 6.00 Build 0)  -->
<svg version="1.1" id="Layer_4" xmlns="http://www.w3.org/2000/svg" xmlns:xlink="http://www.w3.org/1999/xlink" x="0px" y="0px"
	 viewBox="0 0 65 65" style="enable-background:new 0 0 65 65;" xml:space="preserve">
<style type="text/css">
	.st0{opacity:0.5;}
	.st1{fill:#FFFFFF;}
</style>
<g>
	<g class="st0">
		<path d="M32.5,0.6C14.9,0.6,0.6,14.9,0.6,32.5s14.3,31.9,31.9,31.9s31.9-14.3,31.9-31.9S50.1,0.6,32.5,0.6L32.5,0.6z"/>
	</g>
</g>
<g id="Ellipse_1">
	<g>
		<path class="st1" d="M32.5,1C49.9,1,64,15.1,64,32.5S49.9,64,32.5,64S1,49.9,1,32.5S15.1,1,32.5,1 M32.5,0C14.6,0,0,14.6,0,32.5
			S14.6,65,32.5,65S65,50.4,65,32.5S50.4,0,32.5,0L32.5,0z"/>
	</g>
</g>
<polygon class="st1" points="23.2,21.1 23.2,43.9 43.8,32.5 "/>
</svg>
