<?xml version="1.0" encoding="utf-8"?>
<!-- Generator: Adobe Illustrator 20.0.0, SVG Export Plug-In . SVG Version: 6.00 Build 0)  -->
<svg version="1.1" id="Layer_1" xmlns="http://www.w3.org/2000/svg" xmlns:xlink="http://www.w3.org/1999/xlink" x="0px" y="0px"
	 viewBox="0 0 40 40" style="enable-background:new 0 0 40 40;" xml:space="preserve">
<style type="text/css">
	.st0{fill:#ABAFC0;}
	.st1{fill:#D3D3D3;}
</style>
<title>MinusButton_inactive_Icon</title>
<path class="st0" d="M12.5,20.9h15v-2h-15V20.9z"/>
<path class="st1" d="M20,0.8c10.6,0,19.2,8.6,19.2,19.2S30.6,39.2,20,39.2S0.8,30.6,0.8,20c0,0,0,0,0,0C0.8,9.4,9.4,0.8,20,0.8
	 M20,0C9,0,0,9,0,20s9,20,20,20s20-9,20-20S31,0,20,0z"/>
<rect x="12.5" y="18.9" transform="matrix(6.123234e-17 -1 1 6.123234e-17 0.125 39.875)" class="st0" width="15" height="2"/>
</svg>
