<svg xmlns="http://www.w3.org/2000/svg" viewBox="0 0 46.4 66.29"><defs><style>.cls-1{fill:#a6aabb;}</style></defs><title>port</title><g id="Layer_2" data-name="Layer 2"><g id="Layer_1-2" data-name="Layer 1"><path class="cls-1" d="M39.77,46.4c0,3.65-7,8.29-13.26,11.6V26.51h9.94V19.89H26.51v-.66a9.65,9.65,0,0,0,6.63-9.28A9.77,9.77,0,0,0,23.2,0a9.77,9.77,0,0,0-9.94,9.94,9.65,9.65,0,0,0,6.63,9.28v.66H9.94v6.63h9.94V58c-6.3-3-13.26-7.62-13.26-11.6H0C0,57.34,18.23,64.63,22.21,66l1,.33,1-.33C27.84,64.63,46.4,57.34,46.4,46.4ZM23.2,6.63a3.13,3.13,0,0,1,3.31,3.31,3.13,3.13,0,0,1-3.31,3.31,3.32,3.32,0,0,1-3.31-3.31A3.13,3.13,0,0,1,23.2,6.63Z"/></g></g></svg>
