<?xml version="1.0" encoding="utf-8"?>
<!-- Generator: Adobe Illustrator 20.0.0, SVG Export Plug-In . SVG Version: 6.00 Build 0)  -->
<svg version="1.1" id="Isolation_Mode" xmlns="http://www.w3.org/2000/svg" xmlns:xlink="http://www.w3.org/1999/xlink" x="0px"
	 y="0px" viewBox="-83 233.7 60 60" style="enable-background:new -83 233.7 60 60;" xml:space="preserve">
	 <defs xmlns="http://www.w3.org/2000/svg"><style>.cls-1{fill:#7f7f7f;}</style></defs>
<g>
	<circle class="cls-1" cx="-69.4" cy="258.6" r="2.1"/>
	<circle class="cls-1" cx="-63.3" cy="258.6" r="2.1"/>
	<path class="cls-1" d="M-27.3,248.3h-11.3V238h-28.8v10.3h-11.3c-0.6,0-1,0.5-1,1v30.8c0,0.6,0.5,1,1,1h11.3v8.2h28.8v-8.2h11.3c0.6,0,1-0.5,1-1
		l0,0v-30.8C-26.3,248.8-26.8,248.3-27.3,248.3z M-65.3,240.1h24.7v8.2h-24.7L-65.3,240.1z M-40.7,287.3h-24.7v-18.5h24.7V287.3z
		 M-28.4,279.1h-10.3v-12.3h-28.7v12.3h-10.3v-28.8h49.3V279.1z"/>
</g>
</svg>
