<svg id="Isolation_Mode" data-name="Isolation Mode" xmlns="http://www.w3.org/2000/svg" viewBox="0 0 23.75 20.47"><defs><style>.cls-1{fill:#fff;stroke:#fff;stroke-miterlimit:10;stroke-width:0.75px;}</style></defs><title>Print_Icon</title><circle class="cls-1" cx="4.79" cy="9.22" r="0.89"/><circle class="cls-1" cx="7.44" cy="9.22" r="0.89"/><path class="cls-1" d="M23,4.81H18.09V.38H5.68V4.81H.82a.44.44,0,0,0-.44.44h0V18.54A.44.44,0,0,0,.8,19H5.68v1.1h12.4V19h4.86a.44.44,0,0,0,.44-.44h0V5.25A.44.44,0,0,0,23,4.81ZM6.56,1.26H17.2V4.81H6.56Zm10.64,18H6.56V16.1H17.2Zm5.31-1.12H18.07V15.21H5.68V18.1H1.25V5.68H22.5Z" transform="translate(0 0)"/></svg>