<svg id="Layer_1" data-name="Layer 1" xmlns="http://www.w3.org/2000/svg" viewBox="0 0 39 39"><defs><style>.cls-1{fill:#abafc0;}.cls-2{fill:#fff;}</style></defs><title>Q_Icon</title><path class="cls-1" d="M30.79,24.57c0-2.91-1.69-6.84-5-6.84-2.8,0-4.56,2.41-4.56,5.88,0,2.91,1.69,6.84,5,6.84C29,30.45,30.79,28,30.79,24.57Z" transform="translate(-6.53 -5.5)"/><path class="cls-1" d="M26,5.5A19.5,19.5,0,1,0,45.53,25,19.5,19.5,0,0,0,26,5.5ZM31.46,35c-2.18,0-3.43-2.72-6-3.91a7,7,0,0,1,.59-14A6.94,6.94,0,0,1,32.9,24a7,7,0,0,1-4.85,6.73c1.82,1.07,3.12,3,4.52,3a1.45,1.45,0,0,0,.69-0.12l0.17,0.34A2.36,2.36,0,0,1,31.46,35Z" transform="translate(-6.53 -5.5)"/><path class="cls-2" d="M32.58,33.71c-1.4,0-2.7-1.9-4.52-3A7,7,0,0,0,32.9,24a6.87,6.87,0,1,0-13.74.15,7,7,0,0,0,6.31,6.9C28,32.25,29.28,35,31.46,35a2.36,2.36,0,0,0,2-1l-0.17-.34A1.45,1.45,0,0,1,32.58,33.71ZM21.27,23.61c0-3.47,1.76-5.88,4.56-5.88,3.28,0,5,3.93,5,6.84,0,3.47-1.76,5.88-4.56,5.88C23,30.45,21.27,26.52,21.27,23.61Z" transform="translate(-6.53 -5.5)"/></svg>