<svg id="Layer_1" data-name="Layer 1" xmlns="http://www.w3.org/2000/svg" viewBox="0 0 13 13"><defs><style>.cls-1{fill:#2b386f;}.cls-2{fill:none;}</style></defs><title>ResetFilter_Icon</title><path class="cls-1" d="M6.5,2.41a3.8,3.8,0,0,0-1.33.19A4.63,4.63,0,0,0,1.81,6.54,4.74,4.74,0,0,0,11.16,8.1a7.86,7.86,0,0,0,.1-1,.55.55,0,0,1,.52-.58.54.54,0,0,1,.53.59,5.63,5.63,0,0,1-.85,3.05,5.7,5.7,0,0,1-3.85,2.69,5.8,5.8,0,0,1-6.23-3A5.82,5.82,0,0,1,5.18,1.51c.43-.1.87-.14,1.32-.21,0-.24,0-.51,0-.79s0-.38.19-.47a.48.48,0,0,1,.53.11l1.7,1.27c.4.3.4.55,0,.84L7.18,3.57,7,3.66a.36.36,0,0,1-.53-.35c0-.25,0-.5,0-.75C6.5,2.52,6.5,2.47,6.5,2.41Z"/><rect class="cls-2" width="13" height="13"/></svg>