<?xml version="1.0" encoding="utf-8"?>
<!-- Generator: Adobe Illustrator 21.0.0, SVG Export Plug-In . SVG Version: 6.00 Build 0)  -->
<svg version="1.1" id="Layer_1" xmlns="http://www.w3.org/2000/svg" xmlns:xlink="http://www.w3.org/1999/xlink" x="0px" y="0px"
	 viewBox="0 0 50 50" style="enable-background:new 0 0 50 50;" xml:space="preserve">
<style type="text/css">
	.st0{fill:#2B386F;}
	.st1{fill:#F3BF59;}
</style>
<circle class="st0" cx="25" cy="25" r="25"/>
<path class="st1" d="M32.5,20.4H30v1h2.5c0.3,0,0.5,0.2,0.5,0.5v10c0,0.3-0.2,0.5-0.5,0.5h-10c-0.3,0-0.5-0.2-0.5-0.5v-1.4h-1v1.4
	c0,0.8,0.7,1.5,1.5,1.5h10c0.8,0,1.5-0.7,1.5-1.5v-10C34,21.1,33.3,20.4,32.5,20.4z"/>
<path class="st1" d="M27.5,16.6h-10c-0.8,0-1.5,0.7-1.5,1.5v10c0,0.8,0.7,1.5,1.5,1.5H20h1h6.5c0.8,0,1.5-0.7,1.5-1.5v-7.6v-1v-1.4
	C29,17.2,28.3,16.6,27.5,16.6z"/>
</svg>
