<svg id="Layer_1" data-name="Layer 1" xmlns="http://www.w3.org/2000/svg" viewBox="0 0 88 8"><defs><style>.cls-1{fill:#bbb;}</style></defs><title>Artboard 1</title><path class="cls-1" d="M87.15,1.14V0C85,0,83.82,1.44,82.84,2.95c-1-1.5-2.2-2.95-4.32-2.95s-3.33,1.44-4.31,2.95C73.22,1.44,72,0,69.89,0s-3.33,1.44-4.32,2.95c-1-1.5-2.2-2.95-4.32-2.95s-3.33,1.44-4.31,2.95C56,1.44,54.75,0,52.63,0s-3.33,1.44-4.32,2.95C47.33,1.44,46.12,0,44,0s-3.33,1.44-4.31,2.95C38.7,1.44,37.49,0,35.37,0S32,1.44,31.06,2.95c-1-1.5-2.2-2.95-4.32-2.95s-3.33,1.44-4.32,2.95c-1-1.5-2.2-2.95-4.32-2.95S14.78,1.44,13.8,2.95C12.81,1.44,11.6,0,9.48,0S6.15,1.44,5.16,2.95C4.18,1.44,3,0,.85,0V1.14C2.58,1.14,3.5,2.44,4.49,4,3.5,5.56,2.58,6.86.85,6.86V8C3,8,4.18,6.56,5.16,5.05,6.15,6.56,7.36,8,9.48,8s3.33-1.44,4.32-2.95C14.78,6.56,16,8,18.11,8s3.33-1.44,4.32-2.95c1,1.5,2.2,2.95,4.32,2.95s3.33-1.44,4.32-2.95C32,6.56,33.25,8,35.37,8s3.33-1.44,4.32-2.95C40.68,6.56,41.88,8,44,8s3.33-1.44,4.31-2.95c1,1.5,2.2,2.95,4.32,2.95S56,6.56,56.95,5.05c1,1.5,2.2,2.95,4.32,2.95s3.33-1.44,4.31-2.95c1,1.5,2.2,2.95,4.31,2.95s3.33-1.44,4.32-2.95C75.2,6.56,76.4,8,78.52,8s3.33-1.44,4.31-2.95C83.82,6.56,85,8,87.15,8V6.86c-1.73,0-2.65-1.3-3.64-2.86C84.5,2.44,85.42,1.14,87.15,1.14ZM9.48,6.86C7.75,6.86,6.83,5.56,5.84,4c1-1.57,1.91-2.86,3.64-2.86S12.13,2.43,13.12,4C12.13,5.56,11.21,6.86,9.48,6.86Zm8.63,0c-1.73,0-2.65-1.3-3.64-2.86,1-1.56,1.91-2.86,3.64-2.86S20.76,2.44,21.75,4C20.76,5.56,19.84,6.86,18.11,6.86Zm8.63,0C25,6.86,24.09,5.56,23.1,4c1-1.56,1.91-2.86,3.64-2.86S29.39,2.44,30.38,4C29.39,5.56,28.47,6.86,26.74,6.86Zm8.63,0c-1.73,0-2.65-1.3-3.64-2.86,1-1.57,1.91-2.86,3.64-2.86S38,2.43,39,4C38,5.56,37.1,6.86,35.37,6.86Zm8.63,0c-1.73,0-2.65-1.3-3.64-2.86,1-1.56,1.91-2.86,3.64-2.86S46.65,2.44,47.64,4C46.65,5.56,45.74,6.86,44,6.86Zm8.63,0C50.9,6.86,50,5.57,49,4c1-1.57,1.91-2.86,3.64-2.86S55.28,2.43,56.27,4C55.28,5.56,54.36,6.86,52.63,6.86Zm8.63,0c-1.73,0-2.65-1.3-3.64-2.86,1-1.56,1.91-2.86,3.64-2.86S63.91,2.44,64.9,4C63.91,5.57,63,6.86,61.26,6.86Zm8.63,0c-1.73,0-2.65-1.3-3.64-2.86,1-1.57,1.91-2.86,3.64-2.86S72.54,2.43,73.53,4C72.54,5.56,71.62,6.86,69.89,6.86Zm8.63,0c-1.73,0-2.65-1.3-3.64-2.86,1-1.56,1.91-2.86,3.64-2.86S81.17,2.44,82.16,4C81.17,5.56,80.25,6.86,78.52,6.86Z"/></svg>