<svg id="Layer_1" data-name="Layer 1" xmlns="http://www.w3.org/2000/svg" xmlns:xlink="http://www.w3.org/1999/xlink" viewBox="0 0 416.58 421.34"><defs><style>.cls-1{fill:none;}.cls-2{fill:url(#New_Gradient_Swatch_4);}.cls-3{fill:url(#New_Gradient_Swatch_4-2);}.cls-4{fill:url(#New_Gradient_Swatch_4-3);}.cls-5{fill:url(#New_Gradient_Swatch_4-4);}.cls-6{fill:url(#New_Gradient_Swatch_4-5);}.cls-7{fill:url(#New_Gradient_Swatch_2);}.cls-8{fill:url(#New_Gradient_Swatch_2-2);}.cls-9{fill:url(#New_Gradient_Swatch_2-3);}.cls-10{fill:url(#New_Gradient_Swatch_4-6);}.cls-11{fill:url(#New_Gradient_Swatch_2-4);}.cls-12{fill:url(#New_Gradient_Swatch_4-7);}.cls-13{fill:url(#New_Gradient_Swatch_2-5);}.cls-14{fill:url(#New_Gradient_Swatch_4-8);}.cls-15{fill:url(#New_Gradient_Swatch_2-6);}.cls-16{fill:url(#New_Gradient_Swatch_4-9);}.cls-17{fill:url(#New_Gradient_Swatch_2-7);}.cls-18{fill:url(#New_Gradient_Swatch_4-10);}.cls-19{fill:url(#New_Gradient_Swatch_2-8);}.cls-20{fill:url(#New_Gradient_Swatch_4-11);}.cls-21{fill:url(#New_Gradient_Swatch_2-9);}.cls-22{fill:url(#New_Gradient_Swatch_4-12);}.cls-23{fill:url(#New_Gradient_Swatch_2-10);}.cls-24{fill:url(#New_Gradient_Swatch_4-13);}.cls-25{fill:url(#New_Gradient_Swatch_2-11);}.cls-26{fill:#fff;}.cls-27{fill:#f2f2f2;}</style><linearGradient id="New_Gradient_Swatch_4" x1="467.09" y1="31.64" x2="557.92" y2="31.64" gradientTransform="translate(-2137.85 -18.15) scale(4.59)" gradientUnits="userSpaceOnUse"><stop offset="0.26" stop-color="#074391"/><stop offset="1" stop-color="#061859"/></linearGradient><linearGradient id="New_Gradient_Swatch_4-2" x1="467.09" y1="47.73" x2="557.92" y2="47.73" xlink:href="#New_Gradient_Swatch_4"/><linearGradient id="New_Gradient_Swatch_4-3" x1="467.09" y1="49.54" x2="557.92" y2="49.54" xlink:href="#New_Gradient_Swatch_4"/><linearGradient id="New_Gradient_Swatch_4-4" x1="467.09" y1="42.14" x2="557.92" y2="42.14" xlink:href="#New_Gradient_Swatch_4"/><linearGradient id="New_Gradient_Swatch_4-5" x1="467.09" y1="26.84" x2="557.92" y2="26.84" xlink:href="#New_Gradient_Swatch_4"/><linearGradient id="New_Gradient_Swatch_2" x1="467.11" y1="60.74" x2="557.92" y2="60.74" gradientTransform="translate(-2137.85 -18.15) scale(4.59)" gradientUnits="userSpaceOnUse"><stop offset="0" stop-color="#97131f"/><stop offset="0.5" stop-color="#ed1c24"/><stop offset="0.59" stop-color="#e51b24"/><stop offset="0.73" stop-color="#d01922"/><stop offset="0.91" stop-color="#ad1520"/><stop offset="1" stop-color="#97131f"/></linearGradient><linearGradient id="New_Gradient_Swatch_2-2" x1="467.09" y1="52.86" x2="557.92" y2="52.86" xlink:href="#New_Gradient_Swatch_2"/><linearGradient id="New_Gradient_Swatch_2-3" x1="467.09" y1="51.05" x2="557.92" y2="51.05" xlink:href="#New_Gradient_Swatch_2"/><linearGradient id="New_Gradient_Swatch_4-6" x1="467.09" y1="30.9" x2="557.92" y2="30.9" xlink:href="#New_Gradient_Swatch_4"/><linearGradient id="New_Gradient_Swatch_2-4" x1="467.09" y1="30.9" x2="557.92" y2="30.9" xlink:href="#New_Gradient_Swatch_2"/><linearGradient id="New_Gradient_Swatch_4-7" x1="467.09" y1="39.45" x2="557.92" y2="39.45" xlink:href="#New_Gradient_Swatch_4"/><linearGradient id="New_Gradient_Swatch_2-5" x1="467.09" y1="39.45" x2="557.92" y2="39.45" xlink:href="#New_Gradient_Swatch_2"/><linearGradient id="New_Gradient_Swatch_4-8" x1="467.09" y1="29.77" x2="557.92" y2="29.77" xlink:href="#New_Gradient_Swatch_4"/><linearGradient id="New_Gradient_Swatch_2-6" x1="467.09" y1="29.77" x2="557.92" y2="29.77" xlink:href="#New_Gradient_Swatch_2"/><linearGradient id="New_Gradient_Swatch_4-9" x1="467.09" y1="52.22" x2="557.92" y2="52.22" xlink:href="#New_Gradient_Swatch_4"/><linearGradient id="New_Gradient_Swatch_2-7" x1="467.09" y1="52.22" x2="557.92" y2="52.22" xlink:href="#New_Gradient_Swatch_2"/><linearGradient id="New_Gradient_Swatch_4-10" x1="467.09" y1="48.39" x2="557.92" y2="48.39" xlink:href="#New_Gradient_Swatch_4"/><linearGradient id="New_Gradient_Swatch_2-8" x1="467.09" y1="48.39" x2="557.92" y2="48.39" xlink:href="#New_Gradient_Swatch_2"/><linearGradient id="New_Gradient_Swatch_4-11" x1="467.09" y1="62.13" x2="557.92" y2="62.13" xlink:href="#New_Gradient_Swatch_4"/><linearGradient id="New_Gradient_Swatch_2-9" x1="467.09" y1="62.13" x2="557.92" y2="62.13" xlink:href="#New_Gradient_Swatch_2"/><linearGradient id="New_Gradient_Swatch_4-12" x1="467.09" y1="70.83" x2="557.92" y2="70.83" xlink:href="#New_Gradient_Swatch_4"/><linearGradient id="New_Gradient_Swatch_2-10" x1="467.09" y1="70.83" x2="557.92" y2="70.83" xlink:href="#New_Gradient_Swatch_2"/><linearGradient id="New_Gradient_Swatch_4-13" x1="467.09" y1="53.42" x2="557.92" y2="53.42" xlink:href="#New_Gradient_Swatch_4"/><linearGradient id="New_Gradient_Swatch_2-11" x1="467.09" y1="53.42" x2="557.92" y2="53.42" xlink:href="#New_Gradient_Swatch_2"/></defs><title>po-roundel</title><path class="cls-1" d="M392.51,126.14l.06.09,0-.06Z" transform="translate(-4.21 -1.83)"/><path class="cls-1" d="M419.64,199.28c.12.74.23,1.47.32,2.18l0-.27C419.85,200.57,419.75,199.93,419.64,199.28Z" transform="translate(-4.21 -1.83)"/><path class="cls-1" d="M388.94,120.78l.15.22-.09-.14Z" transform="translate(-4.21 -1.83)"/><path class="cls-1" d="M5.07,223.81c0,.32.1.65.15,1-.05-.36-.11-.73-.16-1.08Z" transform="translate(-4.21 -1.83)"/><path class="cls-1" d="M36,304.15l.08.11-.19-.28Z" transform="translate(-4.21 -1.83)"/><path class="cls-1" d="M5.91,229c0,.2.08.4.12.6,0-.24-.09-.49-.14-.73Z" transform="translate(-4.21 -1.83)"/><path class="cls-2" d="M401.92,126.24c.21.47.42.94.62,1.41Z" transform="translate(-4.21 -1.83)"/><path class="cls-3" d="M419.92,197.22c.15,1.64.21,3.31.33,5,.05.71.14,1.4.17,2.11C420.32,201.91,420.11,199.57,419.92,197.22Z" transform="translate(-4.21 -1.83)"/><path class="cls-4" d="M420.67,208c0,.69.09,1.38.12,2.07C420.76,209.43,420.72,208.74,420.67,208Z" transform="translate(-4.21 -1.83)"/><path class="cls-5" d="M5.05,223.7c0,.35.11.72.16,1.08q.2,1.26.42,2.57l.25,1.52c0,.24.09.49.14.73.18.94.37,1.89.57,2.86.14.7.27,1.38.44,2.09.24,1.11.5,2.26.78,3.41.19.81.38,1.61.59,2.43.28,1.11.58,2.24.88,3.36.24.91.49,1.8.74,2.72.31,1.1.64,2.21,1,3.32s.59,1.94.89,2.92.69,2.18,1.06,3.28.68,2.06,1,3.09.74,2.13,1.13,3.2.79,2.15,1.2,3.23.79,2.07,1.2,3.11.89,2.22,1.35,3.32.83,2,1.26,3,1,2.24,1.5,3.36c.44,1,.87,1.93,1.32,2.89.53,1.13,1.08,2.25,1.64,3.37.46.91.9,1.83,1.37,2.73.59,1.14,1.2,2.25,1.81,3.37.46.84.91,1.7,1.38,2.53.66,1.16,1.33,2.26,2,3.38.45.75.9,1.52,1.36,2.26.76,1.21,1.55,2.37,2.34,3.54.36.53.71,1.08,1.07,1.61l.19.28c1.18,1.67,2.38,3.28,3.61,4.82a166.53,166.53,0,0,0,17,18.31,193.69,193.69,0,0,1-12.4-210.75,209,209,0,0,1,64.08-83.76h0l.44-.35h0l.77-.6,0,0,2-1.52c2.93-2.22,5.61-4.15,8.19-5.92l.24-.16.32-.22,2-1.34-.23.11h0C52.07,57.36,3.62,130.37,4.22,213.58h.07c0,1.8.13,3.6.21,5.4q.18,1.84.44,3.8Z" transform="translate(-4.21 -1.83)"/><path class="cls-6" d="M145.15,15c-.93.62-1.87,1.25-2.8,1.9l-2.82,2-.46.33c-.75.53-1.49,1.06-2.23,1.61-1,.7-1.92,1.41-2.87,2.13l-.82.62-1.76,1.35c-1,.75-1.92,1.52-2.87,2.29s-1.64,1.33-2.45,2-1.89,1.61-2.83,2.42c-.77.66-1.55,1.33-2.3,2s-1.5,1.37-2.24,2.07l-1.21,1.14c-.48.45-1,.89-1.43,1.34-.69.68-1.37,1.37-2,2.06l-1.52,1.55-1,1.05c-.85.91-1.66,1.83-2.47,2.75l-1,1.07c-.27.3-.55.6-.81.91-1.36,1.63-2.65,3.24-3.81,4.79l-.23.31a193.61,193.61,0,0,1,265.1,44.9,166.54,166.54,0,0,1,17,18.31q1.85,2.32,3.63,4.86l.06.08.09.14q1.74,2.49,3.41,5.14l0,0,0,.06c13.93,22.16,23.82,52.25,27.08,73,.11.65.21,1.29.29,1.91l0,.27c.22,1.56.39,3.06.53,4.49v.14q.1,1,.17,1.93c-.12-2-.27-3.91-.42-5.86-.49-6.89-1.22-13.68-2.26-20.35h0q-.86-5.45-2-10.79l0-.2c-.72-3.48-1.52-6.93-2.39-10.34,0-.14-.07-.28-.11-.42q-1.28-5-2.78-9.9c-.06-.19-.12-.39-.17-.59-1-3.22-2.06-6.4-3.19-9.55-.08-.22-.15-.44-.23-.66q-1.72-4.75-3.65-9.38c-.07-.17-.14-.34-.21-.51-.81-1.94-1.31-3.14-1.35-3.23C369.39,51.78,298.24,1.83,212.5,1.83a204.5,204.5,0,0,0-31.11,2.38c-1.22.19-2.42.42-3.63.64-2,.35-4,.7-6,1.1-1.35.27-2.69.59-4,.89-1.86.42-3.71.85-5.55,1.31-1.35.34-2.7.71-4,1.08q-2.71.75-5.4,1.57l-2,.63-2.83,1.8C147,13.83,146.06,14.42,145.15,15Z" transform="translate(-4.21 -1.83)"/><path class="cls-7" d="M420.5,206.1q-.18-1.87-.44-3.87c0-.26-.06-.51-.09-.76-.1-.71-.21-1.44-.32-2.18q-.13-.81-.28-1.63c-.1-.55-.18-1.09-.28-1.65-.2-1.12-.44-2.29-.68-3.46-.14-.69-.27-1.38-.44-2.09-.24-1.12-.5-2.26-.78-3.41-.19-.81-.37-1.61-.58-2.43-.28-1.11-.58-2.23-.88-3.36-.24-.9-.48-1.8-.73-2.71-.31-1.1-.64-2.21-1-3.32s-.59-1.94-.89-2.92-.69-2.18-1.06-3.27-.69-2.06-1-3.09-.73-2.13-1.13-3.2-.78-2.15-1.2-3.23-.79-2.07-1.2-3.11-.89-2.22-1.34-3.32-.83-2-1.26-3-1-2.25-1.5-3.37c-.43-1-.87-1.92-1.32-2.88-.52-1.14-1.08-2.25-1.63-3.37-.45-.91-.9-1.83-1.36-2.74-.59-1.14-1.2-2.25-1.81-3.37-.46-.84-.91-1.7-1.38-2.53-.66-1.15-1.34-2.27-2-3.39-.44-.73-.87-1.48-1.31-2.19l-.06-.09c-.77-1.2-1.55-2.35-2.33-3.51-.37-.54-.72-1.1-1.08-1.63l-.15-.22c-1.2-1.68-2.41-3.31-3.63-4.86a166.54,166.54,0,0,0-17-18.31A192.63,192.63,0,0,1,406,206.92c10.47,46.15.51,92.49-28.33,131.06-18.05,24.15-54.79,48.39-78.49,57l-1.49.46c-1.08.34-2.15.67-3.24,1h0l-.54.23a210.29,210.29,0,0,1-52.06,7.21A193.88,193.88,0,0,1,56.69,327.38a166.53,166.53,0,0,1-17-18.31q-1.84-2.31-3.61-4.82l-.08-.11-.11-.17C21,282.79,10.16,251.91,6,229.6c0-.2-.08-.4-.12-.6l0-.13c-.25-1.4-.47-2.76-.67-4.09-.05-.33-.1-.66-.15-1v-.1c-.23-1.62-.41-3.17-.55-4.66V219q-.1-1-.17-1.93c.12,1.94.26,3.86.41,5.78C5.23,229.72,6,236.52,7,243.18c.57,3.64,1.23,7.23,2,10.79,0,.07,0,.14,0,.2q1.08,5.22,2.39,10.35c0,.14.06.28.1.42q1.28,5,2.79,9.9c.06.19.12.39.18.59q1.49,4.83,3.19,9.54c.08.22.15.44.23.66q1.72,4.75,3.65,9.38l.21.51q2,4.85,4.26,9.56c-1.24-2.55-2.39-5.14-3.53-7.75,32.24,75.24,103.76,125.82,190,125.82a204,204,0,0,0,31.12-2.39c1.22-.18,2.42-.42,3.63-.63,2-.35,4-.7,6-1.11,1.35-.28,2.69-.59,4-.89,1.86-.41,3.7-.84,5.55-1.3,1.35-.35,2.7-.72,4-1.09q2.71-.75,5.39-1.58c1.32-.4,2.64-.8,3.94-1.23,1.83-.6,3.65-1.24,5.43-1.88,1.23-.44,2.47-.88,3.68-1.34,2-.75,3.9-1.54,5.83-2.35,1-.43,2.06-.83,3.07-1.27,2.92-1.27,5.81-2.6,8.64-4h0c70-34.47,118.47-107.47,117.88-190.68h-.08C420.67,209.64,420.58,207.87,420.5,206.1Z" transform="translate(-4.21 -1.83)"/><path class="cls-8" d="M5.08,227.78c-.16-1.64-.21-3.31-.34-5-.05-.7-.13-1.4-.18-2.11C4.68,223.09,4.89,225.43,5.08,227.78Z" transform="translate(-4.21 -1.83)"/><path class="cls-9" d="M4.34,217c0-.71-.1-1.42-.12-2.14C4.24,215.59,4.28,216.31,4.34,217Z" transform="translate(-4.21 -1.83)"/><path class="cls-10" d="M390.18,122.63c.78,1.16,1.56,2.31,2.33,3.51q-1.67-2.65-3.41-5.14C389.46,121.53,389.81,122.09,390.18,122.63Z" transform="translate(-4.21 -1.83)"/><path class="cls-11" d="M390.18,122.63c.78,1.16,1.56,2.31,2.33,3.51q-1.67-2.65-3.41-5.14C389.46,121.53,389.81,122.09,390.18,122.63Z" transform="translate(-4.21 -1.83)"/><path class="cls-12" d="M393.88,128.43c.67,1.12,1.35,2.23,2,3.39.47.83.92,1.68,1.38,2.53.61,1.12,1.22,2.23,1.81,3.37.46.9.92,1.82,1.36,2.74.56,1.12,1.11,2.23,1.63,3.37.45,1,.89,1.92,1.32,2.88.51,1.12,1,2.24,1.5,3.37s.84,2,1.26,3,.9,2.21,1.34,3.32.8,2.07,1.2,3.11.81,2.16,1.2,3.23.77,2.13,1.13,3.2.71,2.06,1,3.09.72,2.19,1.06,3.27.6,2,.89,2.92.66,2.22,1,3.32c.26.91.5,1.81.73,2.71.3,1.13.6,2.25.88,3.36.21.82.39,1.63.58,2.43.28,1.15.55,2.29.78,3.41.16.71.29,1.4.44,2.09.24,1.17.48,2.34.68,3.46.1.56.18,1.1.28,1.65s.19,1.09.28,1.63c-3.26-20.8-13.15-50.88-27.08-73C393,126.95,393.44,127.69,393.88,128.43Z" transform="translate(-4.21 -1.83)"/><path class="cls-13" d="M393.88,128.43c.67,1.12,1.35,2.23,2,3.39.47.83.92,1.68,1.38,2.53.61,1.12,1.22,2.23,1.81,3.37.46.9.92,1.82,1.36,2.74.56,1.12,1.11,2.23,1.63,3.37.45,1,.89,1.92,1.32,2.88.51,1.12,1,2.24,1.5,3.37s.84,2,1.26,3,.9,2.21,1.34,3.32.8,2.07,1.2,3.11.81,2.16,1.2,3.23.77,2.13,1.13,3.2.71,2.06,1,3.09.72,2.19,1.06,3.27.6,2,.89,2.92.66,2.22,1,3.32c.26.91.5,1.81.73,2.71.3,1.13.6,2.25.88,3.36.21.82.39,1.63.58,2.43.28,1.15.55,2.29.78,3.41.16.71.29,1.4.44,2.09.24,1.17.48,2.34.68,3.46.1.56.18,1.1.28,1.65s.19,1.09.28,1.63c-3.26-20.8-13.15-50.88-27.08-73C393,126.95,393.44,127.69,393.88,128.43Z" transform="translate(-4.21 -1.83)"/><path class="cls-14" d="M388.94,120.78q-1.78-2.53-3.63-4.86C386.54,117.47,387.75,119.1,388.94,120.78Z" transform="translate(-4.21 -1.83)"/><path class="cls-15" d="M388.94,120.78q-1.78-2.53-3.63-4.86C386.54,117.47,387.75,119.1,388.94,120.78Z" transform="translate(-4.21 -1.83)"/><path class="cls-16" d="M5.05,223.7l-.11-.93q-.26-2-.44-3.8V219C4.64,220.53,4.83,222.09,5.05,223.7Z" transform="translate(-4.21 -1.83)"/><path class="cls-17" d="M5.05,223.7l-.11-.93q-.26-2-.44-3.8V219C4.64,220.53,4.83,222.09,5.05,223.7Z" transform="translate(-4.21 -1.83)"/><path class="cls-18" d="M420,201.46c0,.25.05.5.09.76q.26,2,.44,3.87V206C420.36,204.52,420.18,203,420,201.46Z" transform="translate(-4.21 -1.83)"/><path class="cls-19" d="M420,201.46c0,.25.05.5.09.76q.26,2,.44,3.87V206C420.36,204.52,420.18,203,420,201.46Z" transform="translate(-4.21 -1.83)"/><path class="cls-20" d="M32.48,298.83c-.46-.73-.91-1.5-1.36-2.26-.68-1.12-1.35-2.23-2-3.38-.47-.83-.92-1.68-1.38-2.53-.61-1.11-1.22-2.23-1.81-3.37-.47-.91-.91-1.82-1.37-2.73-.55-1.12-1.11-2.24-1.64-3.37-.45-1-.88-1.92-1.32-2.89-.51-1.12-1-2.23-1.5-3.36s-.84-2-1.26-3-.9-2.21-1.35-3.32-.8-2.07-1.2-3.11-.8-2.15-1.2-3.23-.77-2.14-1.13-3.2-.7-2.06-1-3.09-.72-2.19-1.06-3.28-.6-1.95-.89-2.92-.66-2.23-1-3.32c-.26-.91-.5-1.81-.74-2.72-.3-1.13-.6-2.25-.88-3.36-.21-.82-.39-1.62-.59-2.43-.27-1.15-.54-2.3-.78-3.41-.16-.71-.29-1.39-.44-2.09-.2-1-.39-1.92-.57-2.86,4.13,22.3,15,53.19,29.86,74.37-.36-.53-.71-1.08-1.07-1.61C34,301.2,33.24,300,32.48,298.83Z" transform="translate(-4.21 -1.83)"/><path class="cls-21" d="M32.48,298.83c-.46-.73-.91-1.5-1.36-2.26-.68-1.12-1.35-2.23-2-3.38-.47-.83-.92-1.68-1.38-2.53-.61-1.11-1.22-2.23-1.81-3.37-.47-.91-.91-1.82-1.37-2.73-.55-1.12-1.11-2.24-1.64-3.37-.45-1-.88-1.92-1.32-2.89-.51-1.12-1-2.23-1.5-3.36s-.84-2-1.26-3-.9-2.21-1.35-3.32-.8-2.07-1.2-3.11-.8-2.15-1.2-3.23-.77-2.14-1.13-3.2-.7-2.06-1-3.09-.72-2.19-1.06-3.28-.6-1.95-.89-2.92-.66-2.23-1-3.32c-.26-.91-.5-1.81-.74-2.72-.3-1.13-.6-2.25-.88-3.36-.21-.82-.39-1.62-.59-2.43-.27-1.15-.54-2.3-.78-3.41-.16-.71-.29-1.39-.44-2.09-.2-1-.39-1.92-.57-2.86,4.13,22.3,15,53.19,29.86,74.37-.36-.53-.71-1.08-1.07-1.61C34,301.2,33.24,300,32.48,298.83Z" transform="translate(-4.21 -1.83)"/><path class="cls-22" d="M39.69,309.07c-1.23-1.54-2.43-3.15-3.61-4.82Q37.85,306.76,39.69,309.07Z" transform="translate(-4.21 -1.83)"/><path class="cls-23" d="M39.69,309.07c-1.23-1.54-2.43-3.15-3.61-4.82Q37.85,306.76,39.69,309.07Z" transform="translate(-4.21 -1.83)"/><path class="cls-24" d="M5.22,224.79c.2,1.33.42,2.69.67,4.09l-.25-1.52Q5.41,226.06,5.22,224.79Z" transform="translate(-4.21 -1.83)"/><path class="cls-25" d="M5.22,224.79c.2,1.33.42,2.69.67,4.09l-.25-1.52Q5.41,226.06,5.22,224.79Z" transform="translate(-4.21 -1.83)"/><path class="cls-26" d="M108.38,32.87l.51-.39.69-.53,0,0-.77.6h0l-.44.35.21.26Z" transform="translate(-4.21 -1.83)"/><path class="cls-27" d="M129.65,18.8l-.11.06,1-.46Z" transform="translate(-4.21 -1.83)"/><path class="cls-27" d="M100.17,54.82c.75-1.05,1.51-2.11,2.29-3.15,1.18-1.57,2.48-3.19,3.86-4.84.27-.32.55-.63.83-.94l.94-1.06c.82-.93,1.63-1.86,2.49-2.78l1-1.07,1.52-1.55c.68-.69,1.36-1.39,2.06-2.08.48-.46,1-.91,1.45-1.37l1.21-1.13c.75-.7,1.49-1.4,2.26-2.09s1.54-1.35,2.31-2c.94-.82,1.89-1.64,2.85-2.44s1.64-1.35,2.46-2,1.91-1.55,2.89-2.31l1.77-1.36.82-.62c1-.73,1.92-1.45,2.88-2.15.74-.55,1.49-1.08,2.24-1.62l.47-.33,2.83-2c.94-.65,1.88-1.29,2.82-1.91l1.83-1.21-2.55.91-.87.31c-.94.34-1.87.67-2.8,1-2,.78-4.09,1.62-5.82,2.35l-1,.43c-.68.28-1.35.55-2,.84l-1.79,1c-2.71,1.68-5.46,3.47-8.41,5.48l-.35.24-.23.15c-2.56,1.76-5.22,3.69-8.14,5.89l-2.69,2-.51.38h0a208.56,208.56,0,0,0-59.78,74.46A194.63,194.63,0,0,1,100.17,54.82Z" transform="translate(-4.21 -1.83)"/><path class="cls-27" d="M293.57,395.42c1.26-.35,2.51-.74,3.76-1.13l1.47-.45c23.5-8.54,60-32.61,77.9-56.58,27.36-36.58,37.59-80.21,29.37-124-.36,93.59-67.14,171.51-155.66,189.09a209.34,209.34,0,0,0,42.64-6.72Z" transform="translate(-4.21 -1.83)"/><path class="cls-26" d="M120,24.35l-.24.16c-2.58,1.77-5.25,3.71-8.19,5.92l-2,1.52-.69.53-.51.39.2.28-.21-.26h0a209,209,0,0,0-64.08,83.76q2.42-4.24,5-8.35a208.56,208.56,0,0,1,59.78-74.46h0l.51-.38,2.69-2c2.91-2.2,5.57-4.12,8.14-5.89l.23-.15.35-.24c2.94-2,5.69-3.81,8.41-5.48l1.79-1c.67-.29,1.34-.57,2-.84l1-.43c1.73-.72,3.77-1.57,5.82-2.35.92-.35,1.86-.69,2.8-1l.87-.31,2.55-.91L144.48,14c-.94.62-1.88,1.26-2.82,1.91l-2.83,2-.47.33c-.75.54-1.5,1.07-2.24,1.62-1,.7-1.93,1.42-2.88,2.15l-.82.62L130.65,24c-1,.76-1.93,1.53-2.89,2.31s-1.64,1.33-2.46,2-1.91,1.62-2.85,2.44c-.78.67-1.56,1.34-2.31,2s-1.51,1.39-2.26,2.09L116.67,36c-.49.45-1,.9-1.45,1.37-.7.69-1.38,1.39-2.06,2.08L111.64,41l-1,1.07c-.86.93-1.68,1.85-2.49,2.78l-.94,1.06c-.28.31-.56.62-.83.94-1.38,1.65-2.68,3.28-3.86,4.84-.78,1-1.54,2.1-2.29,3.15,1-.71,2-1.41,3-2.11l.23-.31c1.17-1.55,2.45-3.16,3.81-4.79.26-.3.53-.6.81-.91l1-1.07c.81-.92,1.62-1.84,2.47-2.75l1-1.05L114,40.28c.67-.69,1.35-1.38,2-2.06.47-.45.95-.9,1.43-1.34l1.21-1.14c.74-.7,1.48-1.39,2.24-2.07s1.53-1.34,2.3-2c.94-.82,1.88-1.63,2.83-2.42s1.63-1.34,2.45-2,1.9-1.54,2.87-2.29l1.76-1.35L134,23c1-.72,1.91-1.43,2.87-2.13.74-.55,1.49-1.08,2.23-1.61l.46-.33,2.82-2c.93-.64,1.87-1.28,2.8-1.9s1.81-1.2,2.72-1.79l2.83-1.8.06,0,1.77-1.1a210.13,210.13,0,0,0-22,8.11l-1,.46c-1.28.56-2.58,1.12-3.85,1.71-1.1.71-2.23,1.45-3.37,2.21l-2,1.34Z" transform="translate(-4.21 -1.83)"/><path class="cls-26" d="M406.08,212.5c0,.26,0,.51,0,.76,8.22,43.77-2,87.4-29.37,124-17.92,24-54.4,48-77.9,56.58l-1.47.45c-1.25.39-2.49.78-3.76,1.13l-.51.22a209.34,209.34,0,0,1-42.64,6.72c-2.84.56-5.69,1.07-8.57,1.51a210.29,210.29,0,0,0,52.06-7.21l.54-.23h0c1.09-.31,2.16-.65,3.24-1l1.49-.46c23.69-8.61,60.44-32.85,78.49-57,28.84-38.57,38.8-84.91,28.33-131.06C406.05,208.77,406.08,210.63,406.08,212.5Z" transform="translate(-4.21 -1.83)"/><path class="cls-26" d="M212.5,18.92A192.67,192.67,0,0,0,103.2,52.71c-1,.7-2,1.4-3,2.11a194.63,194.63,0,0,0-50.84,53.47q-2.63,4.1-5,8.35A193.6,193.6,0,0,0,212.5,406.08a195.12,195.12,0,0,0,29.35-2.21c2.88-.44,5.74-.95,8.57-1.51,88.52-17.58,155.29-95.5,155.66-189.09,0-.26,0-.51,0-.76,0-1.87,0-3.73-.09-5.58a193.56,193.56,0,0,0-193.5-188Z" transform="translate(-4.21 -1.83)"/></svg>