<?xml version="1.0" encoding="utf-8"?>
<!-- Generator: Adobe Illustrator 20.0.0, SVG Export Plug-In . SVG Version: 6.00 Build 0)  -->
<svg version="1.1" id="Layer_1" xmlns="http://www.w3.org/2000/svg" xmlns:xlink="http://www.w3.org/1999/xlink" x="0px" y="0px"
	 viewBox="0 0 460 80" style="enable-background:new 0 0 460 80;" xml:space="preserve">
<style type="text/css">
	.st0{fill:#D5E9F8;}
	.st1{fill:#F4E35B;}
	.st2{fill:#C7659D;}
	.st3{fill:#8F93C9;}
	.st4{fill:#B3B0D3;}
</style>
<title>C095-Color-indicator-02</title>
<g>
	<rect x="8.8" y="8" class="st0" width="22" height="22"/>
	<rect x="152.6" y="8" class="st1" width="22" height="22"/>
	<rect x="325.6" y="8" class="st2" width="22" height="22"/>
	<rect x="40.8" y="12.3" width="1.3" height="11.4"/>
	<path d="M54.4,18.8v1.6c0,0.5,0,0.9,0.1,1.4h-0.1l-6.2-9.5h-1.5v11.4H48v-6.5c0-0.9,0-2-0.1-3.1H48l6.2,9.6h1.5V12.3h-1.2
		L54.4,18.8z"/>
	<polygon points="59,13.4 62.7,13.4 62.7,23.7 64,23.7 64,13.4 67.7,13.4 67.7,12.3 59,12.3 	"/>
	<polygon points="70.9,23.7 77.2,23.7 77.2,22.5 72.2,22.5 72.2,18.3 76.9,18.3 76.9,17.1 72.2,17.1 72.2,13.4 77.2,13.4 77.2,12.3 
		70.9,12.3 	"/>
	<path d="M88.6,15.5c0.1-0.9-0.3-1.8-1-2.4c-0.9-0.6-2-0.9-3.1-0.8h-3.1v11.4h1.3v-4.8h2.4l2.8,4.8h1.6l-3.1-5.1
		C87.8,18.2,88.7,16.9,88.6,15.5z M84.5,17.8h-1.8v-4.4h1.7c0.7-0.1,1.5,0.1,2.1,0.5c0.5,0.4,0.7,1,0.7,1.6c0,0.6-0.2,1.3-0.7,1.7
		C86,17.7,85.3,17.9,84.5,17.8L84.5,17.8z"/>
	<rect x="92.9" y="12.3" width="1.3" height="11.4"/>
	<path d="M103.6,12.1c-1.5-0.1-2.9,0.5-3.9,1.5c-1,1.2-1.5,2.7-1.4,4.3c-0.1,1.6,0.4,3.1,1.4,4.4c1,1.1,2.4,1.6,3.9,1.5
		c1.5,0.1,2.9-0.5,3.9-1.6c1-1.2,1.5-2.7,1.4-4.3c0.1-1.6-0.4-3.1-1.4-4.3C106.5,12.6,105.1,12,103.6,12.1z M106.5,21.5
		c-0.7,0.8-1.8,1.3-2.9,1.2c-1.1,0.1-2.2-0.4-2.9-1.2c-0.7-1-1.1-2.3-1-3.5c-0.1-1.2,0.3-2.5,1-3.5c1.6-1.6,4.2-1.6,5.8,0
		c0,0,0,0,0,0c0.7,1,1,2.3,1,3.5C107.6,19.2,107.2,20.4,106.5,21.5L106.5,21.5z"/>
	<path d="M118,18.6c1.4-0.4,2.3-1.7,2.3-3.1c0.1-0.9-0.3-1.8-1-2.4c-0.9-0.6-2-0.9-3.1-0.8H113v11.4h1.3v-4.8h2.4l2.8,4.8h1.6
		L118,18.6z M116.2,17.8h-1.8v-4.4h1.6c0.7-0.1,1.5,0.1,2.1,0.5c0.5,0.4,0.7,1,0.7,1.6c0,0.6-0.2,1.3-0.7,1.7
		C117.6,17.7,116.9,17.9,116.2,17.8L116.2,17.8z"/>
	<path d="M191.1,12.1c-1.5-0.1-2.9,0.5-3.9,1.5c-1,1.2-1.5,2.7-1.4,4.3c-0.1,1.6,0.4,3.1,1.4,4.4c1,1.1,2.4,1.6,3.9,1.5
		c1.5,0.1,2.9-0.5,3.9-1.6c1-1.2,1.5-2.7,1.4-4.3c0.1-1.6-0.4-3.1-1.4-4.3C194,12.6,192.6,12,191.1,12.1z M194,21.5
		c-0.7,0.8-1.8,1.3-2.9,1.2c-1.1,0.1-2.2-0.4-2.9-1.2c-0.7-1-1.1-2.3-1-3.5c-0.1-1.2,0.3-2.5,1-3.5c1.6-1.6,4.2-1.6,5.8,0
		c0,0,0,0,0,0c0.7,1,1,2.3,1,3.5C195.1,19.2,194.7,20.5,194,21.5z"/>
	<path d="M205.5,13.3c0.9,0,1.8,0.2,2.6,0.6l0.6-1.1c-1-0.5-2-0.7-3.1-0.7c-1,0-2,0.2-2.9,0.7c-0.8,0.5-1.5,1.2-1.9,2
		c-0.5,1-0.7,2-0.7,3.1c-0.1,1.6,0.4,3.1,1.4,4.4c1,1.1,2.4,1.6,3.9,1.5c1,0,2-0.1,2.9-0.4v-1.2c-0.9,0.3-1.8,0.4-2.7,0.4
		c-1.1,0.1-2.2-0.4-3-1.2c-0.8-1-1.2-2.2-1.1-3.5c-0.1-1.2,0.3-2.4,1.1-3.4C203.3,13.7,204.4,13.2,205.5,13.3z"/>
	<polygon points="212.2,23.7 218.6,23.7 218.6,22.5 213.6,22.5 213.6,18.3 218.4,18.3 218.4,17.1 213.6,17.1 213.6,13.4 218.6,13.4 
		218.6,12.3 212.2,12.3 	"/>
	<path d="M225.8,12.2l-4.5,11.5h1.3l1.4-3.6h4.6l1.4,3.6h1.4l-4.5-11.5H225.8z M224.5,18.9l1.3-3.5c0.2-0.5,0.4-1.1,0.5-1.6
		c0.2,0.7,0.4,1.2,0.5,1.6l1.3,3.5H224.5z"/>
	<path d="M242.1,18.8v1.6c0,0.5,0,0.9,0.1,1.4h-0.1l-6.1-9.5h-1.5v11.4h1.2v-6.5c0-0.9,0-2-0.1-3.1h0.1l6.2,9.6h1.5V12.3h-1.2
		L242.1,18.8z"/>
	<rect x="247.2" y="18.8" width="3.8" height="1.2"/>
	<path d="M258.9,19.6c-0.3,0.8-0.5,1.7-0.7,2.5c-0.2-0.8-0.4-1.6-0.7-2.5l-2.6-7.4h-1.4l4.1,11.4h1.3l4.1-11.4h-1.5L258.9,19.6z"/>
	<rect x="266" y="12.3" width="1.3" height="11.4"/>
	<polygon points="272,23.7 278.5,23.7 278.5,22.5 273.5,22.5 273.5,18.3 278.1,18.3 278.1,17.1 273.5,17.1 273.5,13.4 278.5,13.4 
		278.5,12.3 272,12.3 	"/>
	<path d="M294.1,12.3l-1.8,7c-0.3,0.9-0.5,1.8-0.6,2.7c-0.2-1-0.4-1.9-0.6-2.7l-2.1-7h-1.4l-2,6.9c-0.3,0.9-0.5,1.8-0.6,2.8
		c-0.1-0.8-0.3-1.7-0.5-2.7l-1.8-7.1h-1.4l3,11.4h1.3l2.2-7.6c0.2-0.8,0.4-1.6,0.5-2.3c0,0.1,0.1,0.4,0.2,0.9s0.3,0.9,0.4,1.3
		l2.3,7.6h1.3l3.1-11.4h-1.5V12.3z"/>
	<path d="M363,19.6c-0.3,0.8-0.5,1.7-0.7,2.5c-0.2-0.8-0.4-1.6-0.7-2.5l-2.6-7.4h-1.5l4.1,11.4h1.3l4.1-11.4h-1.4L363,19.6z"/>
	<polygon points="370.1,23.7 376.5,23.7 376.5,22.5 371.5,22.5 371.5,18.3 376.2,18.3 376.2,17.1 371.5,17.1 371.5,13.4 376.5,13.4 
		376.5,12.3 370.1,12.3 	"/>
	<path d="M388,15.5c0.1-0.9-0.3-1.8-1-2.4c-0.9-0.6-2-0.9-3.1-0.8h-3.1v11.4h1.2v-4.8h2.4l2.8,4.8h1.6l-3.1-5.1
		C387.1,18.2,388,16.9,388,15.5z M383.9,17.8h-1.8v-4.4h1.7c0.7-0.1,1.5,0.1,2.1,0.5c0.5,0.4,0.7,1,0.7,1.6c0,0.6-0.2,1.3-0.7,1.7
		C385.3,17.7,384.6,17.9,383.9,17.8L383.9,17.8z"/>
	<path d="M395.1,12.2l-4.5,11.5h1.4l1.4-3.6h4.6l1.4,3.6h1.4l-4.5-11.5H395.1z M393.9,18.9l1.3-3.5c0.2-0.5,0.4-1.1,0.5-1.6
		c0.2,0.7,0.4,1.2,0.5,1.6l1.3,3.5H393.9z"/>
	<path d="M411.5,18.8v1.6c0,0.7,0.1,1.2,0.1,1.4h-0.1l-6.2-9.5h-1.5v11.4h1.2v-6.5c0-0.9,0-2-0.1-3.1h0.1l6.2,9.6h1.5V12.3h-1.2
		V18.8z"/>
	<path d="M421,12.3h-3.5v11.4h3.2c1.6,0.1,3.2-0.4,4.4-1.5c1.1-1.2,1.6-2.7,1.5-4.3c0.2-2.9-1.9-5.4-4.7-5.6
		C421.6,12.3,421.3,12.3,421,12.3L421,12.3z M424,21.4c-1,0.9-2.3,1.3-3.6,1.2h-1.6v-9.1h1.9c1.2-0.1,2.4,0.3,3.3,1.1
		c0.8,1,1.2,2.2,1.1,3.4C425.3,19.2,424.9,20.5,424,21.4z"/>
	<path d="M433.8,12.2l-4.5,11.5h1.3l1.4-3.6h4.6l1.4,3.6h1.4l-4.5-11.5H433.8z M432.5,18.9l1.3-3.5c0.2-0.5,0.4-1.1,0.5-1.6
		c0.2,0.7,0.4,1.2,0.5,1.6l1.3,3.5H432.5z"/>
	<polygon points="449.9,12.3 449.9,17.1 443.9,17.1 443.9,12.3 442.5,12.3 442.5,23.7 443.9,23.7 443.9,18.3 449.9,18.3 449.9,23.7 
		451.2,23.7 451.2,12.3 	"/>
	<g>
		<rect x="118.3" y="50" class="st3" width="22" height="22"/>
		<rect x="261.8" y="50" class="st4" width="22" height="22"/>
		<path d="M154.1,59.4c-0.7-0.3-1.2-0.5-1.6-0.7c-0.3-0.1-0.6-0.4-0.7-0.7c-0.1-0.3-0.2-0.7-0.2-1c0-0.5,0.2-1,0.6-1.3
			c0.5-0.3,1-0.5,1.6-0.5c1,0,1.9,0.2,2.8,0.6l0.4-1.2c-1-0.4-2-0.6-3.1-0.6c-0.9,0-1.9,0.2-2.6,0.8c-0.7,0.5-1.1,1.3-1,2.1
			c0,0.7,0.2,1.5,0.7,2c0.7,0.6,1.4,1.1,2.3,1.4c0.6,0.2,1.1,0.4,1.7,0.7c0.3,0.2,0.6,0.4,0.8,0.7c0.2,0.3,0.2,0.7,0.2,1
			c0,0.6-0.2,1.1-0.7,1.4c-0.6,0.4-1.3,0.5-2,0.5c-0.5,0-1.1-0.1-1.6-0.2c-0.5-0.1-1-0.3-1.5-0.5v1.3c1,0.4,2,0.5,3.1,0.5
			c1.1,0,2.1-0.3,3-0.8c0.8-0.5,1.2-1.5,1.1-2.4c0-0.7-0.2-1.4-0.7-1.9C155.9,60.1,155,59.7,154.1,59.4z"/>
		<path d="M168.5,61.7c0,0.8-0.2,1.6-0.8,2.2c-0.6,0.5-1.4,0.8-2.2,0.8c-0.8,0-1.7-0.2-2.3-0.8c-0.6-0.6-0.8-1.4-0.8-2.2v-7.5h-1.3
			v7.4c0,1.1,0.4,2.2,1.1,3.1c0.9,0.8,2,1.2,3.2,1.1c1.2,0.1,2.3-0.3,3.2-1.1c0.8-0.8,1.3-1.9,1.2-3.1v-7.4h-1.3L168.5,61.7
			L168.5,61.7z"/>
		<rect x="174.5" y="54.3" width="1.3" height="11.4"/>
		<polygon points="179.1,55.4 182.7,55.4 182.7,65.7 184.1,65.7 184.1,55.4 187.7,55.4 187.7,54.3 179.1,54.3 		"/>
		<polygon points="197.4,55.4 197.4,54.3 191,54.3 191,65.7 197.4,65.7 197.4,64.5 192.3,64.5 192.3,60.3 197.1,60.3 197.1,59.1 
			192.3,59.1 192.3,55.4 		"/>
		<path d="M298.5,59.4c-0.7-0.3-1.2-0.5-1.6-0.7c-0.3-0.2-0.5-0.4-0.7-0.7c-0.1-0.3-0.2-0.7-0.2-1c0-0.5,0.2-1,0.6-1.3
			c0.5-0.3,1-0.5,1.6-0.5c1,0,1.9,0.2,2.8,0.6l0.4-1.2c-1-0.4-2-0.6-3.1-0.6c-0.9,0-1.9,0.2-2.6,0.8c-0.7,0.5-1.1,1.3-1,2.1
			c0,0.7,0.2,1.5,0.7,2c0.7,0.6,1.4,1.1,2.3,1.4c0.6,0.2,1.1,0.4,1.7,0.7c0.3,0.2,0.6,0.4,0.8,0.7c0.2,0.3,0.2,0.7,0.2,1
			c0,0.6-0.2,1.1-0.7,1.4c-0.6,0.4-1.3,0.5-2,0.5c-0.5,0-1.1-0.1-1.6-0.2c-0.5-0.1-1-0.3-1.5-0.5v1.3c1,0.4,2,0.5,3.1,0.5
			c1.1,0,2.1-0.3,3-0.8c0.7-0.6,1.1-1.5,1.1-2.4c0-0.7-0.2-1.4-0.7-1.9C300.3,60.1,299.4,59.7,298.5,59.4z"/>
		<path d="M312.8,61.7c0,0.8-0.2,1.6-0.8,2.2c-0.6,0.5-1.4,0.8-2.2,0.8c-0.8,0-1.7-0.2-2.3-0.8c-0.6-0.6-0.8-1.4-0.8-2.2v-7.5h-1.3
			v7.4c0,1.1,0.4,2.2,1.1,3.1c0.9,0.8,2,1.2,3.2,1.1c2.2,0.2,4.2-1.4,4.4-3.6c0-0.2,0-0.4,0-0.6v-7.4h-1.3L312.8,61.7L312.8,61.7z"
			/>
		<rect x="318.8" y="54.3" width="1.3" height="11.4"/>
		<polygon points="323.4,55.4 327,55.4 327,65.7 328.4,65.7 328.4,55.4 332,55.4 332,54.3 323.4,54.3 		"/>
		<polygon points="341.7,55.4 341.7,54.3 335.3,54.3 335.3,65.7 341.7,65.7 341.7,64.5 336.6,64.5 336.6,60.3 341.4,60.3 
			341.4,59.1 336.6,59.1 336.6,55.4 		"/>
	</g>
</g>
</svg>
