<?xml version="1.0" encoding="utf-8"?>
<!-- Generator: Adobe Illustrator 19.2.0, SVG Export Plug-In . SVG Version: 6.00 Build 0)  -->
<svg version="1.1" id="Layer_1" xmlns="http://www.w3.org/2000/svg" xmlns:xlink="http://www.w3.org/1999/xlink" x="0px" y="0px"
	 viewBox="0 0 31.5 40" style="enable-background:new 0 0 31.5 40;" xml:space="preserve">
<style type="text/css">
	.st0{fill:#073D5E;}
</style>
<g>
	<path class="st0" d="M17.8,9.1c1.6,0,2.9-1.3,2.9-2.9c0-1.6-1.3-2.9-2.9-2.9c-1.6,0-2.9,1.3-2.9,2.9C14.9,7.8,16.2,9.1,17.8,9.1z"
		/>
	<path class="st0" d="M25.3,19.2c-0.1-0.1-0.2-0.1-0.3-0.2c-1.6-1.1-3.2-2-4.9-3.1c-0.4-2-1.1-4-2.3-5.8c0,0-0.1-0.1-0.1-0.1
		c-0.2-0.2-0.4-0.4-0.6-0.5l-1-0.3c-0.2-0.1-0.5-0.1-0.7,0l-1.1,0.3c-0.8,0.2-1.5,0.7-2,1.3l-0.7,0.9c0.3-0.7,0.5-1.3,0.8-2
		c0.2-0.6,0-1.3-0.6-1.6C11.4,8.1,11,8,10.7,8c-0.3,0-0.5,0.2-0.7,0.4c-1,2.1-1.9,4.2-2.9,6.3C7,15,7,15.3,7.2,15.5
		c0.6,1,1.5,1.2,2.4,0.5c0,0,0.4-0.1,0.4-0.2c-0.2,2.9-0.8,4.9-0.2,6.3L5.7,36.4c-0.1,0.4,0,0.9,0.4,1.2l0.4,0.3
		c0.5,0.4,1.3,0.1,1.5-0.4l5.1-11.2l1.9,2.1c0.2,0.2,0.3,0.4,0.3,0.6l1,4.3l-2.2,4.3c-0.2,0.3,0,0.8,0.4,0.8c0.2,0,0.5-0.1,0.6-0.3
		l1.8-2.8l0.6,1.7c0.3,0.9,1.2,1.3,2,1.1c0.9-0.2,1.5-1.2,1.3-2.1l-1.4-5.8l5.2-9.1l0,0c0.5,0.2,0.9-0.1,1.1-0.5l0,0
		C26,20.1,25.8,19.5,25.3,19.2z M19.1,28.2c-0.4-1-0.8-1.9-1.3-2.8c-0.8-1.7-1.7-3.4-2.6-5.1c0.6-1.2,1.3-2.3,1.9-3.5l0.8,1.3
		l0.2,0.3c0.2,0.4,0.6,0.6,0.9,0.8l4.4,1.7L19.1,28.2z"/>
</g>
</svg>
