<?xml version="1.0" encoding="utf-8"?>
<!-- Generator: Adobe Illustrator 21.0.0, SVG Export Plug-In . SVG Version: 6.00 Build 0)  -->
<svg version="1.1" id="Layer_1" xmlns="http://www.w3.org/2000/svg" xmlns:xlink="http://www.w3.org/1999/xlink" x="0px" y="0px"
	 viewBox="0 0 400 233" style="enable-background:new 0 0 400 233;" xml:space="preserve">
<style type="text/css">
	.st0{fill:#A6AABB;}
</style>
<g>
	<path class="st0" d="M226.4,171.9l31-76.5c3.1-7.9-0.6-17.2-8.7-20.3c-7.9-3.1-17.2,0.6-20.3,8.7l-31,76.5
		c-13.5,0.8-25.9,9.3-31.2,22.5c-7.3,18.3,1.4,39.7,20,47l0,0c18.3,7.3,39.7-1.4,47-20C238.8,196.4,235.5,181.8,226.4,171.9z"/>
	<path class="st0" d="M200,0.5C90,0.5,0.5,90,0.5,200v14.1h58.2V186H29.2c3.1-36.6,17.4-69.8,40-96.5L90,110.3l20-20L89.1,69.5
		c26.5-22.5,59.9-37.1,96.8-40.2v30.1h28.1V29.2c36.9,3.1,70.3,17.7,97.1,40.2l-21.4,21.4l20,20l21.1-21.1
		c22.2,26.4,36.9,59.7,40,96.2h-29.5v28.1h58.2V200C399.5,90,310,0.5,200,0.5z"/>
</g>
</svg>
