<?xml version="1.0" encoding="utf-8"?><svg width="130" height="126" viewBox="0 0 130 126" xmlns="http://www.w3.org/2000/svg" xmlns:xlink="http://www.w3.org/1999/xlink"><svg id="L1VzZXJzL3N0dW1hci9EZXZlbG9wbWVudC9wbGF0Zm9ybS9mZS90aGVtZXMvY29zdGEvaW1hZ2VzL1NWRy9mb290ZXItZ29vZ2xlLXBsdXMuc3Zn" viewBox="-10 -10 40 38" width="40" height="38" x="49.9" xmlns="http://www.w3.org/2000/svg"><style>.ast0{fill:#fff}.ast1{fill:none}</style><title>Artboard 1 copy 3</title><path class="ast0" d="M6.4 8v2.5h3.4C9.5 12.1 8 13.2 6.4 13c-2.1 0-3.7-1.7-3.7-3.7 0-2.1 1.6-3.7 3.7-3.8.9 0 1.8.3 2.5.9.5-.5.5-.6 1.8-1.8-2.6-2.4-6.6-2.2-9 .4s-2.2 6.6.4 9c1.2 1.1 2.7 1.7 4.3 1.7 5.2 0 6.5-4.6 6.1-7.6L6.4 8zm11.4.1V5.9h-1.6v2.2H14v1.6h2.3V12h1.6V9.7H20V8.1h-2.2z"/><path class="ast1" d="M0 0h20v18H0z"/></svg><svg id="L1VzZXJzL3N0dW1hci9EZXZlbG9wbWVudC9wbGF0Zm9ybS9mZS90aGVtZXMvY29zdGEvaW1hZ2VzL1NWRy9mb290ZXItZmFjZWJvb2suc3Zn" viewBox="-10 -10 40 38" width="40" height="38" y="49.9" xmlns="http://www.w3.org/2000/svg"><style>.bst0{fill:#fff}.bst1{fill:none}</style><title>Artboard 1 copy 2</title><path class="bst0" d="M14 9h-2.5v9H7.8V9H6V5.8h1.8v-2C7.6 1.8 9 .1 11 0h3.3v3.1h-2c-.4 0-.8.3-.8.7v2h2.8L14 9z"/><path class="bst1" d="M0 0h20v18H0z"/></svg><svg id="L1VzZXJzL3N0dW1hci9EZXZlbG9wbWVudC9wbGF0Zm9ybS9mZS90aGVtZXMvY29zdGEvaW1hZ2VzL1NWRy9mb290ZXItaW5zdGFncmFtLnN2Zw==" viewBox="-10 -10 40 38" width="40" height="38" x="40" y="49.9" xmlns="http://www.w3.org/2000/svg"><style>.cst0{fill:#fff}.cst1{fill:none}</style><title>Artboard 1</title><path id="cInstagram_Icon" class="cst0" d="M17 9v2.9c0 1.1-.4 2.1-1.1 2.9-.8.8-1.9 1.2-3 1.2H7.1C6 16 5 15.6 4.2 14.9c-.8-.8-1.2-1.9-1.2-3V9 6.1C3 5 3.4 4 4.2 3.2 5 2.4 6 2 7.1 2h5.8c1.1 0 2.1.4 2.9 1.1.8.8 1.2 1.9 1.2 3V9zm-6.3-5.8H7.5c-.3 0-.6 0-.9.1-.2 0-.4.1-.7.2-.6.3-1.1.8-1.4 1.4 0 .2-.1.4-.1.6-.1.3-.1.6-.1 1v5.2c0 .3 0 .6.1.9 0 .2.1.4.2.6.2.6.7 1.1 1.3 1.3.2.1.4.1.7.2.3.1.6.1.9.1H12.6c.3 0 .6 0 .9-.1.2 0 .4-.1.6-.2.3-.1.6-.3.8-.5.2-.2.4-.5.5-.8.1-.2.1-.4.2-.6.1-.3.1-.6.1-.9v-.9-1-.7-.7-1-.9c0-.3 0-.6-.1-.9 0-.2-.1-.4-.2-.7-.1-.3-.3-.6-.5-.8-.2-.2-.5-.4-.8-.5-.2-.1-.4-.1-.6-.2-.3-.1-.6-.1-.9-.1h-.9l-1-.1zm1.9 3.2c.7.7 1 1.6 1 2.5 0 2-1.6 3.6-3.6 3.6C8 12.6 6.4 11 6.4 9S8 5.4 10 5.4c1 0 1.9.4 2.6 1zm-.9 4.2c.9-.9.9-2.4 0-3.3-.9-.9-2.4-.9-3.3 0-.9.9-.9 2.4 0 3.3.9 1 2.3 1 3.3 0zm2.6-6c.3.3.3.9 0 1.2-.3.3-.9.3-1.2 0-.3-.3-.3-.9 0-1.2.2-.2.4-.2.6-.2.3 0 .5.1.6.2z"/><path class="cst1" d="M0 0h20v18H0z"/></svg><svg id="L1VzZXJzL3N0dW1hci9EZXZlbG9wbWVudC9wbGF0Zm9ybS9mZS90aGVtZXMvY29zdGEvaW1hZ2VzL1NWRy9mb290ZXItcGludGVyZXN0LnN2Zw==" viewBox="-10 -10 40 38" width="40" height="38" x="89.9" xmlns="http://www.w3.org/2000/svg"><style>.dst0{fill:#fff}.dst1{fill:none}</style><title>Artboard 1 copy 4</title><path class="dst0" d="M11.2 13c-.9 0-1.8-.5-2.2-1.3 0 0-.5 2.4-.6 2.8-.4 1.2-.9 2.4-1.7 3.4 0 .1-.1.1-.2 0l-.1-.1c-.2-1.3-.2-2.6 0-3.9l1.2-5.6c-.1-.5-.2-1.1-.2-1.6 0-1.5.8-2.7 1.7-2.7s1.2.7 1.2 1.6c-.1 1.2-.4 2.4-.7 3.6-.2.8.2 1.7 1.1 1.9.1 0 .3.1.4.1 1.8 0 2.9-2.5 2.9-5.5.2-2-1.3-3.8-3.3-4h-.6c-2.8 0-4.5 2.3-4.5 5 0 .7.2 1.4.6 2 .2.1.2.4.1.6l-.2.8c-.1.3-.2.4-.5.3-1.2-.6-1.8-2.2-1.8-3.9C3.8 2.9 6.6 0 10.2 0h.2c3.2 0 5.8 2.6 5.8 5.8v.1c0 4.1-2 7.1-5 7.1z"/><path class="dst1" d="M0 0h20v18H0z"/></svg><svg id="L1VzZXJzL3N0dW1hci9EZXZlbG9wbWVudC9wbGF0Zm9ybS9mZS90aGVtZXMvY29zdGEvaW1hZ2VzL1NWRy9mb290ZXItdHdpdHRlci5zdmc=" viewBox="-10 -10 40 38" width="40" height="38" x="89.9" y="38" xmlns="http://www.w3.org/2000/svg"><style>.est0{fill:#fff}.est1{fill:none}</style><title>Artboard 1 copy</title><path class="est0" d="M15.7 6.5v.4c0 4.8-3.9 8.6-8.6 8.6-1.6 0-3.3-.5-4.6-1.4h.7c1.4 0 2.7-.5 3.8-1.3-1.3 0-2.4-.9-2.8-2.1.2 0 .4.1.6.1.3 0 .5 0 .8-.1C4 10.4 3 9.2 3 7.8c.4.2.9.3 1.4.3a3 3 0 0 1-.9-4C5 6 7.3 7.1 9.7 7.2c-.4-1.6.5-3.2 2.1-3.7 1.1-.3 2.3.1 3.1.9.7-.1 1.3-.4 1.9-.7-.2.7-.7 1.3-1.3 1.7.6-.1 1.2-.2 1.7-.5-.4.6-.9 1.2-1.5 1.6z"/><path class="est1" d="M0 0h20v18H0z"/></svg><svg id="L1VzZXJzL3N0dW1hci9EZXZlbG9wbWVudC9wbGF0Zm9ybS9mZS90aGVtZXMvY29zdGEvaW1hZ2VzL1NWRy9mb290ZXIteW91dHViZS5zdmc=" viewBox="-10 -10 40 38" width="40" height="38" y="87.9" xmlns="http://www.w3.org/2000/svg"><style>.fst0{fill:#fff}.fst1{fill:none}</style><title>Artboard 1 copy 5</title><path class="fst0" d="M8.2 0L6.9 4.1V7H5.7V4.2L4.3 0h1.2l.8 2.8h.1L7 0h1.2zm6 1.8v3.9c-.1.1-.2.2-.4.3-.1.1-.2.1-.3.1-.1 0-.2-.1-.2-.1-.1-.1-.1-.2-.1-.3V1.8h-1v4.3c0 .2 0 .5.2.7.2.2.4.2.6.2.2 0 .4-.1.6-.2.2-.1.4-.3.6-.5V7h1V1.8h-1zM11.4 3v2.7c0 .4-.1.7-.4 1-.3.2-.8.4-1.2.3-.4.1-.8-.1-1-.3-.3-.3-.5-.7-.5-1V3c0-.4.1-.8.4-1 .3-.2.7-.3 1.1-.3.4 0 .8.1 1.1.4.4.2.5.6.5.9zm-1.1 0c0-.1-.1-.2-.1-.3-.1 0-.2-.1-.4-.1-.1 0-.2 0-.3.1 0 .1-.1.2-.1.3v2.8c0 .1 0 .2.1.3.1.1.2.1.3.1.1 0 .2 0 .4-.1.1-.1.1-.2.1-.3V3zm8.9 9v2.7c0 1.8-1.5 3.3-3.4 3.3H4.2C2.3 18 .8 16.5.8 14.7V12c0-1.9 1.5-3.4 3.4-3.4h11.7c1.8 0 3.3 1.5 3.3 3.4zM6.6 9.8H3.4v.9h1.1v5.4h1v-5.4h1.1v-.9zm3.1 1.6h-.9V15c-.1.1-.2.2-.3.2-.1.1-.2.1-.3.1-.1 0-.1 0-.2-.1v-3.9H7v3.9c0 .2 0 .4.2.6.1.1.3.2.5.2s.4 0 .6-.1c.2-.1.4-.3.5-.4v.5h.9v-4.6zm3.4 1.1c0-.3-.1-.6-.2-.9-.2-.2-.4-.3-.7-.3-.1 0-.3 0-.4.1-.1.1-.3.2-.4.3v-2h-.9V16h.9v-.4c.1.1.2.2.4.3.2.1.3.1.5.1s.5-.1.6-.3c.2-.2.2-.5.2-.8v-2.4zm3.2.2c0-.4-.1-.7-.4-1-.3-.3-.6-.4-1-.4s-.7.1-1 .4c-.3.3-.4.6-.4 1v2.1c0 .4.1.8.4 1.1.3.3.6.4 1 .4s.7-.1 1-.4c.3-.3.4-.7.4-1.1v-.2h-1v.2c0 .2 0 .4-.1.5-.1.1-.2.1-.3.1-.1 0-.2 0-.3-.1-.1-.2-.1-.3-.1-.5v-.9h1.8v-1.2zm-1.1-.5c-.2-.2-.4-.2-.6 0-.1.1-.1.3-.1.4v.5h.8v-.5c0-.1 0-.2-.1-.4zm-3.2 0c-.1-.1-.2-.1-.3-.1h-.2c-.1 0-.1.1-.2.1v2.9l.2.2h.2c.1 0 .2 0 .2-.1s.1-.2.1-.2v-2.4c.1-.1.1-.3 0-.4z"/><path class="fst1" d="M0 0h20v18H0z"/></svg><svg viewBox="-10 -10 49.9 49.9" width="49.9" height="49.9" id="L1VzZXJzL3N0dW1hci9EZXZlbG9wbWVudC9wbGF0Zm9ybS9mZS90aGVtZXMvY29zdGEvaW1hZ2VzL1NWRy9nbG9iZS13aGl0ZS5zdmc=" xmlns="http://www.w3.org/2000/svg"><defs><style>.gcls-1{fill:#fff;stroke-miterlimit:10}</style></defs><title>globe</title><g id="gLayer_2" data-name="Layer 2"><path class="gcls-1" d="M29.9 15A15 15 0 0 0 15 0 15 15 0 0 0 0 15v.7a14.78 14.78 0 0 0 4.39 9.92A15 15 0 0 0 15 29.9a14.81 14.81 0 0 0 10.56-4.39 15.14 15.14 0 0 0 4.34-9.91V15zM13.65 1.3a28.82 28.82 0 0 0-1.94 3.24 19.67 19.67 0 0 0-1.2 2.69 26.24 26.24 0 0 1-3.34-1.1 9.83 9.83 0 0 1 6.48-4.83zM9 14.9H4.78a16.81 16.81 0 0 1 1.8-7.72 26.68 26.68 0 0 0 3.54 1.2A20.32 20.32 0 0 0 9 14.9zm1.15 6.63a21 21 0 0 0-3.54 1.2 16.71 16.71 0 0 1-1.78-6.63H9a20.2 20.2 0 0 0 1.12 5.43zM8.07 3a16 16 0 0 0-1.2 1.4c-.3.4-.55.8-.8 1.2l-.85-.4A13.51 13.51 0 0 1 8.07 3zM4.39 6.13h.15c.3.15.6.3.95.45A18.49 18.49 0 0 0 3.6 14.8H1.2a13.59 13.59 0 0 1 3.19-8.67zm0 17.64a13.91 13.91 0 0 1-3.14-7.67h2.39a18.36 18.36 0 0 0 1.84 7.13c-.35.15-.65.3-.95.45-.04.04-.09.04-.14.09zm.85.9c.25-.15.55-.25.85-.4.25.4.5.8.8 1.2s.8.95 1.2 1.4a13.51 13.51 0 0 1-2.86-2.2zm1.94-.9a26.24 26.24 0 0 1 3.34-1.1 28.49 28.49 0 0 0 1.2 2.69 28.82 28.82 0 0 0 1.94 3.24 9.83 9.83 0 0 1-6.48-4.83zm7.18 3.69c-.45-.7-1-1.59-1.59-2.69-.35-.7-.75-1.5-1.1-2.34a22.52 22.52 0 0 1 2.64-.3v5.33zm0-6.53a20.93 20.93 0 0 0-3.09.35 20.77 20.77 0 0 1-1.1-5.18h4.13v4.83zm0-6h-4.19a20.42 20.42 0 0 1 1.1-6.28 20.2 20.2 0 0 0 3.08.35zm0-7.13a22.52 22.52 0 0 1-2.64-.3 21 21 0 0 1 1.1-2.34 20.21 20.21 0 0 1 1.58-2.72v5.33zm10.31-2.57c-.25.15-.55.25-.85.4-.25-.4-.5-.8-.8-1.2s-.8-.95-1.2-1.4a13.51 13.51 0 0 1 2.85 2.2zm-3.74 9.67a20.32 20.32 0 0 0-1.15-6.53 21 21 0 0 0 3.54-1.2 17.46 17.46 0 0 1 1.79 7.72zm4.14 1.2a17.34 17.34 0 0 1-1.74 6.63 26.68 26.68 0 0 0-3.54-1.2A20.57 20.57 0 0 0 20.88 16h4.19zm-2.34-10a21.84 21.84 0 0 1-3.34 1.1 28.49 28.49 0 0 0-1.2-2.69 28.82 28.82 0 0 0-1.94-3.21 9.83 9.83 0 0 1 6.47 4.83zm-7.18-3.66c.45.7 1 1.59 1.59 2.69.35.7.75 1.5 1.1 2.34a22.52 22.52 0 0 1-2.64.3V2.44zm0 6.53a20.93 20.93 0 0 0 3.09-.35 19 19 0 0 1 1.1 6.28h-4.19zm0 7.13h4.14a20.3 20.3 0 0 1-1.1 5.18 20.2 20.2 0 0 0-3.09-.35V16.1zm0 6a22.52 22.52 0 0 1 2.64.3 21 21 0 0 1-1.1 2.34 20.21 20.21 0 0 1-1.59 2.69v-5.3zm.7 6.48a28.82 28.82 0 0 0 1.94-3.24 19.67 19.67 0 0 0 1.2-2.69 26.24 26.24 0 0 1 3.34 1.1 9.83 9.83 0 0 1-6.48 4.85zm5.58-1.74a16 16 0 0 0 1.2-1.4c.3-.4.55-.8.8-1.2l.85.4a13.51 13.51 0 0 1-2.85 2.22zm3.69-3.09h-.15c-.3-.15-.6-.3-.95-.45a18.83 18.83 0 0 0 1.84-7.13h2.39a14.06 14.06 0 0 1-3.14 7.6zm.8-8.87a18.14 18.14 0 0 0-1.89-8.22c.35-.15.65-.3.95-.45h.15A13.62 13.62 0 0 1 28.7 15h-2.39z" id="gLayer_1-2" data-name="Layer 1"/></g></svg></svg>