<svg id="Layer_1" data-name="Layer 1" xmlns="http://www.w3.org/2000/svg" viewBox="0 0 25 19"><defs><style>.cls-1{fill:#a6aabb;}</style></defs><title>Weather-Icon</title><path class="cls-1" d="M19.31,12.94a.56.56,0,0,1-.24-.08.43.43,0,0,1-.08-.59,9.48,9.48,0,0,0,.52-.83,4.3,4.3,0,0,0,.12-3.29,4.05,4.05,0,0,0-2.26-2.38,4.32,4.32,0,0,0-4.84.91.42.42,0,0,1-.59-.59A5.08,5.08,0,0,1,17.72,5a5.28,5.28,0,0,1,2.7,2.85,5,5,0,0,1-.12,3.92,4.11,4.11,0,0,1-.59,1A.7.7,0,0,1,19.31,12.94Z"/><path class="cls-1" d="M18.51,3.59a.24.24,0,0,1-.16,0,.41.41,0,0,1-.2-.56L19.23.65a.41.41,0,0,1,.56-.2A.41.41,0,0,1,20,1L18.91,3.35A.53.53,0,0,1,18.51,3.59Z"/><path class="cls-1" d="M22.24,7.55a.48.48,0,0,1-.4-.28.41.41,0,0,1,.24-.52l2.38-.91a.4.4,0,1,1,.28.75l-2.38.91S22.32,7.55,22.24,7.55Z"/><path class="cls-1" d="M13.08,3.39a.48.48,0,0,1-.4-.28L11.77.73A.41.41,0,0,1,12,.22a.41.41,0,0,1,.52.24l.91,2.38a.41.41,0,0,1-.24.52A.15.15,0,0,1,13.08,3.39Z"/><path class="cls-1" d="M19,15.24a3.56,3.56,0,0,1-3.57,3.57H3.57a3.57,3.57,0,0,1,0-7.14h.2a5.88,5.88,0,0,1,11.49,0h.2A3.56,3.56,0,0,1,19,15.24Z"/></svg>