<?xml version="1.0" encoding="utf-8"?>
<!-- Generator: Adobe Illustrator 20.0.0, SVG Export Plug-In . SVG Version: 6.00 Build 0)  -->
<svg version="1.1" id="Layer_1" xmlns="http://www.w3.org/2000/svg" xmlns:xlink="http://www.w3.org/1999/xlink" x="0px" y="0px"
	 viewBox="0 0 60 60" style="enable-background:new 0 0 60 60;" xml:space="preserve">
<style type="text/css">
	.st0{fill:#20285B;stroke:#20285B;stroke-width:0.6721;}
</style>
<g>
	<path class="st0" d="M36.9,37.3c-0.5,4.2-4.1,7.5-8.4,7.5c-4.7,0-8.5-3.8-8.5-8.5c0-2.6,1.2-5,3.1-6.5v-3.5c-3.6,1.9-6,5.7-6,10.1
		c0,6.3,5.1,11.4,11.4,11.4c4.8,0,8.9-3,10.6-7.1L36.9,37.3z"/>
	<path class="st0" d="M47.6,39.4l-2.4,1.6l-6.1-10.2L27.5,31v-2.4h6.2V26h-6.2v-6c1.4-0.5,2.5-1.9,2.5-3.6c0-2.1-1.7-3.8-3.8-3.8
		c-2.1,0-3.8,1.7-3.8,3.8c0,1.7,1.1,3.1,2.6,3.6v13.5l12.8,0l6.6,11.1l4.6-3L47.6,39.4z"/>
</g>
</svg>
