<?xml version="1.0" encoding="utf-8"?>
<!-- Generator: Adobe Illustrator 21.0.0, SVG Export Plug-In . SVG Version: 6.00 Build 0)  -->
<svg version="1.1" id="Layer_1" xmlns="http://www.w3.org/2000/svg" xmlns:xlink="http://www.w3.org/1999/xlink" x="0px" y="0px"
	 viewBox="0 0 400 363" style="enable-background:new 0 0 400 363;" xml:space="preserve">
<style type="text/css">
	.st0{fill:#A6AABB;}
</style>
<g>
	<path class="st0" d="M347.9,318.4c-12.4,7.9-28.1,7.9-40.5,0c-26.6-17.2-60.7-17.2-87.3,0c-12.4,7.9-28.1,7.9-40.5,0
		c-26.6-17.2-60.7-17.2-87.3,0c-12.4,7.9-28.1,7.9-40.5,0C36.1,307.5,19.2,304.5,0.5,306v39c9.4-3,20.2,0,28.1,4.5
		c26.6,17.2,60.7,17.2,87.3,0c12.4-7.9,28.1-7.9,40.5,0c26.6,17.2,60.7,17.2,87.3,0c12.4-7.9,28.1-7.9,40.5,0
		c26.6,17.2,60.7,17.2,87.3,0c7.9-6.3,18.7-7.9,28.1-4.5v-39C380.5,304.2,363.6,309,347.9,318.4z"/>
	<path class="st0" d="M179.6,291.8c12.4,7.9,28.1,7.9,40.5,0c24.8-17.2,57.7-18.7,84-1.5L340,182.7l-140.1-57.7L59.7,182.7
		l35.9,107.5C121.9,274.6,154.8,274.6,179.6,291.8z"/>
	<path class="st0" d="M299.5,39.6v96.7l-99.7-42l-99.7,42V39.6h79.4v-39h40.5v39H299.5z"/>
</g>
</svg>
