<?xml version="1.0" standalone="no"?>
<!DOCTYPE svg PUBLIC "-//W3C//DTD SVG 20010904//EN"
 "http://www.w3.org/TR/2001/REC-SVG-20010904/DTD/svg10.dtd">
<svg version="1.0" xmlns="http://www.w3.org/2000/svg"
 width="32px" height="25px" viewBox="0 0 510.000000 362.000000"
 preserveAspectRatio="xMidYMid meet">
<metadata>
Created by potrace 1.16, written by Peter Selinger 2001-2019
</metadata>
<g transform="translate(0.000000,362.000000) scale(0.100000,-0.100000)"
fill="#988642" stroke="none">
<path d="M2455 3599 c-209 -22 -414 -82 -610 -180 -493 -245 -836 -690 -952
-1238 -25 -115 -27 -146 -28 -351 0 -196 3 -240 23 -338 163 -804 825 -1390
1628 -1441 657 -41 1257 257 1617 804 200 303 299 666 284 1040 -7 162 -22
264 -62 413 -131 479 -480 898 -930 1117 -303 148 -641 208 -970 174z m396
-123 c350 -47 676 -202 928 -442 256 -243 416 -532 493 -884 19 -91 22 -134
22 -325 0 -190 -3 -234 -22 -322 -34 -156 -76 -276 -147 -418 -244 -489 -700
-820 -1250 -906 -103 -16 -367 -16 -470 0 -706 112 -1241 615 -1396 1313 -33
147 -38 445 -11 605 73 425 304 802 652 1065 120 90 332 200 479 248 92 29
264 66 346 73 100 9 279 5 376 -7z"/>
<path d="M2430 3105 c-196 -33 -404 -120 -556 -233 -563 -417 -697 -1191 -307
-1774 63 -95 197 -234 294 -308 435 -327 1038 -346 1489 -45 297 197 494 491
561 837 24 124 26 347 4 474 -30 168 -102 346 -202 498 -62 93 -248 280 -343
343 -159 106 -340 178 -522 208 -111 18 -313 18 -418 0z m503 -138 c196 -52
393 -166 538 -310 170 -171 287 -397 330 -637 17 -95 17 -292 0 -390 -95 -542
-557 -952 -1101 -977 -341 -16 -632 94 -879 332 -396 381 -473 980 -187 1450
168 279 446 475 766 544 141 31 394 25 533 -12z"/>
<path d="M111 3548 c-57 -31 -58 -35 -81 -428 -28 -483 -29 -613 -6 -665 9
-22 49 -73 89 -113 l72 -73 -2 -707 c-1 -439 -7 -832 -16 -1037 -9 -190 -11
-331 -6 -333 5 -2 9 -10 9 -17 0 -23 60 -85 104 -107 78 -40 194 -22 259 40
61 58 61 52 56 452 -2 201 -4 669 -4 1040 l0 675 67 63 c92 88 110 133 116
287 2 66 -3 273 -12 460 -9 187 -16 355 -16 374 0 24 -9 42 -34 67 -29 29 -41
34 -79 34 -55 0 -101 -34 -112 -82 l-7 -33 -13 30 c-22 50 -57 76 -105 77 -52
1 -91 -26 -106 -73 l-11 -33 -7 31 c-14 63 -98 101 -155 71z m513 -180 c4 -51
13 -241 21 -423 18 -423 16 -437 -93 -536 -33 -30 -65 -65 -72 -79 -20 -37
-24 -520 -12 -1375 12 -792 14 -748 -49 -781 -43 -22 -91 -11 -124 28 -25 29
-26 35 -21 107 22 293 42 1497 30 1812 l-7 204 -83 86 c-63 66 -84 95 -90 124
-6 34 29 754 42 868 6 44 8 47 35 47 l29 0 0 -375 0 -375 60 0 60 0 0 374 0
373 40 0 40 0 0 -373 0 -374 60 0 60 0 0 374 c0 290 -3 375 -12 379 -7 3 8 6
34 6 l46 1 6 -92z"/>
<path d="M4960 3548 c-62 -17 -175 -150 -244 -286 -104 -205 -156 -599 -143
-1067 9 -284 40 -441 108 -534 l29 -41 0 -727 c0 -464 4 -741 10 -765 15 -52
67 -94 135 -108 77 -16 171 -5 200 24 l22 22 6 699 c4 385 7 1171 7 1748 l0
1047 -47 -1 c-27 0 -64 -5 -83 -11z m5 -3407 c-4 -10 -19 -12 -55 -9 -87 9
-80 -64 -80 793 l0 763 -26 17 c-35 23 -69 101 -91 210 -15 76 -18 140 -18
410 1 441 26 638 105 829 34 81 96 184 139 229 l26 28 3 -1628 c1 -895 0
-1634 -3 -1642z"/>
</g>
</svg>
