<svg id="Layer_1" data-name="Layer 1" xmlns="http://www.w3.org/2000/svg" viewBox="0 0 20 18"><defs><style>.cls-1{fill:#abafc0;}.cls-2{fill:none;}</style></defs><title>Artboard 1</title><path id="Instagram_Icon" data-name="Instagram Icon" class="cls-1" d="M17,9q0,2.09,0,2.89a4.27,4.27,0,0,1-1.13,2.94A4.28,4.28,0,0,1,12.89,16q-.8,0-2.89,0T7.11,16a4.29,4.29,0,0,1-2.94-1.13A4.28,4.28,0,0,1,3,11.89Q3,11.09,3,9T3,6.11A4.28,4.28,0,0,1,4.18,3.18,4.28,4.28,0,0,1,7.11,2Q7.91,2,10,2t2.89,0a4.28,4.28,0,0,1,2.93,1.13A4.27,4.27,0,0,1,17,6.11Q17,6.91,17,9ZM10.7,3.25H8.34l-.88,0a7.15,7.15,0,0,0-.94.09,3.63,3.63,0,0,0-.65.17A2.38,2.38,0,0,0,4.54,4.87a3.65,3.65,0,0,0-.17.65,7.15,7.15,0,0,0-.09.94q0,.55,0,.88t0,1c0,.42,0,.66,0,.7s0,.27,0,.7,0,.74,0,1,0,.51,0,.88a7.17,7.17,0,0,0,.09.94,3.65,3.65,0,0,0,.17.65,2.39,2.39,0,0,0,1.33,1.33,3.64,3.64,0,0,0,.65.17,7,7,0,0,0,.94.09l.88,0h3.32l.88,0a7,7,0,0,0,.94-.09,3.62,3.62,0,0,0,.65-.17,2.38,2.38,0,0,0,.8-.53,2.36,2.36,0,0,0,.53-.8,3.79,3.79,0,0,0,.17-.65,7.32,7.32,0,0,0,.09-.94c0-.37,0-.66,0-.88s0-.54,0-1,0-.65,0-.7,0-.28,0-.7,0-.74,0-1,0-.51,0-.88a7.3,7.3,0,0,0-.09-.94,3.79,3.79,0,0,0-.17-.65,2.37,2.37,0,0,0-.53-.8,2.39,2.39,0,0,0-.8-.53,3.61,3.61,0,0,0-.65-.17,7.14,7.14,0,0,0-.94-.09l-.88,0Zm1.85,3.2a3.47,3.47,0,0,1,1,2.54A3.58,3.58,0,0,1,10,12.59,3.58,3.58,0,0,1,6.41,9,3.58,3.58,0,0,1,10,5.41,3.46,3.46,0,0,1,12.54,6.46Zm-.89,4.19a2.33,2.33,0,0,0,0-3.3,2.33,2.33,0,0,0-3.3,0,2.33,2.33,0,0,0,0,3.3,2.33,2.33,0,0,0,3.3,0Zm2.68-6a.84.84,0,1,1-.59-.25A.81.81,0,0,1,14.33,4.67Z"/><rect class="cls-2" width="20" height="18"/></svg>