<svg id="Layer_1" data-name="Layer 1" xmlns="http://www.w3.org/2000/svg" viewBox="0 0 20 18"><defs><style>.cls-1{fill:#abafc0;}.cls-2{fill:none;}</style></defs><title>Artboard 1 copy 5</title><path class="cls-1" d="M8.24,0,6.87,4.07V7H5.7V4.2L4.28,0h1.2l.76,2.78h.08L7,0Zm5.92,1.83V5.72a1.21,1.21,0,0,1-.32.28.55.55,0,0,1-.29.12A.29.29,0,0,1,13.34,6a.43.43,0,0,1-.07-.26V1.83h-1V6.12a1.11,1.11,0,0,0,.18.68A.65.65,0,0,0,13,7a1.38,1.38,0,0,0,.61-.16,1.91,1.91,0,0,0,.6-.48V7h1V1.83ZM11.37,3V5.68a1.33,1.33,0,0,1-.4,1,1.64,1.64,0,0,1-1.13.37,1.52,1.52,0,0,1-1.09-.39,1.33,1.33,0,0,1-.41-1V3a1.17,1.17,0,0,1,.43-1A1.73,1.73,0,0,1,9.9,1.7,1.5,1.5,0,0,1,11,2.07,1.21,1.21,0,0,1,11.37,3ZM10.31,3a.32.32,0,0,0-.14-.26.5.5,0,0,0-.33-.1.46.46,0,0,0-.31.1A.33.33,0,0,0,9.41,3V5.75a.48.48,0,0,0,.1.33.43.43,0,0,0,.32.11.54.54,0,0,0,.35-.11.46.46,0,0,0,.13-.33Zm8.89,9v2.7A3.36,3.36,0,0,1,15.84,18H4.17A3.36,3.36,0,0,1,.8,14.64v-2.7A3.37,3.37,0,0,1,4.17,8.57H15.84A3.37,3.37,0,0,1,19.2,11.94ZM6.62,9.76H3.4v.91H4.48v5.41h1V10.67H6.62Zm3.07,1.66H8.76V15a1.47,1.47,0,0,1-.29.25.52.52,0,0,1-.26.09.25.25,0,0,1-.2-.07A.41.41,0,0,1,8,15V11.42H7v3.89a1,1,0,0,0,.17.62.54.54,0,0,0,.48.21A1.22,1.22,0,0,0,8.22,16a2.32,2.32,0,0,0,.54-.44v.52h.93Zm3.37,1.1a1.39,1.39,0,0,0-.23-.87.8.8,0,0,0-.68-.29,1,1,0,0,0-.43.1,1.71,1.71,0,0,0-.4.32v-2h-.94v6.31h.94v-.36a1.4,1.4,0,0,0,.4.31,1.07,1.07,0,0,0,.48.1.77.77,0,0,0,.63-.26,1.15,1.15,0,0,0,.22-.76Zm3.23.15a1.41,1.41,0,0,0-.35-1,1.32,1.32,0,0,0-1-.35,1.36,1.36,0,0,0-1,.38,1.31,1.31,0,0,0-.39,1v2.08a1.47,1.47,0,0,0,.36,1.06,1.26,1.26,0,0,0,1,.39,1.37,1.37,0,0,0,1-.37,1.46,1.46,0,0,0,.36-1.08v-.23h-1v.21a1,1,0,0,1-.09.53.41.41,0,0,1-.33.13.35.35,0,0,1-.31-.14,1.12,1.12,0,0,1-.09-.52v-.87h1.78Zm-1.06-.43a.42.42,0,0,0-.62,0,.64.64,0,0,0-.1.41v.47h.83v-.47A.64.64,0,0,0,15.23,12.25Zm-3.23,0a.35.35,0,0,0-.29-.12.41.41,0,0,0-.2,0,1,1,0,0,0-.2.14v2.91a1.17,1.17,0,0,0,.22.16.55.55,0,0,0,.23,0,.34.34,0,0,0,.25-.09A.57.57,0,0,0,12.1,15v-2.4A.56.56,0,0,0,12,12.21Z"/><rect class="cls-2" width="20" height="18"/></svg>