<?xml version="1.0" encoding="UTF-8"?>
<svg width="332px" height="41px" viewBox="0 0 332 41" version="1.1" xmlns="http://www.w3.org/2000/svg" xmlns:xlink="http://www.w3.org/1999/xlink">
    <!-- Generator: Sketch 49.1 (51147) - http://www.bohemiancoding.com/sketch -->
    <title>FLIGHT</title>
    <desc>Created with Sketch.</desc>
    <defs>
        <path d="M28.7260928,12.0013163 L14.0824465,5.94090238 C13.1925324,5.57260282 13.1923322,4.31214973 14.0821294,3.94356761 L23.403687,0.0822838877 C23.6681199,-0.0272525559 23.9652027,-0.0274343385 24.2297694,0.0817784148 L40.5963513,6.83787981 L51.5125269,2.08945923 C54.6555306,0.787133971 58.236471,2.27082873 59.5324139,5.39579755 C60.827595,8.52199119 59.3430137,12.102786 56.1798112,13.4125365 L44.7326514,17.6774992 L34.8347999,37.4732022 C34.7302094,37.6823832 34.5605941,37.8519984 34.3514131,37.9565889 L24.2631473,43.0007218 C23.38448,43.4400555 22.4227592,42.5742551 22.7676959,41.654424 L29.474263,23.770245 L12.8318924,30.4271932 C12.4304334,30.5877768 11.9719022,30.4936598 11.6661601,30.1879177 L0.316861062,18.8386187 C-0.223855231,18.2979024 -0.0474785562,17.3820519 0.655380908,17.0808265 L9.48261346,13.2977268 C9.77484928,13.1724829 10.107405,13.1822555 10.3917819,13.324444 L17.5064114,16.8817587 L28.7260928,12.0013163 Z M31.4822857,10.8024016 L37.8377423,8.03784544 L23.8180551,2.25053878 L17.32125,4.94172074 L31.4822857,10.8024016 Z M17.9057442,19.06549 C17.6123154,19.1931284 17.2774133,19.1841934 16.9912078,19.0410906 L9.87339695,15.4821852 L2.97436275,18.4389141 L12.6907857,28.155337 L30.9445291,20.8538397 C31.8164734,20.5050619 32.6877692,21.3576224 32.3580247,22.2369411 L25.7582977,39.8362129 L33.0623818,36.1841709 L42.9895187,16.3298971 C43.1118857,16.0851631 43.3225164,15.8959451 43.5789192,15.800415 L55.3887278,11.4010899 C57.4129514,10.5624547 58.3733196,8.2460563 57.535402,6.22356454 C56.6978547,4.20394698 54.386201,3.2438863 52.3656262,4.07580691 L17.9057442,19.06549 Z" id="path-1"></path>
    </defs>
    <g id="V3-part-2" stroke="none" stroke-width="1" fill="none" fill-rule="evenodd">
        <g id="1440-FLIGHTS-1-seats-allocated" transform="translate(-557.000000, -652.000000)">
            <g id="OUTBOUND" transform="translate(80.000000, 532.000000)">
                <g id="D/A" transform="translate(181.000000, 100.000000)">
                    <g id="FLIGHT" transform="translate(297.000000, 0.000000)">
                        <g id="ico/flight" transform="translate(162.000000, 40.000000) rotate(23.000000) translate(-162.000000, -40.000000) translate(132.000000, 10.000000)">
                            <g id="colours/primary/navy-blue" transform="translate(0.000000, 12.000000)">
                                <mask id="mask-2" fill="white">
                                    <use xlink:href="#path-1"></use>
                                </mask>
                                <use id="Mask" fill="#000000" fill-rule="nonzero" xlink:href="#path-1"></use>
                                <g id="colours/primary/gold" mask="url(#mask-2)" fill="#988642">
                                    <g transform="translate(0.000000, -12.000000)" id="Rectangle">
                                        <rect x="0" y="0" width="60" height="60"></rect>
                                    </g>
                                </g>
                            </g>
                        </g>
                        <g id="ARROW" transform="translate(0.000000, 34.000000)" stroke="#988642" stroke-width="2">
                            <path d="M12,6 L105.244839,6" id="Path-2" stroke-linecap="round" stroke-linejoin="round" stroke-dasharray="5,10"></path>
                            <circle id="Oval" cx="6" cy="6" r="6"></circle>
                            <circle id="Oval-Copy" cx="324" cy="6" r="6"></circle>
                            <path d="M230,6 L318.005682,6" id="Path-2-Copy" stroke-linecap="round" stroke-linejoin="round" stroke-dasharray="5,10"></path>
                        </g>
                    </g>
                </g>
            </g>
        </g>
    </g>
</svg>