<?xml version="1.0" encoding="UTF-8"?>
<svg width="30px" height="30px" viewBox="0 0 30 30" version="1.1" xmlns="http://www.w3.org/2000/svg" xmlns:xlink="http://www.w3.org/1999/xlink">
    <!-- Generator: Sketch 49.1 (51147) - http://www.bohemiancoding.com/sketch -->
    <title>ico/seat</title>
    <desc>Created with Sketch.</desc>
    <defs>
        <path d="M23.5523904,5.03618338 C23.9369475,5.61301889 24.0742892,6.32719619 23.9644158,6.95896842 L23.9369475,7.04137349 L23.3051752,8.55213317 C23.0854284,9.07403196 22.5635296,9.40365226 22.0141624,9.40365226 C21.904289,9.40365226 21.8218839,9.40365226 21.7120105,9.3761839 L19.9265672,8.99162689 C19.5694786,8.90922182 19.2673266,8.68947496 19.0475798,8.38732302 C18.8278329,8.08517109 18.7728962,7.70061408 18.8553013,7.34352543 L19.1574532,5.9975759 C19.4321368,4.73403145 20.6132762,3.855044 21.8493523,4.01985415 C22.5360612,4.10225922 23.1678334,4.48681623 23.5523904,5.03618338 Z M22.8656815,6.7117532 C22.9206182,6.35466455 22.8656815,5.97010754 22.6459346,5.66795561 C22.4261878,5.36580367 22.0965675,5.17352517 21.7120105,5.11858845 L21.5746687,5.11858845 C20.9428965,5.11858845 20.366061,5.58555054 20.2287192,6.24479112 L19.9265672,7.59074065 C19.8990989,7.67314572 19.8990989,7.75555079 19.9540356,7.81048751 C20.0089723,7.89289258 20.063909,7.92036094 20.1463141,7.9478293 L21.9317573,8.33238631 C22.0690991,8.35985466 22.2064409,8.30491795 22.2613776,8.16757616 L22.8656815,6.7117532 Z M21.5745588,9.73316268 C22.3162045,9.95290954 22.7556982,10.6945552 22.5908881,11.5186059 L19.6795168,21.2973413 C19.5693687,21.6818983 19.4048332,22.0389869 19.1848117,22.3411389 L19.1848117,24.1540505 C19.1848117,24.9231645 18.5258458,25.5 17.7567318,25.5 L8.77457881,25.5 C8.00519011,25.5 7.37341789,24.9231645 7.37341789,24.1540505 L7.37341789,23.7420251 C6.63177223,23.4948099 6,22.8081009 6,22.0117933 L6,21.9016451 C6,20.7205058 6.43976841,19.7316449 7.18113938,19.0449359 C8.03265847,18.2208852 9.40607636,17.8363282 10.9443044,17.9187333 L14.8997479,18.3032903 C15.064558,18.3032903 15.2018998,18.2208852 15.2296429,18.0560751 L16.1910354,13.2216441 C16.5206557,11.6559477 17.2073646,10.5022767 18.1687571,9.89797282 C18.9650648,9.40354238 19.9542004,9.29366895 21.0529347,9.59582089 L21.5745588,9.73316268 Z M18.058609,24.1265821 L18.058609,23.3025314 C17.5367102,23.6321517 16.904938,23.8244302 16.2731658,23.8244302 L8.44468384,23.8244302 L8.44468384,24.1265821 C8.44468384,24.2639239 8.58202562,24.3737973 8.74683577,24.3737973 L17.7289887,24.3737973 C17.8940736,24.3737973 18.058609,24.2913923 18.058609,24.1265821 Z M21.5196221,11.1340489 C21.5473651,10.9967071 21.437217,10.8593653 21.2998752,10.8044286 L20.7782511,10.6670868 C19.9813941,10.44734 19.2946851,10.529745 18.745318,10.8593653 C18.0314154,11.2988591 17.5367102,12.2053149 17.2620267,13.4688593 L16.3006341,18.2483536 C16.1910354,18.9625309 15.5043265,19.4569613 14.7624061,19.3745562 L10.8347056,18.9625309 L10.4773423,18.9625309 C9.43354471,18.9625309 8.49989523,19.2649575 7.92278504,19.8143246 C7.40116093,20.3084804 7.07126595,20.9951893 7.07126595,21.8744515 L7.07126595,21.9840502 C7.07126595,22.3686072 7.51075967,22.7256959 7.89531668,22.7256959 L16.2731658,22.7256959 C17.3447064,22.7256959 18.3060989,21.9840502 18.5807825,20.9402526 L21.5196221,11.1340489 Z" id="path-1"></path>
    </defs>
    <g id="ico/seat" stroke="none" stroke-width="1" fill="none" fill-rule="evenodd">
        <mask id="mask-2" fill="white">
            <use xlink:href="#path-1"></use>
        </mask>
        <use id="Combined-Shape" fill="#000000" xlink:href="#path-1"></use>
        <g id="colours/primary/gold" mask="url(#mask-2)" fill="#988642">
            <g transform="translate(-1.000000, -1.000000)" id="Rectangle">
                <rect x="0" y="0" width="32" height="32"></rect>
            </g>
        </g>
    </g>
</svg>