<?xml version="1.0" encoding="utf-8"?>
<!-- Generator: Adobe Illustrator 22.0.1, SVG Export Plug-In . SVG Version: 6.00 Build 0)  -->
<svg version="1.1" id="Layer_1" xmlns="http://www.w3.org/2000/svg" xmlns:xlink="http://www.w3.org/1999/xlink" x="0px" y="0px"
	 viewBox="0 0 1009.1 251.6" style="enable-background:new 0 0 1009.1 251.6;" xml:space="preserve">
<style type="text/css">
	.st0{fill:url(#SVGID_1_);}
	.st1{fill:url(#SVGID_2_);}
	.st2{fill:#F1F1F2;}
	.st3{fill:url(#SVGID_3_);}
	.st4{fill:url(#SVGID_4_);}
	.st5{fill:url(#SVGID_5_);}
	.st6{fill:url(#SVGID_6_);}
	.st7{fill:url(#SVGID_7_);}
	.st8{fill:url(#SVGID_8_);}
	.st9{fill:#FFFFFF;}
</style>
<g>
	
		<linearGradient id="SVGID_1_" gradientUnits="userSpaceOnUse" x1="405.3" y1="109.5" x2="1009" y2="109.5" gradientTransform="matrix(1 0 0 -1 0 254)">
		<stop  offset="0" style="stop-color:#96131F"/>
		<stop  offset="8.659404e-02" style="stop-color:#AC1520"/>
		<stop  offset="0.2444" style="stop-color:#CF1922"/>
		<stop  offset="0.3742" style="stop-color:#E41B24"/>
		<stop  offset="0.4588" style="stop-color:#EC1C24"/>
		<stop  offset="1" style="stop-color:#96131F"/>
	</linearGradient>
	<path class="st0" d="M405.3,251.6c101.7-50.8,174.3-84,281.1-116c111.7-33.4,280.1-58.4,322.6-60.1V37.4
		c-133.3,0-295.3,16-409.7,65.4C497.6,146.7,441,183.4,405.3,251.6z"/>
	
		<linearGradient id="SVGID_2_" gradientUnits="userSpaceOnUse" x1="657.1" y1="75.75" x2="405.4" y2="75.75" gradientTransform="matrix(1 0 0 -1 0 254)">
		<stop  offset="0" style="stop-color:#E47F65"/>
		<stop  offset="0.439" style="stop-color:#E27E64"/>
		<stop  offset="0.5971" style="stop-color:#DB7961"/>
		<stop  offset="0.7094" style="stop-color:#D0715C"/>
		<stop  offset="0.8" style="stop-color:#BF6654"/>
		<stop  offset="0.8037" style="stop-color:#BE6554"/>
	</linearGradient>
	<path class="st1" d="M657.1,104.8l-55,4.7c-82.9,37.8-154.4,66.5-196.7,142.2c0,0,73.8-50.2,135-81.4c-0.2,0.1,77.7-43.9,52.3-30.2
		c9.9-7.6,16.2-10.8,39.2-24.8C631.9,115.3,657.1,104.8,657.1,104.8z"/>
	<path class="st2" d="M631.8,97.9c-23,14-81.3,53.8-110.5,82.4c81.5-39.4,168.9-61.5,228.6-73.5c88.2-17.6,202.1-31.3,259.3-31.3
		V37.4c-133.3,0-268-41.3-382.4,8C612.5,51.6,645.3,91.7,631.8,97.9z"/>
	
		<linearGradient id="SVGID_3_" gradientUnits="userSpaceOnUse" x1="585.6" y1="162.45" x2="1008.9" y2="162.45" gradientTransform="matrix(1 0 0 -1 0 254)">
		<stop  offset="0.6626" style="stop-color:#1C468F"/>
		<stop  offset="0.9141" style="stop-color:#07195A"/>
	</linearGradient>
	<path class="st3" d="M585.6,142c0,0,83.8-55.2,232.2-82.1c104.7-19,191.1-18.8,191.1-18.8v34.4C806.1,80.8,688,104.1,585.6,142z"/>
	
		<linearGradient id="SVGID_4_" gradientUnits="userSpaceOnUse" x1="585.6" y1="150.8" x2="794.9" y2="150.8" gradientTransform="matrix(1 0 0 -1 0 254)">
		<stop  offset="0" style="stop-color:#A4AFCE"/>
		<stop  offset="0.454" style="stop-color:#5C7AAB"/>
		<stop  offset="1" style="stop-color:#4F6B9F"/>
	</linearGradient>
	<path class="st4" d="M585.6,142c17.4-6.4,35.2-12.5,53.9-18c39.4-16.4,90.8-36.5,155.4-59.6C660.8,92.5,585.6,142,585.6,142z"/>
	
		<linearGradient id="SVGID_5_" gradientUnits="userSpaceOnUse" x1="84.1011" y1="109.5" x2="687.8011" y2="109.5" gradientTransform="matrix(-1 0 0 -1 489.4011 254)">
		<stop  offset="0" style="stop-color:#96131F"/>
		<stop  offset="8.659404e-02" style="stop-color:#AC1520"/>
		<stop  offset="0.2444" style="stop-color:#CF1922"/>
		<stop  offset="0.3742" style="stop-color:#E41B24"/>
		<stop  offset="0.4588" style="stop-color:#EC1C24"/>
		<stop  offset="1" style="stop-color:#96131F"/>
	</linearGradient>
	<path class="st5" d="M405.3,251.6c-101.7-50.8-174.3-84-281.1-116C12.5,102.3-155.9,77.3-198.4,75.5V37.4
		c133.3,0,295.3,16,409.7,65.4C313.1,146.7,369.7,183.4,405.3,251.6z"/>
	
		<linearGradient id="SVGID_6_" gradientUnits="userSpaceOnUse" x1="335.8011" y1="75.75" x2="84.1011" y2="75.75" gradientTransform="matrix(-1 0 0 -1 489.4011 254)">
		<stop  offset="0" style="stop-color:#E47F65"/>
		<stop  offset="0.439" style="stop-color:#E27E64"/>
		<stop  offset="0.5971" style="stop-color:#DB7961"/>
		<stop  offset="0.7094" style="stop-color:#D0715C"/>
		<stop  offset="0.8" style="stop-color:#BF6654"/>
		<stop  offset="0.8037" style="stop-color:#BE6554"/>
	</linearGradient>
	<path class="st6" d="M153.6,104.8l55,4.7C291.5,147.3,363,176,405.3,251.7c0,0-73.8-50.2-135-81.4c0.2,0.1-77.7-43.9-52.3-30.2
		c-9.9-7.6-16.2-10.8-39.2-24.8C178.8,115.3,153.6,104.8,153.6,104.8z"/>
	<path class="st2" d="M178.9,97.9c23,14,81.3,53.8,110.5,82.4c-81.5-39.4-168.9-61.5-228.6-73.5c-88.2-17.6-202.1-31.3-259.3-31.3
		V37.4c133.3,0,268-41.3,382.4,8C198.2,51.6,165.4,91.7,178.9,97.9z"/>
	
		<linearGradient id="SVGID_7_" gradientUnits="userSpaceOnUse" x1="264.3011" y1="162.45" x2="687.6011" y2="162.45" gradientTransform="matrix(-1 0 0 -1 489.4011 254)">
		<stop  offset="0.6626" style="stop-color:#1C468F"/>
		<stop  offset="0.9141" style="stop-color:#07195A"/>
	</linearGradient>
	<path class="st7" d="M225.1,142c0,0-83.8-55.2-232.2-82.1c-104.7-19-191.1-18.8-191.1-18.8v34.4C4.6,80.8,121.6,103.7,225.1,142z"
		/>
	
		<linearGradient id="SVGID_8_" gradientUnits="userSpaceOnUse" x1="264.3011" y1="150.8" x2="473.6011" y2="150.8" gradientTransform="matrix(-1 0 0 -1 489.4011 254)">
		<stop  offset="0" style="stop-color:#A4AFCE"/>
		<stop  offset="0.454" style="stop-color:#5C7AAB"/>
		<stop  offset="1" style="stop-color:#4F6B9F"/>
	</linearGradient>
	<path class="st8" d="M225.1,142c-17.4-6.4-35.2-12.5-53.9-18c-39.4-16.4-90.8-36.5-155.4-59.6C149.9,92.5,225.1,142,225.1,142z"/>
	<path class="st9" d="M411,0h-11.3h-598.1v37.4c133.3,0,269.8,25.4,384.2,74.8c101.8,43.9,173.2,99.1,219.6,139.4
		c46.4-40.3,117.8-95.5,219.6-139.4c114.4-49.4,251-74.8,384.2-74.8V0H411z"/>
</g>
<rect x="-198.4" y="20" class="st9" width="1207.6" height="50.4"/>
</svg>
