<?xml version="1.0" encoding="utf-8"?>
<!-- Generator: Adobe Illustrator 22.0.1, SVG Export Plug-In . SVG Version: 6.00 Build 0)  -->
<svg version="1.1" id="Layer_1" xmlns="http://www.w3.org/2000/svg" xmlns:xlink="http://www.w3.org/1999/xlink" x="0px" y="0px"
	 viewBox="0 0 400 99.7" style="enable-background:new 0 0 400 99.7;" xml:space="preserve">
<style type="text/css">
	.st0{fill:url(#SVGID_1_);}
	.st1{fill:url(#SVGID_2_);}
	.st2{fill:#F1F1F2;}
	.st3{fill:url(#SVGID_3_);}
	.st4{fill:url(#SVGID_4_);}
	.st5{fill:url(#SVGID_5_);}
	.st6{fill:url(#SVGID_6_);}
	.st7{fill:url(#SVGID_7_);}
	.st8{fill:url(#SVGID_8_);}
	.st9{fill:#FFFFFF;}
</style>
<g>
	<g>
		
			<linearGradient id="SVGID_1_" gradientUnits="userSpaceOnUse" x1="160.7" y1="-270.25" x2="399.9" y2="-270.25" gradientTransform="matrix(1 0 0 -1 0 -240)">
			<stop  offset="0" style="stop-color:#96131F"/>
			<stop  offset="8.659404e-02" style="stop-color:#AC1520"/>
			<stop  offset="0.2444" style="stop-color:#CF1922"/>
			<stop  offset="0.3742" style="stop-color:#E41B24"/>
			<stop  offset="0.4588" style="stop-color:#EC1C24"/>
			<stop  offset="1" style="stop-color:#96131F"/>
		</linearGradient>
		<path class="st0" d="M160.7,72.7c40.3-20.1,69.1-33.3,111.4-46c44.3-13.2,111-23.1,127.8-23.8v-15.1c-52.8,0-117,6.3-162.3,25.9
			C197.3,31.1,174.9,45.7,160.7,72.7z"/>
		
			<linearGradient id="SVGID_2_" gradientUnits="userSpaceOnUse" x1="260.5" y1="-283.6" x2="160.8" y2="-283.6" gradientTransform="matrix(1 0 0 -1 0 -240)">
			<stop  offset="0" style="stop-color:#E47F65"/>
			<stop  offset="0.439" style="stop-color:#E27E64"/>
			<stop  offset="0.5971" style="stop-color:#DB7961"/>
			<stop  offset="0.7094" style="stop-color:#D0715C"/>
			<stop  offset="0.8" style="stop-color:#BF6654"/>
			<stop  offset="0.8037" style="stop-color:#BE6554"/>
		</linearGradient>
		<path class="st1" d="M260.5,14.5l-21.8,1.9c-32.8,15-61.2,26.3-77.9,56.3c0,0,29.2-19.9,53.5-32.3c-0.1,0,30.8-17.4,20.7-12
			c3.9-3,6.4-4.3,15.5-9.8C250.5,18.7,260.5,14.5,260.5,14.5z"/>
		<path class="st2" d="M250.5,11.8c-9.1,5.5-32.2,21.3-43.8,32.6C239,28.8,273.6,20,297.3,15.3c34.9-7,80.1-12.4,102.7-12.4v-15.1
			c-52.8,0-106.2-16.4-151.5,3.2C242.8-6.6,255.8,9.3,250.5,11.8z"/>
		
			<linearGradient id="SVGID_3_" gradientUnits="userSpaceOnUse" x1="232.2" y1="-249.35" x2="400" y2="-249.35" gradientTransform="matrix(1 0 0 -1 0 -240)">
			<stop  offset="0.6626" style="stop-color:#1C468F"/>
			<stop  offset="0.9141" style="stop-color:#07195A"/>
		</linearGradient>
		<path class="st3" d="M232.2,29.3c0,0,33.2-21.9,92-32.5c41.5-7.5,75.8-7.4,75.8-7.4V3C319.6,5,272.7,14.2,232.2,29.3z"/>
		
			<linearGradient id="SVGID_4_" gradientUnits="userSpaceOnUse" x1="232.2" y1="-253.95" x2="315.2" y2="-253.95" gradientTransform="matrix(1 0 0 -1 0 -240)">
			<stop  offset="0" style="stop-color:#A4AFCE"/>
			<stop  offset="0.454" style="stop-color:#5C7AAB"/>
			<stop  offset="1" style="stop-color:#4F6B9F"/>
		</linearGradient>
		<path class="st4" d="M232.2,29.3c6.9-2.5,13.9-5,21.4-7.1c15.6-6.5,36-14.5,61.6-23.6C262,9.7,232.2,29.3,232.2,29.3z"/>
		
			<linearGradient id="SVGID_5_" gradientUnits="userSpaceOnUse" x1="-1161.4988" y1="-270.25" x2="-922.2988" y2="-270.25" gradientTransform="matrix(-1 0 0 -1 -1000.7988 -240)">
			<stop  offset="0" style="stop-color:#96131F"/>
			<stop  offset="8.659404e-02" style="stop-color:#AC1520"/>
			<stop  offset="0.2444" style="stop-color:#CF1922"/>
			<stop  offset="0.3742" style="stop-color:#E41B24"/>
			<stop  offset="0.4588" style="stop-color:#EC1C24"/>
			<stop  offset="1" style="stop-color:#96131F"/>
		</linearGradient>
		<path class="st5" d="M160.7,72.7c-40.3-20.1-69.1-33.3-111.4-46C5.1,13.5-61.6,3.6-78.5,2.9v-15.1c52.8,0,117,6.3,162.3,25.9
			C124.2,31.1,146.6,45.7,160.7,72.7z"/>
		
			<linearGradient id="SVGID_6_" gradientUnits="userSpaceOnUse" x1="-1061.7988" y1="-283.6" x2="-1161.4988" y2="-283.6" gradientTransform="matrix(-1 0 0 -1 -1000.7988 -240)">
			<stop  offset="0" style="stop-color:#E47F65"/>
			<stop  offset="0.439" style="stop-color:#E27E64"/>
			<stop  offset="0.5971" style="stop-color:#DB7961"/>
			<stop  offset="0.7094" style="stop-color:#D0715C"/>
			<stop  offset="0.8" style="stop-color:#BF6654"/>
			<stop  offset="0.8037" style="stop-color:#BE6554"/>
		</linearGradient>
		<path class="st6" d="M61,14.5l21.8,1.9c32.8,15,61.2,26.3,77.9,56.3c0,0-29.2-19.9-53.5-32.3c0.1,0-30.8-17.4-20.7-12
			c-3.9-3-6.4-4.3-15.5-9.8C71,18.7,61,14.5,61,14.5z"/>
		<path class="st2" d="M71,11.8c9.1,5.5,32.2,21.3,43.8,32.6C82.5,28.8,47.9,20.1,24.2,15.3C-10.7,8.3-55.9,2.9-78.5,2.9v-15.1
			C-25.7-12.2,27.7-28.6,73-9C78.7-6.6,65.7,9.3,71,11.8z"/>
		
			<linearGradient id="SVGID_7_" gradientUnits="userSpaceOnUse" x1="-1090.0989" y1="-249.35" x2="-922.3988" y2="-249.35" gradientTransform="matrix(-1 0 0 -1 -1000.7988 -240)">
			<stop  offset="0.6626" style="stop-color:#1C468F"/>
			<stop  offset="0.9141" style="stop-color:#07195A"/>
		</linearGradient>
		<path class="st7" d="M89.3,29.3c0,0-33.2-21.9-92-32.5c-41.5-7.5-75.7-7.4-75.7-7.4V3C2,5,48.3,14.1,89.3,29.3z"/>
		
			<linearGradient id="SVGID_8_" gradientUnits="userSpaceOnUse" x1="-1090.0989" y1="-253.95" x2="-1007.0988" y2="-253.95" gradientTransform="matrix(-1 0 0 -1 -1000.7988 -240)">
			<stop  offset="0" style="stop-color:#A4AFCE"/>
			<stop  offset="0.454" style="stop-color:#5C7AAB"/>
			<stop  offset="1" style="stop-color:#4F6B9F"/>
		</linearGradient>
		<path class="st8" d="M89.3,29.3c-6.9-2.5-13.9-5-21.4-7.1C52.3,15.7,31.9,7.7,6.3-1.4C59.5,9.7,89.3,29.3,89.3,29.3z"/>
		<path class="st9" d="M163-27h-4.5h-237v14.8c52.8,0,106.9,10.1,152.2,29.6c40.3,17.4,68.6,39.3,87,55.2c18.4-16,46.7-37.8,87-55.2
			C293-2.2,347.3-12.2,400-12.2V-27H163z"/>
	</g>
</g>
</svg>
